<?xml version="1.0" encoding="utf-8" standalone="no"?>
<!DOCTYPE svg PUBLIC "-//W3C//DTD SVG 1.1//EN"
  "http://www.w3.org/Graphics/SVG/1.1/DTD/svg11.dtd">
<svg height="325.986375pt" version="1.1" viewBox="0 0 840.91375 325.986375" width="840.91375pt" xmlns="http://www.w3.org/2000/svg" xmlns:xlink="http://www.w3.org/1999/xlink">
 <metadata>
  <rdf:RDF xmlns:cc="http://creativecommons.org/ns#" xmlns:dc="http://purl.org/dc/elements/1.1/" xmlns:rdf="http://www.w3.org/1999/02/22-rdf-syntax-ns#">
   <cc:Work>
    <dc:type rdf:resource="http://purl.org/dc/dcmitype/StillImage"/>
    <dc:date>2022-04-07T17:25:12.643162</dc:date>
    <dc:format>image/svg+xml</dc:format>
    <dc:creator>
     <cc:Agent>
      <dc:title>Matplotlib v3.4.3, https://matplotlib.org/</dc:title>
     </cc:Agent>
    </dc:creator>
   </cc:Work>
  </rdf:RDF>
 </metadata>
 <defs>
  <style type="text/css">*{stroke-linecap:butt;stroke-linejoin:round;}</style>
 </defs>
 <g id="figure_1">
  <g id="patch_1">
   <path d="M 0 325.986375 
L 840.91375 325.986375 
L 840.91375 0 
L 0 0 
z
" style="fill:#ffffff;"/>
  </g>
  <g id="axes_1">
   <g id="patch_2">
    <path d="M 380.354687 288.430125 
L 737.474688 288.430125 
L 737.474688 22.318125 
L 380.354687 22.318125 
z
" style="fill:#ffffff;"/>
   </g>
   <g id="PathCollection_1">
    <path clip-path="url(#p7379d7372f)" d="M 721.24196 36.650193 
C 721.834972 36.650193 722.403776 36.414587 722.823099 35.995264 
C 723.242422 35.575941 723.478028 35.007137 723.478028 34.414125 
C 723.478028 33.821113 723.242422 33.252309 722.823099 32.832986 
C 722.403776 32.413663 721.834972 32.178057 721.24196 32.178057 
C 720.648948 32.178057 720.080144 32.413663 719.660821 32.832986 
C 719.241498 33.252309 719.005892 33.821113 719.005892 34.414125 
C 719.005892 35.007137 719.241498 35.575941 719.660821 35.995264 
C 720.080144 36.414587 720.648948 36.650193 721.24196 36.650193 
z
" style="fill:#5b7ae5;stroke:#ffffff;stroke-width:0.383571;"/>
    <path clip-path="url(#p7379d7372f)" d="M 690.470141 61.080128 
C 691.126254 61.080128 691.755583 60.819451 692.219525 60.355509 
C 692.683467 59.891567 692.944144 59.262238 692.944144 58.606125 
C 692.944144 57.950012 692.683467 57.320683 692.219525 56.856741 
C 691.755583 56.392799 691.126254 56.132122 690.470141 56.132122 
C 689.814028 56.132122 689.184699 56.392799 688.720757 56.856741 
C 688.256815 57.320683 687.996138 57.950012 687.996138 58.606125 
C 687.996138 59.262238 688.256815 59.891567 688.720757 60.355509 
C 689.184699 60.819451 689.814028 61.080128 690.470141 61.080128 
z
" style="fill:#a2c1ff;stroke:#ffffff;stroke-width:0.383571;"/>
    <path clip-path="url(#p7379d7372f)" d="M 542.417049 85.272128 
C 543.073162 85.272128 543.702491 85.011451 544.166433 84.547509 
C 544.630375 84.083567 544.891052 83.454238 544.891052 82.798125 
C 544.891052 82.142012 544.630375 81.512683 544.166433 81.048741 
C 543.702491 80.584799 543.073162 80.324122 542.417049 80.324122 
C 541.760936 80.324122 541.131607 80.584799 540.667665 81.048741 
C 540.203723 81.512683 539.943046 82.142012 539.943046 82.798125 
C 539.943046 83.454238 540.203723 84.083567 540.667665 84.547509 
C 541.131607 85.011451 541.760936 85.272128 542.417049 85.272128 
z
" style="fill:#6788ee;stroke:#ffffff;stroke-width:0.383571;"/>
    <path clip-path="url(#p7379d7372f)" d="M 489.814095 109.387442 
C 490.449871 109.387442 491.059693 109.134845 491.509254 108.685284 
C 491.958815 108.235722 492.211412 107.625901 492.211412 106.990125 
C 492.211412 106.354349 491.958815 105.744528 491.509254 105.294966 
C 491.059693 104.845405 490.449871 104.592808 489.814095 104.592808 
C 489.17832 104.592808 488.568498 104.845405 488.118937 105.294966 
C 487.669375 105.744528 487.416779 106.354349 487.416779 106.990125 
C 487.416779 107.625901 487.669375 108.235722 488.118937 108.685284 
C 488.568498 109.134845 489.17832 109.387442 489.814095 109.387442 
z
" style="fill:#3b4cc0;stroke:#ffffff;stroke-width:0.383571;"/>
    <path clip-path="url(#p7379d7372f)" d="M 461.637464 134.868852 
C 462.615195 134.868852 463.553013 134.480395 464.244374 133.789034 
C 464.935734 133.097674 465.324191 132.159856 465.324191 131.182125 
C 465.324191 130.204394 464.935734 129.266576 464.244374 128.575216 
C 463.553013 127.883855 462.615195 127.495398 461.637464 127.495398 
C 460.659733 127.495398 459.721915 127.883855 459.030555 128.575216 
C 458.339194 129.266576 457.950737 130.204394 457.950737 131.182125 
C 457.950737 132.159856 458.339194 133.097674 459.030555 133.789034 
C 459.721915 134.480395 460.659733 134.868852 461.637464 134.868852 
z
" style="fill:#f6a283;stroke:#ffffff;stroke-width:0.383571;"/>
    <path clip-path="url(#p7379d7372f)" d="M 444.724962 159.669271 
C 445.864048 159.669271 446.956633 159.216707 447.762089 158.411252 
C 448.567544 157.605796 449.020108 156.513211 449.020108 155.374125 
C 449.020108 154.235039 448.567544 153.142454 447.762089 152.336998 
C 446.956633 151.531543 445.864048 151.078979 444.724962 151.078979 
C 443.585876 151.078979 442.493291 151.531543 441.687836 152.336998 
C 440.88238 153.142454 440.429817 154.235039 440.429817 155.374125 
C 440.429817 156.513211 440.88238 157.605796 441.687836 158.411252 
C 442.493291 159.216707 443.585876 159.669271 444.724962 159.669271 
z
" style="fill:#b40426;stroke:#ffffff;stroke-width:0.383571;"/>
    <path clip-path="url(#p7379d7372f)" d="M 442.80046 182.521735 
C 443.584297 182.521735 444.336136 182.210314 444.890392 181.656057 
C 445.444649 181.101801 445.75607 180.349962 445.75607 179.566125 
C 445.75607 178.782288 445.444649 178.030449 444.890392 177.476193 
C 444.336136 176.921936 443.584297 176.610515 442.80046 176.610515 
C 442.016623 176.610515 441.264784 176.921936 440.710528 177.476193 
C 440.156272 178.030449 439.84485 178.782288 439.84485 179.566125 
C 439.84485 180.349962 440.156272 181.101801 440.710528 181.656057 
C 441.264784 182.210314 442.016623 182.521735 442.80046 182.521735 
z
" style="fill:#6788ee;stroke:#ffffff;stroke-width:0.383571;"/>
    <path clip-path="url(#p7379d7372f)" d="M 408.319796 208.223831 
C 409.504115 208.223831 410.640087 207.753296 411.477527 206.915856 
C 412.314967 206.078416 412.785502 204.942444 412.785502 203.758125 
C 412.785502 202.573806 412.314967 201.437834 411.477527 200.600394 
C 410.640087 199.762954 409.504115 199.292419 408.319796 199.292419 
C 407.135477 199.292419 405.999506 199.762954 405.162066 200.600394 
C 404.324626 201.437834 403.854091 202.573806 403.854091 203.758125 
C 403.854091 204.942444 404.324626 206.078416 405.162066 206.915856 
C 405.999506 207.753296 407.135477 208.223831 408.319796 208.223831 
z
" style="fill:#a7c5fe;stroke:#ffffff;stroke-width:0.383571;"/>
    <path clip-path="url(#p7379d7372f)" d="M 407.032031 232.457463 
C 408.22739 232.457463 409.373952 231.982541 410.219199 231.137294 
C 411.064447 230.292047 411.539368 229.145485 411.539368 227.950125 
C 411.539368 226.754765 411.064447 225.608203 410.219199 224.762956 
C 409.373952 223.917709 408.22739 223.442787 407.032031 223.442787 
C 405.836671 223.442787 404.690109 223.917709 403.844862 224.762956 
C 402.999614 225.608203 402.524693 226.754765 402.524693 227.950125 
C 402.524693 229.145485 402.999614 230.292047 403.844862 231.137294 
C 404.690109 231.982541 405.836671 232.457463 407.032031 232.457463 
z
" style="fill:#a2c1ff;stroke:#ffffff;stroke-width:0.383571;"/>
    <path clip-path="url(#p7379d7372f)" d="M 404.28025 256.81228 
C 405.518789 256.81228 406.706768 256.320203 407.582548 255.444423 
C 408.458327 254.568643 408.950404 253.380665 408.950404 252.142125 
C 408.950404 250.903585 408.458327 249.715607 407.582548 248.839827 
C 406.706768 247.964047 405.518789 247.47197 404.28025 247.47197 
C 403.04171 247.47197 401.853731 247.964047 400.977952 248.839827 
C 400.102172 249.715607 399.610095 250.903585 399.610095 252.142125 
C 399.610095 253.380665 400.102172 254.568643 400.977952 255.444423 
C 401.853731 256.320203 403.04171 256.81228 404.28025 256.81228 
z
" style="fill:#97b8ff;stroke:#ffffff;stroke-width:0.383571;"/>
    <path clip-path="url(#p7379d7372f)" d="M 396.587415 282.457849 
C 398.211445 282.457849 399.769179 281.812615 400.917542 280.664252 
C 402.065905 279.515889 402.711139 277.958156 402.711139 276.334125 
C 402.711139 274.710094 402.065905 273.152361 400.917542 272.003998 
C 399.769179 270.855635 398.211445 270.210401 396.587415 270.210401 
C 394.963384 270.210401 393.405651 270.855635 392.257288 272.003998 
C 391.108925 273.152361 390.46369 274.710094 390.46369 276.334125 
C 390.46369 277.958156 391.108925 279.515889 392.257288 280.664252 
C 393.405651 281.812615 394.963384 282.457849 396.587415 282.457849 
z
" style="fill:#a7c5fe;stroke:#ffffff;stroke-width:0.383571;"/>
   </g>
   <g id="PathCollection_2"/>
   <g id="PathCollection_3"/>
   <g id="PathCollection_4"/>
   <g id="PathCollection_5"/>
   <g id="PathCollection_6"/>
   <g id="PathCollection_7"/>
   <g id="PathCollection_8"/>
   <g id="PathCollection_9"/>
   <g id="PathCollection_10"/>
   <g id="PathCollection_11"/>
   <g id="PathCollection_12"/>
   <g id="matplotlib.axis_1">
    <g id="xtick_1">
     <g id="line2d_1">
      <defs>
       <path d="M 0 0 
L 0 3.5 
" id="m68e39201f5" style="stroke:#000000;stroke-width:0.8;"/>
      </defs>
      <g>
       <use style="stroke:#000000;stroke-width:0.8;" x="427.44623" xlink:href="#m68e39201f5" y="288.430125"/>
      </g>
     </g>
     <g id="text_1">
      <!-- 5 -->
      <g transform="translate(424.26498 303.028562)scale(0.1 -0.1)">
       <defs>
        <path d="M 691 4666 
L 3169 4666 
L 3169 4134 
L 1269 4134 
L 1269 2991 
Q 1406 3038 1543 3061 
Q 1681 3084 1819 3084 
Q 2600 3084 3056 2656 
Q 3513 2228 3513 1497 
Q 3513 744 3044 326 
Q 2575 -91 1722 -91 
Q 1428 -91 1123 -41 
Q 819 9 494 109 
L 494 744 
Q 775 591 1075 516 
Q 1375 441 1709 441 
Q 2250 441 2565 725 
Q 2881 1009 2881 1497 
Q 2881 1984 2565 2268 
Q 2250 2553 1709 2553 
Q 1456 2553 1204 2497 
Q 953 2441 691 2322 
L 691 4666 
z
" id="DejaVuSans-35" transform="scale(0.015625)"/>
       </defs>
       <use xlink:href="#DejaVuSans-35"/>
      </g>
     </g>
    </g>
    <g id="xtick_2">
     <g id="line2d_2">
      <g>
       <use style="stroke:#000000;stroke-width:0.8;" x="478.294873" xlink:href="#m68e39201f5" y="288.430125"/>
      </g>
     </g>
     <g id="text_2">
      <!-- 10 -->
      <g transform="translate(471.932373 303.028562)scale(0.1 -0.1)">
       <defs>
        <path d="M 794 531 
L 1825 531 
L 1825 4091 
L 703 3866 
L 703 4441 
L 1819 4666 
L 2450 4666 
L 2450 531 
L 3481 531 
L 3481 0 
L 794 0 
L 794 531 
z
" id="DejaVuSans-31" transform="scale(0.015625)"/>
        <path d="M 2034 4250 
Q 1547 4250 1301 3770 
Q 1056 3291 1056 2328 
Q 1056 1369 1301 889 
Q 1547 409 2034 409 
Q 2525 409 2770 889 
Q 3016 1369 3016 2328 
Q 3016 3291 2770 3770 
Q 2525 4250 2034 4250 
z
M 2034 4750 
Q 2819 4750 3233 4129 
Q 3647 3509 3647 2328 
Q 3647 1150 3233 529 
Q 2819 -91 2034 -91 
Q 1250 -91 836 529 
Q 422 1150 422 2328 
Q 422 3509 836 4129 
Q 1250 4750 2034 4750 
z
" id="DejaVuSans-30" transform="scale(0.015625)"/>
       </defs>
       <use xlink:href="#DejaVuSans-31"/>
       <use x="63.623047" xlink:href="#DejaVuSans-30"/>
      </g>
     </g>
    </g>
    <g id="xtick_3">
     <g id="line2d_3">
      <g>
       <use style="stroke:#000000;stroke-width:0.8;" x="529.143517" xlink:href="#m68e39201f5" y="288.430125"/>
      </g>
     </g>
     <g id="text_3">
      <!-- 15 -->
      <g transform="translate(522.781017 303.028562)scale(0.1 -0.1)">
       <use xlink:href="#DejaVuSans-31"/>
       <use x="63.623047" xlink:href="#DejaVuSans-35"/>
      </g>
     </g>
    </g>
    <g id="xtick_4">
     <g id="line2d_4">
      <g>
       <use style="stroke:#000000;stroke-width:0.8;" x="579.992161" xlink:href="#m68e39201f5" y="288.430125"/>
      </g>
     </g>
     <g id="text_4">
      <!-- 20 -->
      <g transform="translate(573.629661 303.028562)scale(0.1 -0.1)">
       <defs>
        <path d="M 1228 531 
L 3431 531 
L 3431 0 
L 469 0 
L 469 531 
Q 828 903 1448 1529 
Q 2069 2156 2228 2338 
Q 2531 2678 2651 2914 
Q 2772 3150 2772 3378 
Q 2772 3750 2511 3984 
Q 2250 4219 1831 4219 
Q 1534 4219 1204 4116 
Q 875 4013 500 3803 
L 500 4441 
Q 881 4594 1212 4672 
Q 1544 4750 1819 4750 
Q 2544 4750 2975 4387 
Q 3406 4025 3406 3419 
Q 3406 3131 3298 2873 
Q 3191 2616 2906 2266 
Q 2828 2175 2409 1742 
Q 1991 1309 1228 531 
z
" id="DejaVuSans-32" transform="scale(0.015625)"/>
       </defs>
       <use xlink:href="#DejaVuSans-32"/>
       <use x="63.623047" xlink:href="#DejaVuSans-30"/>
      </g>
     </g>
    </g>
    <g id="xtick_5">
     <g id="line2d_5">
      <g>
       <use style="stroke:#000000;stroke-width:0.8;" x="630.840805" xlink:href="#m68e39201f5" y="288.430125"/>
      </g>
     </g>
     <g id="text_5">
      <!-- 25 -->
      <g transform="translate(624.478305 303.028562)scale(0.1 -0.1)">
       <use xlink:href="#DejaVuSans-32"/>
       <use x="63.623047" xlink:href="#DejaVuSans-35"/>
      </g>
     </g>
    </g>
    <g id="xtick_6">
     <g id="line2d_6">
      <g>
       <use style="stroke:#000000;stroke-width:0.8;" x="681.689448" xlink:href="#m68e39201f5" y="288.430125"/>
      </g>
     </g>
     <g id="text_6">
      <!-- 30 -->
      <g transform="translate(675.326948 303.028562)scale(0.1 -0.1)">
       <defs>
        <path d="M 2597 2516 
Q 3050 2419 3304 2112 
Q 3559 1806 3559 1356 
Q 3559 666 3084 287 
Q 2609 -91 1734 -91 
Q 1441 -91 1130 -33 
Q 819 25 488 141 
L 488 750 
Q 750 597 1062 519 
Q 1375 441 1716 441 
Q 2309 441 2620 675 
Q 2931 909 2931 1356 
Q 2931 1769 2642 2001 
Q 2353 2234 1838 2234 
L 1294 2234 
L 1294 2753 
L 1863 2753 
Q 2328 2753 2575 2939 
Q 2822 3125 2822 3475 
Q 2822 3834 2567 4026 
Q 2313 4219 1838 4219 
Q 1578 4219 1281 4162 
Q 984 4106 628 3988 
L 628 4550 
Q 988 4650 1302 4700 
Q 1616 4750 1894 4750 
Q 2613 4750 3031 4423 
Q 3450 4097 3450 3541 
Q 3450 3153 3228 2886 
Q 3006 2619 2597 2516 
z
" id="DejaVuSans-33" transform="scale(0.015625)"/>
       </defs>
       <use xlink:href="#DejaVuSans-33"/>
       <use x="63.623047" xlink:href="#DejaVuSans-30"/>
      </g>
     </g>
    </g>
    <g id="xtick_7">
     <g id="line2d_7">
      <g>
       <use style="stroke:#000000;stroke-width:0.8;" x="732.538092" xlink:href="#m68e39201f5" y="288.430125"/>
      </g>
     </g>
     <g id="text_7">
      <!-- 35 -->
      <g transform="translate(726.175592 303.028562)scale(0.1 -0.1)">
       <use xlink:href="#DejaVuSans-33"/>
       <use x="63.623047" xlink:href="#DejaVuSans-35"/>
      </g>
     </g>
    </g>
    <g id="text_8">
     <!-- Fold Enrichment -->
     <g transform="translate(518.242031 316.706687)scale(0.1 -0.1)">
      <defs>
       <path d="M 628 4666 
L 3309 4666 
L 3309 4134 
L 1259 4134 
L 1259 2759 
L 3109 2759 
L 3109 2228 
L 1259 2228 
L 1259 0 
L 628 0 
L 628 4666 
z
" id="DejaVuSans-46" transform="scale(0.015625)"/>
       <path d="M 1959 3097 
Q 1497 3097 1228 2736 
Q 959 2375 959 1747 
Q 959 1119 1226 758 
Q 1494 397 1959 397 
Q 2419 397 2687 759 
Q 2956 1122 2956 1747 
Q 2956 2369 2687 2733 
Q 2419 3097 1959 3097 
z
M 1959 3584 
Q 2709 3584 3137 3096 
Q 3566 2609 3566 1747 
Q 3566 888 3137 398 
Q 2709 -91 1959 -91 
Q 1206 -91 779 398 
Q 353 888 353 1747 
Q 353 2609 779 3096 
Q 1206 3584 1959 3584 
z
" id="DejaVuSans-6f" transform="scale(0.015625)"/>
       <path d="M 603 4863 
L 1178 4863 
L 1178 0 
L 603 0 
L 603 4863 
z
" id="DejaVuSans-6c" transform="scale(0.015625)"/>
       <path d="M 2906 2969 
L 2906 4863 
L 3481 4863 
L 3481 0 
L 2906 0 
L 2906 525 
Q 2725 213 2448 61 
Q 2172 -91 1784 -91 
Q 1150 -91 751 415 
Q 353 922 353 1747 
Q 353 2572 751 3078 
Q 1150 3584 1784 3584 
Q 2172 3584 2448 3432 
Q 2725 3281 2906 2969 
z
M 947 1747 
Q 947 1113 1208 752 
Q 1469 391 1925 391 
Q 2381 391 2643 752 
Q 2906 1113 2906 1747 
Q 2906 2381 2643 2742 
Q 2381 3103 1925 3103 
Q 1469 3103 1208 2742 
Q 947 2381 947 1747 
z
" id="DejaVuSans-64" transform="scale(0.015625)"/>
       <path id="DejaVuSans-20" transform="scale(0.015625)"/>
       <path d="M 628 4666 
L 3578 4666 
L 3578 4134 
L 1259 4134 
L 1259 2753 
L 3481 2753 
L 3481 2222 
L 1259 2222 
L 1259 531 
L 3634 531 
L 3634 0 
L 628 0 
L 628 4666 
z
" id="DejaVuSans-45" transform="scale(0.015625)"/>
       <path d="M 3513 2113 
L 3513 0 
L 2938 0 
L 2938 2094 
Q 2938 2591 2744 2837 
Q 2550 3084 2163 3084 
Q 1697 3084 1428 2787 
Q 1159 2491 1159 1978 
L 1159 0 
L 581 0 
L 581 3500 
L 1159 3500 
L 1159 2956 
Q 1366 3272 1645 3428 
Q 1925 3584 2291 3584 
Q 2894 3584 3203 3211 
Q 3513 2838 3513 2113 
z
" id="DejaVuSans-6e" transform="scale(0.015625)"/>
       <path d="M 2631 2963 
Q 2534 3019 2420 3045 
Q 2306 3072 2169 3072 
Q 1681 3072 1420 2755 
Q 1159 2438 1159 1844 
L 1159 0 
L 581 0 
L 581 3500 
L 1159 3500 
L 1159 2956 
Q 1341 3275 1631 3429 
Q 1922 3584 2338 3584 
Q 2397 3584 2469 3576 
Q 2541 3569 2628 3553 
L 2631 2963 
z
" id="DejaVuSans-72" transform="scale(0.015625)"/>
       <path d="M 603 3500 
L 1178 3500 
L 1178 0 
L 603 0 
L 603 3500 
z
M 603 4863 
L 1178 4863 
L 1178 4134 
L 603 4134 
L 603 4863 
z
" id="DejaVuSans-69" transform="scale(0.015625)"/>
       <path d="M 3122 3366 
L 3122 2828 
Q 2878 2963 2633 3030 
Q 2388 3097 2138 3097 
Q 1578 3097 1268 2742 
Q 959 2388 959 1747 
Q 959 1106 1268 751 
Q 1578 397 2138 397 
Q 2388 397 2633 464 
Q 2878 531 3122 666 
L 3122 134 
Q 2881 22 2623 -34 
Q 2366 -91 2075 -91 
Q 1284 -91 818 406 
Q 353 903 353 1747 
Q 353 2603 823 3093 
Q 1294 3584 2113 3584 
Q 2378 3584 2631 3529 
Q 2884 3475 3122 3366 
z
" id="DejaVuSans-63" transform="scale(0.015625)"/>
       <path d="M 3513 2113 
L 3513 0 
L 2938 0 
L 2938 2094 
Q 2938 2591 2744 2837 
Q 2550 3084 2163 3084 
Q 1697 3084 1428 2787 
Q 1159 2491 1159 1978 
L 1159 0 
L 581 0 
L 581 4863 
L 1159 4863 
L 1159 2956 
Q 1366 3272 1645 3428 
Q 1925 3584 2291 3584 
Q 2894 3584 3203 3211 
Q 3513 2838 3513 2113 
z
" id="DejaVuSans-68" transform="scale(0.015625)"/>
       <path d="M 3328 2828 
Q 3544 3216 3844 3400 
Q 4144 3584 4550 3584 
Q 5097 3584 5394 3201 
Q 5691 2819 5691 2113 
L 5691 0 
L 5113 0 
L 5113 2094 
Q 5113 2597 4934 2840 
Q 4756 3084 4391 3084 
Q 3944 3084 3684 2787 
Q 3425 2491 3425 1978 
L 3425 0 
L 2847 0 
L 2847 2094 
Q 2847 2600 2669 2842 
Q 2491 3084 2119 3084 
Q 1678 3084 1418 2786 
Q 1159 2488 1159 1978 
L 1159 0 
L 581 0 
L 581 3500 
L 1159 3500 
L 1159 2956 
Q 1356 3278 1631 3431 
Q 1906 3584 2284 3584 
Q 2666 3584 2933 3390 
Q 3200 3197 3328 2828 
z
" id="DejaVuSans-6d" transform="scale(0.015625)"/>
       <path d="M 3597 1894 
L 3597 1613 
L 953 1613 
Q 991 1019 1311 708 
Q 1631 397 2203 397 
Q 2534 397 2845 478 
Q 3156 559 3463 722 
L 3463 178 
Q 3153 47 2828 -22 
Q 2503 -91 2169 -91 
Q 1331 -91 842 396 
Q 353 884 353 1716 
Q 353 2575 817 3079 
Q 1281 3584 2069 3584 
Q 2775 3584 3186 3129 
Q 3597 2675 3597 1894 
z
M 3022 2063 
Q 3016 2534 2758 2815 
Q 2500 3097 2075 3097 
Q 1594 3097 1305 2825 
Q 1016 2553 972 2059 
L 3022 2063 
z
" id="DejaVuSans-65" transform="scale(0.015625)"/>
       <path d="M 1172 4494 
L 1172 3500 
L 2356 3500 
L 2356 3053 
L 1172 3053 
L 1172 1153 
Q 1172 725 1289 603 
Q 1406 481 1766 481 
L 2356 481 
L 2356 0 
L 1766 0 
Q 1100 0 847 248 
Q 594 497 594 1153 
L 594 3053 
L 172 3053 
L 172 3500 
L 594 3500 
L 594 4494 
L 1172 4494 
z
" id="DejaVuSans-74" transform="scale(0.015625)"/>
      </defs>
      <use xlink:href="#DejaVuSans-46"/>
      <use x="53.894531" xlink:href="#DejaVuSans-6f"/>
      <use x="115.076172" xlink:href="#DejaVuSans-6c"/>
      <use x="142.859375" xlink:href="#DejaVuSans-64"/>
      <use x="206.335938" xlink:href="#DejaVuSans-20"/>
      <use x="238.123047" xlink:href="#DejaVuSans-45"/>
      <use x="301.306641" xlink:href="#DejaVuSans-6e"/>
      <use x="364.685547" xlink:href="#DejaVuSans-72"/>
      <use x="405.798828" xlink:href="#DejaVuSans-69"/>
      <use x="433.582031" xlink:href="#DejaVuSans-63"/>
      <use x="488.5625" xlink:href="#DejaVuSans-68"/>
      <use x="551.941406" xlink:href="#DejaVuSans-6d"/>
      <use x="649.353516" xlink:href="#DejaVuSans-65"/>
      <use x="710.876953" xlink:href="#DejaVuSans-6e"/>
      <use x="774.255859" xlink:href="#DejaVuSans-74"/>
     </g>
    </g>
   </g>
   <g id="matplotlib.axis_2">
    <g id="ytick_1">
     <g id="line2d_8">
      <defs>
       <path d="M 0 0 
L -3.5 0 
" id="m489c0ebeeb" style="stroke:#000000;stroke-width:0.8;"/>
      </defs>
      <g>
       <use style="stroke:#000000;stroke-width:0.8;" x="380.354687" xlink:href="#m489c0ebeeb" y="34.414125"/>
      </g>
     </g>
     <g id="text_9">
      <!-- MHC class II protein complex -->
      <g transform="translate(228.864062 38.213344)scale(0.1 -0.1)">
       <defs>
        <path d="M 628 4666 
L 1569 4666 
L 2759 1491 
L 3956 4666 
L 4897 4666 
L 4897 0 
L 4281 0 
L 4281 4097 
L 3078 897 
L 2444 897 
L 1241 4097 
L 1241 0 
L 628 0 
L 628 4666 
z
" id="DejaVuSans-4d" transform="scale(0.015625)"/>
        <path d="M 628 4666 
L 1259 4666 
L 1259 2753 
L 3553 2753 
L 3553 4666 
L 4184 4666 
L 4184 0 
L 3553 0 
L 3553 2222 
L 1259 2222 
L 1259 0 
L 628 0 
L 628 4666 
z
" id="DejaVuSans-48" transform="scale(0.015625)"/>
        <path d="M 4122 4306 
L 4122 3641 
Q 3803 3938 3442 4084 
Q 3081 4231 2675 4231 
Q 1875 4231 1450 3742 
Q 1025 3253 1025 2328 
Q 1025 1406 1450 917 
Q 1875 428 2675 428 
Q 3081 428 3442 575 
Q 3803 722 4122 1019 
L 4122 359 
Q 3791 134 3420 21 
Q 3050 -91 2638 -91 
Q 1578 -91 968 557 
Q 359 1206 359 2328 
Q 359 3453 968 4101 
Q 1578 4750 2638 4750 
Q 3056 4750 3426 4639 
Q 3797 4528 4122 4306 
z
" id="DejaVuSans-43" transform="scale(0.015625)"/>
        <path d="M 2194 1759 
Q 1497 1759 1228 1600 
Q 959 1441 959 1056 
Q 959 750 1161 570 
Q 1363 391 1709 391 
Q 2188 391 2477 730 
Q 2766 1069 2766 1631 
L 2766 1759 
L 2194 1759 
z
M 3341 1997 
L 3341 0 
L 2766 0 
L 2766 531 
Q 2569 213 2275 61 
Q 1981 -91 1556 -91 
Q 1019 -91 701 211 
Q 384 513 384 1019 
Q 384 1609 779 1909 
Q 1175 2209 1959 2209 
L 2766 2209 
L 2766 2266 
Q 2766 2663 2505 2880 
Q 2244 3097 1772 3097 
Q 1472 3097 1187 3025 
Q 903 2953 641 2809 
L 641 3341 
Q 956 3463 1253 3523 
Q 1550 3584 1831 3584 
Q 2591 3584 2966 3190 
Q 3341 2797 3341 1997 
z
" id="DejaVuSans-61" transform="scale(0.015625)"/>
        <path d="M 2834 3397 
L 2834 2853 
Q 2591 2978 2328 3040 
Q 2066 3103 1784 3103 
Q 1356 3103 1142 2972 
Q 928 2841 928 2578 
Q 928 2378 1081 2264 
Q 1234 2150 1697 2047 
L 1894 2003 
Q 2506 1872 2764 1633 
Q 3022 1394 3022 966 
Q 3022 478 2636 193 
Q 2250 -91 1575 -91 
Q 1294 -91 989 -36 
Q 684 19 347 128 
L 347 722 
Q 666 556 975 473 
Q 1284 391 1588 391 
Q 1994 391 2212 530 
Q 2431 669 2431 922 
Q 2431 1156 2273 1281 
Q 2116 1406 1581 1522 
L 1381 1569 
Q 847 1681 609 1914 
Q 372 2147 372 2553 
Q 372 3047 722 3315 
Q 1072 3584 1716 3584 
Q 2034 3584 2315 3537 
Q 2597 3491 2834 3397 
z
" id="DejaVuSans-73" transform="scale(0.015625)"/>
        <path d="M 628 4666 
L 1259 4666 
L 1259 0 
L 628 0 
L 628 4666 
z
" id="DejaVuSans-49" transform="scale(0.015625)"/>
        <path d="M 1159 525 
L 1159 -1331 
L 581 -1331 
L 581 3500 
L 1159 3500 
L 1159 2969 
Q 1341 3281 1617 3432 
Q 1894 3584 2278 3584 
Q 2916 3584 3314 3078 
Q 3713 2572 3713 1747 
Q 3713 922 3314 415 
Q 2916 -91 2278 -91 
Q 1894 -91 1617 61 
Q 1341 213 1159 525 
z
M 3116 1747 
Q 3116 2381 2855 2742 
Q 2594 3103 2138 3103 
Q 1681 3103 1420 2742 
Q 1159 2381 1159 1747 
Q 1159 1113 1420 752 
Q 1681 391 2138 391 
Q 2594 391 2855 752 
Q 3116 1113 3116 1747 
z
" id="DejaVuSans-70" transform="scale(0.015625)"/>
        <path d="M 3513 3500 
L 2247 1797 
L 3578 0 
L 2900 0 
L 1881 1375 
L 863 0 
L 184 0 
L 1544 1831 
L 300 3500 
L 978 3500 
L 1906 2253 
L 2834 3500 
L 3513 3500 
z
" id="DejaVuSans-78" transform="scale(0.015625)"/>
       </defs>
       <use xlink:href="#DejaVuSans-4d"/>
       <use x="86.279297" xlink:href="#DejaVuSans-48"/>
       <use x="161.474609" xlink:href="#DejaVuSans-43"/>
       <use x="231.298828" xlink:href="#DejaVuSans-20"/>
       <use x="263.085938" xlink:href="#DejaVuSans-63"/>
       <use x="318.066406" xlink:href="#DejaVuSans-6c"/>
       <use x="345.849609" xlink:href="#DejaVuSans-61"/>
       <use x="407.128906" xlink:href="#DejaVuSans-73"/>
       <use x="459.228516" xlink:href="#DejaVuSans-73"/>
       <use x="511.328125" xlink:href="#DejaVuSans-20"/>
       <use x="543.115234" xlink:href="#DejaVuSans-49"/>
       <use x="572.607422" xlink:href="#DejaVuSans-49"/>
       <use x="602.099609" xlink:href="#DejaVuSans-20"/>
       <use x="633.886719" xlink:href="#DejaVuSans-70"/>
       <use x="697.363281" xlink:href="#DejaVuSans-72"/>
       <use x="736.226562" xlink:href="#DejaVuSans-6f"/>
       <use x="797.408203" xlink:href="#DejaVuSans-74"/>
       <use x="836.617188" xlink:href="#DejaVuSans-65"/>
       <use x="898.140625" xlink:href="#DejaVuSans-69"/>
       <use x="925.923828" xlink:href="#DejaVuSans-6e"/>
       <use x="989.302734" xlink:href="#DejaVuSans-20"/>
       <use x="1021.089844" xlink:href="#DejaVuSans-63"/>
       <use x="1076.070312" xlink:href="#DejaVuSans-6f"/>
       <use x="1137.251953" xlink:href="#DejaVuSans-6d"/>
       <use x="1234.664062" xlink:href="#DejaVuSans-70"/>
       <use x="1298.140625" xlink:href="#DejaVuSans-6c"/>
       <use x="1325.923828" xlink:href="#DejaVuSans-65"/>
       <use x="1385.697266" xlink:href="#DejaVuSans-78"/>
      </g>
     </g>
    </g>
    <g id="ytick_2">
     <g id="line2d_9">
      <g>
       <use style="stroke:#000000;stroke-width:0.8;" x="380.354687" xlink:href="#m489c0ebeeb" y="58.606125"/>
      </g>
     </g>
     <g id="text_10">
      <!-- integral component of lumenal side of endoplasmic reticulum membrane -->
      <g transform="translate(7.2 62.405344)scale(0.1 -0.1)">
       <defs>
        <path d="M 2906 1791 
Q 2906 2416 2648 2759 
Q 2391 3103 1925 3103 
Q 1463 3103 1205 2759 
Q 947 2416 947 1791 
Q 947 1169 1205 825 
Q 1463 481 1925 481 
Q 2391 481 2648 825 
Q 2906 1169 2906 1791 
z
M 3481 434 
Q 3481 -459 3084 -895 
Q 2688 -1331 1869 -1331 
Q 1566 -1331 1297 -1286 
Q 1028 -1241 775 -1147 
L 775 -588 
Q 1028 -725 1275 -790 
Q 1522 -856 1778 -856 
Q 2344 -856 2625 -561 
Q 2906 -266 2906 331 
L 2906 616 
Q 2728 306 2450 153 
Q 2172 0 1784 0 
Q 1141 0 747 490 
Q 353 981 353 1791 
Q 353 2603 747 3093 
Q 1141 3584 1784 3584 
Q 2172 3584 2450 3431 
Q 2728 3278 2906 2969 
L 2906 3500 
L 3481 3500 
L 3481 434 
z
" id="DejaVuSans-67" transform="scale(0.015625)"/>
        <path d="M 2375 4863 
L 2375 4384 
L 1825 4384 
Q 1516 4384 1395 4259 
Q 1275 4134 1275 3809 
L 1275 3500 
L 2222 3500 
L 2222 3053 
L 1275 3053 
L 1275 0 
L 697 0 
L 697 3053 
L 147 3053 
L 147 3500 
L 697 3500 
L 697 3744 
Q 697 4328 969 4595 
Q 1241 4863 1831 4863 
L 2375 4863 
z
" id="DejaVuSans-66" transform="scale(0.015625)"/>
        <path d="M 544 1381 
L 544 3500 
L 1119 3500 
L 1119 1403 
Q 1119 906 1312 657 
Q 1506 409 1894 409 
Q 2359 409 2629 706 
Q 2900 1003 2900 1516 
L 2900 3500 
L 3475 3500 
L 3475 0 
L 2900 0 
L 2900 538 
Q 2691 219 2414 64 
Q 2138 -91 1772 -91 
Q 1169 -91 856 284 
Q 544 659 544 1381 
z
M 1991 3584 
L 1991 3584 
z
" id="DejaVuSans-75" transform="scale(0.015625)"/>
        <path d="M 3116 1747 
Q 3116 2381 2855 2742 
Q 2594 3103 2138 3103 
Q 1681 3103 1420 2742 
Q 1159 2381 1159 1747 
Q 1159 1113 1420 752 
Q 1681 391 2138 391 
Q 2594 391 2855 752 
Q 3116 1113 3116 1747 
z
M 1159 2969 
Q 1341 3281 1617 3432 
Q 1894 3584 2278 3584 
Q 2916 3584 3314 3078 
Q 3713 2572 3713 1747 
Q 3713 922 3314 415 
Q 2916 -91 2278 -91 
Q 1894 -91 1617 61 
Q 1341 213 1159 525 
L 1159 0 
L 581 0 
L 581 4863 
L 1159 4863 
L 1159 2969 
z
" id="DejaVuSans-62" transform="scale(0.015625)"/>
       </defs>
       <use xlink:href="#DejaVuSans-69"/>
       <use x="27.783203" xlink:href="#DejaVuSans-6e"/>
       <use x="91.162109" xlink:href="#DejaVuSans-74"/>
       <use x="130.371094" xlink:href="#DejaVuSans-65"/>
       <use x="191.894531" xlink:href="#DejaVuSans-67"/>
       <use x="255.371094" xlink:href="#DejaVuSans-72"/>
       <use x="296.484375" xlink:href="#DejaVuSans-61"/>
       <use x="357.763672" xlink:href="#DejaVuSans-6c"/>
       <use x="385.546875" xlink:href="#DejaVuSans-20"/>
       <use x="417.333984" xlink:href="#DejaVuSans-63"/>
       <use x="472.314453" xlink:href="#DejaVuSans-6f"/>
       <use x="533.496094" xlink:href="#DejaVuSans-6d"/>
       <use x="630.908203" xlink:href="#DejaVuSans-70"/>
       <use x="694.384766" xlink:href="#DejaVuSans-6f"/>
       <use x="755.566406" xlink:href="#DejaVuSans-6e"/>
       <use x="818.945312" xlink:href="#DejaVuSans-65"/>
       <use x="880.46875" xlink:href="#DejaVuSans-6e"/>
       <use x="943.847656" xlink:href="#DejaVuSans-74"/>
       <use x="983.056641" xlink:href="#DejaVuSans-20"/>
       <use x="1014.84375" xlink:href="#DejaVuSans-6f"/>
       <use x="1076.025391" xlink:href="#DejaVuSans-66"/>
       <use x="1111.230469" xlink:href="#DejaVuSans-20"/>
       <use x="1143.017578" xlink:href="#DejaVuSans-6c"/>
       <use x="1170.800781" xlink:href="#DejaVuSans-75"/>
       <use x="1234.179688" xlink:href="#DejaVuSans-6d"/>
       <use x="1331.591797" xlink:href="#DejaVuSans-65"/>
       <use x="1393.115234" xlink:href="#DejaVuSans-6e"/>
       <use x="1456.494141" xlink:href="#DejaVuSans-61"/>
       <use x="1517.773438" xlink:href="#DejaVuSans-6c"/>
       <use x="1545.556641" xlink:href="#DejaVuSans-20"/>
       <use x="1577.34375" xlink:href="#DejaVuSans-73"/>
       <use x="1629.443359" xlink:href="#DejaVuSans-69"/>
       <use x="1657.226562" xlink:href="#DejaVuSans-64"/>
       <use x="1720.703125" xlink:href="#DejaVuSans-65"/>
       <use x="1782.226562" xlink:href="#DejaVuSans-20"/>
       <use x="1814.013672" xlink:href="#DejaVuSans-6f"/>
       <use x="1875.195312" xlink:href="#DejaVuSans-66"/>
       <use x="1910.400391" xlink:href="#DejaVuSans-20"/>
       <use x="1942.1875" xlink:href="#DejaVuSans-65"/>
       <use x="2003.710938" xlink:href="#DejaVuSans-6e"/>
       <use x="2067.089844" xlink:href="#DejaVuSans-64"/>
       <use x="2130.566406" xlink:href="#DejaVuSans-6f"/>
       <use x="2191.748047" xlink:href="#DejaVuSans-70"/>
       <use x="2255.224609" xlink:href="#DejaVuSans-6c"/>
       <use x="2283.007812" xlink:href="#DejaVuSans-61"/>
       <use x="2344.287109" xlink:href="#DejaVuSans-73"/>
       <use x="2396.386719" xlink:href="#DejaVuSans-6d"/>
       <use x="2493.798828" xlink:href="#DejaVuSans-69"/>
       <use x="2521.582031" xlink:href="#DejaVuSans-63"/>
       <use x="2576.5625" xlink:href="#DejaVuSans-20"/>
       <use x="2608.349609" xlink:href="#DejaVuSans-72"/>
       <use x="2647.212891" xlink:href="#DejaVuSans-65"/>
       <use x="2708.736328" xlink:href="#DejaVuSans-74"/>
       <use x="2747.945312" xlink:href="#DejaVuSans-69"/>
       <use x="2775.728516" xlink:href="#DejaVuSans-63"/>
       <use x="2830.708984" xlink:href="#DejaVuSans-75"/>
       <use x="2894.087891" xlink:href="#DejaVuSans-6c"/>
       <use x="2921.871094" xlink:href="#DejaVuSans-75"/>
       <use x="2985.25" xlink:href="#DejaVuSans-6d"/>
       <use x="3082.662109" xlink:href="#DejaVuSans-20"/>
       <use x="3114.449219" xlink:href="#DejaVuSans-6d"/>
       <use x="3211.861328" xlink:href="#DejaVuSans-65"/>
       <use x="3273.384766" xlink:href="#DejaVuSans-6d"/>
       <use x="3370.796875" xlink:href="#DejaVuSans-62"/>
       <use x="3434.273438" xlink:href="#DejaVuSans-72"/>
       <use x="3475.386719" xlink:href="#DejaVuSans-61"/>
       <use x="3536.666016" xlink:href="#DejaVuSans-6e"/>
       <use x="3600.044922" xlink:href="#DejaVuSans-65"/>
      </g>
     </g>
    </g>
    <g id="ytick_3">
     <g id="line2d_10">
      <g>
       <use style="stroke:#000000;stroke-width:0.8;" x="380.354687" xlink:href="#m489c0ebeeb" y="82.798125"/>
      </g>
     </g>
     <g id="text_11">
      <!-- ER to Golgi transport vesicle membrane -->
      <g transform="translate(172.979687 86.597344)scale(0.1 -0.1)">
       <defs>
        <path d="M 2841 2188 
Q 3044 2119 3236 1894 
Q 3428 1669 3622 1275 
L 4263 0 
L 3584 0 
L 2988 1197 
Q 2756 1666 2539 1819 
Q 2322 1972 1947 1972 
L 1259 1972 
L 1259 0 
L 628 0 
L 628 4666 
L 2053 4666 
Q 2853 4666 3247 4331 
Q 3641 3997 3641 3322 
Q 3641 2881 3436 2590 
Q 3231 2300 2841 2188 
z
M 1259 4147 
L 1259 2491 
L 2053 2491 
Q 2509 2491 2742 2702 
Q 2975 2913 2975 3322 
Q 2975 3731 2742 3939 
Q 2509 4147 2053 4147 
L 1259 4147 
z
" id="DejaVuSans-52" transform="scale(0.015625)"/>
        <path d="M 3809 666 
L 3809 1919 
L 2778 1919 
L 2778 2438 
L 4434 2438 
L 4434 434 
Q 4069 175 3628 42 
Q 3188 -91 2688 -91 
Q 1594 -91 976 548 
Q 359 1188 359 2328 
Q 359 3472 976 4111 
Q 1594 4750 2688 4750 
Q 3144 4750 3555 4637 
Q 3966 4525 4313 4306 
L 4313 3634 
Q 3963 3931 3569 4081 
Q 3175 4231 2741 4231 
Q 1884 4231 1454 3753 
Q 1025 3275 1025 2328 
Q 1025 1384 1454 906 
Q 1884 428 2741 428 
Q 3075 428 3337 486 
Q 3600 544 3809 666 
z
" id="DejaVuSans-47" transform="scale(0.015625)"/>
        <path d="M 191 3500 
L 800 3500 
L 1894 563 
L 2988 3500 
L 3597 3500 
L 2284 0 
L 1503 0 
L 191 3500 
z
" id="DejaVuSans-76" transform="scale(0.015625)"/>
       </defs>
       <use xlink:href="#DejaVuSans-45"/>
       <use x="63.183594" xlink:href="#DejaVuSans-52"/>
       <use x="132.666016" xlink:href="#DejaVuSans-20"/>
       <use x="164.453125" xlink:href="#DejaVuSans-74"/>
       <use x="203.662109" xlink:href="#DejaVuSans-6f"/>
       <use x="264.84375" xlink:href="#DejaVuSans-20"/>
       <use x="296.630859" xlink:href="#DejaVuSans-47"/>
       <use x="374.121094" xlink:href="#DejaVuSans-6f"/>
       <use x="435.302734" xlink:href="#DejaVuSans-6c"/>
       <use x="463.085938" xlink:href="#DejaVuSans-67"/>
       <use x="526.5625" xlink:href="#DejaVuSans-69"/>
       <use x="554.345703" xlink:href="#DejaVuSans-20"/>
       <use x="586.132812" xlink:href="#DejaVuSans-74"/>
       <use x="625.341797" xlink:href="#DejaVuSans-72"/>
       <use x="666.455078" xlink:href="#DejaVuSans-61"/>
       <use x="727.734375" xlink:href="#DejaVuSans-6e"/>
       <use x="791.113281" xlink:href="#DejaVuSans-73"/>
       <use x="843.212891" xlink:href="#DejaVuSans-70"/>
       <use x="906.689453" xlink:href="#DejaVuSans-6f"/>
       <use x="967.871094" xlink:href="#DejaVuSans-72"/>
       <use x="1008.984375" xlink:href="#DejaVuSans-74"/>
       <use x="1048.193359" xlink:href="#DejaVuSans-20"/>
       <use x="1079.980469" xlink:href="#DejaVuSans-76"/>
       <use x="1139.160156" xlink:href="#DejaVuSans-65"/>
       <use x="1200.683594" xlink:href="#DejaVuSans-73"/>
       <use x="1252.783203" xlink:href="#DejaVuSans-69"/>
       <use x="1280.566406" xlink:href="#DejaVuSans-63"/>
       <use x="1335.546875" xlink:href="#DejaVuSans-6c"/>
       <use x="1363.330078" xlink:href="#DejaVuSans-65"/>
       <use x="1424.853516" xlink:href="#DejaVuSans-20"/>
       <use x="1456.640625" xlink:href="#DejaVuSans-6d"/>
       <use x="1554.052734" xlink:href="#DejaVuSans-65"/>
       <use x="1615.576172" xlink:href="#DejaVuSans-6d"/>
       <use x="1712.988281" xlink:href="#DejaVuSans-62"/>
       <use x="1776.464844" xlink:href="#DejaVuSans-72"/>
       <use x="1817.578125" xlink:href="#DejaVuSans-61"/>
       <use x="1878.857422" xlink:href="#DejaVuSans-6e"/>
       <use x="1942.236328" xlink:href="#DejaVuSans-65"/>
      </g>
     </g>
    </g>
    <g id="ytick_4">
     <g id="line2d_11">
      <g>
       <use style="stroke:#000000;stroke-width:0.8;" x="380.354687" xlink:href="#m489c0ebeeb" y="106.990125"/>
      </g>
     </g>
     <g id="text_12">
      <!-- clathrin-coated endocytic vesicle membrane -->
      <g transform="translate(150.382812 110.789344)scale(0.1 -0.1)">
       <defs>
        <path d="M 313 2009 
L 1997 2009 
L 1997 1497 
L 313 1497 
L 313 2009 
z
" id="DejaVuSans-2d" transform="scale(0.015625)"/>
        <path d="M 2059 -325 
Q 1816 -950 1584 -1140 
Q 1353 -1331 966 -1331 
L 506 -1331 
L 506 -850 
L 844 -850 
Q 1081 -850 1212 -737 
Q 1344 -625 1503 -206 
L 1606 56 
L 191 3500 
L 800 3500 
L 1894 763 
L 2988 3500 
L 3597 3500 
L 2059 -325 
z
" id="DejaVuSans-79" transform="scale(0.015625)"/>
       </defs>
       <use xlink:href="#DejaVuSans-63"/>
       <use x="54.980469" xlink:href="#DejaVuSans-6c"/>
       <use x="82.763672" xlink:href="#DejaVuSans-61"/>
       <use x="144.042969" xlink:href="#DejaVuSans-74"/>
       <use x="183.251953" xlink:href="#DejaVuSans-68"/>
       <use x="246.630859" xlink:href="#DejaVuSans-72"/>
       <use x="287.744141" xlink:href="#DejaVuSans-69"/>
       <use x="315.527344" xlink:href="#DejaVuSans-6e"/>
       <use x="378.90625" xlink:href="#DejaVuSans-2d"/>
       <use x="414.990234" xlink:href="#DejaVuSans-63"/>
       <use x="469.970703" xlink:href="#DejaVuSans-6f"/>
       <use x="531.152344" xlink:href="#DejaVuSans-61"/>
       <use x="592.431641" xlink:href="#DejaVuSans-74"/>
       <use x="631.640625" xlink:href="#DejaVuSans-65"/>
       <use x="693.164062" xlink:href="#DejaVuSans-64"/>
       <use x="756.640625" xlink:href="#DejaVuSans-20"/>
       <use x="788.427734" xlink:href="#DejaVuSans-65"/>
       <use x="849.951172" xlink:href="#DejaVuSans-6e"/>
       <use x="913.330078" xlink:href="#DejaVuSans-64"/>
       <use x="976.806641" xlink:href="#DejaVuSans-6f"/>
       <use x="1037.988281" xlink:href="#DejaVuSans-63"/>
       <use x="1092.96875" xlink:href="#DejaVuSans-79"/>
       <use x="1152.148438" xlink:href="#DejaVuSans-74"/>
       <use x="1191.357422" xlink:href="#DejaVuSans-69"/>
       <use x="1219.140625" xlink:href="#DejaVuSans-63"/>
       <use x="1274.121094" xlink:href="#DejaVuSans-20"/>
       <use x="1305.908203" xlink:href="#DejaVuSans-76"/>
       <use x="1365.087891" xlink:href="#DejaVuSans-65"/>
       <use x="1426.611328" xlink:href="#DejaVuSans-73"/>
       <use x="1478.710938" xlink:href="#DejaVuSans-69"/>
       <use x="1506.494141" xlink:href="#DejaVuSans-63"/>
       <use x="1561.474609" xlink:href="#DejaVuSans-6c"/>
       <use x="1589.257812" xlink:href="#DejaVuSans-65"/>
       <use x="1650.78125" xlink:href="#DejaVuSans-20"/>
       <use x="1682.568359" xlink:href="#DejaVuSans-6d"/>
       <use x="1779.980469" xlink:href="#DejaVuSans-65"/>
       <use x="1841.503906" xlink:href="#DejaVuSans-6d"/>
       <use x="1938.916016" xlink:href="#DejaVuSans-62"/>
       <use x="2002.392578" xlink:href="#DejaVuSans-72"/>
       <use x="2043.505859" xlink:href="#DejaVuSans-61"/>
       <use x="2104.785156" xlink:href="#DejaVuSans-6e"/>
       <use x="2168.164062" xlink:href="#DejaVuSans-65"/>
      </g>
     </g>
    </g>
    <g id="ytick_5">
     <g id="line2d_12">
      <g>
       <use style="stroke:#000000;stroke-width:0.8;" x="380.354687" xlink:href="#m489c0ebeeb" y="131.182125"/>
      </g>
     </g>
     <g id="text_13">
      <!-- external side of plasma membrane -->
      <g transform="translate(198.31875 134.981344)scale(0.1 -0.1)">
       <use xlink:href="#DejaVuSans-65"/>
       <use x="59.773438" xlink:href="#DejaVuSans-78"/>
       <use x="118.953125" xlink:href="#DejaVuSans-74"/>
       <use x="158.162109" xlink:href="#DejaVuSans-65"/>
       <use x="219.685547" xlink:href="#DejaVuSans-72"/>
       <use x="259.048828" xlink:href="#DejaVuSans-6e"/>
       <use x="322.427734" xlink:href="#DejaVuSans-61"/>
       <use x="383.707031" xlink:href="#DejaVuSans-6c"/>
       <use x="411.490234" xlink:href="#DejaVuSans-20"/>
       <use x="443.277344" xlink:href="#DejaVuSans-73"/>
       <use x="495.376953" xlink:href="#DejaVuSans-69"/>
       <use x="523.160156" xlink:href="#DejaVuSans-64"/>
       <use x="586.636719" xlink:href="#DejaVuSans-65"/>
       <use x="648.160156" xlink:href="#DejaVuSans-20"/>
       <use x="679.947266" xlink:href="#DejaVuSans-6f"/>
       <use x="741.128906" xlink:href="#DejaVuSans-66"/>
       <use x="776.333984" xlink:href="#DejaVuSans-20"/>
       <use x="808.121094" xlink:href="#DejaVuSans-70"/>
       <use x="871.597656" xlink:href="#DejaVuSans-6c"/>
       <use x="899.380859" xlink:href="#DejaVuSans-61"/>
       <use x="960.660156" xlink:href="#DejaVuSans-73"/>
       <use x="1012.759766" xlink:href="#DejaVuSans-6d"/>
       <use x="1110.171875" xlink:href="#DejaVuSans-61"/>
       <use x="1171.451172" xlink:href="#DejaVuSans-20"/>
       <use x="1203.238281" xlink:href="#DejaVuSans-6d"/>
       <use x="1300.650391" xlink:href="#DejaVuSans-65"/>
       <use x="1362.173828" xlink:href="#DejaVuSans-6d"/>
       <use x="1459.585938" xlink:href="#DejaVuSans-62"/>
       <use x="1523.0625" xlink:href="#DejaVuSans-72"/>
       <use x="1564.175781" xlink:href="#DejaVuSans-61"/>
       <use x="1625.455078" xlink:href="#DejaVuSans-6e"/>
       <use x="1688.833984" xlink:href="#DejaVuSans-65"/>
      </g>
     </g>
    </g>
    <g id="ytick_6">
     <g id="line2d_13">
      <g>
       <use style="stroke:#000000;stroke-width:0.8;" x="380.354687" xlink:href="#m489c0ebeeb" y="155.374125"/>
      </g>
     </g>
     <g id="text_14">
      <!-- cell surface -->
      <g transform="translate(316.010937 159.173344)scale(0.1 -0.1)">
       <use xlink:href="#DejaVuSans-63"/>
       <use x="54.980469" xlink:href="#DejaVuSans-65"/>
       <use x="116.503906" xlink:href="#DejaVuSans-6c"/>
       <use x="144.287109" xlink:href="#DejaVuSans-6c"/>
       <use x="172.070312" xlink:href="#DejaVuSans-20"/>
       <use x="203.857422" xlink:href="#DejaVuSans-73"/>
       <use x="255.957031" xlink:href="#DejaVuSans-75"/>
       <use x="319.335938" xlink:href="#DejaVuSans-72"/>
       <use x="360.449219" xlink:href="#DejaVuSans-66"/>
       <use x="395.654297" xlink:href="#DejaVuSans-61"/>
       <use x="456.933594" xlink:href="#DejaVuSans-63"/>
       <use x="511.914062" xlink:href="#DejaVuSans-65"/>
      </g>
     </g>
    </g>
    <g id="ytick_7">
     <g id="line2d_14">
      <g>
       <use style="stroke:#000000;stroke-width:0.8;" x="380.354687" xlink:href="#m489c0ebeeb" y="179.566125"/>
      </g>
     </g>
     <g id="text_15">
      <!-- membrane raft -->
      <g transform="translate(297.959375 183.365344)scale(0.1 -0.1)">
       <use xlink:href="#DejaVuSans-6d"/>
       <use x="97.412109" xlink:href="#DejaVuSans-65"/>
       <use x="158.935547" xlink:href="#DejaVuSans-6d"/>
       <use x="256.347656" xlink:href="#DejaVuSans-62"/>
       <use x="319.824219" xlink:href="#DejaVuSans-72"/>
       <use x="360.9375" xlink:href="#DejaVuSans-61"/>
       <use x="422.216797" xlink:href="#DejaVuSans-6e"/>
       <use x="485.595703" xlink:href="#DejaVuSans-65"/>
       <use x="547.119141" xlink:href="#DejaVuSans-20"/>
       <use x="578.90625" xlink:href="#DejaVuSans-72"/>
       <use x="620.019531" xlink:href="#DejaVuSans-61"/>
       <use x="681.298828" xlink:href="#DejaVuSans-66"/>
       <use x="714.753906" xlink:href="#DejaVuSans-74"/>
      </g>
     </g>
    </g>
    <g id="ytick_8">
     <g id="line2d_15">
      <g>
       <use style="stroke:#000000;stroke-width:0.8;" x="380.354687" xlink:href="#m489c0ebeeb" y="203.758125"/>
      </g>
     </g>
     <g id="text_16">
      <!-- integral component of plasma membrane -->
      <g transform="translate(164.829687 207.557344)scale(0.1 -0.1)">
       <use xlink:href="#DejaVuSans-69"/>
       <use x="27.783203" xlink:href="#DejaVuSans-6e"/>
       <use x="91.162109" xlink:href="#DejaVuSans-74"/>
       <use x="130.371094" xlink:href="#DejaVuSans-65"/>
       <use x="191.894531" xlink:href="#DejaVuSans-67"/>
       <use x="255.371094" xlink:href="#DejaVuSans-72"/>
       <use x="296.484375" xlink:href="#DejaVuSans-61"/>
       <use x="357.763672" xlink:href="#DejaVuSans-6c"/>
       <use x="385.546875" xlink:href="#DejaVuSans-20"/>
       <use x="417.333984" xlink:href="#DejaVuSans-63"/>
       <use x="472.314453" xlink:href="#DejaVuSans-6f"/>
       <use x="533.496094" xlink:href="#DejaVuSans-6d"/>
       <use x="630.908203" xlink:href="#DejaVuSans-70"/>
       <use x="694.384766" xlink:href="#DejaVuSans-6f"/>
       <use x="755.566406" xlink:href="#DejaVuSans-6e"/>
       <use x="818.945312" xlink:href="#DejaVuSans-65"/>
       <use x="880.46875" xlink:href="#DejaVuSans-6e"/>
       <use x="943.847656" xlink:href="#DejaVuSans-74"/>
       <use x="983.056641" xlink:href="#DejaVuSans-20"/>
       <use x="1014.84375" xlink:href="#DejaVuSans-6f"/>
       <use x="1076.025391" xlink:href="#DejaVuSans-66"/>
       <use x="1111.230469" xlink:href="#DejaVuSans-20"/>
       <use x="1143.017578" xlink:href="#DejaVuSans-70"/>
       <use x="1206.494141" xlink:href="#DejaVuSans-6c"/>
       <use x="1234.277344" xlink:href="#DejaVuSans-61"/>
       <use x="1295.556641" xlink:href="#DejaVuSans-73"/>
       <use x="1347.65625" xlink:href="#DejaVuSans-6d"/>
       <use x="1445.068359" xlink:href="#DejaVuSans-61"/>
       <use x="1506.347656" xlink:href="#DejaVuSans-20"/>
       <use x="1538.134766" xlink:href="#DejaVuSans-6d"/>
       <use x="1635.546875" xlink:href="#DejaVuSans-65"/>
       <use x="1697.070312" xlink:href="#DejaVuSans-6d"/>
       <use x="1794.482422" xlink:href="#DejaVuSans-62"/>
       <use x="1857.958984" xlink:href="#DejaVuSans-72"/>
       <use x="1899.072266" xlink:href="#DejaVuSans-61"/>
       <use x="1960.351562" xlink:href="#DejaVuSans-6e"/>
       <use x="2023.730469" xlink:href="#DejaVuSans-65"/>
      </g>
     </g>
    </g>
    <g id="ytick_9">
     <g id="line2d_16">
      <g>
       <use style="stroke:#000000;stroke-width:0.8;" x="380.354687" xlink:href="#m489c0ebeeb" y="227.950125"/>
      </g>
     </g>
     <g id="text_17">
      <!-- extracellular space -->
      <g transform="translate(278.220312 231.749344)scale(0.1 -0.1)">
       <use xlink:href="#DejaVuSans-65"/>
       <use x="59.773438" xlink:href="#DejaVuSans-78"/>
       <use x="118.953125" xlink:href="#DejaVuSans-74"/>
       <use x="158.162109" xlink:href="#DejaVuSans-72"/>
       <use x="199.275391" xlink:href="#DejaVuSans-61"/>
       <use x="260.554688" xlink:href="#DejaVuSans-63"/>
       <use x="315.535156" xlink:href="#DejaVuSans-65"/>
       <use x="377.058594" xlink:href="#DejaVuSans-6c"/>
       <use x="404.841797" xlink:href="#DejaVuSans-6c"/>
       <use x="432.625" xlink:href="#DejaVuSans-75"/>
       <use x="496.003906" xlink:href="#DejaVuSans-6c"/>
       <use x="523.787109" xlink:href="#DejaVuSans-61"/>
       <use x="585.066406" xlink:href="#DejaVuSans-72"/>
       <use x="626.179688" xlink:href="#DejaVuSans-20"/>
       <use x="657.966797" xlink:href="#DejaVuSans-73"/>
       <use x="710.066406" xlink:href="#DejaVuSans-70"/>
       <use x="773.542969" xlink:href="#DejaVuSans-61"/>
       <use x="834.822266" xlink:href="#DejaVuSans-63"/>
       <use x="889.802734" xlink:href="#DejaVuSans-65"/>
      </g>
     </g>
    </g>
    <g id="ytick_10">
     <g id="line2d_17">
      <g>
       <use style="stroke:#000000;stroke-width:0.8;" x="380.354687" xlink:href="#m489c0ebeeb" y="252.142125"/>
      </g>
     </g>
     <g id="text_18">
      <!-- extracellular region -->
      <g transform="translate(275.935937 255.941344)scale(0.1 -0.1)">
       <use xlink:href="#DejaVuSans-65"/>
       <use x="59.773438" xlink:href="#DejaVuSans-78"/>
       <use x="118.953125" xlink:href="#DejaVuSans-74"/>
       <use x="158.162109" xlink:href="#DejaVuSans-72"/>
       <use x="199.275391" xlink:href="#DejaVuSans-61"/>
       <use x="260.554688" xlink:href="#DejaVuSans-63"/>
       <use x="315.535156" xlink:href="#DejaVuSans-65"/>
       <use x="377.058594" xlink:href="#DejaVuSans-6c"/>
       <use x="404.841797" xlink:href="#DejaVuSans-6c"/>
       <use x="432.625" xlink:href="#DejaVuSans-75"/>
       <use x="496.003906" xlink:href="#DejaVuSans-6c"/>
       <use x="523.787109" xlink:href="#DejaVuSans-61"/>
       <use x="585.066406" xlink:href="#DejaVuSans-72"/>
       <use x="626.179688" xlink:href="#DejaVuSans-20"/>
       <use x="657.966797" xlink:href="#DejaVuSans-72"/>
       <use x="696.830078" xlink:href="#DejaVuSans-65"/>
       <use x="758.353516" xlink:href="#DejaVuSans-67"/>
       <use x="821.830078" xlink:href="#DejaVuSans-69"/>
       <use x="849.613281" xlink:href="#DejaVuSans-6f"/>
       <use x="910.794922" xlink:href="#DejaVuSans-6e"/>
      </g>
     </g>
    </g>
    <g id="ytick_11">
     <g id="line2d_18">
      <g>
       <use style="stroke:#000000;stroke-width:0.8;" x="380.354687" xlink:href="#m489c0ebeeb" y="276.334125"/>
      </g>
     </g>
     <g id="text_19">
      <!-- plasma membrane -->
      <g transform="translate(279.13125 280.133344)scale(0.1 -0.1)">
       <use xlink:href="#DejaVuSans-70"/>
       <use x="63.476562" xlink:href="#DejaVuSans-6c"/>
       <use x="91.259766" xlink:href="#DejaVuSans-61"/>
       <use x="152.539062" xlink:href="#DejaVuSans-73"/>
       <use x="204.638672" xlink:href="#DejaVuSans-6d"/>
       <use x="302.050781" xlink:href="#DejaVuSans-61"/>
       <use x="363.330078" xlink:href="#DejaVuSans-20"/>
       <use x="395.117188" xlink:href="#DejaVuSans-6d"/>
       <use x="492.529297" xlink:href="#DejaVuSans-65"/>
       <use x="554.052734" xlink:href="#DejaVuSans-6d"/>
       <use x="651.464844" xlink:href="#DejaVuSans-62"/>
       <use x="714.941406" xlink:href="#DejaVuSans-72"/>
       <use x="756.054688" xlink:href="#DejaVuSans-61"/>
       <use x="817.333984" xlink:href="#DejaVuSans-6e"/>
       <use x="880.712891" xlink:href="#DejaVuSans-65"/>
      </g>
     </g>
    </g>
   </g>
   <g id="patch_3">
    <path d="M 380.354687 288.430125 
L 380.354687 22.318125 
" style="fill:none;stroke:#000000;stroke-linecap:square;stroke-linejoin:miter;stroke-width:0.8;"/>
   </g>
   <g id="patch_4">
    <path d="M 737.474688 288.430125 
L 737.474688 22.318125 
" style="fill:none;stroke:#000000;stroke-linecap:square;stroke-linejoin:miter;stroke-width:0.8;"/>
   </g>
   <g id="patch_5">
    <path d="M 380.354687 288.430125 
L 737.474688 288.430125 
" style="fill:none;stroke:#000000;stroke-linecap:square;stroke-linejoin:miter;stroke-width:0.8;"/>
   </g>
   <g id="patch_6">
    <path d="M 380.354687 22.318125 
L 737.474688 22.318125 
" style="fill:none;stroke:#000000;stroke-linecap:square;stroke-linejoin:miter;stroke-width:0.8;"/>
   </g>
   <g id="text_20">
    <!-- Top 20 Enriched Cellular Components -->
    <g transform="translate(446.409063 16.318125)scale(0.12 -0.12)">
     <defs>
      <path d="M -19 4666 
L 3928 4666 
L 3928 4134 
L 2272 4134 
L 2272 0 
L 1638 0 
L 1638 4134 
L -19 4134 
L -19 4666 
z
" id="DejaVuSans-54" transform="scale(0.015625)"/>
     </defs>
     <use xlink:href="#DejaVuSans-54"/>
     <use x="44.083984" xlink:href="#DejaVuSans-6f"/>
     <use x="105.265625" xlink:href="#DejaVuSans-70"/>
     <use x="168.742188" xlink:href="#DejaVuSans-20"/>
     <use x="200.529297" xlink:href="#DejaVuSans-32"/>
     <use x="264.152344" xlink:href="#DejaVuSans-30"/>
     <use x="327.775391" xlink:href="#DejaVuSans-20"/>
     <use x="359.5625" xlink:href="#DejaVuSans-45"/>
     <use x="422.746094" xlink:href="#DejaVuSans-6e"/>
     <use x="486.125" xlink:href="#DejaVuSans-72"/>
     <use x="527.238281" xlink:href="#DejaVuSans-69"/>
     <use x="555.021484" xlink:href="#DejaVuSans-63"/>
     <use x="610.001953" xlink:href="#DejaVuSans-68"/>
     <use x="673.380859" xlink:href="#DejaVuSans-65"/>
     <use x="734.904297" xlink:href="#DejaVuSans-64"/>
     <use x="798.380859" xlink:href="#DejaVuSans-20"/>
     <use x="830.167969" xlink:href="#DejaVuSans-43"/>
     <use x="899.992188" xlink:href="#DejaVuSans-65"/>
     <use x="961.515625" xlink:href="#DejaVuSans-6c"/>
     <use x="989.298828" xlink:href="#DejaVuSans-6c"/>
     <use x="1017.082031" xlink:href="#DejaVuSans-75"/>
     <use x="1080.460938" xlink:href="#DejaVuSans-6c"/>
     <use x="1108.244141" xlink:href="#DejaVuSans-61"/>
     <use x="1169.523438" xlink:href="#DejaVuSans-72"/>
     <use x="1210.636719" xlink:href="#DejaVuSans-20"/>
     <use x="1242.423828" xlink:href="#DejaVuSans-43"/>
     <use x="1312.248047" xlink:href="#DejaVuSans-6f"/>
     <use x="1373.429688" xlink:href="#DejaVuSans-6d"/>
     <use x="1470.841797" xlink:href="#DejaVuSans-70"/>
     <use x="1534.318359" xlink:href="#DejaVuSans-6f"/>
     <use x="1595.5" xlink:href="#DejaVuSans-6e"/>
     <use x="1658.878906" xlink:href="#DejaVuSans-65"/>
     <use x="1720.402344" xlink:href="#DejaVuSans-6e"/>
     <use x="1783.78125" xlink:href="#DejaVuSans-74"/>
     <use x="1822.990234" xlink:href="#DejaVuSans-73"/>
    </g>
   </g>
   <g id="legend_1">
    <g id="patch_7">
     <path d="M 744.474688 221.13375 
L 831.71375 221.13375 
Q 833.71375 221.13375 833.71375 219.13375 
L 833.71375 29.318125 
Q 833.71375 27.318125 831.71375 27.318125 
L 744.474688 27.318125 
Q 742.474688 27.318125 742.474688 29.318125 
L 742.474688 219.13375 
Q 742.474688 221.13375 744.474688 221.13375 
z
" style="fill:#ffffff;opacity:0.8;stroke:#cccccc;stroke-linejoin:miter;"/>
    </g>
    <g id="text_21">
     <!-- -log10 FDR -->
     <g transform="translate(774.474688 38.916562)scale(0.1 -0.1)">
      <defs>
       <path d="M 1259 4147 
L 1259 519 
L 2022 519 
Q 2988 519 3436 956 
Q 3884 1394 3884 2338 
Q 3884 3275 3436 3711 
Q 2988 4147 2022 4147 
L 1259 4147 
z
M 628 4666 
L 1925 4666 
Q 3281 4666 3915 4102 
Q 4550 3538 4550 2338 
Q 4550 1131 3912 565 
Q 3275 0 1925 0 
L 628 0 
L 628 4666 
z
" id="DejaVuSans-44" transform="scale(0.015625)"/>
      </defs>
      <use xlink:href="#DejaVuSans-2d"/>
      <use x="36.083984" xlink:href="#DejaVuSans-6c"/>
      <use x="63.867188" xlink:href="#DejaVuSans-6f"/>
      <use x="125.048828" xlink:href="#DejaVuSans-67"/>
      <use x="188.525391" xlink:href="#DejaVuSans-31"/>
      <use x="252.148438" xlink:href="#DejaVuSans-30"/>
      <use x="315.771484" xlink:href="#DejaVuSans-20"/>
      <use x="347.558594" xlink:href="#DejaVuSans-46"/>
      <use x="405.078125" xlink:href="#DejaVuSans-44"/>
      <use x="482.080078" xlink:href="#DejaVuSans-52"/>
     </g>
    </g>
    <g id="PathCollection_13">
     <defs>
      <path d="M 0 3 
C 0.795609 3 1.55874 2.683901 2.12132 2.12132 
C 2.683901 1.55874 3 0.795609 3 0 
C 3 -0.795609 2.683901 -1.55874 2.12132 -2.12132 
C 1.55874 -2.683901 0.795609 -3 0 -3 
C -0.795609 -3 -1.55874 -2.683901 -2.12132 -2.12132 
C -2.683901 -1.55874 -3 -0.795609 -3 0 
C -3 0.795609 -2.683901 1.55874 -2.12132 2.12132 
C -1.55874 2.683901 -0.795609 3 0 3 
z
" id="m333f82b940" style="stroke:#4e68d8;"/>
     </defs>
     <g>
      <use style="fill:#4e68d8;stroke:#4e68d8;" x="756.474688" xlink:href="#m333f82b940" y="50.969688"/>
     </g>
    </g>
    <g id="text_22">
     <!-- 5.0 -->
     <g transform="translate(774.474688 53.594688)scale(0.1 -0.1)">
      <defs>
       <path d="M 684 794 
L 1344 794 
L 1344 0 
L 684 0 
L 684 794 
z
" id="DejaVuSans-2e" transform="scale(0.015625)"/>
      </defs>
      <use xlink:href="#DejaVuSans-35"/>
      <use x="63.623047" xlink:href="#DejaVuSans-2e"/>
      <use x="95.410156" xlink:href="#DejaVuSans-30"/>
     </g>
    </g>
    <g id="PathCollection_14">
     <defs>
      <path d="M 0 3 
C 0.795609 3 1.55874 2.683901 2.12132 2.12132 
C 2.683901 1.55874 3 0.795609 3 0 
C 3 -0.795609 2.683901 -1.55874 2.12132 -2.12132 
C 1.55874 -2.683901 0.795609 -3 0 -3 
C -0.795609 -3 -1.55874 -2.683901 -2.12132 -2.12132 
C -2.683901 -1.55874 -3 -0.795609 -3 0 
C -3 0.795609 -2.683901 1.55874 -2.12132 2.12132 
C -1.55874 2.683901 -0.795609 3 0 3 
z
" id="m9483cbb0d1" style="stroke:#86a9fc;"/>
     </defs>
     <g>
      <use style="fill:#86a9fc;stroke:#86a9fc;" x="756.474688" xlink:href="#m9483cbb0d1" y="65.647812"/>
     </g>
    </g>
    <g id="text_23">
     <!-- 7.5 -->
     <g transform="translate(774.474688 68.272812)scale(0.1 -0.1)">
      <defs>
       <path d="M 525 4666 
L 3525 4666 
L 3525 4397 
L 1831 0 
L 1172 0 
L 2766 4134 
L 525 4134 
L 525 4666 
z
" id="DejaVuSans-37" transform="scale(0.015625)"/>
      </defs>
      <use xlink:href="#DejaVuSans-37"/>
      <use x="63.623047" xlink:href="#DejaVuSans-2e"/>
      <use x="95.410156" xlink:href="#DejaVuSans-35"/>
     </g>
    </g>
    <g id="PathCollection_15">
     <defs>
      <path d="M 0 3 
C 0.795609 3 1.55874 2.683901 2.12132 2.12132 
C 2.683901 1.55874 3 0.795609 3 0 
C 3 -0.795609 2.683901 -1.55874 2.12132 -2.12132 
C 1.55874 -2.683901 0.795609 -3 0 -3 
C -0.795609 -3 -1.55874 -2.683901 -2.12132 -2.12132 
C -2.683901 -1.55874 -3 -0.795609 -3 0 
C -3 0.795609 -2.683901 1.55874 -2.12132 2.12132 
C -1.55874 2.683901 -0.795609 3 0 3 
z
" id="mb20b3ba46f" style="stroke:#c0d4f5;"/>
     </defs>
     <g>
      <use style="fill:#c0d4f5;stroke:#c0d4f5;" x="756.474688" xlink:href="#mb20b3ba46f" y="80.325938"/>
     </g>
    </g>
    <g id="text_24">
     <!-- 10.0 -->
     <g transform="translate(774.474688 82.950938)scale(0.1 -0.1)">
      <use xlink:href="#DejaVuSans-31"/>
      <use x="63.623047" xlink:href="#DejaVuSans-30"/>
      <use x="127.246094" xlink:href="#DejaVuSans-2e"/>
      <use x="159.033203" xlink:href="#DejaVuSans-30"/>
     </g>
    </g>
    <g id="PathCollection_16">
     <defs>
      <path d="M 0 3 
C 0.795609 3 1.55874 2.683901 2.12132 2.12132 
C 2.683901 1.55874 3 0.795609 3 0 
C 3 -0.795609 2.683901 -1.55874 2.12132 -2.12132 
C 1.55874 -2.683901 0.795609 -3 0 -3 
C -0.795609 -3 -1.55874 -2.683901 -2.12132 -2.12132 
C -2.683901 -1.55874 -3 -0.795609 -3 0 
C -3 0.795609 -2.683901 1.55874 -2.12132 2.12132 
C -1.55874 2.683901 -0.795609 3 0 3 
z
" id="ma98add1b60" style="stroke:#edd2c3;"/>
     </defs>
     <g>
      <use style="fill:#edd2c3;stroke:#edd2c3;" x="756.474688" xlink:href="#ma98add1b60" y="95.004063"/>
     </g>
    </g>
    <g id="text_25">
     <!-- 12.5 -->
     <g transform="translate(774.474688 97.629063)scale(0.1 -0.1)">
      <use xlink:href="#DejaVuSans-31"/>
      <use x="63.623047" xlink:href="#DejaVuSans-32"/>
      <use x="127.246094" xlink:href="#DejaVuSans-2e"/>
      <use x="159.033203" xlink:href="#DejaVuSans-35"/>
     </g>
    </g>
    <g id="PathCollection_17">
     <defs>
      <path d="M 0 3 
C 0.795609 3 1.55874 2.683901 2.12132 2.12132 
C 2.683901 1.55874 3 0.795609 3 0 
C 3 -0.795609 2.683901 -1.55874 2.12132 -2.12132 
C 1.55874 -2.683901 0.795609 -3 0 -3 
C -0.795609 -3 -1.55874 -2.683901 -2.12132 -2.12132 
C -2.683901 -1.55874 -3 -0.795609 -3 0 
C -3 0.795609 -2.683901 1.55874 -2.12132 2.12132 
C -1.55874 2.683901 -0.795609 3 0 3 
z
" id="m1629c0a6b5" style="stroke:#f5a081;"/>
     </defs>
     <g>
      <use style="fill:#f5a081;stroke:#f5a081;" x="756.474688" xlink:href="#m1629c0a6b5" y="109.682187"/>
     </g>
    </g>
    <g id="text_26">
     <!-- 15.0 -->
     <g transform="translate(774.474688 112.307187)scale(0.1 -0.1)">
      <use xlink:href="#DejaVuSans-31"/>
      <use x="63.623047" xlink:href="#DejaVuSans-35"/>
      <use x="127.246094" xlink:href="#DejaVuSans-2e"/>
      <use x="159.033203" xlink:href="#DejaVuSans-30"/>
     </g>
    </g>
    <g id="PathCollection_18">
     <defs>
      <path d="M 0 3 
C 0.795609 3 1.55874 2.683901 2.12132 2.12132 
C 2.683901 1.55874 3 0.795609 3 0 
C 3 -0.795609 2.683901 -1.55874 2.12132 -2.12132 
C 1.55874 -2.683901 0.795609 -3 0 -3 
C -0.795609 -3 -1.55874 -2.683901 -2.12132 -2.12132 
C -2.683901 -1.55874 -3 -0.795609 -3 0 
C -3 0.795609 -2.683901 1.55874 -2.12132 2.12132 
C -1.55874 2.683901 -0.795609 3 0 3 
z
" id="maabb8fd43f" style="stroke:#d65244;"/>
     </defs>
     <g>
      <use style="fill:#d65244;stroke:#d65244;" x="756.474688" xlink:href="#maabb8fd43f" y="124.360313"/>
     </g>
    </g>
    <g id="text_27">
     <!-- 17.5 -->
     <g transform="translate(774.474688 126.985313)scale(0.1 -0.1)">
      <use xlink:href="#DejaVuSans-31"/>
      <use x="63.623047" xlink:href="#DejaVuSans-37"/>
      <use x="127.246094" xlink:href="#DejaVuSans-2e"/>
      <use x="159.033203" xlink:href="#DejaVuSans-35"/>
     </g>
    </g>
    <g id="text_28">
     <!-- Gene Ratio -->
     <g transform="translate(774.474688 141.663437)scale(0.1 -0.1)">
      <use xlink:href="#DejaVuSans-47"/>
      <use x="77.490234" xlink:href="#DejaVuSans-65"/>
      <use x="139.013672" xlink:href="#DejaVuSans-6e"/>
      <use x="202.392578" xlink:href="#DejaVuSans-65"/>
      <use x="263.916016" xlink:href="#DejaVuSans-20"/>
      <use x="295.703125" xlink:href="#DejaVuSans-52"/>
      <use x="362.935547" xlink:href="#DejaVuSans-61"/>
      <use x="424.214844" xlink:href="#DejaVuSans-74"/>
      <use x="463.423828" xlink:href="#DejaVuSans-69"/>
      <use x="491.207031" xlink:href="#DejaVuSans-6f"/>
     </g>
    </g>
    <g id="PathCollection_19">
     <defs>
      <path d="M 0 2.980781 
C 0.790512 2.980781 1.548754 2.666707 2.107731 2.107731 
C 2.666707 1.548754 2.980781 0.790512 2.980781 0 
C 2.980781 -0.790512 2.666707 -1.548754 2.107731 -2.107731 
C 1.548754 -2.666707 0.790512 -2.980781 0 -2.980781 
C -0.790512 -2.980781 -1.548754 -2.666707 -2.107731 -2.107731 
C -2.666707 -1.548754 -2.980781 -0.790512 -2.980781 0 
C -2.980781 0.790512 -2.666707 1.548754 -2.107731 2.107731 
C -1.548754 2.666707 -0.790512 2.980781 0 2.980781 
z
" id="m7a8d0ad900" style="stroke:#333333;"/>
     </defs>
     <g>
      <use style="fill:#333333;stroke:#333333;" x="756.474688" xlink:href="#m7a8d0ad900" y="153.716563"/>
     </g>
    </g>
    <g id="text_29">
     <!-- 0.08 -->
     <g transform="translate(774.474688 156.341563)scale(0.1 -0.1)">
      <defs>
       <path d="M 2034 2216 
Q 1584 2216 1326 1975 
Q 1069 1734 1069 1313 
Q 1069 891 1326 650 
Q 1584 409 2034 409 
Q 2484 409 2743 651 
Q 3003 894 3003 1313 
Q 3003 1734 2745 1975 
Q 2488 2216 2034 2216 
z
M 1403 2484 
Q 997 2584 770 2862 
Q 544 3141 544 3541 
Q 544 4100 942 4425 
Q 1341 4750 2034 4750 
Q 2731 4750 3128 4425 
Q 3525 4100 3525 3541 
Q 3525 3141 3298 2862 
Q 3072 2584 2669 2484 
Q 3125 2378 3379 2068 
Q 3634 1759 3634 1313 
Q 3634 634 3220 271 
Q 2806 -91 2034 -91 
Q 1263 -91 848 271 
Q 434 634 434 1313 
Q 434 1759 690 2068 
Q 947 2378 1403 2484 
z
M 1172 3481 
Q 1172 3119 1398 2916 
Q 1625 2713 2034 2713 
Q 2441 2713 2670 2916 
Q 2900 3119 2900 3481 
Q 2900 3844 2670 4047 
Q 2441 4250 2034 4250 
Q 1625 4250 1398 4047 
Q 1172 3844 1172 3481 
z
" id="DejaVuSans-38" transform="scale(0.015625)"/>
      </defs>
      <use xlink:href="#DejaVuSans-30"/>
      <use x="63.623047" xlink:href="#DejaVuSans-2e"/>
      <use x="95.410156" xlink:href="#DejaVuSans-30"/>
      <use x="159.033203" xlink:href="#DejaVuSans-38"/>
     </g>
    </g>
    <g id="PathCollection_20">
     <defs>
      <path d="M 0 3.874467 
C 1.027521 3.874467 2.013095 3.466229 2.739662 2.739662 
C 3.466229 2.013095 3.874467 1.027521 3.874467 0 
C 3.874467 -1.027521 3.466229 -2.013095 2.739662 -2.739662 
C 2.013095 -3.466229 1.027521 -3.874467 0 -3.874467 
C -1.027521 -3.874467 -2.013095 -3.466229 -2.739662 -2.739662 
C -3.466229 -2.013095 -3.874467 -1.027521 -3.874467 0 
C -3.874467 1.027521 -3.466229 2.013095 -2.739662 2.739662 
C -2.013095 3.466229 -1.027521 3.874467 0 3.874467 
z
" id="m2a91054e4d" style="stroke:#333333;"/>
     </defs>
     <g>
      <use style="fill:#333333;stroke:#333333;" x="756.474688" xlink:href="#m2a91054e4d" y="168.394687"/>
     </g>
    </g>
    <g id="text_30">
     <!-- 0.16 -->
     <g transform="translate(774.474688 171.019687)scale(0.1 -0.1)">
      <defs>
       <path d="M 2113 2584 
Q 1688 2584 1439 2293 
Q 1191 2003 1191 1497 
Q 1191 994 1439 701 
Q 1688 409 2113 409 
Q 2538 409 2786 701 
Q 3034 994 3034 1497 
Q 3034 2003 2786 2293 
Q 2538 2584 2113 2584 
z
M 3366 4563 
L 3366 3988 
Q 3128 4100 2886 4159 
Q 2644 4219 2406 4219 
Q 1781 4219 1451 3797 
Q 1122 3375 1075 2522 
Q 1259 2794 1537 2939 
Q 1816 3084 2150 3084 
Q 2853 3084 3261 2657 
Q 3669 2231 3669 1497 
Q 3669 778 3244 343 
Q 2819 -91 2113 -91 
Q 1303 -91 875 529 
Q 447 1150 447 2328 
Q 447 3434 972 4092 
Q 1497 4750 2381 4750 
Q 2619 4750 2861 4703 
Q 3103 4656 3366 4563 
z
" id="DejaVuSans-36" transform="scale(0.015625)"/>
      </defs>
      <use xlink:href="#DejaVuSans-30"/>
      <use x="63.623047" xlink:href="#DejaVuSans-2e"/>
      <use x="95.410156" xlink:href="#DejaVuSans-31"/>
      <use x="159.033203" xlink:href="#DejaVuSans-36"/>
     </g>
    </g>
    <g id="PathCollection_21">
     <defs>
      <path d="M 0 4.597601 
C 1.219298 4.597601 2.388821 4.113168 3.250995 3.250995 
C 4.113168 2.388821 4.597601 1.219298 4.597601 0 
C 4.597601 -1.219298 4.113168 -2.388821 3.250995 -3.250995 
C 2.388821 -4.113168 1.219298 -4.597601 0 -4.597601 
C -1.219298 -4.597601 -2.388821 -4.113168 -3.250995 -3.250995 
C -4.113168 -2.388821 -4.597601 -1.219298 -4.597601 0 
C -4.597601 1.219298 -4.113168 2.388821 -3.250995 3.250995 
C -2.388821 4.113168 -1.219298 4.597601 0 4.597601 
z
" id="md5db11ac9d" style="stroke:#333333;"/>
     </defs>
     <g>
      <use style="fill:#333333;stroke:#333333;" x="756.474688" xlink:href="#md5db11ac9d" y="183.072812"/>
     </g>
    </g>
    <g id="text_31">
     <!-- 0.24 -->
     <g transform="translate(774.474688 185.697812)scale(0.1 -0.1)">
      <defs>
       <path d="M 2419 4116 
L 825 1625 
L 2419 1625 
L 2419 4116 
z
M 2253 4666 
L 3047 4666 
L 3047 1625 
L 3713 1625 
L 3713 1100 
L 3047 1100 
L 3047 0 
L 2419 0 
L 2419 1100 
L 313 1100 
L 313 1709 
L 2253 4666 
z
" id="DejaVuSans-34" transform="scale(0.015625)"/>
      </defs>
      <use xlink:href="#DejaVuSans-30"/>
      <use x="63.623047" xlink:href="#DejaVuSans-2e"/>
      <use x="95.410156" xlink:href="#DejaVuSans-32"/>
      <use x="159.033203" xlink:href="#DejaVuSans-34"/>
     </g>
    </g>
    <g id="PathCollection_22">
     <defs>
      <path d="M 0 5.221529 
C 1.384766 5.221529 2.713001 4.671356 3.692179 3.692179 
C 4.671356 2.713001 5.221529 1.384766 5.221529 0 
C 5.221529 -1.384766 4.671356 -2.713001 3.692179 -3.692179 
C 2.713001 -4.671356 1.384766 -5.221529 0 -5.221529 
C -1.384766 -5.221529 -2.713001 -4.671356 -3.692179 -3.692179 
C -4.671356 -2.713001 -5.221529 -1.384766 -5.221529 0 
C -5.221529 1.384766 -4.671356 2.713001 -3.692179 3.692179 
C -2.713001 4.671356 -1.384766 5.221529 0 5.221529 
z
" id="ma0e88c228d" style="stroke:#333333;"/>
     </defs>
     <g>
      <use style="fill:#333333;stroke:#333333;" x="756.474688" xlink:href="#ma0e88c228d" y="197.750937"/>
     </g>
    </g>
    <g id="text_32">
     <!-- 0.32 -->
     <g transform="translate(774.474688 200.375937)scale(0.1 -0.1)">
      <use xlink:href="#DejaVuSans-30"/>
      <use x="63.623047" xlink:href="#DejaVuSans-2e"/>
      <use x="95.410156" xlink:href="#DejaVuSans-33"/>
      <use x="159.033203" xlink:href="#DejaVuSans-32"/>
     </g>
    </g>
    <g id="PathCollection_23">
     <defs>
      <path d="M 0 5.778478 
C 1.53247 5.778478 3.002381 5.169621 4.086001 4.086001 
C 5.169621 3.002381 5.778478 1.53247 5.778478 0 
C 5.778478 -1.53247 5.169621 -3.002381 4.086001 -4.086001 
C 3.002381 -5.169621 1.53247 -5.778478 0 -5.778478 
C -1.53247 -5.778478 -3.002381 -5.169621 -4.086001 -4.086001 
C -5.169621 -3.002381 -5.778478 -1.53247 -5.778478 0 
C -5.778478 1.53247 -5.169621 3.002381 -4.086001 4.086001 
C -3.002381 5.169621 -1.53247 5.778478 0 5.778478 
z
" id="m3433c04dc7" style="stroke:#333333;"/>
     </defs>
     <g>
      <use style="fill:#333333;stroke:#333333;" x="756.474688" xlink:href="#m3433c04dc7" y="212.429062"/>
     </g>
    </g>
    <g id="text_33">
     <!-- 0.40 -->
     <g transform="translate(774.474688 215.054062)scale(0.1 -0.1)">
      <use xlink:href="#DejaVuSans-30"/>
      <use x="63.623047" xlink:href="#DejaVuSans-2e"/>
      <use x="95.410156" xlink:href="#DejaVuSans-34"/>
      <use x="159.033203" xlink:href="#DejaVuSans-30"/>
     </g>
    </g>
   </g>
  </g>
 </g>
 <defs>
  <clipPath id="p7379d7372f">
   <rect height="266.112" width="357.12" x="380.354687" y="22.318125"/>
  </clipPath>
 </defs>
</svg>
