<?xml version="1.0" encoding="utf-8" standalone="no"?>
<!DOCTYPE svg PUBLIC "-//W3C//DTD SVG 1.1//EN"
  "http://www.w3.org/Graphics/SVG/1.1/DTD/svg11.dtd">
<svg height="325.986375pt" version="1.1" viewBox="0 0 408.10125 325.986375" width="408.10125pt" xmlns="http://www.w3.org/2000/svg" xmlns:xlink="http://www.w3.org/1999/xlink">
 <metadata>
  <rdf:RDF xmlns:cc="http://creativecommons.org/ns#" xmlns:dc="http://purl.org/dc/elements/1.1/" xmlns:rdf="http://www.w3.org/1999/02/22-rdf-syntax-ns#">
   <cc:Work>
    <dc:type rdf:resource="http://purl.org/dc/dcmitype/StillImage"/>
    <dc:date>2022-03-05T18:16:30.536058</dc:date>
    <dc:format>image/svg+xml</dc:format>
    <dc:creator>
     <cc:Agent>
      <dc:title>Matplotlib v3.4.3, https://matplotlib.org/</dc:title>
     </cc:Agent>
    </dc:creator>
   </cc:Work>
  </rdf:RDF>
 </metadata>
 <defs>
  <style type="text/css">*{stroke-linecap:butt;stroke-linejoin:round;}</style>
 </defs>
 <g id="figure_1">
  <g id="patch_1">
   <path d="M 0 325.986375 
L 408.10125 325.986375 
L 408.10125 0 
L 0 0 
z
" style="fill:#ffffff;"/>
  </g>
  <g id="axes_1">
   <g id="patch_2">
    <path d="M 43.78125 288.430125 
L 400.90125 288.430125 
L 400.90125 22.318125 
L 43.78125 22.318125 
z
" style="fill:#ffffff;"/>
   </g>
   <g id="patch_3">
    <path clip-path="url(#p7bcab64389)" d="M 60.013977 288.430125 
L 60.013977 22.318125 
L 277.809193 22.318125 
L 277.809193 288.430125 
z
" style="fill:#029e73;opacity:0.2;"/>
   </g>
   <g id="matplotlib.axis_1">
    <g id="xtick_1">
     <g id="line2d_1">
      <defs>
       <path d="M 0 0 
L 0 3.5 
" id="m49614378cf" style="stroke:#000000;stroke-width:0.8;"/>
      </defs>
      <g>
       <use style="stroke:#000000;stroke-width:0.8;" x="60.852373" xlink:href="#m49614378cf" y="288.430125"/>
      </g>
     </g>
     <g id="text_1">
      <!-- −8 -->
      <g transform="translate(53.481279 303.028562)scale(0.1 -0.1)">
       <defs>
        <path d="M 678 2272 
L 4684 2272 
L 4684 1741 
L 678 1741 
L 678 2272 
z
" id="DejaVuSans-2212" transform="scale(0.015625)"/>
        <path d="M 2034 2216 
Q 1584 2216 1326 1975 
Q 1069 1734 1069 1313 
Q 1069 891 1326 650 
Q 1584 409 2034 409 
Q 2484 409 2743 651 
Q 3003 894 3003 1313 
Q 3003 1734 2745 1975 
Q 2488 2216 2034 2216 
z
M 1403 2484 
Q 997 2584 770 2862 
Q 544 3141 544 3541 
Q 544 4100 942 4425 
Q 1341 4750 2034 4750 
Q 2731 4750 3128 4425 
Q 3525 4100 3525 3541 
Q 3525 3141 3298 2862 
Q 3072 2584 2669 2484 
Q 3125 2378 3379 2068 
Q 3634 1759 3634 1313 
Q 3634 634 3220 271 
Q 2806 -91 2034 -91 
Q 1263 -91 848 271 
Q 434 634 434 1313 
Q 434 1759 690 2068 
Q 947 2378 1403 2484 
z
M 1172 3481 
Q 1172 3119 1398 2916 
Q 1625 2713 2034 2713 
Q 2441 2713 2670 2916 
Q 2900 3119 2900 3481 
Q 2900 3844 2670 4047 
Q 2441 4250 2034 4250 
Q 1625 4250 1398 4047 
Q 1172 3844 1172 3481 
z
" id="DejaVuSans-38" transform="scale(0.015625)"/>
       </defs>
       <use xlink:href="#DejaVuSans-2212"/>
       <use x="83.789062" xlink:href="#DejaVuSans-38"/>
      </g>
     </g>
    </g>
    <g id="xtick_2">
     <g id="line2d_2">
      <g>
       <use style="stroke:#000000;stroke-width:0.8;" x="110.670242" xlink:href="#m49614378cf" y="288.430125"/>
      </g>
     </g>
     <g id="text_2">
      <!-- −6 -->
      <g transform="translate(103.299148 303.028562)scale(0.1 -0.1)">
       <defs>
        <path d="M 2113 2584 
Q 1688 2584 1439 2293 
Q 1191 2003 1191 1497 
Q 1191 994 1439 701 
Q 1688 409 2113 409 
Q 2538 409 2786 701 
Q 3034 994 3034 1497 
Q 3034 2003 2786 2293 
Q 2538 2584 2113 2584 
z
M 3366 4563 
L 3366 3988 
Q 3128 4100 2886 4159 
Q 2644 4219 2406 4219 
Q 1781 4219 1451 3797 
Q 1122 3375 1075 2522 
Q 1259 2794 1537 2939 
Q 1816 3084 2150 3084 
Q 2853 3084 3261 2657 
Q 3669 2231 3669 1497 
Q 3669 778 3244 343 
Q 2819 -91 2113 -91 
Q 1303 -91 875 529 
Q 447 1150 447 2328 
Q 447 3434 972 4092 
Q 1497 4750 2381 4750 
Q 2619 4750 2861 4703 
Q 3103 4656 3366 4563 
z
" id="DejaVuSans-36" transform="scale(0.015625)"/>
       </defs>
       <use xlink:href="#DejaVuSans-2212"/>
       <use x="83.789062" xlink:href="#DejaVuSans-36"/>
      </g>
     </g>
    </g>
    <g id="xtick_3">
     <g id="line2d_3">
      <g>
       <use style="stroke:#000000;stroke-width:0.8;" x="160.488111" xlink:href="#m49614378cf" y="288.430125"/>
      </g>
     </g>
     <g id="text_3">
      <!-- −4 -->
      <g transform="translate(153.117018 303.028562)scale(0.1 -0.1)">
       <defs>
        <path d="M 2419 4116 
L 825 1625 
L 2419 1625 
L 2419 4116 
z
M 2253 4666 
L 3047 4666 
L 3047 1625 
L 3713 1625 
L 3713 1100 
L 3047 1100 
L 3047 0 
L 2419 0 
L 2419 1100 
L 313 1100 
L 313 1709 
L 2253 4666 
z
" id="DejaVuSans-34" transform="scale(0.015625)"/>
       </defs>
       <use xlink:href="#DejaVuSans-2212"/>
       <use x="83.789062" xlink:href="#DejaVuSans-34"/>
      </g>
     </g>
    </g>
    <g id="xtick_4">
     <g id="line2d_4">
      <g>
       <use style="stroke:#000000;stroke-width:0.8;" x="210.30598" xlink:href="#m49614378cf" y="288.430125"/>
      </g>
     </g>
     <g id="text_4">
      <!-- −2 -->
      <g transform="translate(202.934887 303.028562)scale(0.1 -0.1)">
       <defs>
        <path d="M 1228 531 
L 3431 531 
L 3431 0 
L 469 0 
L 469 531 
Q 828 903 1448 1529 
Q 2069 2156 2228 2338 
Q 2531 2678 2651 2914 
Q 2772 3150 2772 3378 
Q 2772 3750 2511 3984 
Q 2250 4219 1831 4219 
Q 1534 4219 1204 4116 
Q 875 4013 500 3803 
L 500 4441 
Q 881 4594 1212 4672 
Q 1544 4750 1819 4750 
Q 2544 4750 2975 4387 
Q 3406 4025 3406 3419 
Q 3406 3131 3298 2873 
Q 3191 2616 2906 2266 
Q 2828 2175 2409 1742 
Q 1991 1309 1228 531 
z
" id="DejaVuSans-32" transform="scale(0.015625)"/>
       </defs>
       <use xlink:href="#DejaVuSans-2212"/>
       <use x="83.789062" xlink:href="#DejaVuSans-32"/>
      </g>
     </g>
    </g>
    <g id="xtick_5">
     <g id="line2d_5">
      <g>
       <use style="stroke:#000000;stroke-width:0.8;" x="260.12385" xlink:href="#m49614378cf" y="288.430125"/>
      </g>
     </g>
     <g id="text_5">
      <!-- 0 -->
      <g transform="translate(256.9426 303.028562)scale(0.1 -0.1)">
       <defs>
        <path d="M 2034 4250 
Q 1547 4250 1301 3770 
Q 1056 3291 1056 2328 
Q 1056 1369 1301 889 
Q 1547 409 2034 409 
Q 2525 409 2770 889 
Q 3016 1369 3016 2328 
Q 3016 3291 2770 3770 
Q 2525 4250 2034 4250 
z
M 2034 4750 
Q 2819 4750 3233 4129 
Q 3647 3509 3647 2328 
Q 3647 1150 3233 529 
Q 2819 -91 2034 -91 
Q 1250 -91 836 529 
Q 422 1150 422 2328 
Q 422 3509 836 4129 
Q 1250 4750 2034 4750 
z
" id="DejaVuSans-30" transform="scale(0.015625)"/>
       </defs>
       <use xlink:href="#DejaVuSans-30"/>
      </g>
     </g>
    </g>
    <g id="xtick_6">
     <g id="line2d_6">
      <g>
       <use style="stroke:#000000;stroke-width:0.8;" x="309.941719" xlink:href="#m49614378cf" y="288.430125"/>
      </g>
     </g>
     <g id="text_6">
      <!-- 2 -->
      <g transform="translate(306.760469 303.028562)scale(0.1 -0.1)">
       <use xlink:href="#DejaVuSans-32"/>
      </g>
     </g>
    </g>
    <g id="xtick_7">
     <g id="line2d_7">
      <g>
       <use style="stroke:#000000;stroke-width:0.8;" x="359.759588" xlink:href="#m49614378cf" y="288.430125"/>
      </g>
     </g>
     <g id="text_7">
      <!-- 4 -->
      <g transform="translate(356.578338 303.028562)scale(0.1 -0.1)">
       <use xlink:href="#DejaVuSans-34"/>
      </g>
     </g>
    </g>
    <g id="text_8">
     <!-- Distance -->
     <g transform="translate(200.47875 316.706687)scale(0.1 -0.1)">
      <defs>
       <path d="M 1259 4147 
L 1259 519 
L 2022 519 
Q 2988 519 3436 956 
Q 3884 1394 3884 2338 
Q 3884 3275 3436 3711 
Q 2988 4147 2022 4147 
L 1259 4147 
z
M 628 4666 
L 1925 4666 
Q 3281 4666 3915 4102 
Q 4550 3538 4550 2338 
Q 4550 1131 3912 565 
Q 3275 0 1925 0 
L 628 0 
L 628 4666 
z
" id="DejaVuSans-44" transform="scale(0.015625)"/>
       <path d="M 603 3500 
L 1178 3500 
L 1178 0 
L 603 0 
L 603 3500 
z
M 603 4863 
L 1178 4863 
L 1178 4134 
L 603 4134 
L 603 4863 
z
" id="DejaVuSans-69" transform="scale(0.015625)"/>
       <path d="M 2834 3397 
L 2834 2853 
Q 2591 2978 2328 3040 
Q 2066 3103 1784 3103 
Q 1356 3103 1142 2972 
Q 928 2841 928 2578 
Q 928 2378 1081 2264 
Q 1234 2150 1697 2047 
L 1894 2003 
Q 2506 1872 2764 1633 
Q 3022 1394 3022 966 
Q 3022 478 2636 193 
Q 2250 -91 1575 -91 
Q 1294 -91 989 -36 
Q 684 19 347 128 
L 347 722 
Q 666 556 975 473 
Q 1284 391 1588 391 
Q 1994 391 2212 530 
Q 2431 669 2431 922 
Q 2431 1156 2273 1281 
Q 2116 1406 1581 1522 
L 1381 1569 
Q 847 1681 609 1914 
Q 372 2147 372 2553 
Q 372 3047 722 3315 
Q 1072 3584 1716 3584 
Q 2034 3584 2315 3537 
Q 2597 3491 2834 3397 
z
" id="DejaVuSans-73" transform="scale(0.015625)"/>
       <path d="M 1172 4494 
L 1172 3500 
L 2356 3500 
L 2356 3053 
L 1172 3053 
L 1172 1153 
Q 1172 725 1289 603 
Q 1406 481 1766 481 
L 2356 481 
L 2356 0 
L 1766 0 
Q 1100 0 847 248 
Q 594 497 594 1153 
L 594 3053 
L 172 3053 
L 172 3500 
L 594 3500 
L 594 4494 
L 1172 4494 
z
" id="DejaVuSans-74" transform="scale(0.015625)"/>
       <path d="M 2194 1759 
Q 1497 1759 1228 1600 
Q 959 1441 959 1056 
Q 959 750 1161 570 
Q 1363 391 1709 391 
Q 2188 391 2477 730 
Q 2766 1069 2766 1631 
L 2766 1759 
L 2194 1759 
z
M 3341 1997 
L 3341 0 
L 2766 0 
L 2766 531 
Q 2569 213 2275 61 
Q 1981 -91 1556 -91 
Q 1019 -91 701 211 
Q 384 513 384 1019 
Q 384 1609 779 1909 
Q 1175 2209 1959 2209 
L 2766 2209 
L 2766 2266 
Q 2766 2663 2505 2880 
Q 2244 3097 1772 3097 
Q 1472 3097 1187 3025 
Q 903 2953 641 2809 
L 641 3341 
Q 956 3463 1253 3523 
Q 1550 3584 1831 3584 
Q 2591 3584 2966 3190 
Q 3341 2797 3341 1997 
z
" id="DejaVuSans-61" transform="scale(0.015625)"/>
       <path d="M 3513 2113 
L 3513 0 
L 2938 0 
L 2938 2094 
Q 2938 2591 2744 2837 
Q 2550 3084 2163 3084 
Q 1697 3084 1428 2787 
Q 1159 2491 1159 1978 
L 1159 0 
L 581 0 
L 581 3500 
L 1159 3500 
L 1159 2956 
Q 1366 3272 1645 3428 
Q 1925 3584 2291 3584 
Q 2894 3584 3203 3211 
Q 3513 2838 3513 2113 
z
" id="DejaVuSans-6e" transform="scale(0.015625)"/>
       <path d="M 3122 3366 
L 3122 2828 
Q 2878 2963 2633 3030 
Q 2388 3097 2138 3097 
Q 1578 3097 1268 2742 
Q 959 2388 959 1747 
Q 959 1106 1268 751 
Q 1578 397 2138 397 
Q 2388 397 2633 464 
Q 2878 531 3122 666 
L 3122 134 
Q 2881 22 2623 -34 
Q 2366 -91 2075 -91 
Q 1284 -91 818 406 
Q 353 903 353 1747 
Q 353 2603 823 3093 
Q 1294 3584 2113 3584 
Q 2378 3584 2631 3529 
Q 2884 3475 3122 3366 
z
" id="DejaVuSans-63" transform="scale(0.015625)"/>
       <path d="M 3597 1894 
L 3597 1613 
L 953 1613 
Q 991 1019 1311 708 
Q 1631 397 2203 397 
Q 2534 397 2845 478 
Q 3156 559 3463 722 
L 3463 178 
Q 3153 47 2828 -22 
Q 2503 -91 2169 -91 
Q 1331 -91 842 396 
Q 353 884 353 1716 
Q 353 2575 817 3079 
Q 1281 3584 2069 3584 
Q 2775 3584 3186 3129 
Q 3597 2675 3597 1894 
z
M 3022 2063 
Q 3016 2534 2758 2815 
Q 2500 3097 2075 3097 
Q 1594 3097 1305 2825 
Q 1016 2553 972 2059 
L 3022 2063 
z
" id="DejaVuSans-65" transform="scale(0.015625)"/>
      </defs>
      <use xlink:href="#DejaVuSans-44"/>
      <use x="77.001953" xlink:href="#DejaVuSans-69"/>
      <use x="104.785156" xlink:href="#DejaVuSans-73"/>
      <use x="156.884766" xlink:href="#DejaVuSans-74"/>
      <use x="196.09375" xlink:href="#DejaVuSans-61"/>
      <use x="257.373047" xlink:href="#DejaVuSans-6e"/>
      <use x="320.751953" xlink:href="#DejaVuSans-63"/>
      <use x="375.732422" xlink:href="#DejaVuSans-65"/>
     </g>
    </g>
   </g>
   <g id="matplotlib.axis_2">
    <g id="ytick_1">
     <g id="line2d_8">
      <defs>
       <path d="M 0 0 
L -3.5 0 
" id="mce362a871b" style="stroke:#000000;stroke-width:0.8;"/>
      </defs>
      <g>
       <use style="stroke:#000000;stroke-width:0.8;" x="43.78125" xlink:href="#mce362a871b" y="276.334125"/>
      </g>
     </g>
     <g id="text_9">
      <!-- 0.0 -->
      <g transform="translate(20.878125 280.133344)scale(0.1 -0.1)">
       <defs>
        <path d="M 684 794 
L 1344 794 
L 1344 0 
L 684 0 
L 684 794 
z
" id="DejaVuSans-2e" transform="scale(0.015625)"/>
       </defs>
       <use xlink:href="#DejaVuSans-30"/>
       <use x="63.623047" xlink:href="#DejaVuSans-2e"/>
       <use x="95.410156" xlink:href="#DejaVuSans-30"/>
      </g>
     </g>
    </g>
    <g id="ytick_2">
     <g id="line2d_9">
      <g>
       <use style="stroke:#000000;stroke-width:0.8;" x="43.78125" xlink:href="#mce362a871b" y="227.771548"/>
      </g>
     </g>
     <g id="text_10">
      <!-- 0.5 -->
      <g transform="translate(20.878125 231.570767)scale(0.1 -0.1)">
       <defs>
        <path d="M 691 4666 
L 3169 4666 
L 3169 4134 
L 1269 4134 
L 1269 2991 
Q 1406 3038 1543 3061 
Q 1681 3084 1819 3084 
Q 2600 3084 3056 2656 
Q 3513 2228 3513 1497 
Q 3513 744 3044 326 
Q 2575 -91 1722 -91 
Q 1428 -91 1123 -41 
Q 819 9 494 109 
L 494 744 
Q 775 591 1075 516 
Q 1375 441 1709 441 
Q 2250 441 2565 725 
Q 2881 1009 2881 1497 
Q 2881 1984 2565 2268 
Q 2250 2553 1709 2553 
Q 1456 2553 1204 2497 
Q 953 2441 691 2322 
L 691 4666 
z
" id="DejaVuSans-35" transform="scale(0.015625)"/>
       </defs>
       <use xlink:href="#DejaVuSans-30"/>
       <use x="63.623047" xlink:href="#DejaVuSans-2e"/>
       <use x="95.410156" xlink:href="#DejaVuSans-35"/>
      </g>
     </g>
    </g>
    <g id="ytick_3">
     <g id="line2d_10">
      <g>
       <use style="stroke:#000000;stroke-width:0.8;" x="43.78125" xlink:href="#mce362a871b" y="179.208971"/>
      </g>
     </g>
     <g id="text_11">
      <!-- 1.0 -->
      <g transform="translate(20.878125 183.00819)scale(0.1 -0.1)">
       <defs>
        <path d="M 794 531 
L 1825 531 
L 1825 4091 
L 703 3866 
L 703 4441 
L 1819 4666 
L 2450 4666 
L 2450 531 
L 3481 531 
L 3481 0 
L 794 0 
L 794 531 
z
" id="DejaVuSans-31" transform="scale(0.015625)"/>
       </defs>
       <use xlink:href="#DejaVuSans-31"/>
       <use x="63.623047" xlink:href="#DejaVuSans-2e"/>
       <use x="95.410156" xlink:href="#DejaVuSans-30"/>
      </g>
     </g>
    </g>
    <g id="ytick_4">
     <g id="line2d_11">
      <g>
       <use style="stroke:#000000;stroke-width:0.8;" x="43.78125" xlink:href="#mce362a871b" y="130.646394"/>
      </g>
     </g>
     <g id="text_12">
      <!-- 1.5 -->
      <g transform="translate(20.878125 134.445612)scale(0.1 -0.1)">
       <use xlink:href="#DejaVuSans-31"/>
       <use x="63.623047" xlink:href="#DejaVuSans-2e"/>
       <use x="95.410156" xlink:href="#DejaVuSans-35"/>
      </g>
     </g>
    </g>
    <g id="ytick_5">
     <g id="line2d_12">
      <g>
       <use style="stroke:#000000;stroke-width:0.8;" x="43.78125" xlink:href="#mce362a871b" y="82.083817"/>
      </g>
     </g>
     <g id="text_13">
      <!-- 2.0 -->
      <g transform="translate(20.878125 85.883035)scale(0.1 -0.1)">
       <use xlink:href="#DejaVuSans-32"/>
       <use x="63.623047" xlink:href="#DejaVuSans-2e"/>
       <use x="95.410156" xlink:href="#DejaVuSans-30"/>
      </g>
     </g>
    </g>
    <g id="ytick_6">
     <g id="line2d_13">
      <g>
       <use style="stroke:#000000;stroke-width:0.8;" x="43.78125" xlink:href="#mce362a871b" y="33.521239"/>
      </g>
     </g>
     <g id="text_14">
      <!-- 2.5 -->
      <g transform="translate(20.878125 37.320458)scale(0.1 -0.1)">
       <use xlink:href="#DejaVuSans-32"/>
       <use x="63.623047" xlink:href="#DejaVuSans-2e"/>
       <use x="95.410156" xlink:href="#DejaVuSans-35"/>
      </g>
     </g>
    </g>
    <g id="text_15">
     <!-- Density -->
     <g transform="translate(14.798438 174.382719)rotate(-90)scale(0.1 -0.1)">
      <defs>
       <path d="M 2059 -325 
Q 1816 -950 1584 -1140 
Q 1353 -1331 966 -1331 
L 506 -1331 
L 506 -850 
L 844 -850 
Q 1081 -850 1212 -737 
Q 1344 -625 1503 -206 
L 1606 56 
L 191 3500 
L 800 3500 
L 1894 763 
L 2988 3500 
L 3597 3500 
L 2059 -325 
z
" id="DejaVuSans-79" transform="scale(0.015625)"/>
      </defs>
      <use xlink:href="#DejaVuSans-44"/>
      <use x="77.001953" xlink:href="#DejaVuSans-65"/>
      <use x="138.525391" xlink:href="#DejaVuSans-6e"/>
      <use x="201.904297" xlink:href="#DejaVuSans-73"/>
      <use x="254.003906" xlink:href="#DejaVuSans-69"/>
      <use x="281.787109" xlink:href="#DejaVuSans-74"/>
      <use x="320.996094" xlink:href="#DejaVuSans-79"/>
     </g>
    </g>
   </g>
   <g id="line2d_14">
    <path clip-path="url(#p7bcab64389)" d="M 60.013977 275.653805 
L 61.800471 275.768763 
L 66.997542 276.293916 
L 71.869796 276.333929 
L 85.024883 276.226545 
L 95.743842 275.490548 
L 98.017561 275.32111 
L 100.128871 275.424829 
L 107.274844 275.998967 
L 110.198197 275.925216 
L 118.481029 275.313551 
L 120.105114 274.920061 
L 124.977368 273.548989 
L 127.575904 273.197956 
L 129.199988 273.172508 
L 130.499256 273.3838 
L 131.798524 273.835198 
L 135.696328 275.395313 
L 136.995595 275.552695 
L 138.61968 275.501569 
L 144.141568 275.140519 
L 146.902512 275.254347 
L 156.80943 275.788864 
L 159.407965 275.463507 
L 161.194458 275.354299 
L 162.980952 275.482056 
L 168.665248 276.076364 
L 173.86232 276.294031 
L 178.734574 276.229813 
L 187.991857 275.945771 
L 194.650605 275.669139 
L 199.035634 275.624113 
L 200.822127 275.332325 
L 205.85679 274.296913 
L 207.318466 274.363041 
L 209.104959 274.688662 
L 213.002763 275.491458 
L 214.951664 275.620136 
L 217.387791 275.523723 
L 220.635961 275.417441 
L 226.645075 275.364468 
L 231.030104 275.259028 
L 239.637753 275.344102 
L 245.484458 274.97387 
L 248.245402 275.185679 
L 250.843938 275.30842 
L 253.280065 275.188495 
L 259.451587 274.699579 
L 261.725306 274.981374 
L 264.323841 275.243043 
L 266.435151 275.21133 
L 269.520913 274.900243 
L 274.06835 274.244922 
L 274.717984 273.938515 
L 275.367618 273.358255 
L 275.854843 272.607664 
L 276.342069 271.426286 
L 276.829294 269.612926 
L 277.316519 266.904843 
L 277.803745 262.979136 
L 278.29097 257.461452 
L 278.940604 246.933894 
L 279.590238 231.972095 
L 280.239872 211.964923 
L 281.051914 179.911432 
L 282.513591 109.987764 
L 283.488042 66.96048 
L 284.137675 46.440026 
L 284.624901 37.322178 
L 284.949718 34.657385 
L 285.112126 34.414125 
L 285.274535 34.86093 
L 285.599352 37.854511 
L 285.924169 43.543205 
L 286.411394 56.614135 
L 287.061028 80.761796 
L 288.685113 154.391407 
L 289.659564 193.149306 
L 290.471606 217.471074 
L 291.12124 231.472658 
L 291.770874 241.231862 
L 292.420508 247.656285 
L 293.070142 251.661299 
L 293.719776 254.073976 
L 294.36941 255.522259 
L 295.181452 256.651968 
L 297.130354 259.022645 
L 298.104805 260.713779 
L 299.404072 263.512945 
L 301.190566 267.362636 
L 302.002608 268.641511 
L 302.652242 269.271475 
L 303.139467 269.44859 
L 303.626693 269.327411 
L 304.113918 268.866177 
L 304.601144 268.032661 
L 305.250777 266.314471 
L 305.900411 263.927199 
L 306.874862 259.391168 
L 308.498947 251.765923 
L 309.148581 249.818981 
L 309.635806 249.085229 
L 309.960623 248.98952 
L 310.28544 249.213334 
L 310.610257 249.755047 
L 311.097483 251.121905 
L 311.747117 253.811997 
L 312.883976 259.882492 
L 314.345652 267.51315 
L 315.157695 270.727524 
L 315.969737 273.032789 
L 316.619371 274.288737 
L 317.269005 275.127401 
L 317.918639 275.656195 
L 318.730681 276.026328 
L 319.86754 276.244512 
L 321.816442 276.3265 
L 334.321895 276.334125 
L 384.668523 276.334125 
L 384.668523 276.334125 
" style="fill:none;stroke:#0173b2;stroke-linecap:square;"/>
   </g>
   <g id="line2d_15">
    <path clip-path="url(#p7bcab64389)" d="M 60.013977 276.31995 
L 106.62521 276.21527 
L 131.473707 276.097823 
L 151.44995 276.16767 
L 169.477291 276.144006 
L 195.300239 276.24295 
L 214.951664 276.13202 
L 269.520913 275.813828 
L 273.743533 275.650655 
L 274.717984 275.431961 
L 275.367618 275.107728 
L 276.017252 274.49906 
L 276.504477 273.736477 
L 276.991702 272.579647 
L 277.478928 270.873841 
L 277.966153 268.432232 
L 278.453379 265.04398 
L 279.103013 258.67596 
L 279.752647 249.777603 
L 280.564689 234.72802 
L 281.53914 211.481879 
L 283.65045 158.732741 
L 284.300084 148.71664 
L 284.787309 144.808951 
L 285.112126 144.086571 
L 285.274535 144.297048 
L 285.599352 145.838349 
L 285.924169 148.830249 
L 286.411394 155.692588 
L 287.061028 168.261971 
L 289.659564 223.71888 
L 290.309198 232.228194 
L 290.958832 237.669242 
L 291.446057 239.903309 
L 291.770874 240.627457 
L 292.095691 240.82413 
L 292.420508 240.562181 
L 292.745325 239.914027 
L 293.23255 238.370704 
L 294.044593 234.813596 
L 295.668677 227.284587 
L 296.318311 225.239279 
L 296.805537 224.370758 
L 297.130354 224.147806 
L 297.455171 224.239194 
L 297.779988 224.63143 
L 298.267213 225.771702 
L 298.916847 228.245388 
L 299.728889 232.471816 
L 301.840199 244.294851 
L 302.489833 246.528971 
L 302.81465 247.133821 
L 303.139467 247.313792 
L 303.301876 247.228529 
L 303.626693 246.66898 
L 303.95151 245.547284 
L 304.438735 242.707632 
L 304.925961 238.365912 
L 305.575594 230.216369 
L 306.387637 216.641285 
L 308.823764 172.771326 
L 309.310989 168.184453 
L 309.635806 166.585226 
L 309.798215 166.25875 
L 309.960623 166.251838 
L 310.123032 166.566143 
L 310.447849 168.155764 
L 310.935074 172.838029 
L 311.4223 179.951619 
L 312.234342 195.748267 
L 314.670469 246.396359 
L 315.482512 257.800072 
L 316.132145 264.33769 
L 316.781779 268.89001 
L 317.431413 271.873736 
L 318.081047 273.714847 
L 318.730681 274.78308 
L 319.380315 275.363415 
L 320.029949 275.656889 
L 321.0044 275.831971 
L 325.551837 276.108591 
L 327.987964 276.17188 
L 329.612049 276.010391 
L 331.236134 275.632814 
L 334.159486 274.89082 
L 335.296346 274.867541 
L 336.595614 275.090677 
L 341.305459 276.201297 
L 343.579178 276.314916 
L 351.374785 276.3326 
L 384.668523 276.319785 
L 384.668523 276.319785 
" style="fill:none;stroke:#d55e00;stroke-dasharray:3.7,1.6;stroke-dashoffset:0;"/>
   </g>
   <g id="patch_4">
    <path d="M 43.78125 288.430125 
L 43.78125 22.318125 
" style="fill:none;stroke:#000000;stroke-linecap:square;stroke-linejoin:miter;stroke-width:0.8;"/>
   </g>
   <g id="patch_5">
    <path d="M 400.90125 288.430125 
L 400.90125 22.318125 
" style="fill:none;stroke:#000000;stroke-linecap:square;stroke-linejoin:miter;stroke-width:0.8;"/>
   </g>
   <g id="patch_6">
    <path d="M 43.78125 288.430125 
L 400.90125 288.430125 
" style="fill:none;stroke:#000000;stroke-linecap:square;stroke-linejoin:miter;stroke-width:0.8;"/>
   </g>
   <g id="patch_7">
    <path d="M 43.78125 22.318125 
L 400.90125 22.318125 
" style="fill:none;stroke:#000000;stroke-linecap:square;stroke-linejoin:miter;stroke-width:0.8;"/>
   </g>
   <g id="text_16">
    <!-- Distance Distributions -->
    <g transform="translate(156.07125 16.318125)scale(0.12 -0.12)">
     <defs>
      <path id="DejaVuSans-20" transform="scale(0.015625)"/>
      <path d="M 2631 2963 
Q 2534 3019 2420 3045 
Q 2306 3072 2169 3072 
Q 1681 3072 1420 2755 
Q 1159 2438 1159 1844 
L 1159 0 
L 581 0 
L 581 3500 
L 1159 3500 
L 1159 2956 
Q 1341 3275 1631 3429 
Q 1922 3584 2338 3584 
Q 2397 3584 2469 3576 
Q 2541 3569 2628 3553 
L 2631 2963 
z
" id="DejaVuSans-72" transform="scale(0.015625)"/>
      <path d="M 3116 1747 
Q 3116 2381 2855 2742 
Q 2594 3103 2138 3103 
Q 1681 3103 1420 2742 
Q 1159 2381 1159 1747 
Q 1159 1113 1420 752 
Q 1681 391 2138 391 
Q 2594 391 2855 752 
Q 3116 1113 3116 1747 
z
M 1159 2969 
Q 1341 3281 1617 3432 
Q 1894 3584 2278 3584 
Q 2916 3584 3314 3078 
Q 3713 2572 3713 1747 
Q 3713 922 3314 415 
Q 2916 -91 2278 -91 
Q 1894 -91 1617 61 
Q 1341 213 1159 525 
L 1159 0 
L 581 0 
L 581 4863 
L 1159 4863 
L 1159 2969 
z
" id="DejaVuSans-62" transform="scale(0.015625)"/>
      <path d="M 544 1381 
L 544 3500 
L 1119 3500 
L 1119 1403 
Q 1119 906 1312 657 
Q 1506 409 1894 409 
Q 2359 409 2629 706 
Q 2900 1003 2900 1516 
L 2900 3500 
L 3475 3500 
L 3475 0 
L 2900 0 
L 2900 538 
Q 2691 219 2414 64 
Q 2138 -91 1772 -91 
Q 1169 -91 856 284 
Q 544 659 544 1381 
z
M 1991 3584 
L 1991 3584 
z
" id="DejaVuSans-75" transform="scale(0.015625)"/>
      <path d="M 1959 3097 
Q 1497 3097 1228 2736 
Q 959 2375 959 1747 
Q 959 1119 1226 758 
Q 1494 397 1959 397 
Q 2419 397 2687 759 
Q 2956 1122 2956 1747 
Q 2956 2369 2687 2733 
Q 2419 3097 1959 3097 
z
M 1959 3584 
Q 2709 3584 3137 3096 
Q 3566 2609 3566 1747 
Q 3566 888 3137 398 
Q 2709 -91 1959 -91 
Q 1206 -91 779 398 
Q 353 888 353 1747 
Q 353 2609 779 3096 
Q 1206 3584 1959 3584 
z
" id="DejaVuSans-6f" transform="scale(0.015625)"/>
     </defs>
     <use xlink:href="#DejaVuSans-44"/>
     <use x="77.001953" xlink:href="#DejaVuSans-69"/>
     <use x="104.785156" xlink:href="#DejaVuSans-73"/>
     <use x="156.884766" xlink:href="#DejaVuSans-74"/>
     <use x="196.09375" xlink:href="#DejaVuSans-61"/>
     <use x="257.373047" xlink:href="#DejaVuSans-6e"/>
     <use x="320.751953" xlink:href="#DejaVuSans-63"/>
     <use x="375.732422" xlink:href="#DejaVuSans-65"/>
     <use x="437.255859" xlink:href="#DejaVuSans-20"/>
     <use x="469.042969" xlink:href="#DejaVuSans-44"/>
     <use x="546.044922" xlink:href="#DejaVuSans-69"/>
     <use x="573.828125" xlink:href="#DejaVuSans-73"/>
     <use x="625.927734" xlink:href="#DejaVuSans-74"/>
     <use x="665.136719" xlink:href="#DejaVuSans-72"/>
     <use x="706.25" xlink:href="#DejaVuSans-69"/>
     <use x="734.033203" xlink:href="#DejaVuSans-62"/>
     <use x="797.509766" xlink:href="#DejaVuSans-75"/>
     <use x="860.888672" xlink:href="#DejaVuSans-74"/>
     <use x="900.097656" xlink:href="#DejaVuSans-69"/>
     <use x="927.880859" xlink:href="#DejaVuSans-6f"/>
     <use x="989.0625" xlink:href="#DejaVuSans-6e"/>
     <use x="1052.441406" xlink:href="#DejaVuSans-73"/>
    </g>
   </g>
   <g id="legend_1">
    <g id="patch_8">
     <path d="M 311.548125 59.674375 
L 393.90125 59.674375 
Q 395.90125 59.674375 395.90125 57.674375 
L 395.90125 29.318125 
Q 395.90125 27.318125 393.90125 27.318125 
L 311.548125 27.318125 
Q 309.548125 27.318125 309.548125 29.318125 
L 309.548125 57.674375 
Q 309.548125 59.674375 311.548125 59.674375 
z
" style="fill:#ffffff;opacity:0.8;stroke:#cccccc;stroke-linejoin:miter;"/>
    </g>
    <g id="line2d_16">
     <path d="M 313.548125 35.416562 
L 333.548125 35.416562 
" style="fill:none;stroke:#0173b2;stroke-linecap:square;"/>
    </g>
    <g id="line2d_17"/>
    <g id="text_17">
     <!-- Drugs -->
     <g transform="translate(341.548125 38.916562)scale(0.1 -0.1)">
      <defs>
       <path d="M 2906 1791 
Q 2906 2416 2648 2759 
Q 2391 3103 1925 3103 
Q 1463 3103 1205 2759 
Q 947 2416 947 1791 
Q 947 1169 1205 825 
Q 1463 481 1925 481 
Q 2391 481 2648 825 
Q 2906 1169 2906 1791 
z
M 3481 434 
Q 3481 -459 3084 -895 
Q 2688 -1331 1869 -1331 
Q 1566 -1331 1297 -1286 
Q 1028 -1241 775 -1147 
L 775 -588 
Q 1028 -725 1275 -790 
Q 1522 -856 1778 -856 
Q 2344 -856 2625 -561 
Q 2906 -266 2906 331 
L 2906 616 
Q 2728 306 2450 153 
Q 2172 0 1784 0 
Q 1141 0 747 490 
Q 353 981 353 1791 
Q 353 2603 747 3093 
Q 1141 3584 1784 3584 
Q 2172 3584 2450 3431 
Q 2728 3278 2906 2969 
L 2906 3500 
L 3481 3500 
L 3481 434 
z
" id="DejaVuSans-67" transform="scale(0.015625)"/>
      </defs>
      <use xlink:href="#DejaVuSans-44"/>
      <use x="77.001953" xlink:href="#DejaVuSans-72"/>
      <use x="118.115234" xlink:href="#DejaVuSans-75"/>
      <use x="181.494141" xlink:href="#DejaVuSans-67"/>
      <use x="244.970703" xlink:href="#DejaVuSans-73"/>
     </g>
    </g>
    <g id="line2d_18">
     <path d="M 313.548125 50.094687 
L 333.548125 50.094687 
" style="fill:none;stroke:#d55e00;stroke-dasharray:3.7,1.6;stroke-dashoffset:0;"/>
    </g>
    <g id="line2d_19"/>
    <g id="text_18">
     <!-- Reference -->
     <g transform="translate(341.548125 53.594687)scale(0.1 -0.1)">
      <defs>
       <path d="M 2841 2188 
Q 3044 2119 3236 1894 
Q 3428 1669 3622 1275 
L 4263 0 
L 3584 0 
L 2988 1197 
Q 2756 1666 2539 1819 
Q 2322 1972 1947 1972 
L 1259 1972 
L 1259 0 
L 628 0 
L 628 4666 
L 2053 4666 
Q 2853 4666 3247 4331 
Q 3641 3997 3641 3322 
Q 3641 2881 3436 2590 
Q 3231 2300 2841 2188 
z
M 1259 4147 
L 1259 2491 
L 2053 2491 
Q 2509 2491 2742 2702 
Q 2975 2913 2975 3322 
Q 2975 3731 2742 3939 
Q 2509 4147 2053 4147 
L 1259 4147 
z
" id="DejaVuSans-52" transform="scale(0.015625)"/>
       <path d="M 2375 4863 
L 2375 4384 
L 1825 4384 
Q 1516 4384 1395 4259 
Q 1275 4134 1275 3809 
L 1275 3500 
L 2222 3500 
L 2222 3053 
L 1275 3053 
L 1275 0 
L 697 0 
L 697 3053 
L 147 3053 
L 147 3500 
L 697 3500 
L 697 3744 
Q 697 4328 969 4595 
Q 1241 4863 1831 4863 
L 2375 4863 
z
" id="DejaVuSans-66" transform="scale(0.015625)"/>
      </defs>
      <use xlink:href="#DejaVuSans-52"/>
      <use x="64.982422" xlink:href="#DejaVuSans-65"/>
      <use x="126.505859" xlink:href="#DejaVuSans-66"/>
      <use x="161.710938" xlink:href="#DejaVuSans-65"/>
      <use x="223.234375" xlink:href="#DejaVuSans-72"/>
      <use x="262.097656" xlink:href="#DejaVuSans-65"/>
      <use x="323.621094" xlink:href="#DejaVuSans-6e"/>
      <use x="387" xlink:href="#DejaVuSans-63"/>
      <use x="441.980469" xlink:href="#DejaVuSans-65"/>
     </g>
    </g>
   </g>
   <g id="line2d_20">
    <path clip-path="url(#p7bcab64389)" d="M 277.809193 288.430125 
L 277.809193 22.318125 
" style="fill:none;stroke:#029e73;stroke-linecap:square;"/>
   </g>
  </g>
 </g>
 <defs>
  <clipPath id="p7bcab64389">
   <rect height="266.112" width="357.12" x="43.78125" y="22.318125"/>
  </clipPath>
 </defs>
</svg>
