<?xml version="1.0" encoding="utf-8" standalone="no"?>
<!DOCTYPE svg PUBLIC "-//W3C//DTD SVG 1.1//EN"
  "http://www.w3.org/Graphics/SVG/1.1/DTD/svg11.dtd">
<svg height="325.986375pt" version="1.1" viewBox="0 0 756.187187 325.986375" width="756.187187pt" xmlns="http://www.w3.org/2000/svg" xmlns:xlink="http://www.w3.org/1999/xlink">
 <metadata>
  <rdf:RDF xmlns:cc="http://creativecommons.org/ns#" xmlns:dc="http://purl.org/dc/elements/1.1/" xmlns:rdf="http://www.w3.org/1999/02/22-rdf-syntax-ns#">
   <cc:Work>
    <dc:type rdf:resource="http://purl.org/dc/dcmitype/StillImage"/>
    <dc:date>2022-03-05T00:32:11.959862</dc:date>
    <dc:format>image/svg+xml</dc:format>
    <dc:creator>
     <cc:Agent>
      <dc:title>Matplotlib v3.4.3, https://matplotlib.org/</dc:title>
     </cc:Agent>
    </dc:creator>
   </cc:Work>
  </rdf:RDF>
 </metadata>
 <defs>
  <style type="text/css">*{stroke-linecap:butt;stroke-linejoin:round;}</style>
 </defs>
 <g id="figure_1">
  <g id="patch_1">
   <path d="M -0 325.986375 
L 756.187188 325.986375 
L 756.187188 0 
L -0 0 
z
" style="fill:#ffffff;"/>
  </g>
  <g id="axes_1">
   <g id="patch_2">
    <path d="M 226.801563 288.430125 
L 583.921563 288.430125 
L 583.921563 22.318125 
L 226.801563 22.318125 
z
" style="fill:#ffffff;"/>
   </g>
   <g id="PathCollection_1">
    <path clip-path="url(#p2e4e685f03)" d="M 567.688835 37.641611 
C 568.544775 37.641611 569.365772 37.301543 569.971013 36.696302 
C 570.576253 36.091062 570.916321 35.270064 570.916321 34.414125 
C 570.916321 33.558186 570.576253 32.737188 569.971013 32.131948 
C 569.365772 31.526707 568.544775 31.186639 567.688835 31.186639 
C 566.832896 31.186639 566.011898 31.526707 565.406658 32.131948 
C 564.801417 32.737188 564.461349 33.558186 564.461349 34.414125 
C 564.461349 35.270064 564.801417 36.091062 565.406658 36.696302 
C 566.011898 37.301543 566.832896 37.641611 567.688835 37.641611 
z
" style="fill:#f3c8b2;stroke:#ffffff;stroke-width:0.516398;"/>
    <path clip-path="url(#p2e4e685f03)" d="M 418.888835 51.125869 
C 419.944108 51.125869 420.956302 50.706604 421.702492 49.960414 
C 422.448683 49.214223 422.867947 48.202029 422.867947 47.146757 
C 422.867947 46.091484 422.448683 45.07929 421.702492 44.333099 
C 420.956302 43.586909 419.944108 43.167644 418.888835 43.167644 
C 417.833562 43.167644 416.821369 43.586909 416.075178 44.333099 
C 415.328987 45.07929 414.909723 46.091484 414.909723 47.146757 
C 414.909723 48.202029 415.328987 49.214223 416.075178 49.960414 
C 416.821369 50.706604 417.833562 51.125869 418.888835 51.125869 
z
" style="fill:#f4c6af;stroke:#ffffff;stroke-width:0.516398;"/>
    <path clip-path="url(#p2e4e685f03)" d="M 405.361563 64.48916 
C 406.584088 64.48916 407.756707 64.003446 408.621164 63.138989 
C 409.48562 62.274533 409.971335 61.101914 409.971335 59.879388 
C 409.971335 58.656862 409.48562 57.484243 408.621164 56.619787 
C 407.756707 55.755331 406.584088 55.269616 405.361563 55.269616 
C 404.139037 55.269616 402.966418 55.755331 402.101961 56.619787 
C 401.237505 57.484243 400.75179 58.656862 400.75179 59.879388 
C 400.75179 61.101914 401.237505 62.274533 402.101961 63.138989 
C 402.966418 64.003446 404.139037 64.48916 405.361563 64.48916 
z
" style="fill:#e36b54;stroke:#ffffff;stroke-width:0.516398;"/>
    <path clip-path="url(#p2e4e685f03)" d="M 364.779744 76.591132 
C 365.835017 76.591132 366.847211 76.171868 367.593401 75.425677 
C 368.339592 74.679486 368.758856 73.667293 368.758856 72.61202 
C 368.758856 71.556747 368.339592 70.544553 367.593401 69.798363 
C 366.847211 69.052172 365.835017 68.632908 364.779744 68.632908 
C 363.724471 68.632908 362.712278 69.052172 361.966087 69.798363 
C 361.219897 70.544553 360.800632 71.556747 360.800632 72.61202 
C 360.800632 73.667293 361.219897 74.679486 361.966087 75.425677 
C 362.712278 76.171868 363.724471 76.591132 364.779744 76.591132 
z
" style="fill:#dfdbd9;stroke:#ffffff;stroke-width:0.516398;"/>
    <path clip-path="url(#p2e4e685f03)" d="M 344.488835 88.572137 
C 345.344775 88.572137 346.165772 88.232069 346.771013 87.626829 
C 347.376253 87.021588 347.716321 86.200591 347.716321 85.344651 
C 347.716321 84.488712 347.376253 83.667714 346.771013 83.062474 
C 346.165772 82.457233 345.344775 82.117165 344.488835 82.117165 
C 343.632896 82.117165 342.811898 82.457233 342.206658 83.062474 
C 341.601417 83.667714 341.261349 84.488712 341.261349 85.344651 
C 341.261349 86.200591 341.601417 87.021588 342.206658 87.626829 
C 342.811898 88.232069 343.632896 88.572137 344.488835 88.572137 
z
" style="fill:#86a9fc;stroke:#ffffff;stroke-width:0.516398;"/>
    <path clip-path="url(#p2e4e685f03)" d="M 344.488835 100.313351 
C 345.081847 100.313351 345.650651 100.077745 346.069974 99.658422 
C 346.489297 99.239099 346.724903 98.670295 346.724903 98.077283 
C 346.724903 97.484271 346.489297 96.915467 346.069974 96.496144 
C 345.650651 96.076821 345.081847 95.841215 344.488835 95.841215 
C 343.895823 95.841215 343.327019 96.076821 342.907696 96.496144 
C 342.488373 96.915467 342.252767 97.484271 342.252767 98.077283 
C 342.252767 98.670295 342.488373 99.239099 342.907696 99.658422 
C 343.327019 100.077745 343.895823 100.313351 344.488835 100.313351 
z
" style="fill:#3b4cc0;stroke:#ffffff;stroke-width:0.516398;"/>
    <path clip-path="url(#p2e4e685f03)" d="M 327.319604 114.789027 
C 328.374877 114.789027 329.387071 114.369762 330.133262 113.623572 
C 330.879452 112.877381 331.298717 111.865187 331.298717 110.809914 
C 331.298717 109.754642 330.879452 108.742448 330.133262 107.996257 
C 329.387071 107.250067 328.374877 106.830802 327.319604 106.830802 
C 326.264332 106.830802 325.252138 107.250067 324.505947 107.996257 
C 323.759757 108.742448 323.340492 109.754642 323.340492 110.809914 
C 323.340492 111.865187 323.759757 112.877381 324.505947 113.623572 
C 325.252138 114.369762 326.264332 114.789027 327.319604 114.789027 
z
" style="fill:#c4d5f3;stroke:#ffffff;stroke-width:0.516398;"/>
    <path clip-path="url(#p2e4e685f03)" d="M 324.197926 126.770032 
C 325.053865 126.770032 325.874863 126.429964 326.480103 125.824723 
C 327.085344 125.219483 327.425412 124.398485 327.425412 123.542546 
C 327.425412 122.686607 327.085344 121.865609 326.480103 121.260369 
C 325.874863 120.655128 325.053865 120.31506 324.197926 120.31506 
C 323.341987 120.31506 322.520989 120.655128 321.915749 121.260369 
C 321.310508 121.865609 320.97044 122.686607 320.97044 123.542546 
C 320.97044 124.398485 321.310508 125.219483 321.915749 125.824723 
C 322.520989 126.429964 323.341987 126.770032 324.197926 126.770032 
z
" style="fill:#799cf8;stroke:#ffffff;stroke-width:0.516398;"/>
    <path clip-path="url(#p2e4e685f03)" d="M 312.603121 140.25429 
C 313.658394 140.25429 314.670588 139.835025 315.416778 139.088835 
C 316.162969 138.342644 316.582233 137.330451 316.582233 136.275178 
C 316.582233 135.219905 316.162969 134.207711 315.416778 133.46152 
C 314.670588 132.71533 313.658394 132.296066 312.603121 132.296066 
C 311.547848 132.296066 310.535654 132.71533 309.789464 133.46152 
C 309.043273 134.207711 308.624009 135.219905 308.624009 136.275178 
C 308.624009 137.330451 309.043273 138.342644 309.789464 139.088835 
C 310.535654 139.835025 311.547848 140.25429 312.603121 140.25429 
z
" style="fill:#b9d0f9;stroke:#ffffff;stroke-width:0.516398;"/>
    <path clip-path="url(#p2e4e685f03)" d="M 312.603121 154.672024 
C 314.105288 154.672024 315.546133 154.075207 316.608326 153.013014 
C 317.670519 151.950821 318.267336 150.509977 318.267336 149.007809 
C 318.267336 147.505642 317.670519 146.064797 316.608326 145.002604 
C 315.546133 143.940411 314.105288 143.343594 312.603121 143.343594 
C 311.100954 143.343594 309.660109 143.940411 308.597916 145.002604 
C 307.535723 146.064797 306.938906 147.505642 306.938906 149.007809 
C 306.938906 150.509977 307.535723 151.950821 308.597916 153.013014 
C 309.660109 154.075207 311.100954 154.672024 312.603121 154.672024 
z
" style="fill:#b40426;stroke:#ffffff;stroke-width:0.516398;"/>
    <path clip-path="url(#p2e4e685f03)" d="M 305.1006 166.350213 
C 306.323126 166.350213 307.495745 165.864498 308.360201 165.000042 
C 309.224657 164.135586 309.710372 162.962967 309.710372 161.740441 
C 309.710372 160.517915 309.224657 159.345296 308.360201 158.48084 
C 307.495745 157.616383 306.323126 157.130669 305.1006 157.130669 
C 303.878074 157.130669 302.705455 157.616383 301.840999 158.48084 
C 300.976542 159.345296 300.490828 160.517915 300.490828 161.740441 
C 300.490828 162.962967 300.976542 164.135586 301.840999 165.000042 
C 302.705455 165.864498 303.878074 166.350213 305.1006 166.350213 
z
" style="fill:#ecd3c5;stroke:#ffffff;stroke-width:0.516398;"/>
    <path clip-path="url(#p2e4e685f03)" d="M 305.1006 179.082845 
C 306.323126 179.082845 307.495745 178.59713 308.360201 177.732674 
C 309.224657 176.868217 309.710372 175.695598 309.710372 174.473072 
C 309.710372 173.250546 309.224657 172.077928 308.360201 171.213471 
C 307.495745 170.349015 306.323126 169.8633 305.1006 169.8633 
C 303.878074 169.8633 302.705455 170.349015 301.840999 171.213471 
C 300.976542 172.077928 300.490828 173.250546 300.490828 174.473072 
C 300.490828 175.695598 300.976542 176.868217 301.840999 177.732674 
C 302.705455 178.59713 303.878074 179.082845 305.1006 179.082845 
z
" style="fill:#ecd3c5;stroke:#ffffff;stroke-width:0.516398;"/>
    <path clip-path="url(#p2e4e685f03)" d="M 299.848835 191.184816 
C 300.904108 191.184816 301.916302 190.765552 302.662492 190.019361 
C 303.408683 189.273171 303.827947 188.260977 303.827947 187.205704 
C 303.827947 186.150431 303.408683 185.138237 302.662492 184.392047 
C 301.916302 183.645856 300.904108 183.226592 299.848835 183.226592 
C 298.793562 183.226592 297.781369 183.645856 297.035178 184.392047 
C 296.288987 185.138237 295.869723 186.150431 295.869723 187.205704 
C 295.869723 188.260977 296.288987 189.273171 297.035178 190.019361 
C 297.781369 190.765552 298.793562 191.184816 299.848835 191.184816 
z
" style="fill:#adc9fd;stroke:#ffffff;stroke-width:0.516398;"/>
    <path clip-path="url(#p2e4e685f03)" d="M 292.981143 203.165822 
C 293.837082 203.165822 294.65808 202.825753 295.26332 202.220513 
C 295.868561 201.615272 296.208629 200.794275 296.208629 199.938336 
C 296.208629 199.082396 295.868561 198.261399 295.26332 197.656158 
C 294.65808 197.050918 293.837082 196.710849 292.981143 196.710849 
C 292.125204 196.710849 291.304206 197.050918 290.698966 197.656158 
C 290.093725 198.261399 289.753657 199.082396 289.753657 199.938336 
C 289.753657 200.794275 290.093725 201.615272 290.698966 202.220513 
C 291.304206 202.825753 292.125204 203.165822 292.981143 203.165822 
z
" style="fill:#6180e9;stroke:#ffffff;stroke-width:0.516398;"/>
    <path clip-path="url(#p2e4e685f03)" d="M 292.981143 215.898453 
C 293.837082 215.898453 294.65808 215.558385 295.26332 214.953144 
C 295.868561 214.347904 296.208629 213.526906 296.208629 212.670967 
C 296.208629 211.815028 295.868561 210.99403 295.26332 210.38879 
C 294.65808 209.783549 293.837082 209.443481 292.981143 209.443481 
C 292.125204 209.443481 291.304206 209.783549 290.698966 210.38879 
C 290.093725 210.99403 289.753657 211.815028 289.753657 212.670967 
C 289.753657 213.526906 290.093725 214.347904 290.698966 214.953144 
C 291.304206 215.558385 292.125204 215.898453 292.981143 215.898453 
z
" style="fill:#6180e9;stroke:#ffffff;stroke-width:0.516398;"/>
    <path clip-path="url(#p2e4e685f03)" d="M 280.717407 228.631085 
C 281.573346 228.631085 282.394343 228.291017 282.999584 227.685776 
C 283.604824 227.080536 283.944893 226.259538 283.944893 225.403599 
C 283.944893 224.547659 283.604824 223.726662 282.999584 223.121421 
C 282.394343 222.516181 281.573346 222.176113 280.717407 222.176113 
C 279.861467 222.176113 279.04047 222.516181 278.435229 223.121421 
C 277.829989 223.726662 277.489921 224.547659 277.489921 225.403599 
C 277.489921 226.259538 277.829989 227.080536 278.435229 227.685776 
C 279.04047 228.291017 279.861467 228.631085 280.717407 228.631085 
z
" style="fill:#5673e0;stroke:#ffffff;stroke-width:0.516398;"/>
    <path clip-path="url(#p2e4e685f03)" d="M 263.325199 242.746002 
C 264.547725 242.746002 265.720344 242.260288 266.5848 241.395831 
C 267.449256 240.531375 267.934971 239.358756 267.934971 238.13623 
C 267.934971 236.913704 267.449256 235.741085 266.5848 234.876629 
C 265.720344 234.012173 264.547725 233.526458 263.325199 233.526458 
C 262.102673 233.526458 260.930054 234.012173 260.065598 234.876629 
C 259.201141 235.741085 258.715427 236.913704 258.715427 238.13623 
C 258.715427 239.358756 259.201141 240.531375 260.065598 241.395831 
C 260.930054 242.260288 262.102673 242.746002 263.325199 242.746002 
z
" style="fill:#c5d6f2;stroke:#ffffff;stroke-width:0.516398;"/>
    <path clip-path="url(#p2e4e685f03)" d="M 252.582953 254.096348 
C 253.438892 254.096348 254.25989 253.75628 254.86513 253.151039 
C 255.470371 252.545799 255.810439 251.724801 255.810439 250.868862 
C 255.810439 250.012923 255.470371 249.191925 254.86513 248.586685 
C 254.25989 247.981444 253.438892 247.641376 252.582953 247.641376 
C 251.727014 247.641376 250.906016 247.981444 250.300776 248.586685 
C 249.695535 249.191925 249.355467 250.012923 249.355467 250.868862 
C 249.355467 251.724801 249.695535 252.545799 250.300776 253.151039 
C 250.906016 253.75628 251.727014 254.096348 252.582953 254.096348 
z
" style="fill:#3e51c5;stroke:#ffffff;stroke-width:0.516398;"/>
    <path clip-path="url(#p2e4e685f03)" d="M 245.288835 269.725218 
C 246.912866 269.725218 248.470599 269.079984 249.618962 267.93162 
C 250.767325 266.783257 251.41256 265.225524 251.41256 263.601493 
C 251.41256 261.977463 250.767325 260.41973 249.618962 259.271366 
C 248.470599 258.123003 246.912866 257.477769 245.288835 257.477769 
C 243.664805 257.477769 242.107071 258.123003 240.958708 259.271366 
C 239.810345 260.41973 239.165111 261.977463 239.165111 263.601493 
C 239.165111 265.225524 239.810345 266.783257 240.958708 267.93162 
C 242.107071 269.079984 243.664805 269.725218 245.288835 269.725218 
z
" style="fill:#dc5d4a;stroke:#ffffff;stroke-width:0.516398;"/>
    <path clip-path="url(#p2e4e685f03)" d="M 243.03429 280.313237 
C 244.089563 280.313237 245.101756 279.893973 245.847947 279.147782 
C 246.594138 278.401592 247.013402 277.389398 247.013402 276.334125 
C 247.013402 275.278852 246.594138 274.266658 245.847947 273.520468 
C 245.101756 272.774277 244.089563 272.355013 243.03429 272.355013 
C 241.979017 272.355013 240.966823 272.774277 240.220633 273.520468 
C 239.474442 274.266658 239.055178 275.278852 239.055178 276.334125 
C 239.055178 277.389398 239.474442 278.401592 240.220633 279.147782 
C 240.966823 279.893973 241.979017 280.313237 243.03429 280.313237 
z
" style="fill:#6e90f2;stroke:#ffffff;stroke-width:0.516398;"/>
   </g>
   <g id="PathCollection_2"/>
   <g id="PathCollection_3"/>
   <g id="PathCollection_4"/>
   <g id="PathCollection_5"/>
   <g id="PathCollection_6"/>
   <g id="PathCollection_7"/>
   <g id="PathCollection_8"/>
   <g id="PathCollection_9"/>
   <g id="PathCollection_10"/>
   <g id="PathCollection_11"/>
   <g id="PathCollection_12"/>
   <g id="matplotlib.axis_1">
    <g id="xtick_1">
     <g id="line2d_1">
      <defs>
       <path d="M 0 0 
L 0 3.5 
" id="mdd8459998b" style="stroke:#000000;stroke-width:0.8;"/>
      </defs>
      <g>
       <use style="stroke:#000000;stroke-width:0.8;" x="260.760487" xlink:href="#mdd8459998b" y="288.430125"/>
      </g>
     </g>
     <g id="text_1">
      <!-- 30 -->
      <g transform="translate(254.397987 303.028562)scale(0.1 -0.1)">
       <defs>
        <path d="M 2597 2516 
Q 3050 2419 3304 2112 
Q 3559 1806 3559 1356 
Q 3559 666 3084 287 
Q 2609 -91 1734 -91 
Q 1441 -91 1130 -33 
Q 819 25 488 141 
L 488 750 
Q 750 597 1062 519 
Q 1375 441 1716 441 
Q 2309 441 2620 675 
Q 2931 909 2931 1356 
Q 2931 1769 2642 2001 
Q 2353 2234 1838 2234 
L 1294 2234 
L 1294 2753 
L 1863 2753 
Q 2328 2753 2575 2939 
Q 2822 3125 2822 3475 
Q 2822 3834 2567 4026 
Q 2313 4219 1838 4219 
Q 1578 4219 1281 4162 
Q 984 4106 628 3988 
L 628 4550 
Q 988 4650 1302 4700 
Q 1616 4750 1894 4750 
Q 2613 4750 3031 4423 
Q 3450 4097 3450 3541 
Q 3450 3153 3228 2886 
Q 3006 2619 2597 2516 
z
" id="DejaVuSans-33" transform="scale(0.015625)"/>
        <path d="M 2034 4250 
Q 1547 4250 1301 3770 
Q 1056 3291 1056 2328 
Q 1056 1369 1301 889 
Q 1547 409 2034 409 
Q 2525 409 2770 889 
Q 3016 1369 3016 2328 
Q 3016 3291 2770 3770 
Q 2525 4250 2034 4250 
z
M 2034 4750 
Q 2819 4750 3233 4129 
Q 3647 3509 3647 2328 
Q 3647 1150 3233 529 
Q 2819 -91 2034 -91 
Q 1250 -91 836 529 
Q 422 1150 422 2328 
Q 422 3509 836 4129 
Q 1250 4750 2034 4750 
z
" id="DejaVuSans-30" transform="scale(0.015625)"/>
       </defs>
       <use xlink:href="#DejaVuSans-33"/>
       <use x="63.623047" xlink:href="#DejaVuSans-30"/>
      </g>
     </g>
    </g>
    <g id="xtick_2">
     <g id="line2d_2">
      <g>
       <use style="stroke:#000000;stroke-width:0.8;" x="307.251038" xlink:href="#mdd8459998b" y="288.430125"/>
      </g>
     </g>
     <g id="text_2">
      <!-- 40 -->
      <g transform="translate(300.888538 303.028562)scale(0.1 -0.1)">
       <defs>
        <path d="M 2419 4116 
L 825 1625 
L 2419 1625 
L 2419 4116 
z
M 2253 4666 
L 3047 4666 
L 3047 1625 
L 3713 1625 
L 3713 1100 
L 3047 1100 
L 3047 0 
L 2419 0 
L 2419 1100 
L 313 1100 
L 313 1709 
L 2253 4666 
z
" id="DejaVuSans-34" transform="scale(0.015625)"/>
       </defs>
       <use xlink:href="#DejaVuSans-34"/>
       <use x="63.623047" xlink:href="#DejaVuSans-30"/>
      </g>
     </g>
    </g>
    <g id="xtick_3">
     <g id="line2d_3">
      <g>
       <use style="stroke:#000000;stroke-width:0.8;" x="353.741589" xlink:href="#mdd8459998b" y="288.430125"/>
      </g>
     </g>
     <g id="text_3">
      <!-- 50 -->
      <g transform="translate(347.379089 303.028562)scale(0.1 -0.1)">
       <defs>
        <path d="M 691 4666 
L 3169 4666 
L 3169 4134 
L 1269 4134 
L 1269 2991 
Q 1406 3038 1543 3061 
Q 1681 3084 1819 3084 
Q 2600 3084 3056 2656 
Q 3513 2228 3513 1497 
Q 3513 744 3044 326 
Q 2575 -91 1722 -91 
Q 1428 -91 1123 -41 
Q 819 9 494 109 
L 494 744 
Q 775 591 1075 516 
Q 1375 441 1709 441 
Q 2250 441 2565 725 
Q 2881 1009 2881 1497 
Q 2881 1984 2565 2268 
Q 2250 2553 1709 2553 
Q 1456 2553 1204 2497 
Q 953 2441 691 2322 
L 691 4666 
z
" id="DejaVuSans-35" transform="scale(0.015625)"/>
       </defs>
       <use xlink:href="#DejaVuSans-35"/>
       <use x="63.623047" xlink:href="#DejaVuSans-30"/>
      </g>
     </g>
    </g>
    <g id="xtick_4">
     <g id="line2d_4">
      <g>
       <use style="stroke:#000000;stroke-width:0.8;" x="400.232139" xlink:href="#mdd8459998b" y="288.430125"/>
      </g>
     </g>
     <g id="text_4">
      <!-- 60 -->
      <g transform="translate(393.869639 303.028562)scale(0.1 -0.1)">
       <defs>
        <path d="M 2113 2584 
Q 1688 2584 1439 2293 
Q 1191 2003 1191 1497 
Q 1191 994 1439 701 
Q 1688 409 2113 409 
Q 2538 409 2786 701 
Q 3034 994 3034 1497 
Q 3034 2003 2786 2293 
Q 2538 2584 2113 2584 
z
M 3366 4563 
L 3366 3988 
Q 3128 4100 2886 4159 
Q 2644 4219 2406 4219 
Q 1781 4219 1451 3797 
Q 1122 3375 1075 2522 
Q 1259 2794 1537 2939 
Q 1816 3084 2150 3084 
Q 2853 3084 3261 2657 
Q 3669 2231 3669 1497 
Q 3669 778 3244 343 
Q 2819 -91 2113 -91 
Q 1303 -91 875 529 
Q 447 1150 447 2328 
Q 447 3434 972 4092 
Q 1497 4750 2381 4750 
Q 2619 4750 2861 4703 
Q 3103 4656 3366 4563 
z
" id="DejaVuSans-36" transform="scale(0.015625)"/>
       </defs>
       <use xlink:href="#DejaVuSans-36"/>
       <use x="63.623047" xlink:href="#DejaVuSans-30"/>
      </g>
     </g>
    </g>
    <g id="xtick_5">
     <g id="line2d_5">
      <g>
       <use style="stroke:#000000;stroke-width:0.8;" x="446.72269" xlink:href="#mdd8459998b" y="288.430125"/>
      </g>
     </g>
     <g id="text_5">
      <!-- 70 -->
      <g transform="translate(440.36019 303.028562)scale(0.1 -0.1)">
       <defs>
        <path d="M 525 4666 
L 3525 4666 
L 3525 4397 
L 1831 0 
L 1172 0 
L 2766 4134 
L 525 4134 
L 525 4666 
z
" id="DejaVuSans-37" transform="scale(0.015625)"/>
       </defs>
       <use xlink:href="#DejaVuSans-37"/>
       <use x="63.623047" xlink:href="#DejaVuSans-30"/>
      </g>
     </g>
    </g>
    <g id="xtick_6">
     <g id="line2d_6">
      <g>
       <use style="stroke:#000000;stroke-width:0.8;" x="493.213241" xlink:href="#mdd8459998b" y="288.430125"/>
      </g>
     </g>
     <g id="text_6">
      <!-- 80 -->
      <g transform="translate(486.850741 303.028562)scale(0.1 -0.1)">
       <defs>
        <path d="M 2034 2216 
Q 1584 2216 1326 1975 
Q 1069 1734 1069 1313 
Q 1069 891 1326 650 
Q 1584 409 2034 409 
Q 2484 409 2743 651 
Q 3003 894 3003 1313 
Q 3003 1734 2745 1975 
Q 2488 2216 2034 2216 
z
M 1403 2484 
Q 997 2584 770 2862 
Q 544 3141 544 3541 
Q 544 4100 942 4425 
Q 1341 4750 2034 4750 
Q 2731 4750 3128 4425 
Q 3525 4100 3525 3541 
Q 3525 3141 3298 2862 
Q 3072 2584 2669 2484 
Q 3125 2378 3379 2068 
Q 3634 1759 3634 1313 
Q 3634 634 3220 271 
Q 2806 -91 2034 -91 
Q 1263 -91 848 271 
Q 434 634 434 1313 
Q 434 1759 690 2068 
Q 947 2378 1403 2484 
z
M 1172 3481 
Q 1172 3119 1398 2916 
Q 1625 2713 2034 2713 
Q 2441 2713 2670 2916 
Q 2900 3119 2900 3481 
Q 2900 3844 2670 4047 
Q 2441 4250 2034 4250 
Q 1625 4250 1398 4047 
Q 1172 3844 1172 3481 
z
" id="DejaVuSans-38" transform="scale(0.015625)"/>
       </defs>
       <use xlink:href="#DejaVuSans-38"/>
       <use x="63.623047" xlink:href="#DejaVuSans-30"/>
      </g>
     </g>
    </g>
    <g id="xtick_7">
     <g id="line2d_7">
      <g>
       <use style="stroke:#000000;stroke-width:0.8;" x="539.703792" xlink:href="#mdd8459998b" y="288.430125"/>
      </g>
     </g>
     <g id="text_7">
      <!-- 90 -->
      <g transform="translate(533.341292 303.028562)scale(0.1 -0.1)">
       <defs>
        <path d="M 703 97 
L 703 672 
Q 941 559 1184 500 
Q 1428 441 1663 441 
Q 2288 441 2617 861 
Q 2947 1281 2994 2138 
Q 2813 1869 2534 1725 
Q 2256 1581 1919 1581 
Q 1219 1581 811 2004 
Q 403 2428 403 3163 
Q 403 3881 828 4315 
Q 1253 4750 1959 4750 
Q 2769 4750 3195 4129 
Q 3622 3509 3622 2328 
Q 3622 1225 3098 567 
Q 2575 -91 1691 -91 
Q 1453 -91 1209 -44 
Q 966 3 703 97 
z
M 1959 2075 
Q 2384 2075 2632 2365 
Q 2881 2656 2881 3163 
Q 2881 3666 2632 3958 
Q 2384 4250 1959 4250 
Q 1534 4250 1286 3958 
Q 1038 3666 1038 3163 
Q 1038 2656 1286 2365 
Q 1534 2075 1959 2075 
z
" id="DejaVuSans-39" transform="scale(0.015625)"/>
       </defs>
       <use xlink:href="#DejaVuSans-39"/>
       <use x="63.623047" xlink:href="#DejaVuSans-30"/>
      </g>
     </g>
    </g>
    <g id="text_8">
     <!-- Fold Enrichment -->
     <g transform="translate(364.688906 316.706687)scale(0.1 -0.1)">
      <defs>
       <path d="M 628 4666 
L 3309 4666 
L 3309 4134 
L 1259 4134 
L 1259 2759 
L 3109 2759 
L 3109 2228 
L 1259 2228 
L 1259 0 
L 628 0 
L 628 4666 
z
" id="DejaVuSans-46" transform="scale(0.015625)"/>
       <path d="M 1959 3097 
Q 1497 3097 1228 2736 
Q 959 2375 959 1747 
Q 959 1119 1226 758 
Q 1494 397 1959 397 
Q 2419 397 2687 759 
Q 2956 1122 2956 1747 
Q 2956 2369 2687 2733 
Q 2419 3097 1959 3097 
z
M 1959 3584 
Q 2709 3584 3137 3096 
Q 3566 2609 3566 1747 
Q 3566 888 3137 398 
Q 2709 -91 1959 -91 
Q 1206 -91 779 398 
Q 353 888 353 1747 
Q 353 2609 779 3096 
Q 1206 3584 1959 3584 
z
" id="DejaVuSans-6f" transform="scale(0.015625)"/>
       <path d="M 603 4863 
L 1178 4863 
L 1178 0 
L 603 0 
L 603 4863 
z
" id="DejaVuSans-6c" transform="scale(0.015625)"/>
       <path d="M 2906 2969 
L 2906 4863 
L 3481 4863 
L 3481 0 
L 2906 0 
L 2906 525 
Q 2725 213 2448 61 
Q 2172 -91 1784 -91 
Q 1150 -91 751 415 
Q 353 922 353 1747 
Q 353 2572 751 3078 
Q 1150 3584 1784 3584 
Q 2172 3584 2448 3432 
Q 2725 3281 2906 2969 
z
M 947 1747 
Q 947 1113 1208 752 
Q 1469 391 1925 391 
Q 2381 391 2643 752 
Q 2906 1113 2906 1747 
Q 2906 2381 2643 2742 
Q 2381 3103 1925 3103 
Q 1469 3103 1208 2742 
Q 947 2381 947 1747 
z
" id="DejaVuSans-64" transform="scale(0.015625)"/>
       <path id="DejaVuSans-20" transform="scale(0.015625)"/>
       <path d="M 628 4666 
L 3578 4666 
L 3578 4134 
L 1259 4134 
L 1259 2753 
L 3481 2753 
L 3481 2222 
L 1259 2222 
L 1259 531 
L 3634 531 
L 3634 0 
L 628 0 
L 628 4666 
z
" id="DejaVuSans-45" transform="scale(0.015625)"/>
       <path d="M 3513 2113 
L 3513 0 
L 2938 0 
L 2938 2094 
Q 2938 2591 2744 2837 
Q 2550 3084 2163 3084 
Q 1697 3084 1428 2787 
Q 1159 2491 1159 1978 
L 1159 0 
L 581 0 
L 581 3500 
L 1159 3500 
L 1159 2956 
Q 1366 3272 1645 3428 
Q 1925 3584 2291 3584 
Q 2894 3584 3203 3211 
Q 3513 2838 3513 2113 
z
" id="DejaVuSans-6e" transform="scale(0.015625)"/>
       <path d="M 2631 2963 
Q 2534 3019 2420 3045 
Q 2306 3072 2169 3072 
Q 1681 3072 1420 2755 
Q 1159 2438 1159 1844 
L 1159 0 
L 581 0 
L 581 3500 
L 1159 3500 
L 1159 2956 
Q 1341 3275 1631 3429 
Q 1922 3584 2338 3584 
Q 2397 3584 2469 3576 
Q 2541 3569 2628 3553 
L 2631 2963 
z
" id="DejaVuSans-72" transform="scale(0.015625)"/>
       <path d="M 603 3500 
L 1178 3500 
L 1178 0 
L 603 0 
L 603 3500 
z
M 603 4863 
L 1178 4863 
L 1178 4134 
L 603 4134 
L 603 4863 
z
" id="DejaVuSans-69" transform="scale(0.015625)"/>
       <path d="M 3122 3366 
L 3122 2828 
Q 2878 2963 2633 3030 
Q 2388 3097 2138 3097 
Q 1578 3097 1268 2742 
Q 959 2388 959 1747 
Q 959 1106 1268 751 
Q 1578 397 2138 397 
Q 2388 397 2633 464 
Q 2878 531 3122 666 
L 3122 134 
Q 2881 22 2623 -34 
Q 2366 -91 2075 -91 
Q 1284 -91 818 406 
Q 353 903 353 1747 
Q 353 2603 823 3093 
Q 1294 3584 2113 3584 
Q 2378 3584 2631 3529 
Q 2884 3475 3122 3366 
z
" id="DejaVuSans-63" transform="scale(0.015625)"/>
       <path d="M 3513 2113 
L 3513 0 
L 2938 0 
L 2938 2094 
Q 2938 2591 2744 2837 
Q 2550 3084 2163 3084 
Q 1697 3084 1428 2787 
Q 1159 2491 1159 1978 
L 1159 0 
L 581 0 
L 581 4863 
L 1159 4863 
L 1159 2956 
Q 1366 3272 1645 3428 
Q 1925 3584 2291 3584 
Q 2894 3584 3203 3211 
Q 3513 2838 3513 2113 
z
" id="DejaVuSans-68" transform="scale(0.015625)"/>
       <path d="M 3328 2828 
Q 3544 3216 3844 3400 
Q 4144 3584 4550 3584 
Q 5097 3584 5394 3201 
Q 5691 2819 5691 2113 
L 5691 0 
L 5113 0 
L 5113 2094 
Q 5113 2597 4934 2840 
Q 4756 3084 4391 3084 
Q 3944 3084 3684 2787 
Q 3425 2491 3425 1978 
L 3425 0 
L 2847 0 
L 2847 2094 
Q 2847 2600 2669 2842 
Q 2491 3084 2119 3084 
Q 1678 3084 1418 2786 
Q 1159 2488 1159 1978 
L 1159 0 
L 581 0 
L 581 3500 
L 1159 3500 
L 1159 2956 
Q 1356 3278 1631 3431 
Q 1906 3584 2284 3584 
Q 2666 3584 2933 3390 
Q 3200 3197 3328 2828 
z
" id="DejaVuSans-6d" transform="scale(0.015625)"/>
       <path d="M 3597 1894 
L 3597 1613 
L 953 1613 
Q 991 1019 1311 708 
Q 1631 397 2203 397 
Q 2534 397 2845 478 
Q 3156 559 3463 722 
L 3463 178 
Q 3153 47 2828 -22 
Q 2503 -91 2169 -91 
Q 1331 -91 842 396 
Q 353 884 353 1716 
Q 353 2575 817 3079 
Q 1281 3584 2069 3584 
Q 2775 3584 3186 3129 
Q 3597 2675 3597 1894 
z
M 3022 2063 
Q 3016 2534 2758 2815 
Q 2500 3097 2075 3097 
Q 1594 3097 1305 2825 
Q 1016 2553 972 2059 
L 3022 2063 
z
" id="DejaVuSans-65" transform="scale(0.015625)"/>
       <path d="M 1172 4494 
L 1172 3500 
L 2356 3500 
L 2356 3053 
L 1172 3053 
L 1172 1153 
Q 1172 725 1289 603 
Q 1406 481 1766 481 
L 2356 481 
L 2356 0 
L 1766 0 
Q 1100 0 847 248 
Q 594 497 594 1153 
L 594 3053 
L 172 3053 
L 172 3500 
L 594 3500 
L 594 4494 
L 1172 4494 
z
" id="DejaVuSans-74" transform="scale(0.015625)"/>
      </defs>
      <use xlink:href="#DejaVuSans-46"/>
      <use x="53.894531" xlink:href="#DejaVuSans-6f"/>
      <use x="115.076172" xlink:href="#DejaVuSans-6c"/>
      <use x="142.859375" xlink:href="#DejaVuSans-64"/>
      <use x="206.335938" xlink:href="#DejaVuSans-20"/>
      <use x="238.123047" xlink:href="#DejaVuSans-45"/>
      <use x="301.306641" xlink:href="#DejaVuSans-6e"/>
      <use x="364.685547" xlink:href="#DejaVuSans-72"/>
      <use x="405.798828" xlink:href="#DejaVuSans-69"/>
      <use x="433.582031" xlink:href="#DejaVuSans-63"/>
      <use x="488.5625" xlink:href="#DejaVuSans-68"/>
      <use x="551.941406" xlink:href="#DejaVuSans-6d"/>
      <use x="649.353516" xlink:href="#DejaVuSans-65"/>
      <use x="710.876953" xlink:href="#DejaVuSans-6e"/>
      <use x="774.255859" xlink:href="#DejaVuSans-74"/>
     </g>
    </g>
   </g>
   <g id="matplotlib.axis_2">
    <g id="ytick_1">
     <g id="line2d_8">
      <defs>
       <path d="M 0 0 
L -3.5 0 
" id="mb917b8b3a7" style="stroke:#000000;stroke-width:0.8;"/>
      </defs>
      <g>
       <use style="stroke:#000000;stroke-width:0.8;" x="226.801563" xlink:href="#mb917b8b3a7" y="34.414125"/>
      </g>
     </g>
     <g id="text_9">
      <!-- Decreased circulating GABA concentration -->
      <g transform="translate(7.2 38.213344)scale(0.1 -0.1)">
       <defs>
        <path d="M 1259 4147 
L 1259 519 
L 2022 519 
Q 2988 519 3436 956 
Q 3884 1394 3884 2338 
Q 3884 3275 3436 3711 
Q 2988 4147 2022 4147 
L 1259 4147 
z
M 628 4666 
L 1925 4666 
Q 3281 4666 3915 4102 
Q 4550 3538 4550 2338 
Q 4550 1131 3912 565 
Q 3275 0 1925 0 
L 628 0 
L 628 4666 
z
" id="DejaVuSans-44" transform="scale(0.015625)"/>
        <path d="M 2194 1759 
Q 1497 1759 1228 1600 
Q 959 1441 959 1056 
Q 959 750 1161 570 
Q 1363 391 1709 391 
Q 2188 391 2477 730 
Q 2766 1069 2766 1631 
L 2766 1759 
L 2194 1759 
z
M 3341 1997 
L 3341 0 
L 2766 0 
L 2766 531 
Q 2569 213 2275 61 
Q 1981 -91 1556 -91 
Q 1019 -91 701 211 
Q 384 513 384 1019 
Q 384 1609 779 1909 
Q 1175 2209 1959 2209 
L 2766 2209 
L 2766 2266 
Q 2766 2663 2505 2880 
Q 2244 3097 1772 3097 
Q 1472 3097 1187 3025 
Q 903 2953 641 2809 
L 641 3341 
Q 956 3463 1253 3523 
Q 1550 3584 1831 3584 
Q 2591 3584 2966 3190 
Q 3341 2797 3341 1997 
z
" id="DejaVuSans-61" transform="scale(0.015625)"/>
        <path d="M 2834 3397 
L 2834 2853 
Q 2591 2978 2328 3040 
Q 2066 3103 1784 3103 
Q 1356 3103 1142 2972 
Q 928 2841 928 2578 
Q 928 2378 1081 2264 
Q 1234 2150 1697 2047 
L 1894 2003 
Q 2506 1872 2764 1633 
Q 3022 1394 3022 966 
Q 3022 478 2636 193 
Q 2250 -91 1575 -91 
Q 1294 -91 989 -36 
Q 684 19 347 128 
L 347 722 
Q 666 556 975 473 
Q 1284 391 1588 391 
Q 1994 391 2212 530 
Q 2431 669 2431 922 
Q 2431 1156 2273 1281 
Q 2116 1406 1581 1522 
L 1381 1569 
Q 847 1681 609 1914 
Q 372 2147 372 2553 
Q 372 3047 722 3315 
Q 1072 3584 1716 3584 
Q 2034 3584 2315 3537 
Q 2597 3491 2834 3397 
z
" id="DejaVuSans-73" transform="scale(0.015625)"/>
        <path d="M 544 1381 
L 544 3500 
L 1119 3500 
L 1119 1403 
Q 1119 906 1312 657 
Q 1506 409 1894 409 
Q 2359 409 2629 706 
Q 2900 1003 2900 1516 
L 2900 3500 
L 3475 3500 
L 3475 0 
L 2900 0 
L 2900 538 
Q 2691 219 2414 64 
Q 2138 -91 1772 -91 
Q 1169 -91 856 284 
Q 544 659 544 1381 
z
M 1991 3584 
L 1991 3584 
z
" id="DejaVuSans-75" transform="scale(0.015625)"/>
        <path d="M 2906 1791 
Q 2906 2416 2648 2759 
Q 2391 3103 1925 3103 
Q 1463 3103 1205 2759 
Q 947 2416 947 1791 
Q 947 1169 1205 825 
Q 1463 481 1925 481 
Q 2391 481 2648 825 
Q 2906 1169 2906 1791 
z
M 3481 434 
Q 3481 -459 3084 -895 
Q 2688 -1331 1869 -1331 
Q 1566 -1331 1297 -1286 
Q 1028 -1241 775 -1147 
L 775 -588 
Q 1028 -725 1275 -790 
Q 1522 -856 1778 -856 
Q 2344 -856 2625 -561 
Q 2906 -266 2906 331 
L 2906 616 
Q 2728 306 2450 153 
Q 2172 0 1784 0 
Q 1141 0 747 490 
Q 353 981 353 1791 
Q 353 2603 747 3093 
Q 1141 3584 1784 3584 
Q 2172 3584 2450 3431 
Q 2728 3278 2906 2969 
L 2906 3500 
L 3481 3500 
L 3481 434 
z
" id="DejaVuSans-67" transform="scale(0.015625)"/>
        <path d="M 3809 666 
L 3809 1919 
L 2778 1919 
L 2778 2438 
L 4434 2438 
L 4434 434 
Q 4069 175 3628 42 
Q 3188 -91 2688 -91 
Q 1594 -91 976 548 
Q 359 1188 359 2328 
Q 359 3472 976 4111 
Q 1594 4750 2688 4750 
Q 3144 4750 3555 4637 
Q 3966 4525 4313 4306 
L 4313 3634 
Q 3963 3931 3569 4081 
Q 3175 4231 2741 4231 
Q 1884 4231 1454 3753 
Q 1025 3275 1025 2328 
Q 1025 1384 1454 906 
Q 1884 428 2741 428 
Q 3075 428 3337 486 
Q 3600 544 3809 666 
z
" id="DejaVuSans-47" transform="scale(0.015625)"/>
        <path d="M 2188 4044 
L 1331 1722 
L 3047 1722 
L 2188 4044 
z
M 1831 4666 
L 2547 4666 
L 4325 0 
L 3669 0 
L 3244 1197 
L 1141 1197 
L 716 0 
L 50 0 
L 1831 4666 
z
" id="DejaVuSans-41" transform="scale(0.015625)"/>
        <path d="M 1259 2228 
L 1259 519 
L 2272 519 
Q 2781 519 3026 730 
Q 3272 941 3272 1375 
Q 3272 1813 3026 2020 
Q 2781 2228 2272 2228 
L 1259 2228 
z
M 1259 4147 
L 1259 2741 
L 2194 2741 
Q 2656 2741 2882 2914 
Q 3109 3088 3109 3444 
Q 3109 3797 2882 3972 
Q 2656 4147 2194 4147 
L 1259 4147 
z
M 628 4666 
L 2241 4666 
Q 2963 4666 3353 4366 
Q 3744 4066 3744 3513 
Q 3744 3084 3544 2831 
Q 3344 2578 2956 2516 
Q 3422 2416 3680 2098 
Q 3938 1781 3938 1306 
Q 3938 681 3513 340 
Q 3088 0 2303 0 
L 628 0 
L 628 4666 
z
" id="DejaVuSans-42" transform="scale(0.015625)"/>
       </defs>
       <use xlink:href="#DejaVuSans-44"/>
       <use x="77.001953" xlink:href="#DejaVuSans-65"/>
       <use x="138.525391" xlink:href="#DejaVuSans-63"/>
       <use x="193.505859" xlink:href="#DejaVuSans-72"/>
       <use x="232.369141" xlink:href="#DejaVuSans-65"/>
       <use x="293.892578" xlink:href="#DejaVuSans-61"/>
       <use x="355.171875" xlink:href="#DejaVuSans-73"/>
       <use x="407.271484" xlink:href="#DejaVuSans-65"/>
       <use x="468.794922" xlink:href="#DejaVuSans-64"/>
       <use x="532.271484" xlink:href="#DejaVuSans-20"/>
       <use x="564.058594" xlink:href="#DejaVuSans-63"/>
       <use x="619.039062" xlink:href="#DejaVuSans-69"/>
       <use x="646.822266" xlink:href="#DejaVuSans-72"/>
       <use x="685.685547" xlink:href="#DejaVuSans-63"/>
       <use x="740.666016" xlink:href="#DejaVuSans-75"/>
       <use x="804.044922" xlink:href="#DejaVuSans-6c"/>
       <use x="831.828125" xlink:href="#DejaVuSans-61"/>
       <use x="893.107422" xlink:href="#DejaVuSans-74"/>
       <use x="932.316406" xlink:href="#DejaVuSans-69"/>
       <use x="960.099609" xlink:href="#DejaVuSans-6e"/>
       <use x="1023.478516" xlink:href="#DejaVuSans-67"/>
       <use x="1086.955078" xlink:href="#DejaVuSans-20"/>
       <use x="1118.742188" xlink:href="#DejaVuSans-47"/>
       <use x="1196.232422" xlink:href="#DejaVuSans-41"/>
       <use x="1264.640625" xlink:href="#DejaVuSans-42"/>
       <use x="1333.244141" xlink:href="#DejaVuSans-41"/>
       <use x="1401.652344" xlink:href="#DejaVuSans-20"/>
       <use x="1433.439453" xlink:href="#DejaVuSans-63"/>
       <use x="1488.419922" xlink:href="#DejaVuSans-6f"/>
       <use x="1549.601562" xlink:href="#DejaVuSans-6e"/>
       <use x="1612.980469" xlink:href="#DejaVuSans-63"/>
       <use x="1667.960938" xlink:href="#DejaVuSans-65"/>
       <use x="1729.484375" xlink:href="#DejaVuSans-6e"/>
       <use x="1792.863281" xlink:href="#DejaVuSans-74"/>
       <use x="1832.072266" xlink:href="#DejaVuSans-72"/>
       <use x="1873.185547" xlink:href="#DejaVuSans-61"/>
       <use x="1934.464844" xlink:href="#DejaVuSans-74"/>
       <use x="1973.673828" xlink:href="#DejaVuSans-69"/>
       <use x="2001.457031" xlink:href="#DejaVuSans-6f"/>
       <use x="2062.638672" xlink:href="#DejaVuSans-6e"/>
      </g>
     </g>
    </g>
    <g id="ytick_2">
     <g id="line2d_9">
      <g>
       <use style="stroke:#000000;stroke-width:0.8;" x="226.801563" xlink:href="#mb917b8b3a7" y="47.146757"/>
      </g>
     </g>
     <g id="text_10">
      <!-- Long-tract signs -->
      <g transform="translate(139.353125 50.945975)scale(0.1 -0.1)">
       <defs>
        <path d="M 628 4666 
L 1259 4666 
L 1259 531 
L 3531 531 
L 3531 0 
L 628 0 
L 628 4666 
z
" id="DejaVuSans-4c" transform="scale(0.015625)"/>
        <path d="M 313 2009 
L 1997 2009 
L 1997 1497 
L 313 1497 
L 313 2009 
z
" id="DejaVuSans-2d" transform="scale(0.015625)"/>
       </defs>
       <use xlink:href="#DejaVuSans-4c"/>
       <use x="53.962891" xlink:href="#DejaVuSans-6f"/>
       <use x="115.144531" xlink:href="#DejaVuSans-6e"/>
       <use x="178.523438" xlink:href="#DejaVuSans-67"/>
       <use x="242" xlink:href="#DejaVuSans-2d"/>
       <use x="278.083984" xlink:href="#DejaVuSans-74"/>
       <use x="317.292969" xlink:href="#DejaVuSans-72"/>
       <use x="358.40625" xlink:href="#DejaVuSans-61"/>
       <use x="419.685547" xlink:href="#DejaVuSans-63"/>
       <use x="474.666016" xlink:href="#DejaVuSans-74"/>
       <use x="513.875" xlink:href="#DejaVuSans-20"/>
       <use x="545.662109" xlink:href="#DejaVuSans-73"/>
       <use x="597.761719" xlink:href="#DejaVuSans-69"/>
       <use x="625.544922" xlink:href="#DejaVuSans-67"/>
       <use x="689.021484" xlink:href="#DejaVuSans-6e"/>
       <use x="752.400391" xlink:href="#DejaVuSans-73"/>
      </g>
     </g>
    </g>
    <g id="ytick_3">
     <g id="line2d_10">
      <g>
       <use style="stroke:#000000;stroke-width:0.8;" x="226.801563" xlink:href="#mb917b8b3a7" y="59.879388"/>
      </g>
     </g>
     <g id="text_11">
      <!-- Alzheimer disease -->
      <g transform="translate(128.503125 63.678607)scale(0.1 -0.1)">
       <defs>
        <path d="M 353 3500 
L 3084 3500 
L 3084 2975 
L 922 459 
L 3084 459 
L 3084 0 
L 275 0 
L 275 525 
L 2438 3041 
L 353 3041 
L 353 3500 
z
" id="DejaVuSans-7a" transform="scale(0.015625)"/>
       </defs>
       <use xlink:href="#DejaVuSans-41"/>
       <use x="68.408203" xlink:href="#DejaVuSans-6c"/>
       <use x="96.191406" xlink:href="#DejaVuSans-7a"/>
       <use x="148.681641" xlink:href="#DejaVuSans-68"/>
       <use x="212.060547" xlink:href="#DejaVuSans-65"/>
       <use x="273.583984" xlink:href="#DejaVuSans-69"/>
       <use x="301.367188" xlink:href="#DejaVuSans-6d"/>
       <use x="398.779297" xlink:href="#DejaVuSans-65"/>
       <use x="460.302734" xlink:href="#DejaVuSans-72"/>
       <use x="501.416016" xlink:href="#DejaVuSans-20"/>
       <use x="533.203125" xlink:href="#DejaVuSans-64"/>
       <use x="596.679688" xlink:href="#DejaVuSans-69"/>
       <use x="624.462891" xlink:href="#DejaVuSans-73"/>
       <use x="676.5625" xlink:href="#DejaVuSans-65"/>
       <use x="738.085938" xlink:href="#DejaVuSans-61"/>
       <use x="799.365234" xlink:href="#DejaVuSans-73"/>
       <use x="851.464844" xlink:href="#DejaVuSans-65"/>
      </g>
     </g>
    </g>
    <g id="ytick_4">
     <g id="line2d_11">
      <g>
       <use style="stroke:#000000;stroke-width:0.8;" x="226.801563" xlink:href="#mb917b8b3a7" y="72.61202"/>
      </g>
     </g>
     <g id="text_12">
      <!-- Iridocyclitis -->
      <g transform="translate(163.115625 76.411238)scale(0.1 -0.1)">
       <defs>
        <path d="M 628 4666 
L 1259 4666 
L 1259 0 
L 628 0 
L 628 4666 
z
" id="DejaVuSans-49" transform="scale(0.015625)"/>
        <path d="M 2059 -325 
Q 1816 -950 1584 -1140 
Q 1353 -1331 966 -1331 
L 506 -1331 
L 506 -850 
L 844 -850 
Q 1081 -850 1212 -737 
Q 1344 -625 1503 -206 
L 1606 56 
L 191 3500 
L 800 3500 
L 1894 763 
L 2988 3500 
L 3597 3500 
L 2059 -325 
z
" id="DejaVuSans-79" transform="scale(0.015625)"/>
       </defs>
       <use xlink:href="#DejaVuSans-49"/>
       <use x="29.492188" xlink:href="#DejaVuSans-72"/>
       <use x="70.605469" xlink:href="#DejaVuSans-69"/>
       <use x="98.388672" xlink:href="#DejaVuSans-64"/>
       <use x="161.865234" xlink:href="#DejaVuSans-6f"/>
       <use x="223.046875" xlink:href="#DejaVuSans-63"/>
       <use x="278.027344" xlink:href="#DejaVuSans-79"/>
       <use x="337.207031" xlink:href="#DejaVuSans-63"/>
       <use x="392.1875" xlink:href="#DejaVuSans-6c"/>
       <use x="419.970703" xlink:href="#DejaVuSans-69"/>
       <use x="447.753906" xlink:href="#DejaVuSans-74"/>
       <use x="486.962891" xlink:href="#DejaVuSans-69"/>
       <use x="514.746094" xlink:href="#DejaVuSans-73"/>
      </g>
     </g>
    </g>
    <g id="ytick_5">
     <g id="line2d_12">
      <g>
       <use style="stroke:#000000;stroke-width:0.8;" x="226.801563" xlink:href="#mb917b8b3a7" y="85.344651"/>
      </g>
     </g>
     <g id="text_13">
      <!-- Abnormality of metacarpophalangeal joint -->
      <g transform="translate(8.2375 89.14387)scale(0.1 -0.1)">
       <defs>
        <path d="M 3116 1747 
Q 3116 2381 2855 2742 
Q 2594 3103 2138 3103 
Q 1681 3103 1420 2742 
Q 1159 2381 1159 1747 
Q 1159 1113 1420 752 
Q 1681 391 2138 391 
Q 2594 391 2855 752 
Q 3116 1113 3116 1747 
z
M 1159 2969 
Q 1341 3281 1617 3432 
Q 1894 3584 2278 3584 
Q 2916 3584 3314 3078 
Q 3713 2572 3713 1747 
Q 3713 922 3314 415 
Q 2916 -91 2278 -91 
Q 1894 -91 1617 61 
Q 1341 213 1159 525 
L 1159 0 
L 581 0 
L 581 4863 
L 1159 4863 
L 1159 2969 
z
" id="DejaVuSans-62" transform="scale(0.015625)"/>
        <path d="M 2375 4863 
L 2375 4384 
L 1825 4384 
Q 1516 4384 1395 4259 
Q 1275 4134 1275 3809 
L 1275 3500 
L 2222 3500 
L 2222 3053 
L 1275 3053 
L 1275 0 
L 697 0 
L 697 3053 
L 147 3053 
L 147 3500 
L 697 3500 
L 697 3744 
Q 697 4328 969 4595 
Q 1241 4863 1831 4863 
L 2375 4863 
z
" id="DejaVuSans-66" transform="scale(0.015625)"/>
        <path d="M 1159 525 
L 1159 -1331 
L 581 -1331 
L 581 3500 
L 1159 3500 
L 1159 2969 
Q 1341 3281 1617 3432 
Q 1894 3584 2278 3584 
Q 2916 3584 3314 3078 
Q 3713 2572 3713 1747 
Q 3713 922 3314 415 
Q 2916 -91 2278 -91 
Q 1894 -91 1617 61 
Q 1341 213 1159 525 
z
M 3116 1747 
Q 3116 2381 2855 2742 
Q 2594 3103 2138 3103 
Q 1681 3103 1420 2742 
Q 1159 2381 1159 1747 
Q 1159 1113 1420 752 
Q 1681 391 2138 391 
Q 2594 391 2855 752 
Q 3116 1113 3116 1747 
z
" id="DejaVuSans-70" transform="scale(0.015625)"/>
        <path d="M 603 3500 
L 1178 3500 
L 1178 -63 
Q 1178 -731 923 -1031 
Q 669 -1331 103 -1331 
L -116 -1331 
L -116 -844 
L 38 -844 
Q 366 -844 484 -692 
Q 603 -541 603 -63 
L 603 3500 
z
M 603 4863 
L 1178 4863 
L 1178 4134 
L 603 4134 
L 603 4863 
z
" id="DejaVuSans-6a" transform="scale(0.015625)"/>
       </defs>
       <use xlink:href="#DejaVuSans-41"/>
       <use x="68.408203" xlink:href="#DejaVuSans-62"/>
       <use x="131.884766" xlink:href="#DejaVuSans-6e"/>
       <use x="195.263672" xlink:href="#DejaVuSans-6f"/>
       <use x="256.445312" xlink:href="#DejaVuSans-72"/>
       <use x="295.808594" xlink:href="#DejaVuSans-6d"/>
       <use x="393.220703" xlink:href="#DejaVuSans-61"/>
       <use x="454.5" xlink:href="#DejaVuSans-6c"/>
       <use x="482.283203" xlink:href="#DejaVuSans-69"/>
       <use x="510.066406" xlink:href="#DejaVuSans-74"/>
       <use x="549.275391" xlink:href="#DejaVuSans-79"/>
       <use x="608.455078" xlink:href="#DejaVuSans-20"/>
       <use x="640.242188" xlink:href="#DejaVuSans-6f"/>
       <use x="701.423828" xlink:href="#DejaVuSans-66"/>
       <use x="736.628906" xlink:href="#DejaVuSans-20"/>
       <use x="768.416016" xlink:href="#DejaVuSans-6d"/>
       <use x="865.828125" xlink:href="#DejaVuSans-65"/>
       <use x="927.351562" xlink:href="#DejaVuSans-74"/>
       <use x="966.560547" xlink:href="#DejaVuSans-61"/>
       <use x="1027.839844" xlink:href="#DejaVuSans-63"/>
       <use x="1082.820312" xlink:href="#DejaVuSans-61"/>
       <use x="1144.099609" xlink:href="#DejaVuSans-72"/>
       <use x="1185.212891" xlink:href="#DejaVuSans-70"/>
       <use x="1248.689453" xlink:href="#DejaVuSans-6f"/>
       <use x="1309.871094" xlink:href="#DejaVuSans-70"/>
       <use x="1373.347656" xlink:href="#DejaVuSans-68"/>
       <use x="1436.726562" xlink:href="#DejaVuSans-61"/>
       <use x="1498.005859" xlink:href="#DejaVuSans-6c"/>
       <use x="1525.789062" xlink:href="#DejaVuSans-61"/>
       <use x="1587.068359" xlink:href="#DejaVuSans-6e"/>
       <use x="1650.447266" xlink:href="#DejaVuSans-67"/>
       <use x="1713.923828" xlink:href="#DejaVuSans-65"/>
       <use x="1775.447266" xlink:href="#DejaVuSans-61"/>
       <use x="1836.726562" xlink:href="#DejaVuSans-6c"/>
       <use x="1864.509766" xlink:href="#DejaVuSans-20"/>
       <use x="1896.296875" xlink:href="#DejaVuSans-6a"/>
       <use x="1924.080078" xlink:href="#DejaVuSans-6f"/>
       <use x="1985.261719" xlink:href="#DejaVuSans-69"/>
       <use x="2013.044922" xlink:href="#DejaVuSans-6e"/>
       <use x="2076.423828" xlink:href="#DejaVuSans-74"/>
      </g>
     </g>
    </g>
    <g id="ytick_6">
     <g id="line2d_13">
      <g>
       <use style="stroke:#000000;stroke-width:0.8;" x="226.801563" xlink:href="#mb917b8b3a7" y="98.077283"/>
      </g>
     </g>
     <g id="text_14">
      <!-- Synovial hypertrophy -->
      <g transform="translate(112.898438 101.876502)scale(0.1 -0.1)">
       <defs>
        <path d="M 3425 4513 
L 3425 3897 
Q 3066 4069 2747 4153 
Q 2428 4238 2131 4238 
Q 1616 4238 1336 4038 
Q 1056 3838 1056 3469 
Q 1056 3159 1242 3001 
Q 1428 2844 1947 2747 
L 2328 2669 
Q 3034 2534 3370 2195 
Q 3706 1856 3706 1288 
Q 3706 609 3251 259 
Q 2797 -91 1919 -91 
Q 1588 -91 1214 -16 
Q 841 59 441 206 
L 441 856 
Q 825 641 1194 531 
Q 1563 422 1919 422 
Q 2459 422 2753 634 
Q 3047 847 3047 1241 
Q 3047 1584 2836 1778 
Q 2625 1972 2144 2069 
L 1759 2144 
Q 1053 2284 737 2584 
Q 422 2884 422 3419 
Q 422 4038 858 4394 
Q 1294 4750 2059 4750 
Q 2388 4750 2728 4690 
Q 3069 4631 3425 4513 
z
" id="DejaVuSans-53" transform="scale(0.015625)"/>
        <path d="M 191 3500 
L 800 3500 
L 1894 563 
L 2988 3500 
L 3597 3500 
L 2284 0 
L 1503 0 
L 191 3500 
z
" id="DejaVuSans-76" transform="scale(0.015625)"/>
       </defs>
       <use xlink:href="#DejaVuSans-53"/>
       <use x="63.476562" xlink:href="#DejaVuSans-79"/>
       <use x="122.65625" xlink:href="#DejaVuSans-6e"/>
       <use x="186.035156" xlink:href="#DejaVuSans-6f"/>
       <use x="247.216797" xlink:href="#DejaVuSans-76"/>
       <use x="306.396484" xlink:href="#DejaVuSans-69"/>
       <use x="334.179688" xlink:href="#DejaVuSans-61"/>
       <use x="395.458984" xlink:href="#DejaVuSans-6c"/>
       <use x="423.242188" xlink:href="#DejaVuSans-20"/>
       <use x="455.029297" xlink:href="#DejaVuSans-68"/>
       <use x="518.408203" xlink:href="#DejaVuSans-79"/>
       <use x="577.587891" xlink:href="#DejaVuSans-70"/>
       <use x="641.064453" xlink:href="#DejaVuSans-65"/>
       <use x="702.587891" xlink:href="#DejaVuSans-72"/>
       <use x="743.701172" xlink:href="#DejaVuSans-74"/>
       <use x="782.910156" xlink:href="#DejaVuSans-72"/>
       <use x="821.773438" xlink:href="#DejaVuSans-6f"/>
       <use x="882.955078" xlink:href="#DejaVuSans-70"/>
       <use x="946.431641" xlink:href="#DejaVuSans-68"/>
       <use x="1009.810547" xlink:href="#DejaVuSans-79"/>
      </g>
     </g>
    </g>
    <g id="ytick_7">
     <g id="line2d_14">
      <g>
       <use style="stroke:#000000;stroke-width:0.8;" x="226.801563" xlink:href="#mb917b8b3a7" y="110.809914"/>
      </g>
     </g>
     <g id="text_15">
      <!-- Substantia nigra gliosis -->
      <g transform="translate(103.065625 114.609133)scale(0.1 -0.1)">
       <use xlink:href="#DejaVuSans-53"/>
       <use x="63.476562" xlink:href="#DejaVuSans-75"/>
       <use x="126.855469" xlink:href="#DejaVuSans-62"/>
       <use x="190.332031" xlink:href="#DejaVuSans-73"/>
       <use x="242.431641" xlink:href="#DejaVuSans-74"/>
       <use x="281.640625" xlink:href="#DejaVuSans-61"/>
       <use x="342.919922" xlink:href="#DejaVuSans-6e"/>
       <use x="406.298828" xlink:href="#DejaVuSans-74"/>
       <use x="445.507812" xlink:href="#DejaVuSans-69"/>
       <use x="473.291016" xlink:href="#DejaVuSans-61"/>
       <use x="534.570312" xlink:href="#DejaVuSans-20"/>
       <use x="566.357422" xlink:href="#DejaVuSans-6e"/>
       <use x="629.736328" xlink:href="#DejaVuSans-69"/>
       <use x="657.519531" xlink:href="#DejaVuSans-67"/>
       <use x="720.996094" xlink:href="#DejaVuSans-72"/>
       <use x="762.109375" xlink:href="#DejaVuSans-61"/>
       <use x="823.388672" xlink:href="#DejaVuSans-20"/>
       <use x="855.175781" xlink:href="#DejaVuSans-67"/>
       <use x="918.652344" xlink:href="#DejaVuSans-6c"/>
       <use x="946.435547" xlink:href="#DejaVuSans-69"/>
       <use x="974.21875" xlink:href="#DejaVuSans-6f"/>
       <use x="1035.400391" xlink:href="#DejaVuSans-73"/>
       <use x="1087.5" xlink:href="#DejaVuSans-69"/>
       <use x="1115.283203" xlink:href="#DejaVuSans-73"/>
      </g>
     </g>
    </g>
    <g id="ytick_8">
     <g id="line2d_15">
      <g>
       <use style="stroke:#000000;stroke-width:0.8;" x="226.801563" xlink:href="#mb917b8b3a7" y="123.542546"/>
      </g>
     </g>
     <g id="text_16">
      <!-- Oligoarthritis -->
      <g transform="translate(154.6125 127.341765)scale(0.1 -0.1)">
       <defs>
        <path d="M 2522 4238 
Q 1834 4238 1429 3725 
Q 1025 3213 1025 2328 
Q 1025 1447 1429 934 
Q 1834 422 2522 422 
Q 3209 422 3611 934 
Q 4013 1447 4013 2328 
Q 4013 3213 3611 3725 
Q 3209 4238 2522 4238 
z
M 2522 4750 
Q 3503 4750 4090 4092 
Q 4678 3434 4678 2328 
Q 4678 1225 4090 567 
Q 3503 -91 2522 -91 
Q 1538 -91 948 565 
Q 359 1222 359 2328 
Q 359 3434 948 4092 
Q 1538 4750 2522 4750 
z
" id="DejaVuSans-4f" transform="scale(0.015625)"/>
       </defs>
       <use xlink:href="#DejaVuSans-4f"/>
       <use x="78.710938" xlink:href="#DejaVuSans-6c"/>
       <use x="106.494141" xlink:href="#DejaVuSans-69"/>
       <use x="134.277344" xlink:href="#DejaVuSans-67"/>
       <use x="197.753906" xlink:href="#DejaVuSans-6f"/>
       <use x="258.935547" xlink:href="#DejaVuSans-61"/>
       <use x="320.214844" xlink:href="#DejaVuSans-72"/>
       <use x="361.328125" xlink:href="#DejaVuSans-74"/>
       <use x="400.537109" xlink:href="#DejaVuSans-68"/>
       <use x="463.916016" xlink:href="#DejaVuSans-72"/>
       <use x="505.029297" xlink:href="#DejaVuSans-69"/>
       <use x="532.8125" xlink:href="#DejaVuSans-74"/>
       <use x="572.021484" xlink:href="#DejaVuSans-69"/>
       <use x="599.804688" xlink:href="#DejaVuSans-73"/>
      </g>
     </g>
    </g>
    <g id="ytick_9">
     <g id="line2d_16">
      <g>
       <use style="stroke:#000000;stroke-width:0.8;" x="226.801563" xlink:href="#mb917b8b3a7" y="136.275178"/>
      </g>
     </g>
     <g id="text_17">
      <!-- Micrographia -->
      <g transform="translate(154.7125 140.074396)scale(0.1 -0.1)">
       <defs>
        <path d="M 628 4666 
L 1569 4666 
L 2759 1491 
L 3956 4666 
L 4897 4666 
L 4897 0 
L 4281 0 
L 4281 4097 
L 3078 897 
L 2444 897 
L 1241 4097 
L 1241 0 
L 628 0 
L 628 4666 
z
" id="DejaVuSans-4d" transform="scale(0.015625)"/>
       </defs>
       <use xlink:href="#DejaVuSans-4d"/>
       <use x="86.279297" xlink:href="#DejaVuSans-69"/>
       <use x="114.0625" xlink:href="#DejaVuSans-63"/>
       <use x="169.042969" xlink:href="#DejaVuSans-72"/>
       <use x="207.90625" xlink:href="#DejaVuSans-6f"/>
       <use x="269.087891" xlink:href="#DejaVuSans-67"/>
       <use x="332.564453" xlink:href="#DejaVuSans-72"/>
       <use x="373.677734" xlink:href="#DejaVuSans-61"/>
       <use x="434.957031" xlink:href="#DejaVuSans-70"/>
       <use x="498.433594" xlink:href="#DejaVuSans-68"/>
       <use x="561.8125" xlink:href="#DejaVuSans-69"/>
       <use x="589.595703" xlink:href="#DejaVuSans-61"/>
      </g>
     </g>
    </g>
    <g id="ytick_10">
     <g id="line2d_17">
      <g>
       <use style="stroke:#000000;stroke-width:0.8;" x="226.801563" xlink:href="#mb917b8b3a7" y="149.007809"/>
      </g>
     </g>
     <g id="text_18">
      <!-- Neurofibrillary tangles -->
      <g transform="translate(108.521875 152.807028)scale(0.1 -0.1)">
       <defs>
        <path d="M 628 4666 
L 1478 4666 
L 3547 763 
L 3547 4666 
L 4159 4666 
L 4159 0 
L 3309 0 
L 1241 3903 
L 1241 0 
L 628 0 
L 628 4666 
z
" id="DejaVuSans-4e" transform="scale(0.015625)"/>
       </defs>
       <use xlink:href="#DejaVuSans-4e"/>
       <use x="74.804688" xlink:href="#DejaVuSans-65"/>
       <use x="136.328125" xlink:href="#DejaVuSans-75"/>
       <use x="199.707031" xlink:href="#DejaVuSans-72"/>
       <use x="238.570312" xlink:href="#DejaVuSans-6f"/>
       <use x="299.751953" xlink:href="#DejaVuSans-66"/>
       <use x="334.957031" xlink:href="#DejaVuSans-69"/>
       <use x="362.740234" xlink:href="#DejaVuSans-62"/>
       <use x="426.216797" xlink:href="#DejaVuSans-72"/>
       <use x="467.330078" xlink:href="#DejaVuSans-69"/>
       <use x="495.113281" xlink:href="#DejaVuSans-6c"/>
       <use x="522.896484" xlink:href="#DejaVuSans-6c"/>
       <use x="550.679688" xlink:href="#DejaVuSans-61"/>
       <use x="611.958984" xlink:href="#DejaVuSans-72"/>
       <use x="653.072266" xlink:href="#DejaVuSans-79"/>
       <use x="712.251953" xlink:href="#DejaVuSans-20"/>
       <use x="744.039062" xlink:href="#DejaVuSans-74"/>
       <use x="783.248047" xlink:href="#DejaVuSans-61"/>
       <use x="844.527344" xlink:href="#DejaVuSans-6e"/>
       <use x="907.90625" xlink:href="#DejaVuSans-67"/>
       <use x="971.382812" xlink:href="#DejaVuSans-6c"/>
       <use x="999.166016" xlink:href="#DejaVuSans-65"/>
       <use x="1060.689453" xlink:href="#DejaVuSans-73"/>
      </g>
     </g>
    </g>
    <g id="ytick_11">
     <g id="line2d_18">
      <g>
       <use style="stroke:#000000;stroke-width:0.8;" x="226.801563" xlink:href="#mb917b8b3a7" y="161.740441"/>
      </g>
     </g>
     <g id="text_19">
      <!-- Insidious onset -->
      <g transform="translate(144.817188 165.53966)scale(0.1 -0.1)">
       <use xlink:href="#DejaVuSans-49"/>
       <use x="29.492188" xlink:href="#DejaVuSans-6e"/>
       <use x="92.871094" xlink:href="#DejaVuSans-73"/>
       <use x="144.970703" xlink:href="#DejaVuSans-69"/>
       <use x="172.753906" xlink:href="#DejaVuSans-64"/>
       <use x="236.230469" xlink:href="#DejaVuSans-69"/>
       <use x="264.013672" xlink:href="#DejaVuSans-6f"/>
       <use x="325.195312" xlink:href="#DejaVuSans-75"/>
       <use x="388.574219" xlink:href="#DejaVuSans-73"/>
       <use x="440.673828" xlink:href="#DejaVuSans-20"/>
       <use x="472.460938" xlink:href="#DejaVuSans-6f"/>
       <use x="533.642578" xlink:href="#DejaVuSans-6e"/>
       <use x="597.021484" xlink:href="#DejaVuSans-73"/>
       <use x="649.121094" xlink:href="#DejaVuSans-65"/>
       <use x="710.644531" xlink:href="#DejaVuSans-74"/>
      </g>
     </g>
    </g>
    <g id="ytick_12">
     <g id="line2d_19">
      <g>
       <use style="stroke:#000000;stroke-width:0.8;" x="226.801563" xlink:href="#mb917b8b3a7" y="174.473072"/>
      </g>
     </g>
     <g id="text_20">
      <!-- Polyarticular arthritis -->
      <g transform="translate(115.05625 178.272291)scale(0.1 -0.1)">
       <defs>
        <path d="M 1259 4147 
L 1259 2394 
L 2053 2394 
Q 2494 2394 2734 2622 
Q 2975 2850 2975 3272 
Q 2975 3691 2734 3919 
Q 2494 4147 2053 4147 
L 1259 4147 
z
M 628 4666 
L 2053 4666 
Q 2838 4666 3239 4311 
Q 3641 3956 3641 3272 
Q 3641 2581 3239 2228 
Q 2838 1875 2053 1875 
L 1259 1875 
L 1259 0 
L 628 0 
L 628 4666 
z
" id="DejaVuSans-50" transform="scale(0.015625)"/>
       </defs>
       <use xlink:href="#DejaVuSans-50"/>
       <use x="56.677734" xlink:href="#DejaVuSans-6f"/>
       <use x="117.859375" xlink:href="#DejaVuSans-6c"/>
       <use x="145.642578" xlink:href="#DejaVuSans-79"/>
       <use x="204.822266" xlink:href="#DejaVuSans-61"/>
       <use x="266.101562" xlink:href="#DejaVuSans-72"/>
       <use x="307.214844" xlink:href="#DejaVuSans-74"/>
       <use x="346.423828" xlink:href="#DejaVuSans-69"/>
       <use x="374.207031" xlink:href="#DejaVuSans-63"/>
       <use x="429.1875" xlink:href="#DejaVuSans-75"/>
       <use x="492.566406" xlink:href="#DejaVuSans-6c"/>
       <use x="520.349609" xlink:href="#DejaVuSans-61"/>
       <use x="581.628906" xlink:href="#DejaVuSans-72"/>
       <use x="622.742188" xlink:href="#DejaVuSans-20"/>
       <use x="654.529297" xlink:href="#DejaVuSans-61"/>
       <use x="715.808594" xlink:href="#DejaVuSans-72"/>
       <use x="756.921875" xlink:href="#DejaVuSans-74"/>
       <use x="796.130859" xlink:href="#DejaVuSans-68"/>
       <use x="859.509766" xlink:href="#DejaVuSans-72"/>
       <use x="900.623047" xlink:href="#DejaVuSans-69"/>
       <use x="928.40625" xlink:href="#DejaVuSans-74"/>
       <use x="967.615234" xlink:href="#DejaVuSans-69"/>
       <use x="995.398438" xlink:href="#DejaVuSans-73"/>
      </g>
     </g>
    </g>
    <g id="ytick_13">
     <g id="line2d_20">
      <g>
       <use style="stroke:#000000;stroke-width:0.8;" x="226.801563" xlink:href="#mb917b8b3a7" y="187.205704"/>
      </g>
     </g>
     <g id="text_21">
      <!-- Short stepped shuffling gait -->
      <g transform="translate(80.607813 191.004923)scale(0.1 -0.1)">
       <use xlink:href="#DejaVuSans-53"/>
       <use x="63.476562" xlink:href="#DejaVuSans-68"/>
       <use x="126.855469" xlink:href="#DejaVuSans-6f"/>
       <use x="188.037109" xlink:href="#DejaVuSans-72"/>
       <use x="229.150391" xlink:href="#DejaVuSans-74"/>
       <use x="268.359375" xlink:href="#DejaVuSans-20"/>
       <use x="300.146484" xlink:href="#DejaVuSans-73"/>
       <use x="352.246094" xlink:href="#DejaVuSans-74"/>
       <use x="391.455078" xlink:href="#DejaVuSans-65"/>
       <use x="452.978516" xlink:href="#DejaVuSans-70"/>
       <use x="516.455078" xlink:href="#DejaVuSans-70"/>
       <use x="579.931641" xlink:href="#DejaVuSans-65"/>
       <use x="641.455078" xlink:href="#DejaVuSans-64"/>
       <use x="704.931641" xlink:href="#DejaVuSans-20"/>
       <use x="736.71875" xlink:href="#DejaVuSans-73"/>
       <use x="788.818359" xlink:href="#DejaVuSans-68"/>
       <use x="852.197266" xlink:href="#DejaVuSans-75"/>
       <use x="915.576172" xlink:href="#DejaVuSans-66"/>
       <use x="950.78125" xlink:href="#DejaVuSans-66"/>
       <use x="985.986328" xlink:href="#DejaVuSans-6c"/>
       <use x="1013.769531" xlink:href="#DejaVuSans-69"/>
       <use x="1041.552734" xlink:href="#DejaVuSans-6e"/>
       <use x="1104.931641" xlink:href="#DejaVuSans-67"/>
       <use x="1168.408203" xlink:href="#DejaVuSans-20"/>
       <use x="1200.195312" xlink:href="#DejaVuSans-67"/>
       <use x="1263.671875" xlink:href="#DejaVuSans-61"/>
       <use x="1324.951172" xlink:href="#DejaVuSans-69"/>
       <use x="1352.734375" xlink:href="#DejaVuSans-74"/>
      </g>
     </g>
    </g>
    <g id="ytick_14">
     <g id="line2d_21">
      <g>
       <use style="stroke:#000000;stroke-width:0.8;" x="226.801563" xlink:href="#mb917b8b3a7" y="199.938336"/>
      </g>
     </g>
     <g id="text_22">
      <!-- Band keratopathy -->
      <g transform="translate(130.435938 203.737554)scale(0.1 -0.1)">
       <defs>
        <path d="M 581 4863 
L 1159 4863 
L 1159 1991 
L 2875 3500 
L 3609 3500 
L 1753 1863 
L 3688 0 
L 2938 0 
L 1159 1709 
L 1159 0 
L 581 0 
L 581 4863 
z
" id="DejaVuSans-6b" transform="scale(0.015625)"/>
       </defs>
       <use xlink:href="#DejaVuSans-42"/>
       <use x="68.603516" xlink:href="#DejaVuSans-61"/>
       <use x="129.882812" xlink:href="#DejaVuSans-6e"/>
       <use x="193.261719" xlink:href="#DejaVuSans-64"/>
       <use x="256.738281" xlink:href="#DejaVuSans-20"/>
       <use x="288.525391" xlink:href="#DejaVuSans-6b"/>
       <use x="342.810547" xlink:href="#DejaVuSans-65"/>
       <use x="404.333984" xlink:href="#DejaVuSans-72"/>
       <use x="445.447266" xlink:href="#DejaVuSans-61"/>
       <use x="506.726562" xlink:href="#DejaVuSans-74"/>
       <use x="545.935547" xlink:href="#DejaVuSans-6f"/>
       <use x="607.117188" xlink:href="#DejaVuSans-70"/>
       <use x="670.59375" xlink:href="#DejaVuSans-61"/>
       <use x="731.873047" xlink:href="#DejaVuSans-74"/>
       <use x="771.082031" xlink:href="#DejaVuSans-68"/>
       <use x="834.460938" xlink:href="#DejaVuSans-79"/>
      </g>
     </g>
    </g>
    <g id="ytick_15">
     <g id="line2d_22">
      <g>
       <use style="stroke:#000000;stroke-width:0.8;" x="226.801563" xlink:href="#mb917b8b3a7" y="212.670967"/>
      </g>
     </g>
     <g id="text_23">
      <!-- Rheumatoid arthritis -->
      <g transform="translate(116.51875 216.470186)scale(0.1 -0.1)">
       <defs>
        <path d="M 2841 2188 
Q 3044 2119 3236 1894 
Q 3428 1669 3622 1275 
L 4263 0 
L 3584 0 
L 2988 1197 
Q 2756 1666 2539 1819 
Q 2322 1972 1947 1972 
L 1259 1972 
L 1259 0 
L 628 0 
L 628 4666 
L 2053 4666 
Q 2853 4666 3247 4331 
Q 3641 3997 3641 3322 
Q 3641 2881 3436 2590 
Q 3231 2300 2841 2188 
z
M 1259 4147 
L 1259 2491 
L 2053 2491 
Q 2509 2491 2742 2702 
Q 2975 2913 2975 3322 
Q 2975 3731 2742 3939 
Q 2509 4147 2053 4147 
L 1259 4147 
z
" id="DejaVuSans-52" transform="scale(0.015625)"/>
       </defs>
       <use xlink:href="#DejaVuSans-52"/>
       <use x="69.482422" xlink:href="#DejaVuSans-68"/>
       <use x="132.861328" xlink:href="#DejaVuSans-65"/>
       <use x="194.384766" xlink:href="#DejaVuSans-75"/>
       <use x="257.763672" xlink:href="#DejaVuSans-6d"/>
       <use x="355.175781" xlink:href="#DejaVuSans-61"/>
       <use x="416.455078" xlink:href="#DejaVuSans-74"/>
       <use x="455.664062" xlink:href="#DejaVuSans-6f"/>
       <use x="516.845703" xlink:href="#DejaVuSans-69"/>
       <use x="544.628906" xlink:href="#DejaVuSans-64"/>
       <use x="608.105469" xlink:href="#DejaVuSans-20"/>
       <use x="639.892578" xlink:href="#DejaVuSans-61"/>
       <use x="701.171875" xlink:href="#DejaVuSans-72"/>
       <use x="742.285156" xlink:href="#DejaVuSans-74"/>
       <use x="781.494141" xlink:href="#DejaVuSans-68"/>
       <use x="844.873047" xlink:href="#DejaVuSans-72"/>
       <use x="885.986328" xlink:href="#DejaVuSans-69"/>
       <use x="913.769531" xlink:href="#DejaVuSans-74"/>
       <use x="952.978516" xlink:href="#DejaVuSans-69"/>
       <use x="980.761719" xlink:href="#DejaVuSans-73"/>
      </g>
     </g>
    </g>
    <g id="ytick_16">
     <g id="line2d_23">
      <g>
       <use style="stroke:#000000;stroke-width:0.8;" x="226.801563" xlink:href="#mb917b8b3a7" y="225.403599"/>
      </g>
     </g>
     <g id="text_24">
      <!-- Synovitis -->
      <g transform="translate(174.473438 229.202817)scale(0.1 -0.1)">
       <use xlink:href="#DejaVuSans-53"/>
       <use x="63.476562" xlink:href="#DejaVuSans-79"/>
       <use x="122.65625" xlink:href="#DejaVuSans-6e"/>
       <use x="186.035156" xlink:href="#DejaVuSans-6f"/>
       <use x="247.216797" xlink:href="#DejaVuSans-76"/>
       <use x="306.396484" xlink:href="#DejaVuSans-69"/>
       <use x="334.179688" xlink:href="#DejaVuSans-74"/>
       <use x="373.388672" xlink:href="#DejaVuSans-69"/>
       <use x="401.171875" xlink:href="#DejaVuSans-73"/>
      </g>
     </g>
    </g>
    <g id="ytick_17">
     <g id="line2d_24">
      <g>
       <use style="stroke:#000000;stroke-width:0.8;" x="226.801563" xlink:href="#mb917b8b3a7" y="238.13623"/>
      </g>
     </g>
     <g id="text_25">
      <!-- Weak voice -->
      <g transform="translate(162.784375 241.935449)scale(0.1 -0.1)">
       <defs>
        <path d="M 213 4666 
L 850 4666 
L 1831 722 
L 2809 4666 
L 3519 4666 
L 4500 722 
L 5478 4666 
L 6119 4666 
L 4947 0 
L 4153 0 
L 3169 4050 
L 2175 0 
L 1381 0 
L 213 4666 
z
" id="DejaVuSans-57" transform="scale(0.015625)"/>
       </defs>
       <use xlink:href="#DejaVuSans-57"/>
       <use x="93.001953" xlink:href="#DejaVuSans-65"/>
       <use x="154.525391" xlink:href="#DejaVuSans-61"/>
       <use x="215.804688" xlink:href="#DejaVuSans-6b"/>
       <use x="273.714844" xlink:href="#DejaVuSans-20"/>
       <use x="305.501953" xlink:href="#DejaVuSans-76"/>
       <use x="364.681641" xlink:href="#DejaVuSans-6f"/>
       <use x="425.863281" xlink:href="#DejaVuSans-69"/>
       <use x="453.646484" xlink:href="#DejaVuSans-63"/>
       <use x="508.626953" xlink:href="#DejaVuSans-65"/>
      </g>
     </g>
    </g>
    <g id="ytick_18">
     <g id="line2d_25">
      <g>
       <use style="stroke:#000000;stroke-width:0.8;" x="226.801563" xlink:href="#mb917b8b3a7" y="250.868862"/>
      </g>
     </g>
     <g id="text_26">
      <!-- Abnormal shoulder morphology -->
      <g transform="translate(61.884375 254.668081)scale(0.1 -0.1)">
       <use xlink:href="#DejaVuSans-41"/>
       <use x="68.408203" xlink:href="#DejaVuSans-62"/>
       <use x="131.884766" xlink:href="#DejaVuSans-6e"/>
       <use x="195.263672" xlink:href="#DejaVuSans-6f"/>
       <use x="256.445312" xlink:href="#DejaVuSans-72"/>
       <use x="295.808594" xlink:href="#DejaVuSans-6d"/>
       <use x="393.220703" xlink:href="#DejaVuSans-61"/>
       <use x="454.5" xlink:href="#DejaVuSans-6c"/>
       <use x="482.283203" xlink:href="#DejaVuSans-20"/>
       <use x="514.070312" xlink:href="#DejaVuSans-73"/>
       <use x="566.169922" xlink:href="#DejaVuSans-68"/>
       <use x="629.548828" xlink:href="#DejaVuSans-6f"/>
       <use x="690.730469" xlink:href="#DejaVuSans-75"/>
       <use x="754.109375" xlink:href="#DejaVuSans-6c"/>
       <use x="781.892578" xlink:href="#DejaVuSans-64"/>
       <use x="845.369141" xlink:href="#DejaVuSans-65"/>
       <use x="906.892578" xlink:href="#DejaVuSans-72"/>
       <use x="948.005859" xlink:href="#DejaVuSans-20"/>
       <use x="979.792969" xlink:href="#DejaVuSans-6d"/>
       <use x="1077.205078" xlink:href="#DejaVuSans-6f"/>
       <use x="1138.386719" xlink:href="#DejaVuSans-72"/>
       <use x="1179.5" xlink:href="#DejaVuSans-70"/>
       <use x="1242.976562" xlink:href="#DejaVuSans-68"/>
       <use x="1306.355469" xlink:href="#DejaVuSans-6f"/>
       <use x="1367.537109" xlink:href="#DejaVuSans-6c"/>
       <use x="1395.320312" xlink:href="#DejaVuSans-6f"/>
       <use x="1456.501953" xlink:href="#DejaVuSans-67"/>
       <use x="1519.978516" xlink:href="#DejaVuSans-79"/>
      </g>
     </g>
    </g>
    <g id="ytick_19">
     <g id="line2d_26">
      <g>
       <use style="stroke:#000000;stroke-width:0.8;" x="226.801563" xlink:href="#mb917b8b3a7" y="263.601493"/>
      </g>
     </g>
     <g id="text_27">
      <!-- Neuronal loss in central nervous system -->
      <g transform="translate(18.995313 267.400712)scale(0.1 -0.1)">
       <use xlink:href="#DejaVuSans-4e"/>
       <use x="74.804688" xlink:href="#DejaVuSans-65"/>
       <use x="136.328125" xlink:href="#DejaVuSans-75"/>
       <use x="199.707031" xlink:href="#DejaVuSans-72"/>
       <use x="238.570312" xlink:href="#DejaVuSans-6f"/>
       <use x="299.751953" xlink:href="#DejaVuSans-6e"/>
       <use x="363.130859" xlink:href="#DejaVuSans-61"/>
       <use x="424.410156" xlink:href="#DejaVuSans-6c"/>
       <use x="452.193359" xlink:href="#DejaVuSans-20"/>
       <use x="483.980469" xlink:href="#DejaVuSans-6c"/>
       <use x="511.763672" xlink:href="#DejaVuSans-6f"/>
       <use x="572.945312" xlink:href="#DejaVuSans-73"/>
       <use x="625.044922" xlink:href="#DejaVuSans-73"/>
       <use x="677.144531" xlink:href="#DejaVuSans-20"/>
       <use x="708.931641" xlink:href="#DejaVuSans-69"/>
       <use x="736.714844" xlink:href="#DejaVuSans-6e"/>
       <use x="800.09375" xlink:href="#DejaVuSans-20"/>
       <use x="831.880859" xlink:href="#DejaVuSans-63"/>
       <use x="886.861328" xlink:href="#DejaVuSans-65"/>
       <use x="948.384766" xlink:href="#DejaVuSans-6e"/>
       <use x="1011.763672" xlink:href="#DejaVuSans-74"/>
       <use x="1050.972656" xlink:href="#DejaVuSans-72"/>
       <use x="1092.085938" xlink:href="#DejaVuSans-61"/>
       <use x="1153.365234" xlink:href="#DejaVuSans-6c"/>
       <use x="1181.148438" xlink:href="#DejaVuSans-20"/>
       <use x="1212.935547" xlink:href="#DejaVuSans-6e"/>
       <use x="1276.314453" xlink:href="#DejaVuSans-65"/>
       <use x="1337.837891" xlink:href="#DejaVuSans-72"/>
       <use x="1378.951172" xlink:href="#DejaVuSans-76"/>
       <use x="1438.130859" xlink:href="#DejaVuSans-6f"/>
       <use x="1499.3125" xlink:href="#DejaVuSans-75"/>
       <use x="1562.691406" xlink:href="#DejaVuSans-73"/>
       <use x="1614.791016" xlink:href="#DejaVuSans-20"/>
       <use x="1646.578125" xlink:href="#DejaVuSans-73"/>
       <use x="1698.677734" xlink:href="#DejaVuSans-79"/>
       <use x="1757.857422" xlink:href="#DejaVuSans-73"/>
       <use x="1809.957031" xlink:href="#DejaVuSans-74"/>
       <use x="1849.166016" xlink:href="#DejaVuSans-65"/>
       <use x="1910.689453" xlink:href="#DejaVuSans-6d"/>
      </g>
     </g>
    </g>
    <g id="ytick_20">
     <g id="line2d_27">
      <g>
       <use style="stroke:#000000;stroke-width:0.8;" x="226.801563" xlink:href="#mb917b8b3a7" y="276.334125"/>
      </g>
     </g>
     <g id="text_28">
      <!-- Lewy bodies -->
      <g transform="translate(158.020313 280.133344)scale(0.1 -0.1)">
       <defs>
        <path d="M 269 3500 
L 844 3500 
L 1563 769 
L 2278 3500 
L 2956 3500 
L 3675 769 
L 4391 3500 
L 4966 3500 
L 4050 0 
L 3372 0 
L 2619 2869 
L 1863 0 
L 1184 0 
L 269 3500 
z
" id="DejaVuSans-77" transform="scale(0.015625)"/>
       </defs>
       <use xlink:href="#DejaVuSans-4c"/>
       <use x="53.962891" xlink:href="#DejaVuSans-65"/>
       <use x="115.486328" xlink:href="#DejaVuSans-77"/>
       <use x="197.273438" xlink:href="#DejaVuSans-79"/>
       <use x="256.453125" xlink:href="#DejaVuSans-20"/>
       <use x="288.240234" xlink:href="#DejaVuSans-62"/>
       <use x="351.716797" xlink:href="#DejaVuSans-6f"/>
       <use x="412.898438" xlink:href="#DejaVuSans-64"/>
       <use x="476.375" xlink:href="#DejaVuSans-69"/>
       <use x="504.158203" xlink:href="#DejaVuSans-65"/>
       <use x="565.681641" xlink:href="#DejaVuSans-73"/>
      </g>
     </g>
    </g>
   </g>
   <g id="patch_3">
    <path d="M 226.801563 288.430125 
L 226.801563 22.318125 
" style="fill:none;stroke:#000000;stroke-linecap:square;stroke-linejoin:miter;stroke-width:0.8;"/>
   </g>
   <g id="patch_4">
    <path d="M 583.921563 288.430125 
L 583.921563 22.318125 
" style="fill:none;stroke:#000000;stroke-linecap:square;stroke-linejoin:miter;stroke-width:0.8;"/>
   </g>
   <g id="patch_5">
    <path d="M 226.801563 288.430125 
L 583.921563 288.430125 
" style="fill:none;stroke:#000000;stroke-linecap:square;stroke-linejoin:miter;stroke-width:0.8;"/>
   </g>
   <g id="patch_6">
    <path d="M 226.801563 22.318125 
L 583.921563 22.318125 
" style="fill:none;stroke:#000000;stroke-linecap:square;stroke-linejoin:miter;stroke-width:0.8;"/>
   </g>
   <g id="text_29">
    <!-- Top 20 Enriched Phenotypes -->
    <g transform="translate(320.435313 16.318125)scale(0.12 -0.12)">
     <defs>
      <path d="M -19 4666 
L 3928 4666 
L 3928 4134 
L 2272 4134 
L 2272 0 
L 1638 0 
L 1638 4134 
L -19 4134 
L -19 4666 
z
" id="DejaVuSans-54" transform="scale(0.015625)"/>
      <path d="M 1228 531 
L 3431 531 
L 3431 0 
L 469 0 
L 469 531 
Q 828 903 1448 1529 
Q 2069 2156 2228 2338 
Q 2531 2678 2651 2914 
Q 2772 3150 2772 3378 
Q 2772 3750 2511 3984 
Q 2250 4219 1831 4219 
Q 1534 4219 1204 4116 
Q 875 4013 500 3803 
L 500 4441 
Q 881 4594 1212 4672 
Q 1544 4750 1819 4750 
Q 2544 4750 2975 4387 
Q 3406 4025 3406 3419 
Q 3406 3131 3298 2873 
Q 3191 2616 2906 2266 
Q 2828 2175 2409 1742 
Q 1991 1309 1228 531 
z
" id="DejaVuSans-32" transform="scale(0.015625)"/>
     </defs>
     <use xlink:href="#DejaVuSans-54"/>
     <use x="44.083984" xlink:href="#DejaVuSans-6f"/>
     <use x="105.265625" xlink:href="#DejaVuSans-70"/>
     <use x="168.742188" xlink:href="#DejaVuSans-20"/>
     <use x="200.529297" xlink:href="#DejaVuSans-32"/>
     <use x="264.152344" xlink:href="#DejaVuSans-30"/>
     <use x="327.775391" xlink:href="#DejaVuSans-20"/>
     <use x="359.5625" xlink:href="#DejaVuSans-45"/>
     <use x="422.746094" xlink:href="#DejaVuSans-6e"/>
     <use x="486.125" xlink:href="#DejaVuSans-72"/>
     <use x="527.238281" xlink:href="#DejaVuSans-69"/>
     <use x="555.021484" xlink:href="#DejaVuSans-63"/>
     <use x="610.001953" xlink:href="#DejaVuSans-68"/>
     <use x="673.380859" xlink:href="#DejaVuSans-65"/>
     <use x="734.904297" xlink:href="#DejaVuSans-64"/>
     <use x="798.380859" xlink:href="#DejaVuSans-20"/>
     <use x="830.167969" xlink:href="#DejaVuSans-50"/>
     <use x="890.470703" xlink:href="#DejaVuSans-68"/>
     <use x="953.849609" xlink:href="#DejaVuSans-65"/>
     <use x="1015.373047" xlink:href="#DejaVuSans-6e"/>
     <use x="1078.751953" xlink:href="#DejaVuSans-6f"/>
     <use x="1139.933594" xlink:href="#DejaVuSans-74"/>
     <use x="1179.142578" xlink:href="#DejaVuSans-79"/>
     <use x="1238.322266" xlink:href="#DejaVuSans-70"/>
     <use x="1301.798828" xlink:href="#DejaVuSans-65"/>
     <use x="1363.322266" xlink:href="#DejaVuSans-73"/>
    </g>
   </g>
   <g id="legend_1">
    <g id="patch_7">
     <path d="M 590.921563 221.13375 
L 746.987188 221.13375 
Q 748.987188 221.13375 748.987188 219.13375 
L 748.987188 29.318125 
Q 748.987188 27.318125 746.987188 27.318125 
L 590.921563 27.318125 
Q 588.921563 27.318125 588.921563 29.318125 
L 588.921563 219.13375 
Q 588.921563 221.13375 590.921563 221.13375 
z
" style="fill:#ffffff;opacity:0.8;stroke:#cccccc;stroke-linejoin:miter;"/>
    </g>
    <g id="text_30">
     <!-- -log10 FDR -->
     <g transform="translate(620.921563 38.916562)scale(0.1 -0.1)">
      <defs>
       <path d="M 794 531 
L 1825 531 
L 1825 4091 
L 703 3866 
L 703 4441 
L 1819 4666 
L 2450 4666 
L 2450 531 
L 3481 531 
L 3481 0 
L 794 0 
L 794 531 
z
" id="DejaVuSans-31" transform="scale(0.015625)"/>
      </defs>
      <use xlink:href="#DejaVuSans-2d"/>
      <use x="36.083984" xlink:href="#DejaVuSans-6c"/>
      <use x="63.867188" xlink:href="#DejaVuSans-6f"/>
      <use x="125.048828" xlink:href="#DejaVuSans-67"/>
      <use x="188.525391" xlink:href="#DejaVuSans-31"/>
      <use x="252.148438" xlink:href="#DejaVuSans-30"/>
      <use x="315.771484" xlink:href="#DejaVuSans-20"/>
      <use x="347.558594" xlink:href="#DejaVuSans-46"/>
      <use x="405.078125" xlink:href="#DejaVuSans-44"/>
      <use x="482.080078" xlink:href="#DejaVuSans-52"/>
     </g>
    </g>
    <g id="PathCollection_13">
     <defs>
      <path d="M 0 3 
C 0.795609 3 1.55874 2.683901 2.12132 2.12132 
C 2.683901 1.55874 3 0.795609 3 0 
C 3 -0.795609 2.683901 -1.55874 2.12132 -2.12132 
C 1.55874 -2.683901 0.795609 -3 0 -3 
C -0.795609 -3 -1.55874 -2.683901 -2.12132 -2.12132 
C -2.683901 -1.55874 -3 -0.795609 -3 0 
C -3 0.795609 -2.683901 1.55874 -2.12132 2.12132 
C -1.55874 2.683901 -0.795609 3 0 3 
z
" id="m0eb0a3ff80" style="stroke:#6a8bef;"/>
     </defs>
     <g>
      <use style="fill:#6a8bef;stroke:#6a8bef;" x="602.921563" xlink:href="#m0eb0a3ff80" y="50.969688"/>
     </g>
    </g>
    <g id="text_31">
     <!-- 5 -->
     <g transform="translate(620.921563 53.594688)scale(0.1 -0.1)">
      <use xlink:href="#DejaVuSans-35"/>
     </g>
    </g>
    <g id="PathCollection_14">
     <defs>
      <path d="M 0 3 
C 0.795609 3 1.55874 2.683901 2.12132 2.12132 
C 2.683901 1.55874 3 0.795609 3 0 
C 3 -0.795609 2.683901 -1.55874 2.12132 -2.12132 
C 1.55874 -2.683901 0.795609 -3 0 -3 
C -0.795609 -3 -1.55874 -2.683901 -2.12132 -2.12132 
C -2.683901 -1.55874 -3 -0.795609 -3 0 
C -3 0.795609 -2.683901 1.55874 -2.12132 2.12132 
C -1.55874 2.683901 -0.795609 3 0 3 
z
" id="m75ccc202e3" style="stroke:#aac7fd;"/>
     </defs>
     <g>
      <use style="fill:#aac7fd;stroke:#aac7fd;" x="602.921563" xlink:href="#m75ccc202e3" y="65.647812"/>
     </g>
    </g>
    <g id="text_32">
     <!-- 6 -->
     <g transform="translate(620.921563 68.272812)scale(0.1 -0.1)">
      <use xlink:href="#DejaVuSans-36"/>
     </g>
    </g>
    <g id="PathCollection_15">
     <defs>
      <path d="M 0 3 
C 0.795609 3 1.55874 2.683901 2.12132 2.12132 
C 2.683901 1.55874 3 0.795609 3 0 
C 3 -0.795609 2.683901 -1.55874 2.12132 -2.12132 
C 1.55874 -2.683901 0.795609 -3 0 -3 
C -0.795609 -3 -1.55874 -2.683901 -2.12132 -2.12132 
C -2.683901 -1.55874 -3 -0.795609 -3 0 
C -3 0.795609 -2.683901 1.55874 -2.12132 2.12132 
C -1.55874 2.683901 -0.795609 3 0 3 
z
" id="m229b32cd9a" style="stroke:#e1dad6;"/>
     </defs>
     <g>
      <use style="fill:#e1dad6;stroke:#e1dad6;" x="602.921563" xlink:href="#m229b32cd9a" y="80.325938"/>
     </g>
    </g>
    <g id="text_33">
     <!-- 7 -->
     <g transform="translate(620.921563 82.950938)scale(0.1 -0.1)">
      <use xlink:href="#DejaVuSans-37"/>
     </g>
    </g>
    <g id="PathCollection_16">
     <defs>
      <path d="M 0 3 
C 0.795609 3 1.55874 2.683901 2.12132 2.12132 
C 2.683901 1.55874 3 0.795609 3 0 
C 3 -0.795609 2.683901 -1.55874 2.12132 -2.12132 
C 1.55874 -2.683901 0.795609 -3 0 -3 
C -0.795609 -3 -1.55874 -2.683901 -2.12132 -2.12132 
C -2.683901 -1.55874 -3 -0.795609 -3 0 
C -3 0.795609 -2.683901 1.55874 -2.12132 2.12132 
C -1.55874 2.683901 -0.795609 3 0 3 
z
" id="mb7e29d1fec" style="stroke:#f7ac8e;"/>
     </defs>
     <g>
      <use style="fill:#f7ac8e;stroke:#f7ac8e;" x="602.921563" xlink:href="#mb7e29d1fec" y="95.004063"/>
     </g>
    </g>
    <g id="text_34">
     <!-- 8 -->
     <g transform="translate(620.921563 97.629063)scale(0.1 -0.1)">
      <use xlink:href="#DejaVuSans-38"/>
     </g>
    </g>
    <g id="PathCollection_17">
     <defs>
      <path d="M 0 3 
C 0.795609 3 1.55874 2.683901 2.12132 2.12132 
C 2.683901 1.55874 3 0.795609 3 0 
C 3 -0.795609 2.683901 -1.55874 2.12132 -2.12132 
C 1.55874 -2.683901 0.795609 -3 0 -3 
C -0.795609 -3 -1.55874 -2.683901 -2.12132 -2.12132 
C -2.683901 -1.55874 -3 -0.795609 -3 0 
C -3 0.795609 -2.683901 1.55874 -2.12132 2.12132 
C -1.55874 2.683901 -0.795609 3 0 3 
z
" id="m77e50a297d" style="stroke:#da5a49;"/>
     </defs>
     <g>
      <use style="fill:#da5a49;stroke:#da5a49;" x="602.921563" xlink:href="#m77e50a297d" y="109.682187"/>
     </g>
    </g>
    <g id="text_35">
     <!-- 9 -->
     <g transform="translate(620.921563 112.307187)scale(0.1 -0.1)">
      <use xlink:href="#DejaVuSans-39"/>
     </g>
    </g>
    <g id="text_36">
     <!-- Gene Ratio -->
     <g transform="translate(620.921563 126.985313)scale(0.1 -0.1)">
      <use xlink:href="#DejaVuSans-47"/>
      <use x="77.490234" xlink:href="#DejaVuSans-65"/>
      <use x="139.013672" xlink:href="#DejaVuSans-6e"/>
      <use x="202.392578" xlink:href="#DejaVuSans-65"/>
      <use x="263.916016" xlink:href="#DejaVuSans-20"/>
      <use x="295.703125" xlink:href="#DejaVuSans-52"/>
      <use x="362.935547" xlink:href="#DejaVuSans-61"/>
      <use x="424.214844" xlink:href="#DejaVuSans-74"/>
      <use x="463.423828" xlink:href="#DejaVuSans-69"/>
      <use x="491.207031" xlink:href="#DejaVuSans-6f"/>
     </g>
    </g>
    <g id="PathCollection_18">
     <defs>
      <path d="M 0 2.236068 
C 0.593012 2.236068 1.161816 2.000462 1.581139 1.581139 
C 2.000462 1.161816 2.236068 0.593012 2.236068 0 
C 2.236068 -0.593012 2.000462 -1.161816 1.581139 -1.581139 
C 1.161816 -2.000462 0.593012 -2.236068 0 -2.236068 
C -0.593012 -2.236068 -1.161816 -2.000462 -1.581139 -1.581139 
C -2.000462 -1.161816 -2.236068 -0.593012 -2.236068 0 
C -2.236068 0.593012 -2.000462 1.161816 -1.581139 1.581139 
C -1.161816 2.000462 -0.593012 2.236068 0 2.236068 
z
" id="m44e11a1847" style="stroke:#333333;"/>
     </defs>
     <g>
      <use style="fill:#333333;stroke:#333333;" x="602.921563" xlink:href="#m44e11a1847" y="139.038437"/>
     </g>
    </g>
    <g id="text_37">
     <!-- 0.01951219512195122 -->
     <g transform="translate(620.921563 141.663437)scale(0.1 -0.1)">
      <defs>
       <path d="M 684 794 
L 1344 794 
L 1344 0 
L 684 0 
L 684 794 
z
" id="DejaVuSans-2e" transform="scale(0.015625)"/>
      </defs>
      <use xlink:href="#DejaVuSans-30"/>
      <use x="63.623047" xlink:href="#DejaVuSans-2e"/>
      <use x="95.410156" xlink:href="#DejaVuSans-30"/>
      <use x="159.033203" xlink:href="#DejaVuSans-31"/>
      <use x="222.65625" xlink:href="#DejaVuSans-39"/>
      <use x="286.279297" xlink:href="#DejaVuSans-35"/>
      <use x="349.902344" xlink:href="#DejaVuSans-31"/>
      <use x="413.525391" xlink:href="#DejaVuSans-32"/>
      <use x="477.148438" xlink:href="#DejaVuSans-31"/>
      <use x="540.771484" xlink:href="#DejaVuSans-39"/>
      <use x="604.394531" xlink:href="#DejaVuSans-35"/>
      <use x="668.017578" xlink:href="#DejaVuSans-31"/>
      <use x="731.640625" xlink:href="#DejaVuSans-32"/>
      <use x="795.263672" xlink:href="#DejaVuSans-31"/>
      <use x="858.886719" xlink:href="#DejaVuSans-39"/>
      <use x="922.509766" xlink:href="#DejaVuSans-35"/>
      <use x="986.132812" xlink:href="#DejaVuSans-31"/>
      <use x="1049.755859" xlink:href="#DejaVuSans-32"/>
      <use x="1113.378906" xlink:href="#DejaVuSans-32"/>
     </g>
    </g>
    <g id="PathCollection_19">
     <defs>
      <path d="M 0 3.227486 
C 0.855939 3.227486 1.676937 2.887418 2.282177 2.282177 
C 2.887418 1.676937 3.227486 0.855939 3.227486 0 
C 3.227486 -0.855939 2.887418 -1.676937 2.282177 -2.282177 
C 1.676937 -2.887418 0.855939 -3.227486 0 -3.227486 
C -0.855939 -3.227486 -1.676937 -2.887418 -2.282177 -2.282177 
C -2.887418 -1.676937 -3.227486 -0.855939 -3.227486 0 
C -3.227486 0.855939 -2.887418 1.676937 -2.282177 2.282177 
C -1.676937 2.887418 -0.855939 3.227486 0 3.227486 
z
" id="m52a3a1b85e" style="stroke:#333333;"/>
     </defs>
     <g>
      <use style="fill:#333333;stroke:#333333;" x="602.921563" xlink:href="#m52a3a1b85e" y="153.716563"/>
     </g>
    </g>
    <g id="text_38">
     <!-- 0.024390243902439025 -->
     <g transform="translate(620.921563 156.341563)scale(0.1 -0.1)">
      <use xlink:href="#DejaVuSans-30"/>
      <use x="63.623047" xlink:href="#DejaVuSans-2e"/>
      <use x="95.410156" xlink:href="#DejaVuSans-30"/>
      <use x="159.033203" xlink:href="#DejaVuSans-32"/>
      <use x="222.65625" xlink:href="#DejaVuSans-34"/>
      <use x="286.279297" xlink:href="#DejaVuSans-33"/>
      <use x="349.902344" xlink:href="#DejaVuSans-39"/>
      <use x="413.525391" xlink:href="#DejaVuSans-30"/>
      <use x="477.148438" xlink:href="#DejaVuSans-32"/>
      <use x="540.771484" xlink:href="#DejaVuSans-34"/>
      <use x="604.394531" xlink:href="#DejaVuSans-33"/>
      <use x="668.017578" xlink:href="#DejaVuSans-39"/>
      <use x="731.640625" xlink:href="#DejaVuSans-30"/>
      <use x="795.263672" xlink:href="#DejaVuSans-32"/>
      <use x="858.886719" xlink:href="#DejaVuSans-34"/>
      <use x="922.509766" xlink:href="#DejaVuSans-33"/>
      <use x="986.132812" xlink:href="#DejaVuSans-39"/>
      <use x="1049.755859" xlink:href="#DejaVuSans-30"/>
      <use x="1113.378906" xlink:href="#DejaVuSans-32"/>
      <use x="1177.001953" xlink:href="#DejaVuSans-35"/>
     </g>
    </g>
    <g id="PathCollection_20">
     <defs>
      <path d="M 0 3.979112 
C 1.055273 3.979112 2.067467 3.559848 2.813657 2.813657 
C 3.559848 2.067467 3.979112 1.055273 3.979112 0 
C 3.979112 -1.055273 3.559848 -2.067467 2.813657 -2.813657 
C 2.067467 -3.559848 1.055273 -3.979112 0 -3.979112 
C -1.055273 -3.979112 -2.067467 -3.559848 -2.813657 -2.813657 
C -3.559848 -2.067467 -3.979112 -1.055273 -3.979112 0 
C -3.979112 1.055273 -3.559848 2.067467 -2.813657 2.813657 
C -2.067467 3.559848 -1.055273 3.979112 0 3.979112 
z
" id="m6b0a894d83" style="stroke:#333333;"/>
     </defs>
     <g>
      <use style="fill:#333333;stroke:#333333;" x="602.921563" xlink:href="#m6b0a894d83" y="168.394687"/>
     </g>
    </g>
    <g id="text_39">
     <!-- 0.02926829268292683 -->
     <g transform="translate(620.921563 171.019687)scale(0.1 -0.1)">
      <use xlink:href="#DejaVuSans-30"/>
      <use x="63.623047" xlink:href="#DejaVuSans-2e"/>
      <use x="95.410156" xlink:href="#DejaVuSans-30"/>
      <use x="159.033203" xlink:href="#DejaVuSans-32"/>
      <use x="222.65625" xlink:href="#DejaVuSans-39"/>
      <use x="286.279297" xlink:href="#DejaVuSans-32"/>
      <use x="349.902344" xlink:href="#DejaVuSans-36"/>
      <use x="413.525391" xlink:href="#DejaVuSans-38"/>
      <use x="477.148438" xlink:href="#DejaVuSans-32"/>
      <use x="540.771484" xlink:href="#DejaVuSans-39"/>
      <use x="604.394531" xlink:href="#DejaVuSans-32"/>
      <use x="668.017578" xlink:href="#DejaVuSans-36"/>
      <use x="731.640625" xlink:href="#DejaVuSans-38"/>
      <use x="795.263672" xlink:href="#DejaVuSans-32"/>
      <use x="858.886719" xlink:href="#DejaVuSans-39"/>
      <use x="922.509766" xlink:href="#DejaVuSans-32"/>
      <use x="986.132812" xlink:href="#DejaVuSans-36"/>
      <use x="1049.755859" xlink:href="#DejaVuSans-38"/>
      <use x="1113.378906" xlink:href="#DejaVuSans-33"/>
     </g>
    </g>
    <g id="PathCollection_21">
     <defs>
      <path d="M 0 4.609772 
C 1.222526 4.609772 2.395145 4.124058 3.259601 3.259601 
C 4.124058 2.395145 4.609772 1.222526 4.609772 0 
C 4.609772 -1.222526 4.124058 -2.395145 3.259601 -3.259601 
C 2.395145 -4.124058 1.222526 -4.609772 0 -4.609772 
C -1.222526 -4.609772 -2.395145 -4.124058 -3.259601 -3.259601 
C -4.124058 -2.395145 -4.609772 -1.222526 -4.609772 0 
C -4.609772 1.222526 -4.124058 2.395145 -3.259601 3.259601 
C -2.395145 4.124058 -1.222526 4.609772 0 4.609772 
z
" id="md86c09ee1c" style="stroke:#333333;"/>
     </defs>
     <g>
      <use style="fill:#333333;stroke:#333333;" x="602.921563" xlink:href="#md86c09ee1c" y="183.072812"/>
     </g>
    </g>
    <g id="text_40">
     <!-- 0.03414634146341464 -->
     <g transform="translate(620.921563 185.697812)scale(0.1 -0.1)">
      <use xlink:href="#DejaVuSans-30"/>
      <use x="63.623047" xlink:href="#DejaVuSans-2e"/>
      <use x="95.410156" xlink:href="#DejaVuSans-30"/>
      <use x="159.033203" xlink:href="#DejaVuSans-33"/>
      <use x="222.65625" xlink:href="#DejaVuSans-34"/>
      <use x="286.279297" xlink:href="#DejaVuSans-31"/>
      <use x="349.902344" xlink:href="#DejaVuSans-34"/>
      <use x="413.525391" xlink:href="#DejaVuSans-36"/>
      <use x="477.148438" xlink:href="#DejaVuSans-33"/>
      <use x="540.771484" xlink:href="#DejaVuSans-34"/>
      <use x="604.394531" xlink:href="#DejaVuSans-31"/>
      <use x="668.017578" xlink:href="#DejaVuSans-34"/>
      <use x="731.640625" xlink:href="#DejaVuSans-36"/>
      <use x="795.263672" xlink:href="#DejaVuSans-33"/>
      <use x="858.886719" xlink:href="#DejaVuSans-34"/>
      <use x="922.509766" xlink:href="#DejaVuSans-31"/>
      <use x="986.132812" xlink:href="#DejaVuSans-34"/>
      <use x="1049.755859" xlink:href="#DejaVuSans-36"/>
      <use x="1113.378906" xlink:href="#DejaVuSans-34"/>
     </g>
    </g>
    <g id="PathCollection_22">
     <defs>
      <path d="M 0 5.664215 
C 1.502167 5.664215 2.943012 5.067398 4.005205 4.005205 
C 5.067398 2.943012 5.664215 1.502167 5.664215 0 
C 5.664215 -1.502167 5.067398 -2.943012 4.005205 -4.005205 
C 2.943012 -5.067398 1.502167 -5.664215 0 -5.664215 
C -1.502167 -5.664215 -2.943012 -5.067398 -4.005205 -4.005205 
C -5.067398 -2.943012 -5.664215 -1.502167 -5.664215 0 
C -5.664215 1.502167 -5.067398 2.943012 -4.005205 4.005205 
C -2.943012 5.067398 -1.502167 5.664215 0 5.664215 
z
" id="m4c78574ce0" style="stroke:#333333;"/>
     </defs>
     <g>
      <use style="fill:#333333;stroke:#333333;" x="602.921563" xlink:href="#m4c78574ce0" y="197.750937"/>
     </g>
    </g>
    <g id="text_41">
     <!-- 0.04390243902439024 -->
     <g transform="translate(620.921563 200.375937)scale(0.1 -0.1)">
      <use xlink:href="#DejaVuSans-30"/>
      <use x="63.623047" xlink:href="#DejaVuSans-2e"/>
      <use x="95.410156" xlink:href="#DejaVuSans-30"/>
      <use x="159.033203" xlink:href="#DejaVuSans-34"/>
      <use x="222.65625" xlink:href="#DejaVuSans-33"/>
      <use x="286.279297" xlink:href="#DejaVuSans-39"/>
      <use x="349.902344" xlink:href="#DejaVuSans-30"/>
      <use x="413.525391" xlink:href="#DejaVuSans-32"/>
      <use x="477.148438" xlink:href="#DejaVuSans-34"/>
      <use x="540.771484" xlink:href="#DejaVuSans-33"/>
      <use x="604.394531" xlink:href="#DejaVuSans-39"/>
      <use x="668.017578" xlink:href="#DejaVuSans-30"/>
      <use x="731.640625" xlink:href="#DejaVuSans-32"/>
      <use x="795.263672" xlink:href="#DejaVuSans-34"/>
      <use x="858.886719" xlink:href="#DejaVuSans-33"/>
      <use x="922.509766" xlink:href="#DejaVuSans-39"/>
      <use x="986.132812" xlink:href="#DejaVuSans-30"/>
      <use x="1049.755859" xlink:href="#DejaVuSans-32"/>
      <use x="1113.378906" xlink:href="#DejaVuSans-34"/>
     </g>
    </g>
    <g id="PathCollection_23">
     <defs>
      <path d="M 0 6.123724 
C 1.624031 6.123724 3.181764 5.47849 4.330127 4.330127 
C 5.47849 3.181764 6.123724 1.624031 6.123724 0 
C 6.123724 -1.624031 5.47849 -3.181764 4.330127 -4.330127 
C 3.181764 -5.47849 1.624031 -6.123724 0 -6.123724 
C -1.624031 -6.123724 -3.181764 -5.47849 -4.330127 -4.330127 
C -5.47849 -3.181764 -6.123724 -1.624031 -6.123724 0 
C -6.123724 1.624031 -5.47849 3.181764 -4.330127 4.330127 
C -3.181764 5.47849 -1.624031 6.123724 0 6.123724 
z
" id="m9407f8c5d1" style="stroke:#333333;"/>
     </defs>
     <g>
      <use style="fill:#333333;stroke:#333333;" x="602.921563" xlink:href="#m9407f8c5d1" y="212.429062"/>
     </g>
    </g>
    <g id="text_42">
     <!-- 0.04878048780487805 -->
     <g transform="translate(620.921563 215.054062)scale(0.1 -0.1)">
      <use xlink:href="#DejaVuSans-30"/>
      <use x="63.623047" xlink:href="#DejaVuSans-2e"/>
      <use x="95.410156" xlink:href="#DejaVuSans-30"/>
      <use x="159.033203" xlink:href="#DejaVuSans-34"/>
      <use x="222.65625" xlink:href="#DejaVuSans-38"/>
      <use x="286.279297" xlink:href="#DejaVuSans-37"/>
      <use x="349.902344" xlink:href="#DejaVuSans-38"/>
      <use x="413.525391" xlink:href="#DejaVuSans-30"/>
      <use x="477.148438" xlink:href="#DejaVuSans-34"/>
      <use x="540.771484" xlink:href="#DejaVuSans-38"/>
      <use x="604.394531" xlink:href="#DejaVuSans-37"/>
      <use x="668.017578" xlink:href="#DejaVuSans-38"/>
      <use x="731.640625" xlink:href="#DejaVuSans-30"/>
      <use x="795.263672" xlink:href="#DejaVuSans-34"/>
      <use x="858.886719" xlink:href="#DejaVuSans-38"/>
      <use x="922.509766" xlink:href="#DejaVuSans-37"/>
      <use x="986.132812" xlink:href="#DejaVuSans-38"/>
      <use x="1049.755859" xlink:href="#DejaVuSans-30"/>
      <use x="1113.378906" xlink:href="#DejaVuSans-35"/>
     </g>
    </g>
   </g>
  </g>
 </g>
 <defs>
  <clipPath id="p2e4e685f03">
   <rect height="266.112" width="357.12" x="226.801563" y="22.318125"/>
  </clipPath>
 </defs>
</svg>
