<?xml version="1.0" encoding="utf-8" standalone="no"?>
<!DOCTYPE svg PUBLIC "-//W3C//DTD SVG 1.1//EN"
  "http://www.w3.org/Graphics/SVG/1.1/DTD/svg11.dtd">
<svg height="325.986375pt" version="1.1" viewBox="0 0 689.202812 325.986375" width="689.202812pt" xmlns="http://www.w3.org/2000/svg" xmlns:xlink="http://www.w3.org/1999/xlink">
 <metadata>
  <rdf:RDF xmlns:cc="http://creativecommons.org/ns#" xmlns:dc="http://purl.org/dc/elements/1.1/" xmlns:rdf="http://www.w3.org/1999/02/22-rdf-syntax-ns#">
   <cc:Work>
    <dc:type rdf:resource="http://purl.org/dc/dcmitype/StillImage"/>
    <dc:date>2022-04-07T17:25:11.470736</dc:date>
    <dc:format>image/svg+xml</dc:format>
    <dc:creator>
     <cc:Agent>
      <dc:title>Matplotlib v3.4.3, https://matplotlib.org/</dc:title>
     </cc:Agent>
    </dc:creator>
   </cc:Work>
  </rdf:RDF>
 </metadata>
 <defs>
  <style type="text/css">*{stroke-linecap:butt;stroke-linejoin:round;}</style>
 </defs>
 <g id="figure_1">
  <g id="patch_1">
   <path d="M 0 325.986375 
L 689.202812 325.986375 
L 689.202812 0 
L 0 0 
z
" style="fill:#ffffff;"/>
  </g>
  <g id="axes_1">
   <g id="patch_2">
    <path d="M 159.817187 288.430125 
L 516.937187 288.430125 
L 516.937187 22.318125 
L 159.817187 22.318125 
z
" style="fill:#ffffff;"/>
   </g>
   <g id="PathCollection_1">
    <path clip-path="url(#pc30ef3c919)" d="M 500.70446 36.650193 
C 501.297472 36.650193 501.866276 36.414587 502.285599 35.995264 
C 502.704922 35.575941 502.940528 35.007137 502.940528 34.414125 
C 502.940528 33.821113 502.704922 33.252309 502.285599 32.832986 
C 501.866276 32.413663 501.297472 32.178057 500.70446 32.178057 
C 500.111448 32.178057 499.542644 32.413663 499.123321 32.832986 
C 498.703998 33.252309 498.468392 33.821113 498.468392 34.414125 
C 498.468392 35.007137 498.703998 35.575941 499.123321 35.995264 
C 499.542644 36.414587 500.111448 36.650193 500.70446 36.650193 
z
" style="fill:#3b4cc0;stroke:#ffffff;stroke-width:0.371435;"/>
    <path clip-path="url(#pc30ef3c919)" d="M 397.947134 85.201964 
C 398.58464 85.201964 399.196121 84.948681 399.646905 84.497896 
C 400.09769 84.047111 400.350974 83.435631 400.350974 82.798125 
C 400.350974 82.160619 400.09769 81.549139 399.646905 81.098354 
C 399.196121 80.647569 398.58464 80.394286 397.947134 80.394286 
C 397.309629 80.394286 396.698148 80.647569 396.247363 81.098354 
C 395.796579 81.549139 395.543295 82.160619 395.543295 82.798125 
C 395.543295 83.435631 395.796579 84.047111 396.247363 84.497896 
C 396.698148 84.948681 397.309629 85.201964 397.947134 85.201964 
z
" style="fill:#dddcdc;stroke:#ffffff;stroke-width:0.371435;"/>
    <path clip-path="url(#pc30ef3c919)" d="M 241.750504 134.030593 
C 242.505927 134.030593 243.230511 133.730461 243.764675 133.196296 
C 244.29884 132.662132 244.598972 131.937548 244.598972 131.182125 
C 244.598972 130.426702 244.29884 129.702118 243.764675 129.167954 
C 243.230511 128.633789 242.505927 128.333657 241.750504 128.333657 
C 240.995081 128.333657 240.270497 128.633789 239.736333 129.167954 
C 239.202168 129.702118 238.902036 130.426702 238.902036 131.182125 
C 238.902036 131.937548 239.202168 132.662132 239.736333 133.196296 
C 240.270497 133.730461 240.995081 134.030593 241.750504 134.030593 
z
" style="fill:#b40426;stroke:#ffffff;stroke-width:0.371435;"/>
    <path clip-path="url(#pc30ef3c919)" d="M 205.813834 182.414593 
C 206.569256 182.414593 207.29384 182.114461 207.828005 181.580296 
C 208.362169 181.046132 208.662302 180.321548 208.662302 179.566125 
C 208.662302 178.810702 208.362169 178.086118 207.828005 177.551954 
C 207.29384 177.017789 206.569256 176.717657 205.813834 176.717657 
C 205.058411 176.717657 204.333827 177.017789 203.799662 177.551954 
C 203.265498 178.086118 202.965365 178.810702 202.965365 179.566125 
C 202.965365 180.321548 203.265498 181.046132 203.799662 181.580296 
C 204.333827 182.114461 205.058411 182.414593 205.813834 182.414593 
z
" style="fill:#9abbff;stroke:#ffffff;stroke-width:0.371435;"/>
    <path clip-path="url(#pc30ef3c919)" d="M 185.184112 231.415091 
C 186.103032 231.415091 186.984439 231.05 187.634213 230.400226 
C 188.283987 229.750451 188.649078 228.869045 188.649078 227.950125 
C 188.649078 227.031205 188.283987 226.149799 187.634213 225.500024 
C 186.984439 224.85025 186.103032 224.485159 185.184112 224.485159 
C 184.265193 224.485159 183.383786 224.85025 182.734011 225.500024 
C 182.084237 226.149799 181.719147 227.031205 181.719147 227.950125 
C 181.719147 228.869045 182.084237 229.750451 182.734011 230.400226 
C 183.383786 231.05 184.265193 231.415091 185.184112 231.415091 
z
" style="fill:#516ddb;stroke:#ffffff;stroke-width:0.371435;"/>
    <path clip-path="url(#pc30ef3c919)" d="M 176.049915 282.457849 
C 177.673945 282.457849 179.231679 281.812615 180.380042 280.664252 
C 181.528405 279.515889 182.173639 277.958156 182.173639 276.334125 
C 182.173639 274.710094 181.528405 273.152361 180.380042 272.003998 
C 179.231679 270.855635 177.673945 270.210401 176.049915 270.210401 
C 174.425884 270.210401 172.868151 270.855635 171.719788 272.003998 
C 170.571425 273.152361 169.92619 274.710094 169.92619 276.334125 
C 169.92619 277.958156 170.571425 279.515889 171.719788 280.664252 
C 172.868151 281.812615 174.425884 282.457849 176.049915 282.457849 
z
" style="fill:#bcd2f7;stroke:#ffffff;stroke-width:0.371435;"/>
   </g>
   <g id="PathCollection_2"/>
   <g id="PathCollection_3"/>
   <g id="PathCollection_4"/>
   <g id="PathCollection_5"/>
   <g id="PathCollection_6"/>
   <g id="PathCollection_7"/>
   <g id="PathCollection_8"/>
   <g id="PathCollection_9"/>
   <g id="PathCollection_10"/>
   <g id="PathCollection_11"/>
   <g id="PathCollection_12"/>
   <g id="matplotlib.axis_1">
    <g id="xtick_1">
     <g id="line2d_1">
      <defs>
       <path d="M 0 0 
L 0 3.5 
" id="m023fe2a93f" style="stroke:#000000;stroke-width:0.8;"/>
      </defs>
      <g>
       <use style="stroke:#000000;stroke-width:0.8;" x="166.743151" xlink:href="#m023fe2a93f" y="288.430125"/>
      </g>
     </g>
     <g id="text_1">
      <!-- 0 -->
      <g transform="translate(163.561901 303.028562)scale(0.1 -0.1)">
       <defs>
        <path d="M 2034 4250 
Q 1547 4250 1301 3770 
Q 1056 3291 1056 2328 
Q 1056 1369 1301 889 
Q 1547 409 2034 409 
Q 2525 409 2770 889 
Q 3016 1369 3016 2328 
Q 3016 3291 2770 3770 
Q 2525 4250 2034 4250 
z
M 2034 4750 
Q 2819 4750 3233 4129 
Q 3647 3509 3647 2328 
Q 3647 1150 3233 529 
Q 2819 -91 2034 -91 
Q 1250 -91 836 529 
Q 422 1150 422 2328 
Q 422 3509 836 4129 
Q 1250 4750 2034 4750 
z
" id="DejaVuSans-30" transform="scale(0.015625)"/>
       </defs>
       <use xlink:href="#DejaVuSans-30"/>
      </g>
     </g>
    </g>
    <g id="xtick_2">
     <g id="line2d_2">
      <g>
       <use style="stroke:#000000;stroke-width:0.8;" x="236.304285" xlink:href="#m023fe2a93f" y="288.430125"/>
      </g>
     </g>
     <g id="text_2">
      <!-- 10 -->
      <g transform="translate(229.941785 303.028562)scale(0.1 -0.1)">
       <defs>
        <path d="M 794 531 
L 1825 531 
L 1825 4091 
L 703 3866 
L 703 4441 
L 1819 4666 
L 2450 4666 
L 2450 531 
L 3481 531 
L 3481 0 
L 794 0 
L 794 531 
z
" id="DejaVuSans-31" transform="scale(0.015625)"/>
       </defs>
       <use xlink:href="#DejaVuSans-31"/>
       <use x="63.623047" xlink:href="#DejaVuSans-30"/>
      </g>
     </g>
    </g>
    <g id="xtick_3">
     <g id="line2d_3">
      <g>
       <use style="stroke:#000000;stroke-width:0.8;" x="305.86542" xlink:href="#m023fe2a93f" y="288.430125"/>
      </g>
     </g>
     <g id="text_3">
      <!-- 20 -->
      <g transform="translate(299.50292 303.028562)scale(0.1 -0.1)">
       <defs>
        <path d="M 1228 531 
L 3431 531 
L 3431 0 
L 469 0 
L 469 531 
Q 828 903 1448 1529 
Q 2069 2156 2228 2338 
Q 2531 2678 2651 2914 
Q 2772 3150 2772 3378 
Q 2772 3750 2511 3984 
Q 2250 4219 1831 4219 
Q 1534 4219 1204 4116 
Q 875 4013 500 3803 
L 500 4441 
Q 881 4594 1212 4672 
Q 1544 4750 1819 4750 
Q 2544 4750 2975 4387 
Q 3406 4025 3406 3419 
Q 3406 3131 3298 2873 
Q 3191 2616 2906 2266 
Q 2828 2175 2409 1742 
Q 1991 1309 1228 531 
z
" id="DejaVuSans-32" transform="scale(0.015625)"/>
       </defs>
       <use xlink:href="#DejaVuSans-32"/>
       <use x="63.623047" xlink:href="#DejaVuSans-30"/>
      </g>
     </g>
    </g>
    <g id="xtick_4">
     <g id="line2d_4">
      <g>
       <use style="stroke:#000000;stroke-width:0.8;" x="375.426554" xlink:href="#m023fe2a93f" y="288.430125"/>
      </g>
     </g>
     <g id="text_4">
      <!-- 30 -->
      <g transform="translate(369.064054 303.028562)scale(0.1 -0.1)">
       <defs>
        <path d="M 2597 2516 
Q 3050 2419 3304 2112 
Q 3559 1806 3559 1356 
Q 3559 666 3084 287 
Q 2609 -91 1734 -91 
Q 1441 -91 1130 -33 
Q 819 25 488 141 
L 488 750 
Q 750 597 1062 519 
Q 1375 441 1716 441 
Q 2309 441 2620 675 
Q 2931 909 2931 1356 
Q 2931 1769 2642 2001 
Q 2353 2234 1838 2234 
L 1294 2234 
L 1294 2753 
L 1863 2753 
Q 2328 2753 2575 2939 
Q 2822 3125 2822 3475 
Q 2822 3834 2567 4026 
Q 2313 4219 1838 4219 
Q 1578 4219 1281 4162 
Q 984 4106 628 3988 
L 628 4550 
Q 988 4650 1302 4700 
Q 1616 4750 1894 4750 
Q 2613 4750 3031 4423 
Q 3450 4097 3450 3541 
Q 3450 3153 3228 2886 
Q 3006 2619 2597 2516 
z
" id="DejaVuSans-33" transform="scale(0.015625)"/>
       </defs>
       <use xlink:href="#DejaVuSans-33"/>
       <use x="63.623047" xlink:href="#DejaVuSans-30"/>
      </g>
     </g>
    </g>
    <g id="xtick_5">
     <g id="line2d_5">
      <g>
       <use style="stroke:#000000;stroke-width:0.8;" x="444.987688" xlink:href="#m023fe2a93f" y="288.430125"/>
      </g>
     </g>
     <g id="text_5">
      <!-- 40 -->
      <g transform="translate(438.625188 303.028562)scale(0.1 -0.1)">
       <defs>
        <path d="M 2419 4116 
L 825 1625 
L 2419 1625 
L 2419 4116 
z
M 2253 4666 
L 3047 4666 
L 3047 1625 
L 3713 1625 
L 3713 1100 
L 3047 1100 
L 3047 0 
L 2419 0 
L 2419 1100 
L 313 1100 
L 313 1709 
L 2253 4666 
z
" id="DejaVuSans-34" transform="scale(0.015625)"/>
       </defs>
       <use xlink:href="#DejaVuSans-34"/>
       <use x="63.623047" xlink:href="#DejaVuSans-30"/>
      </g>
     </g>
    </g>
    <g id="xtick_6">
     <g id="line2d_6">
      <g>
       <use style="stroke:#000000;stroke-width:0.8;" x="514.548823" xlink:href="#m023fe2a93f" y="288.430125"/>
      </g>
     </g>
     <g id="text_6">
      <!-- 50 -->
      <g transform="translate(508.186323 303.028562)scale(0.1 -0.1)">
       <defs>
        <path d="M 691 4666 
L 3169 4666 
L 3169 4134 
L 1269 4134 
L 1269 2991 
Q 1406 3038 1543 3061 
Q 1681 3084 1819 3084 
Q 2600 3084 3056 2656 
Q 3513 2228 3513 1497 
Q 3513 744 3044 326 
Q 2575 -91 1722 -91 
Q 1428 -91 1123 -41 
Q 819 9 494 109 
L 494 744 
Q 775 591 1075 516 
Q 1375 441 1709 441 
Q 2250 441 2565 725 
Q 2881 1009 2881 1497 
Q 2881 1984 2565 2268 
Q 2250 2553 1709 2553 
Q 1456 2553 1204 2497 
Q 953 2441 691 2322 
L 691 4666 
z
" id="DejaVuSans-35" transform="scale(0.015625)"/>
       </defs>
       <use xlink:href="#DejaVuSans-35"/>
       <use x="63.623047" xlink:href="#DejaVuSans-30"/>
      </g>
     </g>
    </g>
    <g id="text_7">
     <!-- Fold Enrichment -->
     <g transform="translate(297.704531 316.706687)scale(0.1 -0.1)">
      <defs>
       <path d="M 628 4666 
L 3309 4666 
L 3309 4134 
L 1259 4134 
L 1259 2759 
L 3109 2759 
L 3109 2228 
L 1259 2228 
L 1259 0 
L 628 0 
L 628 4666 
z
" id="DejaVuSans-46" transform="scale(0.015625)"/>
       <path d="M 1959 3097 
Q 1497 3097 1228 2736 
Q 959 2375 959 1747 
Q 959 1119 1226 758 
Q 1494 397 1959 397 
Q 2419 397 2687 759 
Q 2956 1122 2956 1747 
Q 2956 2369 2687 2733 
Q 2419 3097 1959 3097 
z
M 1959 3584 
Q 2709 3584 3137 3096 
Q 3566 2609 3566 1747 
Q 3566 888 3137 398 
Q 2709 -91 1959 -91 
Q 1206 -91 779 398 
Q 353 888 353 1747 
Q 353 2609 779 3096 
Q 1206 3584 1959 3584 
z
" id="DejaVuSans-6f" transform="scale(0.015625)"/>
       <path d="M 603 4863 
L 1178 4863 
L 1178 0 
L 603 0 
L 603 4863 
z
" id="DejaVuSans-6c" transform="scale(0.015625)"/>
       <path d="M 2906 2969 
L 2906 4863 
L 3481 4863 
L 3481 0 
L 2906 0 
L 2906 525 
Q 2725 213 2448 61 
Q 2172 -91 1784 -91 
Q 1150 -91 751 415 
Q 353 922 353 1747 
Q 353 2572 751 3078 
Q 1150 3584 1784 3584 
Q 2172 3584 2448 3432 
Q 2725 3281 2906 2969 
z
M 947 1747 
Q 947 1113 1208 752 
Q 1469 391 1925 391 
Q 2381 391 2643 752 
Q 2906 1113 2906 1747 
Q 2906 2381 2643 2742 
Q 2381 3103 1925 3103 
Q 1469 3103 1208 2742 
Q 947 2381 947 1747 
z
" id="DejaVuSans-64" transform="scale(0.015625)"/>
       <path id="DejaVuSans-20" transform="scale(0.015625)"/>
       <path d="M 628 4666 
L 3578 4666 
L 3578 4134 
L 1259 4134 
L 1259 2753 
L 3481 2753 
L 3481 2222 
L 1259 2222 
L 1259 531 
L 3634 531 
L 3634 0 
L 628 0 
L 628 4666 
z
" id="DejaVuSans-45" transform="scale(0.015625)"/>
       <path d="M 3513 2113 
L 3513 0 
L 2938 0 
L 2938 2094 
Q 2938 2591 2744 2837 
Q 2550 3084 2163 3084 
Q 1697 3084 1428 2787 
Q 1159 2491 1159 1978 
L 1159 0 
L 581 0 
L 581 3500 
L 1159 3500 
L 1159 2956 
Q 1366 3272 1645 3428 
Q 1925 3584 2291 3584 
Q 2894 3584 3203 3211 
Q 3513 2838 3513 2113 
z
" id="DejaVuSans-6e" transform="scale(0.015625)"/>
       <path d="M 2631 2963 
Q 2534 3019 2420 3045 
Q 2306 3072 2169 3072 
Q 1681 3072 1420 2755 
Q 1159 2438 1159 1844 
L 1159 0 
L 581 0 
L 581 3500 
L 1159 3500 
L 1159 2956 
Q 1341 3275 1631 3429 
Q 1922 3584 2338 3584 
Q 2397 3584 2469 3576 
Q 2541 3569 2628 3553 
L 2631 2963 
z
" id="DejaVuSans-72" transform="scale(0.015625)"/>
       <path d="M 603 3500 
L 1178 3500 
L 1178 0 
L 603 0 
L 603 3500 
z
M 603 4863 
L 1178 4863 
L 1178 4134 
L 603 4134 
L 603 4863 
z
" id="DejaVuSans-69" transform="scale(0.015625)"/>
       <path d="M 3122 3366 
L 3122 2828 
Q 2878 2963 2633 3030 
Q 2388 3097 2138 3097 
Q 1578 3097 1268 2742 
Q 959 2388 959 1747 
Q 959 1106 1268 751 
Q 1578 397 2138 397 
Q 2388 397 2633 464 
Q 2878 531 3122 666 
L 3122 134 
Q 2881 22 2623 -34 
Q 2366 -91 2075 -91 
Q 1284 -91 818 406 
Q 353 903 353 1747 
Q 353 2603 823 3093 
Q 1294 3584 2113 3584 
Q 2378 3584 2631 3529 
Q 2884 3475 3122 3366 
z
" id="DejaVuSans-63" transform="scale(0.015625)"/>
       <path d="M 3513 2113 
L 3513 0 
L 2938 0 
L 2938 2094 
Q 2938 2591 2744 2837 
Q 2550 3084 2163 3084 
Q 1697 3084 1428 2787 
Q 1159 2491 1159 1978 
L 1159 0 
L 581 0 
L 581 4863 
L 1159 4863 
L 1159 2956 
Q 1366 3272 1645 3428 
Q 1925 3584 2291 3584 
Q 2894 3584 3203 3211 
Q 3513 2838 3513 2113 
z
" id="DejaVuSans-68" transform="scale(0.015625)"/>
       <path d="M 3328 2828 
Q 3544 3216 3844 3400 
Q 4144 3584 4550 3584 
Q 5097 3584 5394 3201 
Q 5691 2819 5691 2113 
L 5691 0 
L 5113 0 
L 5113 2094 
Q 5113 2597 4934 2840 
Q 4756 3084 4391 3084 
Q 3944 3084 3684 2787 
Q 3425 2491 3425 1978 
L 3425 0 
L 2847 0 
L 2847 2094 
Q 2847 2600 2669 2842 
Q 2491 3084 2119 3084 
Q 1678 3084 1418 2786 
Q 1159 2488 1159 1978 
L 1159 0 
L 581 0 
L 581 3500 
L 1159 3500 
L 1159 2956 
Q 1356 3278 1631 3431 
Q 1906 3584 2284 3584 
Q 2666 3584 2933 3390 
Q 3200 3197 3328 2828 
z
" id="DejaVuSans-6d" transform="scale(0.015625)"/>
       <path d="M 3597 1894 
L 3597 1613 
L 953 1613 
Q 991 1019 1311 708 
Q 1631 397 2203 397 
Q 2534 397 2845 478 
Q 3156 559 3463 722 
L 3463 178 
Q 3153 47 2828 -22 
Q 2503 -91 2169 -91 
Q 1331 -91 842 396 
Q 353 884 353 1716 
Q 353 2575 817 3079 
Q 1281 3584 2069 3584 
Q 2775 3584 3186 3129 
Q 3597 2675 3597 1894 
z
M 3022 2063 
Q 3016 2534 2758 2815 
Q 2500 3097 2075 3097 
Q 1594 3097 1305 2825 
Q 1016 2553 972 2059 
L 3022 2063 
z
" id="DejaVuSans-65" transform="scale(0.015625)"/>
       <path d="M 1172 4494 
L 1172 3500 
L 2356 3500 
L 2356 3053 
L 1172 3053 
L 1172 1153 
Q 1172 725 1289 603 
Q 1406 481 1766 481 
L 2356 481 
L 2356 0 
L 1766 0 
Q 1100 0 847 248 
Q 594 497 594 1153 
L 594 3053 
L 172 3053 
L 172 3500 
L 594 3500 
L 594 4494 
L 1172 4494 
z
" id="DejaVuSans-74" transform="scale(0.015625)"/>
      </defs>
      <use xlink:href="#DejaVuSans-46"/>
      <use x="53.894531" xlink:href="#DejaVuSans-6f"/>
      <use x="115.076172" xlink:href="#DejaVuSans-6c"/>
      <use x="142.859375" xlink:href="#DejaVuSans-64"/>
      <use x="206.335938" xlink:href="#DejaVuSans-20"/>
      <use x="238.123047" xlink:href="#DejaVuSans-45"/>
      <use x="301.306641" xlink:href="#DejaVuSans-6e"/>
      <use x="364.685547" xlink:href="#DejaVuSans-72"/>
      <use x="405.798828" xlink:href="#DejaVuSans-69"/>
      <use x="433.582031" xlink:href="#DejaVuSans-63"/>
      <use x="488.5625" xlink:href="#DejaVuSans-68"/>
      <use x="551.941406" xlink:href="#DejaVuSans-6d"/>
      <use x="649.353516" xlink:href="#DejaVuSans-65"/>
      <use x="710.876953" xlink:href="#DejaVuSans-6e"/>
      <use x="774.255859" xlink:href="#DejaVuSans-74"/>
     </g>
    </g>
   </g>
   <g id="matplotlib.axis_2">
    <g id="ytick_1">
     <g id="line2d_7">
      <defs>
       <path d="M 0 0 
L -3.5 0 
" id="m7ccfb3afc7" style="stroke:#000000;stroke-width:0.8;"/>
      </defs>
      <g>
       <use style="stroke:#000000;stroke-width:0.8;" x="159.817187" xlink:href="#m7ccfb3afc7" y="34.414125"/>
      </g>
     </g>
     <g id="text_8">
      <!-- MHC class II receptor activity -->
      <g transform="translate(7.2 38.213344)scale(0.1 -0.1)">
       <defs>
        <path d="M 628 4666 
L 1569 4666 
L 2759 1491 
L 3956 4666 
L 4897 4666 
L 4897 0 
L 4281 0 
L 4281 4097 
L 3078 897 
L 2444 897 
L 1241 4097 
L 1241 0 
L 628 0 
L 628 4666 
z
" id="DejaVuSans-4d" transform="scale(0.015625)"/>
        <path d="M 628 4666 
L 1259 4666 
L 1259 2753 
L 3553 2753 
L 3553 4666 
L 4184 4666 
L 4184 0 
L 3553 0 
L 3553 2222 
L 1259 2222 
L 1259 0 
L 628 0 
L 628 4666 
z
" id="DejaVuSans-48" transform="scale(0.015625)"/>
        <path d="M 4122 4306 
L 4122 3641 
Q 3803 3938 3442 4084 
Q 3081 4231 2675 4231 
Q 1875 4231 1450 3742 
Q 1025 3253 1025 2328 
Q 1025 1406 1450 917 
Q 1875 428 2675 428 
Q 3081 428 3442 575 
Q 3803 722 4122 1019 
L 4122 359 
Q 3791 134 3420 21 
Q 3050 -91 2638 -91 
Q 1578 -91 968 557 
Q 359 1206 359 2328 
Q 359 3453 968 4101 
Q 1578 4750 2638 4750 
Q 3056 4750 3426 4639 
Q 3797 4528 4122 4306 
z
" id="DejaVuSans-43" transform="scale(0.015625)"/>
        <path d="M 2194 1759 
Q 1497 1759 1228 1600 
Q 959 1441 959 1056 
Q 959 750 1161 570 
Q 1363 391 1709 391 
Q 2188 391 2477 730 
Q 2766 1069 2766 1631 
L 2766 1759 
L 2194 1759 
z
M 3341 1997 
L 3341 0 
L 2766 0 
L 2766 531 
Q 2569 213 2275 61 
Q 1981 -91 1556 -91 
Q 1019 -91 701 211 
Q 384 513 384 1019 
Q 384 1609 779 1909 
Q 1175 2209 1959 2209 
L 2766 2209 
L 2766 2266 
Q 2766 2663 2505 2880 
Q 2244 3097 1772 3097 
Q 1472 3097 1187 3025 
Q 903 2953 641 2809 
L 641 3341 
Q 956 3463 1253 3523 
Q 1550 3584 1831 3584 
Q 2591 3584 2966 3190 
Q 3341 2797 3341 1997 
z
" id="DejaVuSans-61" transform="scale(0.015625)"/>
        <path d="M 2834 3397 
L 2834 2853 
Q 2591 2978 2328 3040 
Q 2066 3103 1784 3103 
Q 1356 3103 1142 2972 
Q 928 2841 928 2578 
Q 928 2378 1081 2264 
Q 1234 2150 1697 2047 
L 1894 2003 
Q 2506 1872 2764 1633 
Q 3022 1394 3022 966 
Q 3022 478 2636 193 
Q 2250 -91 1575 -91 
Q 1294 -91 989 -36 
Q 684 19 347 128 
L 347 722 
Q 666 556 975 473 
Q 1284 391 1588 391 
Q 1994 391 2212 530 
Q 2431 669 2431 922 
Q 2431 1156 2273 1281 
Q 2116 1406 1581 1522 
L 1381 1569 
Q 847 1681 609 1914 
Q 372 2147 372 2553 
Q 372 3047 722 3315 
Q 1072 3584 1716 3584 
Q 2034 3584 2315 3537 
Q 2597 3491 2834 3397 
z
" id="DejaVuSans-73" transform="scale(0.015625)"/>
        <path d="M 628 4666 
L 1259 4666 
L 1259 0 
L 628 0 
L 628 4666 
z
" id="DejaVuSans-49" transform="scale(0.015625)"/>
        <path d="M 1159 525 
L 1159 -1331 
L 581 -1331 
L 581 3500 
L 1159 3500 
L 1159 2969 
Q 1341 3281 1617 3432 
Q 1894 3584 2278 3584 
Q 2916 3584 3314 3078 
Q 3713 2572 3713 1747 
Q 3713 922 3314 415 
Q 2916 -91 2278 -91 
Q 1894 -91 1617 61 
Q 1341 213 1159 525 
z
M 3116 1747 
Q 3116 2381 2855 2742 
Q 2594 3103 2138 3103 
Q 1681 3103 1420 2742 
Q 1159 2381 1159 1747 
Q 1159 1113 1420 752 
Q 1681 391 2138 391 
Q 2594 391 2855 752 
Q 3116 1113 3116 1747 
z
" id="DejaVuSans-70" transform="scale(0.015625)"/>
        <path d="M 191 3500 
L 800 3500 
L 1894 563 
L 2988 3500 
L 3597 3500 
L 2284 0 
L 1503 0 
L 191 3500 
z
" id="DejaVuSans-76" transform="scale(0.015625)"/>
        <path d="M 2059 -325 
Q 1816 -950 1584 -1140 
Q 1353 -1331 966 -1331 
L 506 -1331 
L 506 -850 
L 844 -850 
Q 1081 -850 1212 -737 
Q 1344 -625 1503 -206 
L 1606 56 
L 191 3500 
L 800 3500 
L 1894 763 
L 2988 3500 
L 3597 3500 
L 2059 -325 
z
" id="DejaVuSans-79" transform="scale(0.015625)"/>
       </defs>
       <use xlink:href="#DejaVuSans-4d"/>
       <use x="86.279297" xlink:href="#DejaVuSans-48"/>
       <use x="161.474609" xlink:href="#DejaVuSans-43"/>
       <use x="231.298828" xlink:href="#DejaVuSans-20"/>
       <use x="263.085938" xlink:href="#DejaVuSans-63"/>
       <use x="318.066406" xlink:href="#DejaVuSans-6c"/>
       <use x="345.849609" xlink:href="#DejaVuSans-61"/>
       <use x="407.128906" xlink:href="#DejaVuSans-73"/>
       <use x="459.228516" xlink:href="#DejaVuSans-73"/>
       <use x="511.328125" xlink:href="#DejaVuSans-20"/>
       <use x="543.115234" xlink:href="#DejaVuSans-49"/>
       <use x="572.607422" xlink:href="#DejaVuSans-49"/>
       <use x="602.099609" xlink:href="#DejaVuSans-20"/>
       <use x="633.886719" xlink:href="#DejaVuSans-72"/>
       <use x="672.75" xlink:href="#DejaVuSans-65"/>
       <use x="734.273438" xlink:href="#DejaVuSans-63"/>
       <use x="789.253906" xlink:href="#DejaVuSans-65"/>
       <use x="850.777344" xlink:href="#DejaVuSans-70"/>
       <use x="914.253906" xlink:href="#DejaVuSans-74"/>
       <use x="953.462891" xlink:href="#DejaVuSans-6f"/>
       <use x="1014.644531" xlink:href="#DejaVuSans-72"/>
       <use x="1055.757812" xlink:href="#DejaVuSans-20"/>
       <use x="1087.544922" xlink:href="#DejaVuSans-61"/>
       <use x="1148.824219" xlink:href="#DejaVuSans-63"/>
       <use x="1203.804688" xlink:href="#DejaVuSans-74"/>
       <use x="1243.013672" xlink:href="#DejaVuSans-69"/>
       <use x="1270.796875" xlink:href="#DejaVuSans-76"/>
       <use x="1329.976562" xlink:href="#DejaVuSans-69"/>
       <use x="1357.759766" xlink:href="#DejaVuSans-74"/>
       <use x="1396.96875" xlink:href="#DejaVuSans-79"/>
      </g>
     </g>
    </g>
    <g id="ytick_2">
     <g id="line2d_8">
      <g>
       <use style="stroke:#000000;stroke-width:0.8;" x="159.817187" xlink:href="#m7ccfb3afc7" y="82.798125"/>
      </g>
     </g>
     <g id="text_9">
      <!-- peptide antigen binding -->
      <g transform="translate(33.13125 86.597344)scale(0.1 -0.1)">
       <defs>
        <path d="M 2906 1791 
Q 2906 2416 2648 2759 
Q 2391 3103 1925 3103 
Q 1463 3103 1205 2759 
Q 947 2416 947 1791 
Q 947 1169 1205 825 
Q 1463 481 1925 481 
Q 2391 481 2648 825 
Q 2906 1169 2906 1791 
z
M 3481 434 
Q 3481 -459 3084 -895 
Q 2688 -1331 1869 -1331 
Q 1566 -1331 1297 -1286 
Q 1028 -1241 775 -1147 
L 775 -588 
Q 1028 -725 1275 -790 
Q 1522 -856 1778 -856 
Q 2344 -856 2625 -561 
Q 2906 -266 2906 331 
L 2906 616 
Q 2728 306 2450 153 
Q 2172 0 1784 0 
Q 1141 0 747 490 
Q 353 981 353 1791 
Q 353 2603 747 3093 
Q 1141 3584 1784 3584 
Q 2172 3584 2450 3431 
Q 2728 3278 2906 2969 
L 2906 3500 
L 3481 3500 
L 3481 434 
z
" id="DejaVuSans-67" transform="scale(0.015625)"/>
        <path d="M 3116 1747 
Q 3116 2381 2855 2742 
Q 2594 3103 2138 3103 
Q 1681 3103 1420 2742 
Q 1159 2381 1159 1747 
Q 1159 1113 1420 752 
Q 1681 391 2138 391 
Q 2594 391 2855 752 
Q 3116 1113 3116 1747 
z
M 1159 2969 
Q 1341 3281 1617 3432 
Q 1894 3584 2278 3584 
Q 2916 3584 3314 3078 
Q 3713 2572 3713 1747 
Q 3713 922 3314 415 
Q 2916 -91 2278 -91 
Q 1894 -91 1617 61 
Q 1341 213 1159 525 
L 1159 0 
L 581 0 
L 581 4863 
L 1159 4863 
L 1159 2969 
z
" id="DejaVuSans-62" transform="scale(0.015625)"/>
       </defs>
       <use xlink:href="#DejaVuSans-70"/>
       <use x="63.476562" xlink:href="#DejaVuSans-65"/>
       <use x="125" xlink:href="#DejaVuSans-70"/>
       <use x="188.476562" xlink:href="#DejaVuSans-74"/>
       <use x="227.685547" xlink:href="#DejaVuSans-69"/>
       <use x="255.46875" xlink:href="#DejaVuSans-64"/>
       <use x="318.945312" xlink:href="#DejaVuSans-65"/>
       <use x="380.46875" xlink:href="#DejaVuSans-20"/>
       <use x="412.255859" xlink:href="#DejaVuSans-61"/>
       <use x="473.535156" xlink:href="#DejaVuSans-6e"/>
       <use x="536.914062" xlink:href="#DejaVuSans-74"/>
       <use x="576.123047" xlink:href="#DejaVuSans-69"/>
       <use x="603.90625" xlink:href="#DejaVuSans-67"/>
       <use x="667.382812" xlink:href="#DejaVuSans-65"/>
       <use x="728.90625" xlink:href="#DejaVuSans-6e"/>
       <use x="792.285156" xlink:href="#DejaVuSans-20"/>
       <use x="824.072266" xlink:href="#DejaVuSans-62"/>
       <use x="887.548828" xlink:href="#DejaVuSans-69"/>
       <use x="915.332031" xlink:href="#DejaVuSans-6e"/>
       <use x="978.710938" xlink:href="#DejaVuSans-64"/>
       <use x="1042.1875" xlink:href="#DejaVuSans-69"/>
       <use x="1069.970703" xlink:href="#DejaVuSans-6e"/>
       <use x="1133.349609" xlink:href="#DejaVuSans-67"/>
      </g>
     </g>
    </g>
    <g id="ytick_3">
     <g id="line2d_9">
      <g>
       <use style="stroke:#000000;stroke-width:0.8;" x="159.817187" xlink:href="#m7ccfb3afc7" y="131.182125"/>
      </g>
     </g>
     <g id="text_10">
      <!-- cytokine activity -->
      <g transform="translate(70.2625 134.981344)scale(0.1 -0.1)">
       <defs>
        <path d="M 581 4863 
L 1159 4863 
L 1159 1991 
L 2875 3500 
L 3609 3500 
L 1753 1863 
L 3688 0 
L 2938 0 
L 1159 1709 
L 1159 0 
L 581 0 
L 581 4863 
z
" id="DejaVuSans-6b" transform="scale(0.015625)"/>
       </defs>
       <use xlink:href="#DejaVuSans-63"/>
       <use x="54.980469" xlink:href="#DejaVuSans-79"/>
       <use x="114.160156" xlink:href="#DejaVuSans-74"/>
       <use x="153.369141" xlink:href="#DejaVuSans-6f"/>
       <use x="214.550781" xlink:href="#DejaVuSans-6b"/>
       <use x="272.460938" xlink:href="#DejaVuSans-69"/>
       <use x="300.244141" xlink:href="#DejaVuSans-6e"/>
       <use x="363.623047" xlink:href="#DejaVuSans-65"/>
       <use x="425.146484" xlink:href="#DejaVuSans-20"/>
       <use x="456.933594" xlink:href="#DejaVuSans-61"/>
       <use x="518.212891" xlink:href="#DejaVuSans-63"/>
       <use x="573.193359" xlink:href="#DejaVuSans-74"/>
       <use x="612.402344" xlink:href="#DejaVuSans-69"/>
       <use x="640.185547" xlink:href="#DejaVuSans-76"/>
       <use x="699.365234" xlink:href="#DejaVuSans-69"/>
       <use x="727.148438" xlink:href="#DejaVuSans-74"/>
       <use x="766.357422" xlink:href="#DejaVuSans-79"/>
      </g>
     </g>
    </g>
    <g id="ytick_4">
     <g id="line2d_10">
      <g>
       <use style="stroke:#000000;stroke-width:0.8;" x="159.817187" xlink:href="#m7ccfb3afc7" y="179.566125"/>
      </g>
     </g>
     <g id="text_11">
      <!-- signaling receptor binding -->
      <g transform="translate(21.951562 183.365344)scale(0.1 -0.1)">
       <use xlink:href="#DejaVuSans-73"/>
       <use x="52.099609" xlink:href="#DejaVuSans-69"/>
       <use x="79.882812" xlink:href="#DejaVuSans-67"/>
       <use x="143.359375" xlink:href="#DejaVuSans-6e"/>
       <use x="206.738281" xlink:href="#DejaVuSans-61"/>
       <use x="268.017578" xlink:href="#DejaVuSans-6c"/>
       <use x="295.800781" xlink:href="#DejaVuSans-69"/>
       <use x="323.583984" xlink:href="#DejaVuSans-6e"/>
       <use x="386.962891" xlink:href="#DejaVuSans-67"/>
       <use x="450.439453" xlink:href="#DejaVuSans-20"/>
       <use x="482.226562" xlink:href="#DejaVuSans-72"/>
       <use x="521.089844" xlink:href="#DejaVuSans-65"/>
       <use x="582.613281" xlink:href="#DejaVuSans-63"/>
       <use x="637.59375" xlink:href="#DejaVuSans-65"/>
       <use x="699.117188" xlink:href="#DejaVuSans-70"/>
       <use x="762.59375" xlink:href="#DejaVuSans-74"/>
       <use x="801.802734" xlink:href="#DejaVuSans-6f"/>
       <use x="862.984375" xlink:href="#DejaVuSans-72"/>
       <use x="904.097656" xlink:href="#DejaVuSans-20"/>
       <use x="935.884766" xlink:href="#DejaVuSans-62"/>
       <use x="999.361328" xlink:href="#DejaVuSans-69"/>
       <use x="1027.144531" xlink:href="#DejaVuSans-6e"/>
       <use x="1090.523438" xlink:href="#DejaVuSans-64"/>
       <use x="1154" xlink:href="#DejaVuSans-69"/>
       <use x="1181.783203" xlink:href="#DejaVuSans-6e"/>
       <use x="1245.162109" xlink:href="#DejaVuSans-67"/>
      </g>
     </g>
    </g>
    <g id="ytick_5">
     <g id="line2d_11">
      <g>
       <use style="stroke:#000000;stroke-width:0.8;" x="159.817187" xlink:href="#m7ccfb3afc7" y="227.950125"/>
      </g>
     </g>
     <g id="text_12">
      <!-- identical protein binding -->
      <g transform="translate(30.921875 231.749344)scale(0.1 -0.1)">
       <use xlink:href="#DejaVuSans-69"/>
       <use x="27.783203" xlink:href="#DejaVuSans-64"/>
       <use x="91.259766" xlink:href="#DejaVuSans-65"/>
       <use x="152.783203" xlink:href="#DejaVuSans-6e"/>
       <use x="216.162109" xlink:href="#DejaVuSans-74"/>
       <use x="255.371094" xlink:href="#DejaVuSans-69"/>
       <use x="283.154297" xlink:href="#DejaVuSans-63"/>
       <use x="338.134766" xlink:href="#DejaVuSans-61"/>
       <use x="399.414062" xlink:href="#DejaVuSans-6c"/>
       <use x="427.197266" xlink:href="#DejaVuSans-20"/>
       <use x="458.984375" xlink:href="#DejaVuSans-70"/>
       <use x="522.460938" xlink:href="#DejaVuSans-72"/>
       <use x="561.324219" xlink:href="#DejaVuSans-6f"/>
       <use x="622.505859" xlink:href="#DejaVuSans-74"/>
       <use x="661.714844" xlink:href="#DejaVuSans-65"/>
       <use x="723.238281" xlink:href="#DejaVuSans-69"/>
       <use x="751.021484" xlink:href="#DejaVuSans-6e"/>
       <use x="814.400391" xlink:href="#DejaVuSans-20"/>
       <use x="846.1875" xlink:href="#DejaVuSans-62"/>
       <use x="909.664062" xlink:href="#DejaVuSans-69"/>
       <use x="937.447266" xlink:href="#DejaVuSans-6e"/>
       <use x="1000.826172" xlink:href="#DejaVuSans-64"/>
       <use x="1064.302734" xlink:href="#DejaVuSans-69"/>
       <use x="1092.085938" xlink:href="#DejaVuSans-6e"/>
       <use x="1155.464844" xlink:href="#DejaVuSans-67"/>
      </g>
     </g>
    </g>
    <g id="ytick_6">
     <g id="line2d_12">
      <g>
       <use style="stroke:#000000;stroke-width:0.8;" x="159.817187" xlink:href="#m7ccfb3afc7" y="276.334125"/>
      </g>
     </g>
     <g id="text_13">
      <!-- protein binding -->
      <g transform="translate(76.820312 280.133344)scale(0.1 -0.1)">
       <use xlink:href="#DejaVuSans-70"/>
       <use x="63.476562" xlink:href="#DejaVuSans-72"/>
       <use x="102.339844" xlink:href="#DejaVuSans-6f"/>
       <use x="163.521484" xlink:href="#DejaVuSans-74"/>
       <use x="202.730469" xlink:href="#DejaVuSans-65"/>
       <use x="264.253906" xlink:href="#DejaVuSans-69"/>
       <use x="292.037109" xlink:href="#DejaVuSans-6e"/>
       <use x="355.416016" xlink:href="#DejaVuSans-20"/>
       <use x="387.203125" xlink:href="#DejaVuSans-62"/>
       <use x="450.679688" xlink:href="#DejaVuSans-69"/>
       <use x="478.462891" xlink:href="#DejaVuSans-6e"/>
       <use x="541.841797" xlink:href="#DejaVuSans-64"/>
       <use x="605.318359" xlink:href="#DejaVuSans-69"/>
       <use x="633.101562" xlink:href="#DejaVuSans-6e"/>
       <use x="696.480469" xlink:href="#DejaVuSans-67"/>
      </g>
     </g>
    </g>
   </g>
   <g id="patch_3">
    <path d="M 159.817187 288.430125 
L 159.817187 22.318125 
" style="fill:none;stroke:#000000;stroke-linecap:square;stroke-linejoin:miter;stroke-width:0.8;"/>
   </g>
   <g id="patch_4">
    <path d="M 516.937187 288.430125 
L 516.937187 22.318125 
" style="fill:none;stroke:#000000;stroke-linecap:square;stroke-linejoin:miter;stroke-width:0.8;"/>
   </g>
   <g id="patch_5">
    <path d="M 159.817187 288.430125 
L 516.937187 288.430125 
" style="fill:none;stroke:#000000;stroke-linecap:square;stroke-linejoin:miter;stroke-width:0.8;"/>
   </g>
   <g id="patch_6">
    <path d="M 159.817187 22.318125 
L 516.937187 22.318125 
" style="fill:none;stroke:#000000;stroke-linecap:square;stroke-linejoin:miter;stroke-width:0.8;"/>
   </g>
   <g id="text_14">
    <!-- Top 20 Enriched Molecular Functions -->
    <g transform="translate(228.897812 16.318125)scale(0.12 -0.12)">
     <defs>
      <path d="M -19 4666 
L 3928 4666 
L 3928 4134 
L 2272 4134 
L 2272 0 
L 1638 0 
L 1638 4134 
L -19 4134 
L -19 4666 
z
" id="DejaVuSans-54" transform="scale(0.015625)"/>
      <path d="M 544 1381 
L 544 3500 
L 1119 3500 
L 1119 1403 
Q 1119 906 1312 657 
Q 1506 409 1894 409 
Q 2359 409 2629 706 
Q 2900 1003 2900 1516 
L 2900 3500 
L 3475 3500 
L 3475 0 
L 2900 0 
L 2900 538 
Q 2691 219 2414 64 
Q 2138 -91 1772 -91 
Q 1169 -91 856 284 
Q 544 659 544 1381 
z
M 1991 3584 
L 1991 3584 
z
" id="DejaVuSans-75" transform="scale(0.015625)"/>
     </defs>
     <use xlink:href="#DejaVuSans-54"/>
     <use x="44.083984" xlink:href="#DejaVuSans-6f"/>
     <use x="105.265625" xlink:href="#DejaVuSans-70"/>
     <use x="168.742188" xlink:href="#DejaVuSans-20"/>
     <use x="200.529297" xlink:href="#DejaVuSans-32"/>
     <use x="264.152344" xlink:href="#DejaVuSans-30"/>
     <use x="327.775391" xlink:href="#DejaVuSans-20"/>
     <use x="359.5625" xlink:href="#DejaVuSans-45"/>
     <use x="422.746094" xlink:href="#DejaVuSans-6e"/>
     <use x="486.125" xlink:href="#DejaVuSans-72"/>
     <use x="527.238281" xlink:href="#DejaVuSans-69"/>
     <use x="555.021484" xlink:href="#DejaVuSans-63"/>
     <use x="610.001953" xlink:href="#DejaVuSans-68"/>
     <use x="673.380859" xlink:href="#DejaVuSans-65"/>
     <use x="734.904297" xlink:href="#DejaVuSans-64"/>
     <use x="798.380859" xlink:href="#DejaVuSans-20"/>
     <use x="830.167969" xlink:href="#DejaVuSans-4d"/>
     <use x="916.447266" xlink:href="#DejaVuSans-6f"/>
     <use x="977.628906" xlink:href="#DejaVuSans-6c"/>
     <use x="1005.412109" xlink:href="#DejaVuSans-65"/>
     <use x="1066.935547" xlink:href="#DejaVuSans-63"/>
     <use x="1121.916016" xlink:href="#DejaVuSans-75"/>
     <use x="1185.294922" xlink:href="#DejaVuSans-6c"/>
     <use x="1213.078125" xlink:href="#DejaVuSans-61"/>
     <use x="1274.357422" xlink:href="#DejaVuSans-72"/>
     <use x="1315.470703" xlink:href="#DejaVuSans-20"/>
     <use x="1347.257812" xlink:href="#DejaVuSans-46"/>
     <use x="1399.277344" xlink:href="#DejaVuSans-75"/>
     <use x="1462.65625" xlink:href="#DejaVuSans-6e"/>
     <use x="1526.035156" xlink:href="#DejaVuSans-63"/>
     <use x="1581.015625" xlink:href="#DejaVuSans-74"/>
     <use x="1620.224609" xlink:href="#DejaVuSans-69"/>
     <use x="1648.007812" xlink:href="#DejaVuSans-6f"/>
     <use x="1709.189453" xlink:href="#DejaVuSans-6e"/>
     <use x="1772.568359" xlink:href="#DejaVuSans-73"/>
    </g>
   </g>
   <g id="legend_1">
    <g id="patch_7">
     <path d="M 523.937187 221.13375 
L 680.002812 221.13375 
Q 682.002812 221.13375 682.002812 219.13375 
L 682.002812 29.318125 
Q 682.002812 27.318125 680.002812 27.318125 
L 523.937187 27.318125 
Q 521.937187 27.318125 521.937187 29.318125 
L 521.937187 219.13375 
Q 521.937187 221.13375 523.937187 221.13375 
z
" style="fill:#ffffff;opacity:0.8;stroke:#cccccc;stroke-linejoin:miter;"/>
    </g>
    <g id="text_15">
     <!-- -log10 FDR -->
     <g transform="translate(553.937187 38.916562)scale(0.1 -0.1)">
      <defs>
       <path d="M 313 2009 
L 1997 2009 
L 1997 1497 
L 313 1497 
L 313 2009 
z
" id="DejaVuSans-2d" transform="scale(0.015625)"/>
       <path d="M 1259 4147 
L 1259 519 
L 2022 519 
Q 2988 519 3436 956 
Q 3884 1394 3884 2338 
Q 3884 3275 3436 3711 
Q 2988 4147 2022 4147 
L 1259 4147 
z
M 628 4666 
L 1925 4666 
Q 3281 4666 3915 4102 
Q 4550 3538 4550 2338 
Q 4550 1131 3912 565 
Q 3275 0 1925 0 
L 628 0 
L 628 4666 
z
" id="DejaVuSans-44" transform="scale(0.015625)"/>
       <path d="M 2841 2188 
Q 3044 2119 3236 1894 
Q 3428 1669 3622 1275 
L 4263 0 
L 3584 0 
L 2988 1197 
Q 2756 1666 2539 1819 
Q 2322 1972 1947 1972 
L 1259 1972 
L 1259 0 
L 628 0 
L 628 4666 
L 2053 4666 
Q 2853 4666 3247 4331 
Q 3641 3997 3641 3322 
Q 3641 2881 3436 2590 
Q 3231 2300 2841 2188 
z
M 1259 4147 
L 1259 2491 
L 2053 2491 
Q 2509 2491 2742 2702 
Q 2975 2913 2975 3322 
Q 2975 3731 2742 3939 
Q 2509 4147 2053 4147 
L 1259 4147 
z
" id="DejaVuSans-52" transform="scale(0.015625)"/>
      </defs>
      <use xlink:href="#DejaVuSans-2d"/>
      <use x="36.083984" xlink:href="#DejaVuSans-6c"/>
      <use x="63.867188" xlink:href="#DejaVuSans-6f"/>
      <use x="125.048828" xlink:href="#DejaVuSans-67"/>
      <use x="188.525391" xlink:href="#DejaVuSans-31"/>
      <use x="252.148438" xlink:href="#DejaVuSans-30"/>
      <use x="315.771484" xlink:href="#DejaVuSans-20"/>
      <use x="347.558594" xlink:href="#DejaVuSans-46"/>
      <use x="405.078125" xlink:href="#DejaVuSans-44"/>
      <use x="482.080078" xlink:href="#DejaVuSans-52"/>
     </g>
    </g>
    <g id="PathCollection_13">
     <defs>
      <path d="M 0 3 
C 0.795609 3 1.55874 2.683901 2.12132 2.12132 
C 2.683901 1.55874 3 0.795609 3 0 
C 3 -0.795609 2.683901 -1.55874 2.12132 -2.12132 
C 1.55874 -2.683901 0.795609 -3 0 -3 
C -0.795609 -3 -1.55874 -2.683901 -2.12132 -2.12132 
C -2.683901 -1.55874 -3 -0.795609 -3 0 
C -3 0.795609 -2.683901 1.55874 -2.12132 2.12132 
C -1.55874 2.683901 -0.795609 3 0 3 
z
" id="ma11e2e35d5" style="stroke:#3b4cc0;"/>
     </defs>
     <g>
      <use style="fill:#3b4cc0;stroke:#3b4cc0;" x="535.937187" xlink:href="#ma11e2e35d5" y="50.969688"/>
     </g>
    </g>
    <g id="text_16">
     <!-- 4.681041558102697 -->
     <g transform="translate(553.937187 53.594688)scale(0.1 -0.1)">
      <defs>
       <path d="M 684 794 
L 1344 794 
L 1344 0 
L 684 0 
L 684 794 
z
" id="DejaVuSans-2e" transform="scale(0.015625)"/>
       <path d="M 2113 2584 
Q 1688 2584 1439 2293 
Q 1191 2003 1191 1497 
Q 1191 994 1439 701 
Q 1688 409 2113 409 
Q 2538 409 2786 701 
Q 3034 994 3034 1497 
Q 3034 2003 2786 2293 
Q 2538 2584 2113 2584 
z
M 3366 4563 
L 3366 3988 
Q 3128 4100 2886 4159 
Q 2644 4219 2406 4219 
Q 1781 4219 1451 3797 
Q 1122 3375 1075 2522 
Q 1259 2794 1537 2939 
Q 1816 3084 2150 3084 
Q 2853 3084 3261 2657 
Q 3669 2231 3669 1497 
Q 3669 778 3244 343 
Q 2819 -91 2113 -91 
Q 1303 -91 875 529 
Q 447 1150 447 2328 
Q 447 3434 972 4092 
Q 1497 4750 2381 4750 
Q 2619 4750 2861 4703 
Q 3103 4656 3366 4563 
z
" id="DejaVuSans-36" transform="scale(0.015625)"/>
       <path d="M 2034 2216 
Q 1584 2216 1326 1975 
Q 1069 1734 1069 1313 
Q 1069 891 1326 650 
Q 1584 409 2034 409 
Q 2484 409 2743 651 
Q 3003 894 3003 1313 
Q 3003 1734 2745 1975 
Q 2488 2216 2034 2216 
z
M 1403 2484 
Q 997 2584 770 2862 
Q 544 3141 544 3541 
Q 544 4100 942 4425 
Q 1341 4750 2034 4750 
Q 2731 4750 3128 4425 
Q 3525 4100 3525 3541 
Q 3525 3141 3298 2862 
Q 3072 2584 2669 2484 
Q 3125 2378 3379 2068 
Q 3634 1759 3634 1313 
Q 3634 634 3220 271 
Q 2806 -91 2034 -91 
Q 1263 -91 848 271 
Q 434 634 434 1313 
Q 434 1759 690 2068 
Q 947 2378 1403 2484 
z
M 1172 3481 
Q 1172 3119 1398 2916 
Q 1625 2713 2034 2713 
Q 2441 2713 2670 2916 
Q 2900 3119 2900 3481 
Q 2900 3844 2670 4047 
Q 2441 4250 2034 4250 
Q 1625 4250 1398 4047 
Q 1172 3844 1172 3481 
z
" id="DejaVuSans-38" transform="scale(0.015625)"/>
       <path d="M 703 97 
L 703 672 
Q 941 559 1184 500 
Q 1428 441 1663 441 
Q 2288 441 2617 861 
Q 2947 1281 2994 2138 
Q 2813 1869 2534 1725 
Q 2256 1581 1919 1581 
Q 1219 1581 811 2004 
Q 403 2428 403 3163 
Q 403 3881 828 4315 
Q 1253 4750 1959 4750 
Q 2769 4750 3195 4129 
Q 3622 3509 3622 2328 
Q 3622 1225 3098 567 
Q 2575 -91 1691 -91 
Q 1453 -91 1209 -44 
Q 966 3 703 97 
z
M 1959 2075 
Q 2384 2075 2632 2365 
Q 2881 2656 2881 3163 
Q 2881 3666 2632 3958 
Q 2384 4250 1959 4250 
Q 1534 4250 1286 3958 
Q 1038 3666 1038 3163 
Q 1038 2656 1286 2365 
Q 1534 2075 1959 2075 
z
" id="DejaVuSans-39" transform="scale(0.015625)"/>
       <path d="M 525 4666 
L 3525 4666 
L 3525 4397 
L 1831 0 
L 1172 0 
L 2766 4134 
L 525 4134 
L 525 4666 
z
" id="DejaVuSans-37" transform="scale(0.015625)"/>
      </defs>
      <use xlink:href="#DejaVuSans-34"/>
      <use x="63.623047" xlink:href="#DejaVuSans-2e"/>
      <use x="95.410156" xlink:href="#DejaVuSans-36"/>
      <use x="159.033203" xlink:href="#DejaVuSans-38"/>
      <use x="222.65625" xlink:href="#DejaVuSans-31"/>
      <use x="286.279297" xlink:href="#DejaVuSans-30"/>
      <use x="349.902344" xlink:href="#DejaVuSans-34"/>
      <use x="413.525391" xlink:href="#DejaVuSans-31"/>
      <use x="477.148438" xlink:href="#DejaVuSans-35"/>
      <use x="540.771484" xlink:href="#DejaVuSans-35"/>
      <use x="604.394531" xlink:href="#DejaVuSans-38"/>
      <use x="668.017578" xlink:href="#DejaVuSans-31"/>
      <use x="731.640625" xlink:href="#DejaVuSans-30"/>
      <use x="795.263672" xlink:href="#DejaVuSans-32"/>
      <use x="858.886719" xlink:href="#DejaVuSans-36"/>
      <use x="922.509766" xlink:href="#DejaVuSans-39"/>
      <use x="986.132812" xlink:href="#DejaVuSans-37"/>
     </g>
    </g>
    <g id="PathCollection_14">
     <defs>
      <path d="M 0 3 
C 0.795609 3 1.55874 2.683901 2.12132 2.12132 
C 2.683901 1.55874 3 0.795609 3 0 
C 3 -0.795609 2.683901 -1.55874 2.12132 -2.12132 
C 1.55874 -2.683901 0.795609 -3 0 -3 
C -0.795609 -3 -1.55874 -2.683901 -2.12132 -2.12132 
C -2.683901 -1.55874 -3 -0.795609 -3 0 
C -3 0.795609 -2.683901 1.55874 -2.12132 2.12132 
C -1.55874 2.683901 -0.795609 3 0 3 
z
" id="m6ac004fcbf" style="stroke:#516ddb;"/>
     </defs>
     <g>
      <use style="fill:#516ddb;stroke:#516ddb;" x="535.937187" xlink:href="#m6ac004fcbf" y="65.647812"/>
     </g>
    </g>
    <g id="text_17">
     <!-- 5.202206691646397 -->
     <g transform="translate(553.937187 68.272812)scale(0.1 -0.1)">
      <use xlink:href="#DejaVuSans-35"/>
      <use x="63.623047" xlink:href="#DejaVuSans-2e"/>
      <use x="95.410156" xlink:href="#DejaVuSans-32"/>
      <use x="159.033203" xlink:href="#DejaVuSans-30"/>
      <use x="222.65625" xlink:href="#DejaVuSans-32"/>
      <use x="286.279297" xlink:href="#DejaVuSans-32"/>
      <use x="349.902344" xlink:href="#DejaVuSans-30"/>
      <use x="413.525391" xlink:href="#DejaVuSans-36"/>
      <use x="477.148438" xlink:href="#DejaVuSans-36"/>
      <use x="540.771484" xlink:href="#DejaVuSans-39"/>
      <use x="604.394531" xlink:href="#DejaVuSans-31"/>
      <use x="668.017578" xlink:href="#DejaVuSans-36"/>
      <use x="731.640625" xlink:href="#DejaVuSans-34"/>
      <use x="795.263672" xlink:href="#DejaVuSans-36"/>
      <use x="858.886719" xlink:href="#DejaVuSans-33"/>
      <use x="922.509766" xlink:href="#DejaVuSans-39"/>
      <use x="986.132812" xlink:href="#DejaVuSans-37"/>
     </g>
    </g>
    <g id="PathCollection_15">
     <defs>
      <path d="M 0 3 
C 0.795609 3 1.55874 2.683901 2.12132 2.12132 
C 2.683901 1.55874 3 0.795609 3 0 
C 3 -0.795609 2.683901 -1.55874 2.12132 -2.12132 
C 1.55874 -2.683901 0.795609 -3 0 -3 
C -0.795609 -3 -1.55874 -2.683901 -2.12132 -2.12132 
C -2.683901 -1.55874 -3 -0.795609 -3 0 
C -3 0.795609 -2.683901 1.55874 -2.12132 2.12132 
C -1.55874 2.683901 -0.795609 3 0 3 
z
" id="md5f2eb5e45" style="stroke:#9abbff;"/>
     </defs>
     <g>
      <use style="fill:#9abbff;stroke:#9abbff;" x="535.937187" xlink:href="#md5f2eb5e45" y="80.325938"/>
     </g>
    </g>
    <g id="text_18">
     <!-- 6.674140980713388 -->
     <g transform="translate(553.937187 82.950938)scale(0.1 -0.1)">
      <use xlink:href="#DejaVuSans-36"/>
      <use x="63.623047" xlink:href="#DejaVuSans-2e"/>
      <use x="95.410156" xlink:href="#DejaVuSans-36"/>
      <use x="159.033203" xlink:href="#DejaVuSans-37"/>
      <use x="222.65625" xlink:href="#DejaVuSans-34"/>
      <use x="286.279297" xlink:href="#DejaVuSans-31"/>
      <use x="349.902344" xlink:href="#DejaVuSans-34"/>
      <use x="413.525391" xlink:href="#DejaVuSans-30"/>
      <use x="477.148438" xlink:href="#DejaVuSans-39"/>
      <use x="540.771484" xlink:href="#DejaVuSans-38"/>
      <use x="604.394531" xlink:href="#DejaVuSans-30"/>
      <use x="668.017578" xlink:href="#DejaVuSans-37"/>
      <use x="731.640625" xlink:href="#DejaVuSans-31"/>
      <use x="795.263672" xlink:href="#DejaVuSans-33"/>
      <use x="858.886719" xlink:href="#DejaVuSans-33"/>
      <use x="922.509766" xlink:href="#DejaVuSans-38"/>
      <use x="986.132812" xlink:href="#DejaVuSans-38"/>
     </g>
    </g>
    <g id="PathCollection_16">
     <defs>
      <path d="M 0 3 
C 0.795609 3 1.55874 2.683901 2.12132 2.12132 
C 2.683901 1.55874 3 0.795609 3 0 
C 3 -0.795609 2.683901 -1.55874 2.12132 -2.12132 
C 1.55874 -2.683901 0.795609 -3 0 -3 
C -0.795609 -3 -1.55874 -2.683901 -2.12132 -2.12132 
C -2.683901 -1.55874 -3 -0.795609 -3 0 
C -3 0.795609 -2.683901 1.55874 -2.12132 2.12132 
C -1.55874 2.683901 -0.795609 3 0 3 
z
" id="ma709b7b4a0" style="stroke:#bcd2f7;"/>
     </defs>
     <g>
      <use style="fill:#bcd2f7;stroke:#bcd2f7;" x="535.937187" xlink:href="#ma709b7b4a0" y="95.004063"/>
     </g>
    </g>
    <g id="text_19">
     <!-- 7.368200903303483 -->
     <g transform="translate(553.937187 97.629063)scale(0.1 -0.1)">
      <use xlink:href="#DejaVuSans-37"/>
      <use x="63.623047" xlink:href="#DejaVuSans-2e"/>
      <use x="95.410156" xlink:href="#DejaVuSans-33"/>
      <use x="159.033203" xlink:href="#DejaVuSans-36"/>
      <use x="222.65625" xlink:href="#DejaVuSans-38"/>
      <use x="286.279297" xlink:href="#DejaVuSans-32"/>
      <use x="349.902344" xlink:href="#DejaVuSans-30"/>
      <use x="413.525391" xlink:href="#DejaVuSans-30"/>
      <use x="477.148438" xlink:href="#DejaVuSans-39"/>
      <use x="540.771484" xlink:href="#DejaVuSans-30"/>
      <use x="604.394531" xlink:href="#DejaVuSans-33"/>
      <use x="668.017578" xlink:href="#DejaVuSans-33"/>
      <use x="731.640625" xlink:href="#DejaVuSans-30"/>
      <use x="795.263672" xlink:href="#DejaVuSans-33"/>
      <use x="858.886719" xlink:href="#DejaVuSans-34"/>
      <use x="922.509766" xlink:href="#DejaVuSans-38"/>
      <use x="986.132812" xlink:href="#DejaVuSans-33"/>
     </g>
    </g>
    <g id="PathCollection_17">
     <defs>
      <path d="M 0 3 
C 0.795609 3 1.55874 2.683901 2.12132 2.12132 
C 2.683901 1.55874 3 0.795609 3 0 
C 3 -0.795609 2.683901 -1.55874 2.12132 -2.12132 
C 1.55874 -2.683901 0.795609 -3 0 -3 
C -0.795609 -3 -1.55874 -2.683901 -2.12132 -2.12132 
C -2.683901 -1.55874 -3 -0.795609 -3 0 
C -3 0.795609 -2.683901 1.55874 -2.12132 2.12132 
C -1.55874 2.683901 -0.795609 3 0 3 
z
" id="mdf39241a58" style="stroke:#dddcdc;"/>
     </defs>
     <g>
      <use style="fill:#dddcdc;stroke:#dddcdc;" x="535.937187" xlink:href="#mdf39241a58" y="109.682187"/>
     </g>
    </g>
    <g id="text_20">
     <!-- 8.143404661766558 -->
     <g transform="translate(553.937187 112.307187)scale(0.1 -0.1)">
      <use xlink:href="#DejaVuSans-38"/>
      <use x="63.623047" xlink:href="#DejaVuSans-2e"/>
      <use x="95.410156" xlink:href="#DejaVuSans-31"/>
      <use x="159.033203" xlink:href="#DejaVuSans-34"/>
      <use x="222.65625" xlink:href="#DejaVuSans-33"/>
      <use x="286.279297" xlink:href="#DejaVuSans-34"/>
      <use x="349.902344" xlink:href="#DejaVuSans-30"/>
      <use x="413.525391" xlink:href="#DejaVuSans-34"/>
      <use x="477.148438" xlink:href="#DejaVuSans-36"/>
      <use x="540.771484" xlink:href="#DejaVuSans-36"/>
      <use x="604.394531" xlink:href="#DejaVuSans-31"/>
      <use x="668.017578" xlink:href="#DejaVuSans-37"/>
      <use x="731.640625" xlink:href="#DejaVuSans-36"/>
      <use x="795.263672" xlink:href="#DejaVuSans-36"/>
      <use x="858.886719" xlink:href="#DejaVuSans-35"/>
      <use x="922.509766" xlink:href="#DejaVuSans-35"/>
      <use x="986.132812" xlink:href="#DejaVuSans-38"/>
     </g>
    </g>
    <g id="PathCollection_18">
     <defs>
      <path d="M 0 3 
C 0.795609 3 1.55874 2.683901 2.12132 2.12132 
C 2.683901 1.55874 3 0.795609 3 0 
C 3 -0.795609 2.683901 -1.55874 2.12132 -2.12132 
C 1.55874 -2.683901 0.795609 -3 0 -3 
C -0.795609 -3 -1.55874 -2.683901 -2.12132 -2.12132 
C -2.683901 -1.55874 -3 -0.795609 -3 0 
C -3 0.795609 -2.683901 1.55874 -2.12132 2.12132 
C -1.55874 2.683901 -0.795609 3 0 3 
z
" id="mbc83c1ad90" style="stroke:#b40426;"/>
     </defs>
     <g>
      <use style="fill:#b40426;stroke:#b40426;" x="535.937187" xlink:href="#mbc83c1ad90" y="124.360313"/>
     </g>
    </g>
    <g id="text_21">
     <!-- 11.592992004111652 -->
     <g transform="translate(553.937187 126.985313)scale(0.1 -0.1)">
      <use xlink:href="#DejaVuSans-31"/>
      <use x="63.623047" xlink:href="#DejaVuSans-31"/>
      <use x="127.246094" xlink:href="#DejaVuSans-2e"/>
      <use x="159.033203" xlink:href="#DejaVuSans-35"/>
      <use x="222.65625" xlink:href="#DejaVuSans-39"/>
      <use x="286.279297" xlink:href="#DejaVuSans-32"/>
      <use x="349.902344" xlink:href="#DejaVuSans-39"/>
      <use x="413.525391" xlink:href="#DejaVuSans-39"/>
      <use x="477.148438" xlink:href="#DejaVuSans-32"/>
      <use x="540.771484" xlink:href="#DejaVuSans-30"/>
      <use x="604.394531" xlink:href="#DejaVuSans-30"/>
      <use x="668.017578" xlink:href="#DejaVuSans-34"/>
      <use x="731.640625" xlink:href="#DejaVuSans-31"/>
      <use x="795.263672" xlink:href="#DejaVuSans-31"/>
      <use x="858.886719" xlink:href="#DejaVuSans-31"/>
      <use x="922.509766" xlink:href="#DejaVuSans-36"/>
      <use x="986.132812" xlink:href="#DejaVuSans-35"/>
      <use x="1049.755859" xlink:href="#DejaVuSans-32"/>
     </g>
    </g>
    <g id="text_22">
     <!-- Gene Ratio -->
     <g transform="translate(553.937187 141.663437)scale(0.1 -0.1)">
      <defs>
       <path d="M 3809 666 
L 3809 1919 
L 2778 1919 
L 2778 2438 
L 4434 2438 
L 4434 434 
Q 4069 175 3628 42 
Q 3188 -91 2688 -91 
Q 1594 -91 976 548 
Q 359 1188 359 2328 
Q 359 3472 976 4111 
Q 1594 4750 2688 4750 
Q 3144 4750 3555 4637 
Q 3966 4525 4313 4306 
L 4313 3634 
Q 3963 3931 3569 4081 
Q 3175 4231 2741 4231 
Q 1884 4231 1454 3753 
Q 1025 3275 1025 2328 
Q 1025 1384 1454 906 
Q 1884 428 2741 428 
Q 3075 428 3337 486 
Q 3600 544 3809 666 
z
" id="DejaVuSans-47" transform="scale(0.015625)"/>
      </defs>
      <use xlink:href="#DejaVuSans-47"/>
      <use x="77.490234" xlink:href="#DejaVuSans-65"/>
      <use x="139.013672" xlink:href="#DejaVuSans-6e"/>
      <use x="202.392578" xlink:href="#DejaVuSans-65"/>
      <use x="263.916016" xlink:href="#DejaVuSans-20"/>
      <use x="295.703125" xlink:href="#DejaVuSans-52"/>
      <use x="362.935547" xlink:href="#DejaVuSans-61"/>
      <use x="424.214844" xlink:href="#DejaVuSans-74"/>
      <use x="463.423828" xlink:href="#DejaVuSans-69"/>
      <use x="491.207031" xlink:href="#DejaVuSans-6f"/>
     </g>
    </g>
    <g id="PathCollection_19">
     <defs>
      <path d="M 0 2.236068 
C 0.593012 2.236068 1.161816 2.000462 1.581139 1.581139 
C 2.000462 1.161816 2.236068 0.593012 2.236068 0 
C 2.236068 -0.593012 2.000462 -1.161816 1.581139 -1.581139 
C 1.161816 -2.000462 0.593012 -2.236068 0 -2.236068 
C -0.593012 -2.236068 -1.161816 -2.000462 -1.581139 -1.581139 
C -2.000462 -1.161816 -2.236068 -0.593012 -2.236068 0 
C -2.236068 0.593012 -2.000462 1.161816 -1.581139 1.581139 
C -1.161816 2.000462 -0.593012 2.236068 0 2.236068 
z
" id="md65c965801" style="stroke:#333333;"/>
     </defs>
     <g>
      <use style="fill:#333333;stroke:#333333;" x="535.937187" xlink:href="#md65c965801" y="153.716563"/>
     </g>
    </g>
    <g id="text_23">
     <!-- 0.024390243902439025 -->
     <g transform="translate(553.937187 156.341563)scale(0.1 -0.1)">
      <use xlink:href="#DejaVuSans-30"/>
      <use x="63.623047" xlink:href="#DejaVuSans-2e"/>
      <use x="95.410156" xlink:href="#DejaVuSans-30"/>
      <use x="159.033203" xlink:href="#DejaVuSans-32"/>
      <use x="222.65625" xlink:href="#DejaVuSans-34"/>
      <use x="286.279297" xlink:href="#DejaVuSans-33"/>
      <use x="349.902344" xlink:href="#DejaVuSans-39"/>
      <use x="413.525391" xlink:href="#DejaVuSans-30"/>
      <use x="477.148438" xlink:href="#DejaVuSans-32"/>
      <use x="540.771484" xlink:href="#DejaVuSans-34"/>
      <use x="604.394531" xlink:href="#DejaVuSans-33"/>
      <use x="668.017578" xlink:href="#DejaVuSans-39"/>
      <use x="731.640625" xlink:href="#DejaVuSans-30"/>
      <use x="795.263672" xlink:href="#DejaVuSans-32"/>
      <use x="858.886719" xlink:href="#DejaVuSans-34"/>
      <use x="922.509766" xlink:href="#DejaVuSans-33"/>
      <use x="986.132812" xlink:href="#DejaVuSans-39"/>
      <use x="1049.755859" xlink:href="#DejaVuSans-30"/>
      <use x="1113.378906" xlink:href="#DejaVuSans-32"/>
      <use x="1177.001953" xlink:href="#DejaVuSans-35"/>
     </g>
    </g>
    <g id="PathCollection_20">
     <defs>
      <path d="M 0 2.403839 
C 0.637506 2.403839 1.248986 2.150556 1.699771 1.699771 
C 2.150556 1.248986 2.403839 0.637506 2.403839 0 
C 2.403839 -0.637506 2.150556 -1.248986 1.699771 -1.699771 
C 1.248986 -2.150556 0.637506 -2.403839 0 -2.403839 
C -0.637506 -2.403839 -1.248986 -2.150556 -1.699771 -1.699771 
C -2.150556 -1.248986 -2.403839 -0.637506 -2.403839 0 
C -2.403839 0.637506 -2.150556 1.248986 -1.699771 1.699771 
C -1.248986 2.150556 -0.637506 2.403839 0 2.403839 
z
" id="md643bf6b62" style="stroke:#333333;"/>
     </defs>
     <g>
      <use style="fill:#333333;stroke:#333333;" x="535.937187" xlink:href="#md643bf6b62" y="168.394687"/>
     </g>
    </g>
    <g id="text_24">
     <!-- 0.04390243902439024 -->
     <g transform="translate(553.937187 171.019687)scale(0.1 -0.1)">
      <use xlink:href="#DejaVuSans-30"/>
      <use x="63.623047" xlink:href="#DejaVuSans-2e"/>
      <use x="95.410156" xlink:href="#DejaVuSans-30"/>
      <use x="159.033203" xlink:href="#DejaVuSans-34"/>
      <use x="222.65625" xlink:href="#DejaVuSans-33"/>
      <use x="286.279297" xlink:href="#DejaVuSans-39"/>
      <use x="349.902344" xlink:href="#DejaVuSans-30"/>
      <use x="413.525391" xlink:href="#DejaVuSans-32"/>
      <use x="477.148438" xlink:href="#DejaVuSans-34"/>
      <use x="540.771484" xlink:href="#DejaVuSans-33"/>
      <use x="604.394531" xlink:href="#DejaVuSans-39"/>
      <use x="668.017578" xlink:href="#DejaVuSans-30"/>
      <use x="731.640625" xlink:href="#DejaVuSans-32"/>
      <use x="795.263672" xlink:href="#DejaVuSans-34"/>
      <use x="858.886719" xlink:href="#DejaVuSans-33"/>
      <use x="922.509766" xlink:href="#DejaVuSans-39"/>
      <use x="986.132812" xlink:href="#DejaVuSans-30"/>
      <use x="1049.755859" xlink:href="#DejaVuSans-32"/>
      <use x="1113.378906" xlink:href="#DejaVuSans-34"/>
     </g>
    </g>
    <g id="PathCollection_21">
     <defs>
      <path d="M 0 2.848468 
C 0.755423 2.848468 1.480007 2.548336 2.014171 2.014171 
C 2.548336 1.480007 2.848468 0.755423 2.848468 0 
C 2.848468 -0.755423 2.548336 -1.480007 2.014171 -2.014171 
C 1.480007 -2.548336 0.755423 -2.848468 0 -2.848468 
C -0.755423 -2.848468 -1.480007 -2.548336 -2.014171 -2.014171 
C -2.548336 -1.480007 -2.848468 -0.755423 -2.848468 0 
C -2.848468 0.755423 -2.548336 1.480007 -2.014171 2.014171 
C -1.480007 2.548336 -0.755423 2.848468 0 2.848468 
z
" id="m35e6ad483a" style="stroke:#333333;"/>
     </defs>
     <g>
      <use style="fill:#333333;stroke:#333333;" x="535.937187" xlink:href="#m35e6ad483a" y="183.072812"/>
     </g>
    </g>
    <g id="text_25">
     <!-- 0.1024390243902439 -->
     <g transform="translate(553.937187 185.697812)scale(0.1 -0.1)">
      <use xlink:href="#DejaVuSans-30"/>
      <use x="63.623047" xlink:href="#DejaVuSans-2e"/>
      <use x="95.410156" xlink:href="#DejaVuSans-31"/>
      <use x="159.033203" xlink:href="#DejaVuSans-30"/>
      <use x="222.65625" xlink:href="#DejaVuSans-32"/>
      <use x="286.279297" xlink:href="#DejaVuSans-34"/>
      <use x="349.902344" xlink:href="#DejaVuSans-33"/>
      <use x="413.525391" xlink:href="#DejaVuSans-39"/>
      <use x="477.148438" xlink:href="#DejaVuSans-30"/>
      <use x="540.771484" xlink:href="#DejaVuSans-32"/>
      <use x="604.394531" xlink:href="#DejaVuSans-34"/>
      <use x="668.017578" xlink:href="#DejaVuSans-33"/>
      <use x="731.640625" xlink:href="#DejaVuSans-39"/>
      <use x="795.263672" xlink:href="#DejaVuSans-30"/>
      <use x="858.886719" xlink:href="#DejaVuSans-32"/>
      <use x="922.509766" xlink:href="#DejaVuSans-34"/>
      <use x="986.132812" xlink:href="#DejaVuSans-33"/>
      <use x="1049.755859" xlink:href="#DejaVuSans-39"/>
     </g>
    </g>
    <g id="PathCollection_22">
     <defs>
      <path d="M 0 3.464966 
C 0.91892 3.464966 1.800326 3.099875 2.450101 2.450101 
C 3.099875 1.800326 3.464966 0.91892 3.464966 0 
C 3.464966 -0.91892 3.099875 -1.800326 2.450101 -2.450101 
C 1.800326 -3.099875 0.91892 -3.464966 0 -3.464966 
C -0.91892 -3.464966 -1.800326 -3.099875 -2.450101 -2.450101 
C -3.099875 -1.800326 -3.464966 -0.91892 -3.464966 0 
C -3.464966 0.91892 -3.099875 1.800326 -2.450101 2.450101 
C -1.800326 3.099875 -0.91892 3.464966 0 3.464966 
z
" id="mf625473e1c" style="stroke:#333333;"/>
     </defs>
     <g>
      <use style="fill:#333333;stroke:#333333;" x="535.937187" xlink:href="#mf625473e1c" y="197.750937"/>
     </g>
    </g>
    <g id="text_26">
     <!-- 0.2 -->
     <g transform="translate(553.937187 200.375937)scale(0.1 -0.1)">
      <use xlink:href="#DejaVuSans-30"/>
      <use x="63.623047" xlink:href="#DejaVuSans-2e"/>
      <use x="95.410156" xlink:href="#DejaVuSans-32"/>
     </g>
    </g>
    <g id="PathCollection_23">
     <defs>
      <path d="M 0 6.123724 
C 1.624031 6.123724 3.181764 5.47849 4.330127 4.330127 
C 5.47849 3.181764 6.123724 1.624031 6.123724 0 
C 6.123724 -1.624031 5.47849 -3.181764 4.330127 -4.330127 
C 3.181764 -5.47849 1.624031 -6.123724 0 -6.123724 
C -1.624031 -6.123724 -3.181764 -5.47849 -4.330127 -4.330127 
C -5.47849 -3.181764 -6.123724 -1.624031 -6.123724 0 
C -6.123724 1.624031 -5.47849 3.181764 -4.330127 4.330127 
C -3.181764 5.47849 -1.624031 6.123724 0 6.123724 
z
" id="macdf384446" style="stroke:#333333;"/>
     </defs>
     <g>
      <use style="fill:#333333;stroke:#333333;" x="535.937187" xlink:href="#macdf384446" y="212.429062"/>
     </g>
    </g>
    <g id="text_27">
     <!-- 0.8390243902439024 -->
     <g transform="translate(553.937187 215.054062)scale(0.1 -0.1)">
      <use xlink:href="#DejaVuSans-30"/>
      <use x="63.623047" xlink:href="#DejaVuSans-2e"/>
      <use x="95.410156" xlink:href="#DejaVuSans-38"/>
      <use x="159.033203" xlink:href="#DejaVuSans-33"/>
      <use x="222.65625" xlink:href="#DejaVuSans-39"/>
      <use x="286.279297" xlink:href="#DejaVuSans-30"/>
      <use x="349.902344" xlink:href="#DejaVuSans-32"/>
      <use x="413.525391" xlink:href="#DejaVuSans-34"/>
      <use x="477.148438" xlink:href="#DejaVuSans-33"/>
      <use x="540.771484" xlink:href="#DejaVuSans-39"/>
      <use x="604.394531" xlink:href="#DejaVuSans-30"/>
      <use x="668.017578" xlink:href="#DejaVuSans-32"/>
      <use x="731.640625" xlink:href="#DejaVuSans-34"/>
      <use x="795.263672" xlink:href="#DejaVuSans-33"/>
      <use x="858.886719" xlink:href="#DejaVuSans-39"/>
      <use x="922.509766" xlink:href="#DejaVuSans-30"/>
      <use x="986.132812" xlink:href="#DejaVuSans-32"/>
      <use x="1049.755859" xlink:href="#DejaVuSans-34"/>
     </g>
    </g>
   </g>
  </g>
 </g>
 <defs>
  <clipPath id="pc30ef3c919">
   <rect height="266.112" width="357.12" x="159.817187" y="22.318125"/>
  </clipPath>
 </defs>
</svg>
