<?xml version="1.0" encoding="utf-8" standalone="no"?>
<!DOCTYPE svg PUBLIC "-//W3C//DTD SVG 1.1//EN"
  "http://www.w3.org/Graphics/SVG/1.1/DTD/svg11.dtd">
<svg height="325.986375pt" version="1.1" viewBox="0 0 719.266875 325.986375" width="719.266875pt" xmlns="http://www.w3.org/2000/svg" xmlns:xlink="http://www.w3.org/1999/xlink">
 <metadata>
  <rdf:RDF xmlns:cc="http://creativecommons.org/ns#" xmlns:dc="http://purl.org/dc/elements/1.1/" xmlns:rdf="http://www.w3.org/1999/02/22-rdf-syntax-ns#">
   <cc:Work>
    <dc:type rdf:resource="http://purl.org/dc/dcmitype/StillImage"/>
    <dc:date>2022-03-10T23:19:13.979826</dc:date>
    <dc:format>image/svg+xml</dc:format>
    <dc:creator>
     <cc:Agent>
      <dc:title>Matplotlib v3.4.3, https://matplotlib.org/</dc:title>
     </cc:Agent>
    </dc:creator>
   </cc:Work>
  </rdf:RDF>
 </metadata>
 <defs>
  <style type="text/css">*{stroke-linecap:butt;stroke-linejoin:round;}</style>
 </defs>
 <g id="figure_1">
  <g id="patch_1">
   <path d="M 0 325.986375 
L 719.266875 325.986375 
L 719.266875 0 
L 0 0 
z
" style="fill:#ffffff;"/>
  </g>
  <g id="axes_1">
   <g id="patch_2">
    <path d="M 258.707812 288.430125 
L 615.827812 288.430125 
L 615.827812 22.318125 
L 258.707812 22.318125 
z
" style="fill:#ffffff;"/>
   </g>
   <g id="PathCollection_1">
    <path clip-path="url(#p666d43e4c6)" d="M 599.595085 38.0854 
C 600.568719 38.0854 601.502606 37.698571 602.191069 37.010109 
C 602.879532 36.321646 603.26636 35.387759 603.26636 34.414125 
C 603.26636 33.440491 602.879532 32.506604 602.191069 31.818141 
C 601.502606 31.129679 600.568719 30.74285 599.595085 30.74285 
C 598.621452 30.74285 597.687565 31.129679 596.999102 31.818141 
C 596.310639 32.506604 595.92381 33.440491 595.92381 34.414125 
C 595.92381 35.387759 596.310639 36.321646 596.999102 37.010109 
C 597.687565 37.698571 598.621452 38.0854 599.595085 38.0854 
z
" style="fill:#b2ccfb;stroke:#ffffff;stroke-width:0.486335;"/>
    <path clip-path="url(#p666d43e4c6)" d="M 519.68012 50.620259 
C 520.601304 50.620259 521.484882 50.254269 522.136257 49.602894 
C 522.787632 48.951518 523.153622 48.06794 523.153622 47.146757 
C 523.153622 46.225573 522.787632 45.341995 522.136257 44.69062 
C 521.484882 44.039245 520.601304 43.673254 519.68012 43.673254 
C 518.758937 43.673254 517.875358 44.039245 517.223983 44.69062 
C 516.572608 45.341995 516.206618 46.225573 516.206618 47.146757 
C 516.206618 48.06794 516.572608 48.951518 517.223983 49.602894 
C 517.875358 50.254269 518.758937 50.620259 519.68012 50.620259 
z
" style="fill:#93b5fe;stroke:#ffffff;stroke-width:0.486335;"/>
    <path clip-path="url(#p666d43e4c6)" d="M 499.701379 62.918982 
C 500.507489 62.918982 501.280691 62.598711 501.850696 62.028706 
C 502.420702 61.4587 502.740973 60.685498 502.740973 59.879388 
C 502.740973 59.073278 502.420702 58.300076 501.850696 57.730071 
C 501.280691 57.160065 500.507489 56.839794 499.701379 56.839794 
C 498.895269 56.839794 498.122067 57.160065 497.552062 57.730071 
C 496.982056 58.300076 496.661785 59.073278 496.661785 59.879388 
C 496.661785 60.685498 496.982056 61.4587 497.552062 62.028706 
C 498.122067 62.598711 498.895269 62.918982 499.701379 62.918982 
z
" style="fill:#6e90f2;stroke:#ffffff;stroke-width:0.486335;"/>
    <path clip-path="url(#p666d43e4c6)" d="M 499.701379 75.651614 
C 500.507489 75.651614 501.280691 75.331343 501.850696 74.761337 
C 502.420702 74.191331 502.740973 73.418129 502.740973 72.61202 
C 502.740973 71.80591 502.420702 71.032708 501.850696 70.462702 
C 501.280691 69.892697 500.507489 69.572426 499.701379 69.572426 
C 498.895269 69.572426 498.122067 69.892697 497.552062 70.462702 
C 496.982056 71.032708 496.661785 71.80591 496.661785 72.61202 
C 496.661785 73.418129 496.982056 74.191331 497.552062 74.761337 
C 498.122067 75.331343 498.895269 75.651614 499.701379 75.651614 
z
" style="fill:#6e90f2;stroke:#ffffff;stroke-width:0.486335;"/>
    <path clip-path="url(#p666d43e4c6)" d="M 485.430849 89.382516 
C 486.501704 89.382516 487.528842 88.957061 488.286051 88.199853 
C 489.043259 87.442644 489.468714 86.415505 489.468714 85.344651 
C 489.468714 84.273797 489.043259 83.246658 488.286051 82.48945 
C 487.528842 81.732242 486.501704 81.306787 485.430849 81.306787 
C 484.359995 81.306787 483.332856 81.732242 482.575648 82.48945 
C 481.81844 83.246658 481.392985 84.273797 481.392985 85.344651 
C 481.392985 86.415505 481.81844 87.442644 482.575648 88.199853 
C 483.332856 88.957061 484.359995 89.382516 485.430849 89.382516 
z
" style="fill:#c1d4f4;stroke:#ffffff;stroke-width:0.486335;"/>
    <path clip-path="url(#p666d43e4c6)" d="M 476.648985 101.936208 
C 477.672384 101.936208 478.654005 101.529607 479.377657 100.805955 
C 480.10131 100.082303 480.50791 99.100682 480.50791 98.077283 
C 480.50791 97.053884 480.10131 96.072263 479.377657 95.348611 
C 478.654005 94.624958 477.672384 94.218358 476.648985 94.218358 
C 475.625586 94.218358 474.643965 94.624958 473.920313 95.348611 
C 473.196661 96.072263 472.79006 97.053884 472.79006 98.077283 
C 472.79006 99.100682 473.196661 100.082303 473.920313 100.805955 
C 474.643965 101.529607 475.625586 101.936208 476.648985 101.936208 
z
" style="fill:#b1cbfc;stroke:#ffffff;stroke-width:0.486335;"/>
    <path clip-path="url(#p666d43e4c6)" d="M 476.648985 114.66884 
C 477.672384 114.66884 478.654005 114.262239 479.377657 113.538587 
C 480.10131 112.814934 480.50791 111.833313 480.50791 110.809914 
C 480.50791 109.786516 480.10131 108.804895 479.377657 108.081242 
C 478.654005 107.35759 477.672384 106.950989 476.648985 106.950989 
C 475.625586 106.950989 474.643965 107.35759 473.920313 108.081242 
C 473.196661 108.804895 472.79006 109.786516 472.79006 110.809914 
C 472.79006 111.833313 473.196661 112.814934 473.920313 113.538587 
C 474.643965 114.262239 475.625586 114.66884 476.648985 114.66884 
z
" style="fill:#b1cbfc;stroke:#ffffff;stroke-width:0.486335;"/>
    <path clip-path="url(#p666d43e4c6)" d="M 439.765155 125.778614 
C 440.358167 125.778614 440.926971 125.543008 441.346294 125.123685 
C 441.765617 124.704362 442.001223 124.135558 442.001223 123.542546 
C 442.001223 122.949534 441.765617 122.38073 441.346294 121.961407 
C 440.926971 121.542084 440.358167 121.306478 439.765155 121.306478 
C 439.172143 121.306478 438.603339 121.542084 438.184016 121.961407 
C 437.764693 122.38073 437.529087 122.949534 437.529087 123.542546 
C 437.529087 124.135558 437.764693 124.704362 438.184016 125.123685 
C 438.603339 125.543008 439.172143 125.778614 439.765155 125.778614 
z
" style="fill:#3b4cc0;stroke:#ffffff;stroke-width:0.486335;"/>
    <path clip-path="url(#p666d43e4c6)" d="M 399.807673 139.74868 
C 400.728856 139.74868 401.612434 139.38269 402.26381 138.731315 
C 402.915185 138.079939 403.281175 137.196361 403.281175 136.275178 
C 403.281175 135.353994 402.915185 134.470416 402.26381 133.819041 
C 401.612434 133.167666 400.728856 132.801675 399.807673 132.801675 
C 398.886489 132.801675 398.002911 133.167666 397.351536 133.819041 
C 396.700161 134.470416 396.33417 135.353994 396.33417 136.275178 
C 396.33417 137.196361 396.700161 138.079939 397.351536 138.731315 
C 398.002911 139.38269 398.886489 139.74868 399.807673 139.74868 
z
" style="fill:#84a7fc;stroke:#ffffff;stroke-width:0.486335;"/>
    <path clip-path="url(#p666d43e4c6)" d="M 368.262292 155.131534 
C 369.886322 155.131534 371.444056 154.486299 372.592419 153.337936 
C 373.740782 152.189573 374.386016 150.63184 374.386016 149.007809 
C 374.386016 147.383779 373.740782 145.826045 372.592419 144.677682 
C 371.444056 143.529319 369.886322 142.884085 368.262292 142.884085 
C 366.638261 142.884085 365.080528 143.529319 363.932165 144.677682 
C 362.783802 145.826045 362.138567 147.383779 362.138567 149.007809 
C 362.138567 150.63184 362.783802 152.189573 363.932165 153.337936 
C 365.080528 154.486299 366.638261 155.131534 368.262292 155.131534 
z
" style="fill:#b40426;stroke:#ffffff;stroke-width:0.486335;"/>
    <path clip-path="url(#p666d43e4c6)" d="M 364.55107 165.778305 
C 365.621925 165.778305 366.649063 165.35285 367.406272 164.595642 
C 368.16348 163.838434 368.588935 162.811295 368.588935 161.740441 
C 368.588935 160.669587 368.16348 159.642448 367.406272 158.88524 
C 366.649063 158.128031 365.621925 157.702577 364.55107 157.702577 
C 363.480216 157.702577 362.453077 158.128031 361.695869 158.88524 
C 360.938661 159.642448 360.513206 160.669587 360.513206 161.740441 
C 360.513206 162.811295 360.938661 163.838434 361.695869 164.595642 
C 362.453077 165.35285 363.480216 165.778305 364.55107 165.778305 
z
" style="fill:#aec9fc;stroke:#ffffff;stroke-width:0.486335;"/>
    <path clip-path="url(#p666d43e4c6)" d="M 359.85019 177.512666 
C 360.6563 177.512666 361.429502 177.192395 361.999508 176.62239 
C 362.569513 176.052384 362.889784 175.279182 362.889784 174.473072 
C 362.889784 173.666963 362.569513 172.893761 361.999508 172.323755 
C 361.429502 171.753749 360.6563 171.433479 359.85019 171.433479 
C 359.04408 171.433479 358.270878 171.753749 357.700873 172.323755 
C 357.130867 172.893761 356.810596 173.666963 356.810596 174.473072 
C 356.810596 175.279182 357.130867 176.052384 357.700873 176.62239 
C 358.270878 177.192395 359.04408 177.512666 359.85019 177.512666 
z
" style="fill:#5f7fe8;stroke:#ffffff;stroke-width:0.486335;"/>
    <path clip-path="url(#p666d43e4c6)" d="M 359.85019 190.245298 
C 360.6563 190.245298 361.429502 189.925027 361.999508 189.355021 
C 362.569513 188.785016 362.889784 188.011814 362.889784 187.205704 
C 362.889784 186.399594 362.569513 185.626392 361.999508 185.056387 
C 361.429502 184.486381 360.6563 184.16611 359.85019 184.16611 
C 359.04408 184.16611 358.270878 184.486381 357.700873 185.056387 
C 357.130867 185.626392 356.810596 186.399594 356.810596 187.205704 
C 356.810596 188.011814 357.130867 188.785016 357.700873 189.355021 
C 358.270878 189.925027 359.04408 190.245298 359.85019 190.245298 
z
" style="fill:#5f7fe8;stroke:#ffffff;stroke-width:0.486335;"/>
    <path clip-path="url(#p666d43e4c6)" d="M 356.375626 204.624114 
C 357.618309 204.624114 358.810263 204.130391 359.688972 203.251681 
C 360.567682 202.372972 361.061405 201.181019 361.061405 199.938336 
C 361.061405 198.695652 360.567682 197.503699 359.688972 196.62499 
C 358.810263 195.74628 357.618309 195.252557 356.375626 195.252557 
C 355.132943 195.252557 353.94099 195.74628 353.062281 196.62499 
C 352.183571 197.503699 351.689848 198.695652 351.689848 199.938336 
C 351.689848 201.181019 352.183571 202.372972 353.062281 203.251681 
C 353.94099 204.130391 355.132943 204.624114 356.375626 204.624114 
z
" style="fill:#e0dbd8;stroke:#ffffff;stroke-width:0.486335;"/>
    <path clip-path="url(#p666d43e4c6)" d="M 333.211868 215.934734 
C 334.07743 215.934734 334.907656 215.590843 335.5197 214.978799 
C 336.131744 214.366755 336.475635 213.536528 336.475635 212.670967 
C 336.475635 211.805406 336.131744 210.97518 335.5197 210.363135 
C 334.907656 209.751091 334.07743 209.4072 333.211868 209.4072 
C 332.346307 209.4072 331.516081 209.751091 330.904037 210.363135 
C 330.291993 210.97518 329.948102 211.805406 329.948102 212.670967 
C 329.948102 213.536528 330.291993 214.366755 330.904037 214.978799 
C 331.516081 215.590843 332.346307 215.934734 333.211868 215.934734 
z
" style="fill:#6c8ff1;stroke:#ffffff;stroke-width:0.486335;"/>
    <path clip-path="url(#p666d43e4c6)" d="M 308.995212 228.443192 
C 309.801322 228.443192 310.574524 228.122922 311.14453 227.552916 
C 311.714535 226.98291 312.034806 226.209708 312.034806 225.403599 
C 312.034806 224.597489 311.714535 223.824287 311.14453 223.254281 
C 310.574524 222.684276 309.801322 222.364005 308.995212 222.364005 
C 308.189103 222.364005 307.415901 222.684276 306.845895 223.254281 
C 306.275889 223.824287 305.955619 224.597489 305.955619 225.403599 
C 305.955619 226.209708 306.275889 226.98291 306.845895 227.552916 
C 307.415901 228.122922 308.189103 228.443192 308.995212 228.443192 
z
" style="fill:#5b7ae5;stroke:#ffffff;stroke-width:0.486335;"/>
    <path clip-path="url(#p666d43e4c6)" d="M 308.995212 241.175824 
C 309.801322 241.175824 310.574524 240.855553 311.14453 240.285548 
C 311.714535 239.715542 312.034806 238.94234 312.034806 238.13623 
C 312.034806 237.330121 311.714535 236.556919 311.14453 235.986913 
C 310.574524 235.416907 309.801322 235.096636 308.995212 235.096636 
C 308.189103 235.096636 307.415901 235.416907 306.845895 235.986913 
C 306.275889 236.556919 305.955619 237.330121 305.955619 238.13623 
C 305.955619 238.94234 306.275889 239.715542 306.845895 240.285548 
C 307.415901 240.855553 308.189103 241.175824 308.995212 241.175824 
z
" style="fill:#5b7ae5;stroke:#ffffff;stroke-width:0.486335;"/>
    <path clip-path="url(#p666d43e4c6)" d="M 308.995212 253.908456 
C 309.801322 253.908456 310.574524 253.588185 311.14453 253.018179 
C 311.714535 252.448174 312.034806 251.674972 312.034806 250.868862 
C 312.034806 250.062752 311.714535 249.28955 311.14453 248.719544 
C 310.574524 248.149539 309.801322 247.829268 308.995212 247.829268 
C 308.189103 247.829268 307.415901 248.149539 306.845895 248.719544 
C 306.275889 249.28955 305.955619 250.062752 305.955619 250.868862 
C 305.955619 251.674972 306.275889 252.448174 306.845895 253.018179 
C 307.415901 253.588185 308.189103 253.908456 308.995212 253.908456 
z
" style="fill:#5b7ae5;stroke:#ffffff;stroke-width:0.486335;"/>
    <path clip-path="url(#p666d43e4c6)" d="M 279.935225 267.639358 
C 281.006079 267.639358 282.033218 267.213903 282.790426 266.456695 
C 283.547635 265.699486 283.973089 264.672348 283.973089 263.601493 
C 283.973089 262.530639 283.547635 261.5035 282.790426 260.746292 
C 282.033218 259.989084 281.006079 259.563629 279.935225 259.563629 
C 278.864371 259.563629 277.837232 259.989084 277.080024 260.746292 
C 276.322816 261.5035 275.897361 262.530639 275.897361 263.601493 
C 275.897361 264.672348 276.322816 265.699486 277.080024 266.456695 
C 277.837232 267.213903 278.864371 267.639358 279.935225 267.639358 
z
" style="fill:#9fbfff;stroke:#ffffff;stroke-width:0.486335;"/>
    <path clip-path="url(#p666d43e4c6)" d="M 274.94054 281.452294 
C 276.297894 281.452294 277.599837 280.913011 278.559632 279.953217 
C 279.519426 278.993422 280.058709 277.691479 280.058709 276.334125 
C 280.058709 274.976771 279.519426 273.674828 278.559632 272.715033 
C 277.599837 271.755239 276.297894 271.215956 274.94054 271.215956 
C 273.583186 271.215956 272.281242 271.755239 271.321448 272.715033 
C 270.361653 273.674828 269.822371 274.976771 269.822371 276.334125 
C 269.822371 277.691479 270.361653 278.993422 271.321448 279.953217 
C 272.281242 280.913011 273.583186 281.452294 274.94054 281.452294 
z
" style="fill:#eed0c0;stroke:#ffffff;stroke-width:0.486335;"/>
   </g>
   <g id="PathCollection_2"/>
   <g id="PathCollection_3"/>
   <g id="PathCollection_4"/>
   <g id="PathCollection_5"/>
   <g id="PathCollection_6"/>
   <g id="PathCollection_7"/>
   <g id="PathCollection_8"/>
   <g id="PathCollection_9"/>
   <g id="PathCollection_10"/>
   <g id="PathCollection_11"/>
   <g id="PathCollection_12"/>
   <g id="PathCollection_13"/>
   <g id="matplotlib.axis_1">
    <g id="xtick_1">
     <g id="line2d_1">
      <defs>
       <path d="M 0 0 
L 0 3.5 
" id="m085aa16556" style="stroke:#000000;stroke-width:0.8;"/>
      </defs>
      <g>
       <use style="stroke:#000000;stroke-width:0.8;" x="300.624448" xlink:href="#m085aa16556" y="288.430125"/>
      </g>
     </g>
     <g id="text_1">
      <!-- 27.5 -->
      <g transform="translate(289.491635 303.028562)scale(0.1 -0.1)">
       <defs>
        <path d="M 1228 531 
L 3431 531 
L 3431 0 
L 469 0 
L 469 531 
Q 828 903 1448 1529 
Q 2069 2156 2228 2338 
Q 2531 2678 2651 2914 
Q 2772 3150 2772 3378 
Q 2772 3750 2511 3984 
Q 2250 4219 1831 4219 
Q 1534 4219 1204 4116 
Q 875 4013 500 3803 
L 500 4441 
Q 881 4594 1212 4672 
Q 1544 4750 1819 4750 
Q 2544 4750 2975 4387 
Q 3406 4025 3406 3419 
Q 3406 3131 3298 2873 
Q 3191 2616 2906 2266 
Q 2828 2175 2409 1742 
Q 1991 1309 1228 531 
z
" id="DejaVuSans-32" transform="scale(0.015625)"/>
        <path d="M 525 4666 
L 3525 4666 
L 3525 4397 
L 1831 0 
L 1172 0 
L 2766 4134 
L 525 4134 
L 525 4666 
z
" id="DejaVuSans-37" transform="scale(0.015625)"/>
        <path d="M 684 794 
L 1344 794 
L 1344 0 
L 684 0 
L 684 794 
z
" id="DejaVuSans-2e" transform="scale(0.015625)"/>
        <path d="M 691 4666 
L 3169 4666 
L 3169 4134 
L 1269 4134 
L 1269 2991 
Q 1406 3038 1543 3061 
Q 1681 3084 1819 3084 
Q 2600 3084 3056 2656 
Q 3513 2228 3513 1497 
Q 3513 744 3044 326 
Q 2575 -91 1722 -91 
Q 1428 -91 1123 -41 
Q 819 9 494 109 
L 494 744 
Q 775 591 1075 516 
Q 1375 441 1709 441 
Q 2250 441 2565 725 
Q 2881 1009 2881 1497 
Q 2881 1984 2565 2268 
Q 2250 2553 1709 2553 
Q 1456 2553 1204 2497 
Q 953 2441 691 2322 
L 691 4666 
z
" id="DejaVuSans-35" transform="scale(0.015625)"/>
       </defs>
       <use xlink:href="#DejaVuSans-32"/>
       <use x="63.623047" xlink:href="#DejaVuSans-37"/>
       <use x="127.246094" xlink:href="#DejaVuSans-2e"/>
       <use x="159.033203" xlink:href="#DejaVuSans-35"/>
      </g>
     </g>
    </g>
    <g id="xtick_2">
     <g id="line2d_2">
      <g>
       <use style="stroke:#000000;stroke-width:0.8;" x="346.095267" xlink:href="#m085aa16556" y="288.430125"/>
      </g>
     </g>
     <g id="text_2">
      <!-- 30.0 -->
      <g transform="translate(334.962455 303.028562)scale(0.1 -0.1)">
       <defs>
        <path d="M 2597 2516 
Q 3050 2419 3304 2112 
Q 3559 1806 3559 1356 
Q 3559 666 3084 287 
Q 2609 -91 1734 -91 
Q 1441 -91 1130 -33 
Q 819 25 488 141 
L 488 750 
Q 750 597 1062 519 
Q 1375 441 1716 441 
Q 2309 441 2620 675 
Q 2931 909 2931 1356 
Q 2931 1769 2642 2001 
Q 2353 2234 1838 2234 
L 1294 2234 
L 1294 2753 
L 1863 2753 
Q 2328 2753 2575 2939 
Q 2822 3125 2822 3475 
Q 2822 3834 2567 4026 
Q 2313 4219 1838 4219 
Q 1578 4219 1281 4162 
Q 984 4106 628 3988 
L 628 4550 
Q 988 4650 1302 4700 
Q 1616 4750 1894 4750 
Q 2613 4750 3031 4423 
Q 3450 4097 3450 3541 
Q 3450 3153 3228 2886 
Q 3006 2619 2597 2516 
z
" id="DejaVuSans-33" transform="scale(0.015625)"/>
        <path d="M 2034 4250 
Q 1547 4250 1301 3770 
Q 1056 3291 1056 2328 
Q 1056 1369 1301 889 
Q 1547 409 2034 409 
Q 2525 409 2770 889 
Q 3016 1369 3016 2328 
Q 3016 3291 2770 3770 
Q 2525 4250 2034 4250 
z
M 2034 4750 
Q 2819 4750 3233 4129 
Q 3647 3509 3647 2328 
Q 3647 1150 3233 529 
Q 2819 -91 2034 -91 
Q 1250 -91 836 529 
Q 422 1150 422 2328 
Q 422 3509 836 4129 
Q 1250 4750 2034 4750 
z
" id="DejaVuSans-30" transform="scale(0.015625)"/>
       </defs>
       <use xlink:href="#DejaVuSans-33"/>
       <use x="63.623047" xlink:href="#DejaVuSans-30"/>
       <use x="127.246094" xlink:href="#DejaVuSans-2e"/>
       <use x="159.033203" xlink:href="#DejaVuSans-30"/>
      </g>
     </g>
    </g>
    <g id="xtick_3">
     <g id="line2d_3">
      <g>
       <use style="stroke:#000000;stroke-width:0.8;" x="391.566087" xlink:href="#m085aa16556" y="288.430125"/>
      </g>
     </g>
     <g id="text_3">
      <!-- 32.5 -->
      <g transform="translate(380.433274 303.028562)scale(0.1 -0.1)">
       <use xlink:href="#DejaVuSans-33"/>
       <use x="63.623047" xlink:href="#DejaVuSans-32"/>
       <use x="127.246094" xlink:href="#DejaVuSans-2e"/>
       <use x="159.033203" xlink:href="#DejaVuSans-35"/>
      </g>
     </g>
    </g>
    <g id="xtick_4">
     <g id="line2d_4">
      <g>
       <use style="stroke:#000000;stroke-width:0.8;" x="437.036906" xlink:href="#m085aa16556" y="288.430125"/>
      </g>
     </g>
     <g id="text_4">
      <!-- 35.0 -->
      <g transform="translate(425.904093 303.028562)scale(0.1 -0.1)">
       <use xlink:href="#DejaVuSans-33"/>
       <use x="63.623047" xlink:href="#DejaVuSans-35"/>
       <use x="127.246094" xlink:href="#DejaVuSans-2e"/>
       <use x="159.033203" xlink:href="#DejaVuSans-30"/>
      </g>
     </g>
    </g>
    <g id="xtick_5">
     <g id="line2d_5">
      <g>
       <use style="stroke:#000000;stroke-width:0.8;" x="482.507725" xlink:href="#m085aa16556" y="288.430125"/>
      </g>
     </g>
     <g id="text_5">
      <!-- 37.5 -->
      <g transform="translate(471.374913 303.028562)scale(0.1 -0.1)">
       <use xlink:href="#DejaVuSans-33"/>
       <use x="63.623047" xlink:href="#DejaVuSans-37"/>
       <use x="127.246094" xlink:href="#DejaVuSans-2e"/>
       <use x="159.033203" xlink:href="#DejaVuSans-35"/>
      </g>
     </g>
    </g>
    <g id="xtick_6">
     <g id="line2d_6">
      <g>
       <use style="stroke:#000000;stroke-width:0.8;" x="527.978545" xlink:href="#m085aa16556" y="288.430125"/>
      </g>
     </g>
     <g id="text_6">
      <!-- 40.0 -->
      <g transform="translate(516.845732 303.028562)scale(0.1 -0.1)">
       <defs>
        <path d="M 2419 4116 
L 825 1625 
L 2419 1625 
L 2419 4116 
z
M 2253 4666 
L 3047 4666 
L 3047 1625 
L 3713 1625 
L 3713 1100 
L 3047 1100 
L 3047 0 
L 2419 0 
L 2419 1100 
L 313 1100 
L 313 1709 
L 2253 4666 
z
" id="DejaVuSans-34" transform="scale(0.015625)"/>
       </defs>
       <use xlink:href="#DejaVuSans-34"/>
       <use x="63.623047" xlink:href="#DejaVuSans-30"/>
       <use x="127.246094" xlink:href="#DejaVuSans-2e"/>
       <use x="159.033203" xlink:href="#DejaVuSans-30"/>
      </g>
     </g>
    </g>
    <g id="xtick_7">
     <g id="line2d_7">
      <g>
       <use style="stroke:#000000;stroke-width:0.8;" x="573.449364" xlink:href="#m085aa16556" y="288.430125"/>
      </g>
     </g>
     <g id="text_7">
      <!-- 42.5 -->
      <g transform="translate(562.316552 303.028562)scale(0.1 -0.1)">
       <use xlink:href="#DejaVuSans-34"/>
       <use x="63.623047" xlink:href="#DejaVuSans-32"/>
       <use x="127.246094" xlink:href="#DejaVuSans-2e"/>
       <use x="159.033203" xlink:href="#DejaVuSans-35"/>
      </g>
     </g>
    </g>
    <g id="text_8">
     <!-- Fold Enrichment -->
     <g transform="translate(396.595156 316.706687)scale(0.1 -0.1)">
      <defs>
       <path d="M 628 4666 
L 3309 4666 
L 3309 4134 
L 1259 4134 
L 1259 2759 
L 3109 2759 
L 3109 2228 
L 1259 2228 
L 1259 0 
L 628 0 
L 628 4666 
z
" id="DejaVuSans-46" transform="scale(0.015625)"/>
       <path d="M 1959 3097 
Q 1497 3097 1228 2736 
Q 959 2375 959 1747 
Q 959 1119 1226 758 
Q 1494 397 1959 397 
Q 2419 397 2687 759 
Q 2956 1122 2956 1747 
Q 2956 2369 2687 2733 
Q 2419 3097 1959 3097 
z
M 1959 3584 
Q 2709 3584 3137 3096 
Q 3566 2609 3566 1747 
Q 3566 888 3137 398 
Q 2709 -91 1959 -91 
Q 1206 -91 779 398 
Q 353 888 353 1747 
Q 353 2609 779 3096 
Q 1206 3584 1959 3584 
z
" id="DejaVuSans-6f" transform="scale(0.015625)"/>
       <path d="M 603 4863 
L 1178 4863 
L 1178 0 
L 603 0 
L 603 4863 
z
" id="DejaVuSans-6c" transform="scale(0.015625)"/>
       <path d="M 2906 2969 
L 2906 4863 
L 3481 4863 
L 3481 0 
L 2906 0 
L 2906 525 
Q 2725 213 2448 61 
Q 2172 -91 1784 -91 
Q 1150 -91 751 415 
Q 353 922 353 1747 
Q 353 2572 751 3078 
Q 1150 3584 1784 3584 
Q 2172 3584 2448 3432 
Q 2725 3281 2906 2969 
z
M 947 1747 
Q 947 1113 1208 752 
Q 1469 391 1925 391 
Q 2381 391 2643 752 
Q 2906 1113 2906 1747 
Q 2906 2381 2643 2742 
Q 2381 3103 1925 3103 
Q 1469 3103 1208 2742 
Q 947 2381 947 1747 
z
" id="DejaVuSans-64" transform="scale(0.015625)"/>
       <path id="DejaVuSans-20" transform="scale(0.015625)"/>
       <path d="M 628 4666 
L 3578 4666 
L 3578 4134 
L 1259 4134 
L 1259 2753 
L 3481 2753 
L 3481 2222 
L 1259 2222 
L 1259 531 
L 3634 531 
L 3634 0 
L 628 0 
L 628 4666 
z
" id="DejaVuSans-45" transform="scale(0.015625)"/>
       <path d="M 3513 2113 
L 3513 0 
L 2938 0 
L 2938 2094 
Q 2938 2591 2744 2837 
Q 2550 3084 2163 3084 
Q 1697 3084 1428 2787 
Q 1159 2491 1159 1978 
L 1159 0 
L 581 0 
L 581 3500 
L 1159 3500 
L 1159 2956 
Q 1366 3272 1645 3428 
Q 1925 3584 2291 3584 
Q 2894 3584 3203 3211 
Q 3513 2838 3513 2113 
z
" id="DejaVuSans-6e" transform="scale(0.015625)"/>
       <path d="M 2631 2963 
Q 2534 3019 2420 3045 
Q 2306 3072 2169 3072 
Q 1681 3072 1420 2755 
Q 1159 2438 1159 1844 
L 1159 0 
L 581 0 
L 581 3500 
L 1159 3500 
L 1159 2956 
Q 1341 3275 1631 3429 
Q 1922 3584 2338 3584 
Q 2397 3584 2469 3576 
Q 2541 3569 2628 3553 
L 2631 2963 
z
" id="DejaVuSans-72" transform="scale(0.015625)"/>
       <path d="M 603 3500 
L 1178 3500 
L 1178 0 
L 603 0 
L 603 3500 
z
M 603 4863 
L 1178 4863 
L 1178 4134 
L 603 4134 
L 603 4863 
z
" id="DejaVuSans-69" transform="scale(0.015625)"/>
       <path d="M 3122 3366 
L 3122 2828 
Q 2878 2963 2633 3030 
Q 2388 3097 2138 3097 
Q 1578 3097 1268 2742 
Q 959 2388 959 1747 
Q 959 1106 1268 751 
Q 1578 397 2138 397 
Q 2388 397 2633 464 
Q 2878 531 3122 666 
L 3122 134 
Q 2881 22 2623 -34 
Q 2366 -91 2075 -91 
Q 1284 -91 818 406 
Q 353 903 353 1747 
Q 353 2603 823 3093 
Q 1294 3584 2113 3584 
Q 2378 3584 2631 3529 
Q 2884 3475 3122 3366 
z
" id="DejaVuSans-63" transform="scale(0.015625)"/>
       <path d="M 3513 2113 
L 3513 0 
L 2938 0 
L 2938 2094 
Q 2938 2591 2744 2837 
Q 2550 3084 2163 3084 
Q 1697 3084 1428 2787 
Q 1159 2491 1159 1978 
L 1159 0 
L 581 0 
L 581 4863 
L 1159 4863 
L 1159 2956 
Q 1366 3272 1645 3428 
Q 1925 3584 2291 3584 
Q 2894 3584 3203 3211 
Q 3513 2838 3513 2113 
z
" id="DejaVuSans-68" transform="scale(0.015625)"/>
       <path d="M 3328 2828 
Q 3544 3216 3844 3400 
Q 4144 3584 4550 3584 
Q 5097 3584 5394 3201 
Q 5691 2819 5691 2113 
L 5691 0 
L 5113 0 
L 5113 2094 
Q 5113 2597 4934 2840 
Q 4756 3084 4391 3084 
Q 3944 3084 3684 2787 
Q 3425 2491 3425 1978 
L 3425 0 
L 2847 0 
L 2847 2094 
Q 2847 2600 2669 2842 
Q 2491 3084 2119 3084 
Q 1678 3084 1418 2786 
Q 1159 2488 1159 1978 
L 1159 0 
L 581 0 
L 581 3500 
L 1159 3500 
L 1159 2956 
Q 1356 3278 1631 3431 
Q 1906 3584 2284 3584 
Q 2666 3584 2933 3390 
Q 3200 3197 3328 2828 
z
" id="DejaVuSans-6d" transform="scale(0.015625)"/>
       <path d="M 3597 1894 
L 3597 1613 
L 953 1613 
Q 991 1019 1311 708 
Q 1631 397 2203 397 
Q 2534 397 2845 478 
Q 3156 559 3463 722 
L 3463 178 
Q 3153 47 2828 -22 
Q 2503 -91 2169 -91 
Q 1331 -91 842 396 
Q 353 884 353 1716 
Q 353 2575 817 3079 
Q 1281 3584 2069 3584 
Q 2775 3584 3186 3129 
Q 3597 2675 3597 1894 
z
M 3022 2063 
Q 3016 2534 2758 2815 
Q 2500 3097 2075 3097 
Q 1594 3097 1305 2825 
Q 1016 2553 972 2059 
L 3022 2063 
z
" id="DejaVuSans-65" transform="scale(0.015625)"/>
       <path d="M 1172 4494 
L 1172 3500 
L 2356 3500 
L 2356 3053 
L 1172 3053 
L 1172 1153 
Q 1172 725 1289 603 
Q 1406 481 1766 481 
L 2356 481 
L 2356 0 
L 1766 0 
Q 1100 0 847 248 
Q 594 497 594 1153 
L 594 3053 
L 172 3053 
L 172 3500 
L 594 3500 
L 594 4494 
L 1172 4494 
z
" id="DejaVuSans-74" transform="scale(0.015625)"/>
      </defs>
      <use xlink:href="#DejaVuSans-46"/>
      <use x="53.894531" xlink:href="#DejaVuSans-6f"/>
      <use x="115.076172" xlink:href="#DejaVuSans-6c"/>
      <use x="142.859375" xlink:href="#DejaVuSans-64"/>
      <use x="206.335938" xlink:href="#DejaVuSans-20"/>
      <use x="238.123047" xlink:href="#DejaVuSans-45"/>
      <use x="301.306641" xlink:href="#DejaVuSans-6e"/>
      <use x="364.685547" xlink:href="#DejaVuSans-72"/>
      <use x="405.798828" xlink:href="#DejaVuSans-69"/>
      <use x="433.582031" xlink:href="#DejaVuSans-63"/>
      <use x="488.5625" xlink:href="#DejaVuSans-68"/>
      <use x="551.941406" xlink:href="#DejaVuSans-6d"/>
      <use x="649.353516" xlink:href="#DejaVuSans-65"/>
      <use x="710.876953" xlink:href="#DejaVuSans-6e"/>
      <use x="774.255859" xlink:href="#DejaVuSans-74"/>
     </g>
    </g>
   </g>
   <g id="matplotlib.axis_2">
    <g id="ytick_1">
     <g id="line2d_8">
      <defs>
       <path d="M 0 0 
L -3.5 0 
" id="meed74a4ba0" style="stroke:#000000;stroke-width:0.8;"/>
      </defs>
      <g>
       <use style="stroke:#000000;stroke-width:0.8;" x="258.707812" xlink:href="#meed74a4ba0" y="34.414125"/>
      </g>
     </g>
     <g id="text_9">
      <!-- Negativism -->
      <g transform="translate(195.251562 38.213344)scale(0.1 -0.1)">
       <defs>
        <path d="M 628 4666 
L 1478 4666 
L 3547 763 
L 3547 4666 
L 4159 4666 
L 4159 0 
L 3309 0 
L 1241 3903 
L 1241 0 
L 628 0 
L 628 4666 
z
" id="DejaVuSans-4e" transform="scale(0.015625)"/>
        <path d="M 2906 1791 
Q 2906 2416 2648 2759 
Q 2391 3103 1925 3103 
Q 1463 3103 1205 2759 
Q 947 2416 947 1791 
Q 947 1169 1205 825 
Q 1463 481 1925 481 
Q 2391 481 2648 825 
Q 2906 1169 2906 1791 
z
M 3481 434 
Q 3481 -459 3084 -895 
Q 2688 -1331 1869 -1331 
Q 1566 -1331 1297 -1286 
Q 1028 -1241 775 -1147 
L 775 -588 
Q 1028 -725 1275 -790 
Q 1522 -856 1778 -856 
Q 2344 -856 2625 -561 
Q 2906 -266 2906 331 
L 2906 616 
Q 2728 306 2450 153 
Q 2172 0 1784 0 
Q 1141 0 747 490 
Q 353 981 353 1791 
Q 353 2603 747 3093 
Q 1141 3584 1784 3584 
Q 2172 3584 2450 3431 
Q 2728 3278 2906 2969 
L 2906 3500 
L 3481 3500 
L 3481 434 
z
" id="DejaVuSans-67" transform="scale(0.015625)"/>
        <path d="M 2194 1759 
Q 1497 1759 1228 1600 
Q 959 1441 959 1056 
Q 959 750 1161 570 
Q 1363 391 1709 391 
Q 2188 391 2477 730 
Q 2766 1069 2766 1631 
L 2766 1759 
L 2194 1759 
z
M 3341 1997 
L 3341 0 
L 2766 0 
L 2766 531 
Q 2569 213 2275 61 
Q 1981 -91 1556 -91 
Q 1019 -91 701 211 
Q 384 513 384 1019 
Q 384 1609 779 1909 
Q 1175 2209 1959 2209 
L 2766 2209 
L 2766 2266 
Q 2766 2663 2505 2880 
Q 2244 3097 1772 3097 
Q 1472 3097 1187 3025 
Q 903 2953 641 2809 
L 641 3341 
Q 956 3463 1253 3523 
Q 1550 3584 1831 3584 
Q 2591 3584 2966 3190 
Q 3341 2797 3341 1997 
z
" id="DejaVuSans-61" transform="scale(0.015625)"/>
        <path d="M 191 3500 
L 800 3500 
L 1894 563 
L 2988 3500 
L 3597 3500 
L 2284 0 
L 1503 0 
L 191 3500 
z
" id="DejaVuSans-76" transform="scale(0.015625)"/>
        <path d="M 2834 3397 
L 2834 2853 
Q 2591 2978 2328 3040 
Q 2066 3103 1784 3103 
Q 1356 3103 1142 2972 
Q 928 2841 928 2578 
Q 928 2378 1081 2264 
Q 1234 2150 1697 2047 
L 1894 2003 
Q 2506 1872 2764 1633 
Q 3022 1394 3022 966 
Q 3022 478 2636 193 
Q 2250 -91 1575 -91 
Q 1294 -91 989 -36 
Q 684 19 347 128 
L 347 722 
Q 666 556 975 473 
Q 1284 391 1588 391 
Q 1994 391 2212 530 
Q 2431 669 2431 922 
Q 2431 1156 2273 1281 
Q 2116 1406 1581 1522 
L 1381 1569 
Q 847 1681 609 1914 
Q 372 2147 372 2553 
Q 372 3047 722 3315 
Q 1072 3584 1716 3584 
Q 2034 3584 2315 3537 
Q 2597 3491 2834 3397 
z
" id="DejaVuSans-73" transform="scale(0.015625)"/>
       </defs>
       <use xlink:href="#DejaVuSans-4e"/>
       <use x="74.804688" xlink:href="#DejaVuSans-65"/>
       <use x="136.328125" xlink:href="#DejaVuSans-67"/>
       <use x="199.804688" xlink:href="#DejaVuSans-61"/>
       <use x="261.083984" xlink:href="#DejaVuSans-74"/>
       <use x="300.292969" xlink:href="#DejaVuSans-69"/>
       <use x="328.076172" xlink:href="#DejaVuSans-76"/>
       <use x="387.255859" xlink:href="#DejaVuSans-69"/>
       <use x="415.039062" xlink:href="#DejaVuSans-73"/>
       <use x="467.138672" xlink:href="#DejaVuSans-6d"/>
      </g>
     </g>
    </g>
    <g id="ytick_2">
     <g id="line2d_9">
      <g>
       <use style="stroke:#000000;stroke-width:0.8;" x="258.707812" xlink:href="#meed74a4ba0" y="47.146757"/>
      </g>
     </g>
     <g id="text_10">
      <!-- Leber optic atrophy -->
      <g transform="translate(153.867188 50.945975)scale(0.1 -0.1)">
       <defs>
        <path d="M 628 4666 
L 1259 4666 
L 1259 531 
L 3531 531 
L 3531 0 
L 628 0 
L 628 4666 
z
" id="DejaVuSans-4c" transform="scale(0.015625)"/>
        <path d="M 3116 1747 
Q 3116 2381 2855 2742 
Q 2594 3103 2138 3103 
Q 1681 3103 1420 2742 
Q 1159 2381 1159 1747 
Q 1159 1113 1420 752 
Q 1681 391 2138 391 
Q 2594 391 2855 752 
Q 3116 1113 3116 1747 
z
M 1159 2969 
Q 1341 3281 1617 3432 
Q 1894 3584 2278 3584 
Q 2916 3584 3314 3078 
Q 3713 2572 3713 1747 
Q 3713 922 3314 415 
Q 2916 -91 2278 -91 
Q 1894 -91 1617 61 
Q 1341 213 1159 525 
L 1159 0 
L 581 0 
L 581 4863 
L 1159 4863 
L 1159 2969 
z
" id="DejaVuSans-62" transform="scale(0.015625)"/>
        <path d="M 1159 525 
L 1159 -1331 
L 581 -1331 
L 581 3500 
L 1159 3500 
L 1159 2969 
Q 1341 3281 1617 3432 
Q 1894 3584 2278 3584 
Q 2916 3584 3314 3078 
Q 3713 2572 3713 1747 
Q 3713 922 3314 415 
Q 2916 -91 2278 -91 
Q 1894 -91 1617 61 
Q 1341 213 1159 525 
z
M 3116 1747 
Q 3116 2381 2855 2742 
Q 2594 3103 2138 3103 
Q 1681 3103 1420 2742 
Q 1159 2381 1159 1747 
Q 1159 1113 1420 752 
Q 1681 391 2138 391 
Q 2594 391 2855 752 
Q 3116 1113 3116 1747 
z
" id="DejaVuSans-70" transform="scale(0.015625)"/>
        <path d="M 2059 -325 
Q 1816 -950 1584 -1140 
Q 1353 -1331 966 -1331 
L 506 -1331 
L 506 -850 
L 844 -850 
Q 1081 -850 1212 -737 
Q 1344 -625 1503 -206 
L 1606 56 
L 191 3500 
L 800 3500 
L 1894 763 
L 2988 3500 
L 3597 3500 
L 2059 -325 
z
" id="DejaVuSans-79" transform="scale(0.015625)"/>
       </defs>
       <use xlink:href="#DejaVuSans-4c"/>
       <use x="53.962891" xlink:href="#DejaVuSans-65"/>
       <use x="115.486328" xlink:href="#DejaVuSans-62"/>
       <use x="178.962891" xlink:href="#DejaVuSans-65"/>
       <use x="240.486328" xlink:href="#DejaVuSans-72"/>
       <use x="281.599609" xlink:href="#DejaVuSans-20"/>
       <use x="313.386719" xlink:href="#DejaVuSans-6f"/>
       <use x="374.568359" xlink:href="#DejaVuSans-70"/>
       <use x="438.044922" xlink:href="#DejaVuSans-74"/>
       <use x="477.253906" xlink:href="#DejaVuSans-69"/>
       <use x="505.037109" xlink:href="#DejaVuSans-63"/>
       <use x="560.017578" xlink:href="#DejaVuSans-20"/>
       <use x="591.804688" xlink:href="#DejaVuSans-61"/>
       <use x="653.083984" xlink:href="#DejaVuSans-74"/>
       <use x="692.292969" xlink:href="#DejaVuSans-72"/>
       <use x="731.15625" xlink:href="#DejaVuSans-6f"/>
       <use x="792.337891" xlink:href="#DejaVuSans-70"/>
       <use x="855.814453" xlink:href="#DejaVuSans-68"/>
       <use x="919.193359" xlink:href="#DejaVuSans-79"/>
      </g>
     </g>
    </g>
    <g id="ytick_3">
     <g id="line2d_10">
      <g>
       <use style="stroke:#000000;stroke-width:0.8;" x="258.707812" xlink:href="#meed74a4ba0" y="59.879388"/>
      </g>
     </g>
     <g id="text_11">
      <!-- Abnormality of Krebs cycle metabolism -->
      <g transform="translate(55.59375 63.678607)scale(0.1 -0.1)">
       <defs>
        <path d="M 2188 4044 
L 1331 1722 
L 3047 1722 
L 2188 4044 
z
M 1831 4666 
L 2547 4666 
L 4325 0 
L 3669 0 
L 3244 1197 
L 1141 1197 
L 716 0 
L 50 0 
L 1831 4666 
z
" id="DejaVuSans-41" transform="scale(0.015625)"/>
        <path d="M 2375 4863 
L 2375 4384 
L 1825 4384 
Q 1516 4384 1395 4259 
Q 1275 4134 1275 3809 
L 1275 3500 
L 2222 3500 
L 2222 3053 
L 1275 3053 
L 1275 0 
L 697 0 
L 697 3053 
L 147 3053 
L 147 3500 
L 697 3500 
L 697 3744 
Q 697 4328 969 4595 
Q 1241 4863 1831 4863 
L 2375 4863 
z
" id="DejaVuSans-66" transform="scale(0.015625)"/>
        <path d="M 628 4666 
L 1259 4666 
L 1259 2694 
L 3353 4666 
L 4166 4666 
L 1850 2491 
L 4331 0 
L 3500 0 
L 1259 2247 
L 1259 0 
L 628 0 
L 628 4666 
z
" id="DejaVuSans-4b" transform="scale(0.015625)"/>
       </defs>
       <use xlink:href="#DejaVuSans-41"/>
       <use x="68.408203" xlink:href="#DejaVuSans-62"/>
       <use x="131.884766" xlink:href="#DejaVuSans-6e"/>
       <use x="195.263672" xlink:href="#DejaVuSans-6f"/>
       <use x="256.445312" xlink:href="#DejaVuSans-72"/>
       <use x="295.808594" xlink:href="#DejaVuSans-6d"/>
       <use x="393.220703" xlink:href="#DejaVuSans-61"/>
       <use x="454.5" xlink:href="#DejaVuSans-6c"/>
       <use x="482.283203" xlink:href="#DejaVuSans-69"/>
       <use x="510.066406" xlink:href="#DejaVuSans-74"/>
       <use x="549.275391" xlink:href="#DejaVuSans-79"/>
       <use x="608.455078" xlink:href="#DejaVuSans-20"/>
       <use x="640.242188" xlink:href="#DejaVuSans-6f"/>
       <use x="701.423828" xlink:href="#DejaVuSans-66"/>
       <use x="736.628906" xlink:href="#DejaVuSans-20"/>
       <use x="768.416016" xlink:href="#DejaVuSans-4b"/>
       <use x="833.992188" xlink:href="#DejaVuSans-72"/>
       <use x="872.855469" xlink:href="#DejaVuSans-65"/>
       <use x="934.378906" xlink:href="#DejaVuSans-62"/>
       <use x="997.855469" xlink:href="#DejaVuSans-73"/>
       <use x="1049.955078" xlink:href="#DejaVuSans-20"/>
       <use x="1081.742188" xlink:href="#DejaVuSans-63"/>
       <use x="1136.722656" xlink:href="#DejaVuSans-79"/>
       <use x="1195.902344" xlink:href="#DejaVuSans-63"/>
       <use x="1250.882812" xlink:href="#DejaVuSans-6c"/>
       <use x="1278.666016" xlink:href="#DejaVuSans-65"/>
       <use x="1340.189453" xlink:href="#DejaVuSans-20"/>
       <use x="1371.976562" xlink:href="#DejaVuSans-6d"/>
       <use x="1469.388672" xlink:href="#DejaVuSans-65"/>
       <use x="1530.912109" xlink:href="#DejaVuSans-74"/>
       <use x="1570.121094" xlink:href="#DejaVuSans-61"/>
       <use x="1631.400391" xlink:href="#DejaVuSans-62"/>
       <use x="1694.876953" xlink:href="#DejaVuSans-6f"/>
       <use x="1756.058594" xlink:href="#DejaVuSans-6c"/>
       <use x="1783.841797" xlink:href="#DejaVuSans-69"/>
       <use x="1811.625" xlink:href="#DejaVuSans-73"/>
       <use x="1863.724609" xlink:href="#DejaVuSans-6d"/>
      </g>
     </g>
    </g>
    <g id="ytick_4">
     <g id="line2d_11">
      <g>
       <use style="stroke:#000000;stroke-width:0.8;" x="258.707812" xlink:href="#meed74a4ba0" y="72.61202"/>
      </g>
     </g>
     <g id="text_12">
      <!-- Aplasia/Hypoplasia of the cerebral white matter -->
      <g transform="translate(12.514062 76.411238)scale(0.1 -0.1)">
       <defs>
        <path d="M 1625 4666 
L 2156 4666 
L 531 -594 
L 0 -594 
L 1625 4666 
z
" id="DejaVuSans-2f" transform="scale(0.015625)"/>
        <path d="M 628 4666 
L 1259 4666 
L 1259 2753 
L 3553 2753 
L 3553 4666 
L 4184 4666 
L 4184 0 
L 3553 0 
L 3553 2222 
L 1259 2222 
L 1259 0 
L 628 0 
L 628 4666 
z
" id="DejaVuSans-48" transform="scale(0.015625)"/>
        <path d="M 269 3500 
L 844 3500 
L 1563 769 
L 2278 3500 
L 2956 3500 
L 3675 769 
L 4391 3500 
L 4966 3500 
L 4050 0 
L 3372 0 
L 2619 2869 
L 1863 0 
L 1184 0 
L 269 3500 
z
" id="DejaVuSans-77" transform="scale(0.015625)"/>
       </defs>
       <use xlink:href="#DejaVuSans-41"/>
       <use x="68.408203" xlink:href="#DejaVuSans-70"/>
       <use x="131.884766" xlink:href="#DejaVuSans-6c"/>
       <use x="159.667969" xlink:href="#DejaVuSans-61"/>
       <use x="220.947266" xlink:href="#DejaVuSans-73"/>
       <use x="273.046875" xlink:href="#DejaVuSans-69"/>
       <use x="300.830078" xlink:href="#DejaVuSans-61"/>
       <use x="362.109375" xlink:href="#DejaVuSans-2f"/>
       <use x="395.800781" xlink:href="#DejaVuSans-48"/>
       <use x="470.996094" xlink:href="#DejaVuSans-79"/>
       <use x="530.175781" xlink:href="#DejaVuSans-70"/>
       <use x="593.652344" xlink:href="#DejaVuSans-6f"/>
       <use x="654.833984" xlink:href="#DejaVuSans-70"/>
       <use x="718.310547" xlink:href="#DejaVuSans-6c"/>
       <use x="746.09375" xlink:href="#DejaVuSans-61"/>
       <use x="807.373047" xlink:href="#DejaVuSans-73"/>
       <use x="859.472656" xlink:href="#DejaVuSans-69"/>
       <use x="887.255859" xlink:href="#DejaVuSans-61"/>
       <use x="948.535156" xlink:href="#DejaVuSans-20"/>
       <use x="980.322266" xlink:href="#DejaVuSans-6f"/>
       <use x="1041.503906" xlink:href="#DejaVuSans-66"/>
       <use x="1076.708984" xlink:href="#DejaVuSans-20"/>
       <use x="1108.496094" xlink:href="#DejaVuSans-74"/>
       <use x="1147.705078" xlink:href="#DejaVuSans-68"/>
       <use x="1211.083984" xlink:href="#DejaVuSans-65"/>
       <use x="1272.607422" xlink:href="#DejaVuSans-20"/>
       <use x="1304.394531" xlink:href="#DejaVuSans-63"/>
       <use x="1359.375" xlink:href="#DejaVuSans-65"/>
       <use x="1420.898438" xlink:href="#DejaVuSans-72"/>
       <use x="1459.761719" xlink:href="#DejaVuSans-65"/>
       <use x="1521.285156" xlink:href="#DejaVuSans-62"/>
       <use x="1584.761719" xlink:href="#DejaVuSans-72"/>
       <use x="1625.875" xlink:href="#DejaVuSans-61"/>
       <use x="1687.154297" xlink:href="#DejaVuSans-6c"/>
       <use x="1714.9375" xlink:href="#DejaVuSans-20"/>
       <use x="1746.724609" xlink:href="#DejaVuSans-77"/>
       <use x="1828.511719" xlink:href="#DejaVuSans-68"/>
       <use x="1891.890625" xlink:href="#DejaVuSans-69"/>
       <use x="1919.673828" xlink:href="#DejaVuSans-74"/>
       <use x="1958.882812" xlink:href="#DejaVuSans-65"/>
       <use x="2020.40625" xlink:href="#DejaVuSans-20"/>
       <use x="2052.193359" xlink:href="#DejaVuSans-6d"/>
       <use x="2149.605469" xlink:href="#DejaVuSans-61"/>
       <use x="2210.884766" xlink:href="#DejaVuSans-74"/>
       <use x="2250.09375" xlink:href="#DejaVuSans-74"/>
       <use x="2289.302734" xlink:href="#DejaVuSans-65"/>
       <use x="2350.826172" xlink:href="#DejaVuSans-72"/>
      </g>
     </g>
    </g>
    <g id="ytick_5">
     <g id="line2d_12">
      <g>
       <use style="stroke:#000000;stroke-width:0.8;" x="258.707812" xlink:href="#meed74a4ba0" y="85.344651"/>
      </g>
     </g>
     <g id="text_13">
      <!-- Social and occupational deterioration -->
      <g transform="translate(64.742187 89.14387)scale(0.1 -0.1)">
       <defs>
        <path d="M 3425 4513 
L 3425 3897 
Q 3066 4069 2747 4153 
Q 2428 4238 2131 4238 
Q 1616 4238 1336 4038 
Q 1056 3838 1056 3469 
Q 1056 3159 1242 3001 
Q 1428 2844 1947 2747 
L 2328 2669 
Q 3034 2534 3370 2195 
Q 3706 1856 3706 1288 
Q 3706 609 3251 259 
Q 2797 -91 1919 -91 
Q 1588 -91 1214 -16 
Q 841 59 441 206 
L 441 856 
Q 825 641 1194 531 
Q 1563 422 1919 422 
Q 2459 422 2753 634 
Q 3047 847 3047 1241 
Q 3047 1584 2836 1778 
Q 2625 1972 2144 2069 
L 1759 2144 
Q 1053 2284 737 2584 
Q 422 2884 422 3419 
Q 422 4038 858 4394 
Q 1294 4750 2059 4750 
Q 2388 4750 2728 4690 
Q 3069 4631 3425 4513 
z
" id="DejaVuSans-53" transform="scale(0.015625)"/>
        <path d="M 544 1381 
L 544 3500 
L 1119 3500 
L 1119 1403 
Q 1119 906 1312 657 
Q 1506 409 1894 409 
Q 2359 409 2629 706 
Q 2900 1003 2900 1516 
L 2900 3500 
L 3475 3500 
L 3475 0 
L 2900 0 
L 2900 538 
Q 2691 219 2414 64 
Q 2138 -91 1772 -91 
Q 1169 -91 856 284 
Q 544 659 544 1381 
z
M 1991 3584 
L 1991 3584 
z
" id="DejaVuSans-75" transform="scale(0.015625)"/>
       </defs>
       <use xlink:href="#DejaVuSans-53"/>
       <use x="63.476562" xlink:href="#DejaVuSans-6f"/>
       <use x="124.658203" xlink:href="#DejaVuSans-63"/>
       <use x="179.638672" xlink:href="#DejaVuSans-69"/>
       <use x="207.421875" xlink:href="#DejaVuSans-61"/>
       <use x="268.701172" xlink:href="#DejaVuSans-6c"/>
       <use x="296.484375" xlink:href="#DejaVuSans-20"/>
       <use x="328.271484" xlink:href="#DejaVuSans-61"/>
       <use x="389.550781" xlink:href="#DejaVuSans-6e"/>
       <use x="452.929688" xlink:href="#DejaVuSans-64"/>
       <use x="516.40625" xlink:href="#DejaVuSans-20"/>
       <use x="548.193359" xlink:href="#DejaVuSans-6f"/>
       <use x="609.375" xlink:href="#DejaVuSans-63"/>
       <use x="664.355469" xlink:href="#DejaVuSans-63"/>
       <use x="719.335938" xlink:href="#DejaVuSans-75"/>
       <use x="782.714844" xlink:href="#DejaVuSans-70"/>
       <use x="846.191406" xlink:href="#DejaVuSans-61"/>
       <use x="907.470703" xlink:href="#DejaVuSans-74"/>
       <use x="946.679688" xlink:href="#DejaVuSans-69"/>
       <use x="974.462891" xlink:href="#DejaVuSans-6f"/>
       <use x="1035.644531" xlink:href="#DejaVuSans-6e"/>
       <use x="1099.023438" xlink:href="#DejaVuSans-61"/>
       <use x="1160.302734" xlink:href="#DejaVuSans-6c"/>
       <use x="1188.085938" xlink:href="#DejaVuSans-20"/>
       <use x="1219.873047" xlink:href="#DejaVuSans-64"/>
       <use x="1283.349609" xlink:href="#DejaVuSans-65"/>
       <use x="1344.873047" xlink:href="#DejaVuSans-74"/>
       <use x="1384.082031" xlink:href="#DejaVuSans-65"/>
       <use x="1445.605469" xlink:href="#DejaVuSans-72"/>
       <use x="1486.71875" xlink:href="#DejaVuSans-69"/>
       <use x="1514.501953" xlink:href="#DejaVuSans-6f"/>
       <use x="1575.683594" xlink:href="#DejaVuSans-72"/>
       <use x="1616.796875" xlink:href="#DejaVuSans-61"/>
       <use x="1678.076172" xlink:href="#DejaVuSans-74"/>
       <use x="1717.285156" xlink:href="#DejaVuSans-69"/>
       <use x="1745.068359" xlink:href="#DejaVuSans-6f"/>
       <use x="1806.25" xlink:href="#DejaVuSans-6e"/>
      </g>
     </g>
    </g>
    <g id="ytick_6">
     <g id="line2d_13">
      <g>
       <use style="stroke:#000000;stroke-width:0.8;" x="258.707812" xlink:href="#meed74a4ba0" y="98.077283"/>
      </g>
     </g>
     <g id="text_14">
      <!-- Centrocecal scotoma -->
      <g transform="translate(146.340625 101.876502)scale(0.1 -0.1)">
       <defs>
        <path d="M 4122 4306 
L 4122 3641 
Q 3803 3938 3442 4084 
Q 3081 4231 2675 4231 
Q 1875 4231 1450 3742 
Q 1025 3253 1025 2328 
Q 1025 1406 1450 917 
Q 1875 428 2675 428 
Q 3081 428 3442 575 
Q 3803 722 4122 1019 
L 4122 359 
Q 3791 134 3420 21 
Q 3050 -91 2638 -91 
Q 1578 -91 968 557 
Q 359 1206 359 2328 
Q 359 3453 968 4101 
Q 1578 4750 2638 4750 
Q 3056 4750 3426 4639 
Q 3797 4528 4122 4306 
z
" id="DejaVuSans-43" transform="scale(0.015625)"/>
       </defs>
       <use xlink:href="#DejaVuSans-43"/>
       <use x="69.824219" xlink:href="#DejaVuSans-65"/>
       <use x="131.347656" xlink:href="#DejaVuSans-6e"/>
       <use x="194.726562" xlink:href="#DejaVuSans-74"/>
       <use x="233.935547" xlink:href="#DejaVuSans-72"/>
       <use x="272.798828" xlink:href="#DejaVuSans-6f"/>
       <use x="333.980469" xlink:href="#DejaVuSans-63"/>
       <use x="388.960938" xlink:href="#DejaVuSans-65"/>
       <use x="450.484375" xlink:href="#DejaVuSans-63"/>
       <use x="505.464844" xlink:href="#DejaVuSans-61"/>
       <use x="566.744141" xlink:href="#DejaVuSans-6c"/>
       <use x="594.527344" xlink:href="#DejaVuSans-20"/>
       <use x="626.314453" xlink:href="#DejaVuSans-73"/>
       <use x="678.414062" xlink:href="#DejaVuSans-63"/>
       <use x="733.394531" xlink:href="#DejaVuSans-6f"/>
       <use x="794.576172" xlink:href="#DejaVuSans-74"/>
       <use x="833.785156" xlink:href="#DejaVuSans-6f"/>
       <use x="894.966797" xlink:href="#DejaVuSans-6d"/>
       <use x="992.378906" xlink:href="#DejaVuSans-61"/>
      </g>
     </g>
    </g>
    <g id="ytick_7">
     <g id="line2d_14">
      <g>
       <use style="stroke:#000000;stroke-width:0.8;" x="258.707812" xlink:href="#meed74a4ba0" y="110.809914"/>
      </g>
     </g>
     <g id="text_15">
      <!-- Ventricular preexcitation -->
      <g transform="translate(128.721875 114.609133)scale(0.1 -0.1)">
       <defs>
        <path d="M 1831 0 
L 50 4666 
L 709 4666 
L 2188 738 
L 3669 4666 
L 4325 4666 
L 2547 0 
L 1831 0 
z
" id="DejaVuSans-56" transform="scale(0.015625)"/>
        <path d="M 3513 3500 
L 2247 1797 
L 3578 0 
L 2900 0 
L 1881 1375 
L 863 0 
L 184 0 
L 1544 1831 
L 300 3500 
L 978 3500 
L 1906 2253 
L 2834 3500 
L 3513 3500 
z
" id="DejaVuSans-78" transform="scale(0.015625)"/>
       </defs>
       <use xlink:href="#DejaVuSans-56"/>
       <use x="60.658203" xlink:href="#DejaVuSans-65"/>
       <use x="122.181641" xlink:href="#DejaVuSans-6e"/>
       <use x="185.560547" xlink:href="#DejaVuSans-74"/>
       <use x="224.769531" xlink:href="#DejaVuSans-72"/>
       <use x="265.882812" xlink:href="#DejaVuSans-69"/>
       <use x="293.666016" xlink:href="#DejaVuSans-63"/>
       <use x="348.646484" xlink:href="#DejaVuSans-75"/>
       <use x="412.025391" xlink:href="#DejaVuSans-6c"/>
       <use x="439.808594" xlink:href="#DejaVuSans-61"/>
       <use x="501.087891" xlink:href="#DejaVuSans-72"/>
       <use x="542.201172" xlink:href="#DejaVuSans-20"/>
       <use x="573.988281" xlink:href="#DejaVuSans-70"/>
       <use x="637.464844" xlink:href="#DejaVuSans-72"/>
       <use x="676.328125" xlink:href="#DejaVuSans-65"/>
       <use x="737.851562" xlink:href="#DejaVuSans-65"/>
       <use x="797.625" xlink:href="#DejaVuSans-78"/>
       <use x="855.054688" xlink:href="#DejaVuSans-63"/>
       <use x="910.035156" xlink:href="#DejaVuSans-69"/>
       <use x="937.818359" xlink:href="#DejaVuSans-74"/>
       <use x="977.027344" xlink:href="#DejaVuSans-61"/>
       <use x="1038.306641" xlink:href="#DejaVuSans-74"/>
       <use x="1077.515625" xlink:href="#DejaVuSans-69"/>
       <use x="1105.298828" xlink:href="#DejaVuSans-6f"/>
       <use x="1166.480469" xlink:href="#DejaVuSans-6e"/>
      </g>
     </g>
    </g>
    <g id="ytick_8">
     <g id="line2d_15">
      <g>
       <use style="stroke:#000000;stroke-width:0.8;" x="258.707812" xlink:href="#meed74a4ba0" y="123.542546"/>
      </g>
     </g>
     <g id="text_16">
      <!-- Supranuclear ophthalmoplegia -->
      <g transform="translate(97.55 127.341765)scale(0.1 -0.1)">
       <use xlink:href="#DejaVuSans-53"/>
       <use x="63.476562" xlink:href="#DejaVuSans-75"/>
       <use x="126.855469" xlink:href="#DejaVuSans-70"/>
       <use x="190.332031" xlink:href="#DejaVuSans-72"/>
       <use x="231.445312" xlink:href="#DejaVuSans-61"/>
       <use x="292.724609" xlink:href="#DejaVuSans-6e"/>
       <use x="356.103516" xlink:href="#DejaVuSans-75"/>
       <use x="419.482422" xlink:href="#DejaVuSans-63"/>
       <use x="474.462891" xlink:href="#DejaVuSans-6c"/>
       <use x="502.246094" xlink:href="#DejaVuSans-65"/>
       <use x="563.769531" xlink:href="#DejaVuSans-61"/>
       <use x="625.048828" xlink:href="#DejaVuSans-72"/>
       <use x="666.162109" xlink:href="#DejaVuSans-20"/>
       <use x="697.949219" xlink:href="#DejaVuSans-6f"/>
       <use x="759.130859" xlink:href="#DejaVuSans-70"/>
       <use x="822.607422" xlink:href="#DejaVuSans-68"/>
       <use x="885.986328" xlink:href="#DejaVuSans-74"/>
       <use x="925.195312" xlink:href="#DejaVuSans-68"/>
       <use x="988.574219" xlink:href="#DejaVuSans-61"/>
       <use x="1049.853516" xlink:href="#DejaVuSans-6c"/>
       <use x="1077.636719" xlink:href="#DejaVuSans-6d"/>
       <use x="1175.048828" xlink:href="#DejaVuSans-6f"/>
       <use x="1236.230469" xlink:href="#DejaVuSans-70"/>
       <use x="1299.707031" xlink:href="#DejaVuSans-6c"/>
       <use x="1327.490234" xlink:href="#DejaVuSans-65"/>
       <use x="1389.013672" xlink:href="#DejaVuSans-67"/>
       <use x="1452.490234" xlink:href="#DejaVuSans-69"/>
       <use x="1480.273438" xlink:href="#DejaVuSans-61"/>
      </g>
     </g>
    </g>
    <g id="ytick_9">
     <g id="line2d_16">
      <g>
       <use style="stroke:#000000;stroke-width:0.8;" x="258.707812" xlink:href="#meed74a4ba0" y="136.275178"/>
      </g>
     </g>
     <g id="text_17">
      <!-- Central retinal vessel vascular tortuosity -->
      <g transform="translate(48.71875 140.074396)scale(0.1 -0.1)">
       <use xlink:href="#DejaVuSans-43"/>
       <use x="69.824219" xlink:href="#DejaVuSans-65"/>
       <use x="131.347656" xlink:href="#DejaVuSans-6e"/>
       <use x="194.726562" xlink:href="#DejaVuSans-74"/>
       <use x="233.935547" xlink:href="#DejaVuSans-72"/>
       <use x="275.048828" xlink:href="#DejaVuSans-61"/>
       <use x="336.328125" xlink:href="#DejaVuSans-6c"/>
       <use x="364.111328" xlink:href="#DejaVuSans-20"/>
       <use x="395.898438" xlink:href="#DejaVuSans-72"/>
       <use x="434.761719" xlink:href="#DejaVuSans-65"/>
       <use x="496.285156" xlink:href="#DejaVuSans-74"/>
       <use x="535.494141" xlink:href="#DejaVuSans-69"/>
       <use x="563.277344" xlink:href="#DejaVuSans-6e"/>
       <use x="626.65625" xlink:href="#DejaVuSans-61"/>
       <use x="687.935547" xlink:href="#DejaVuSans-6c"/>
       <use x="715.71875" xlink:href="#DejaVuSans-20"/>
       <use x="747.505859" xlink:href="#DejaVuSans-76"/>
       <use x="806.685547" xlink:href="#DejaVuSans-65"/>
       <use x="868.208984" xlink:href="#DejaVuSans-73"/>
       <use x="920.308594" xlink:href="#DejaVuSans-73"/>
       <use x="972.408203" xlink:href="#DejaVuSans-65"/>
       <use x="1033.931641" xlink:href="#DejaVuSans-6c"/>
       <use x="1061.714844" xlink:href="#DejaVuSans-20"/>
       <use x="1093.501953" xlink:href="#DejaVuSans-76"/>
       <use x="1152.681641" xlink:href="#DejaVuSans-61"/>
       <use x="1213.960938" xlink:href="#DejaVuSans-73"/>
       <use x="1266.060547" xlink:href="#DejaVuSans-63"/>
       <use x="1321.041016" xlink:href="#DejaVuSans-75"/>
       <use x="1384.419922" xlink:href="#DejaVuSans-6c"/>
       <use x="1412.203125" xlink:href="#DejaVuSans-61"/>
       <use x="1473.482422" xlink:href="#DejaVuSans-72"/>
       <use x="1514.595703" xlink:href="#DejaVuSans-20"/>
       <use x="1546.382812" xlink:href="#DejaVuSans-74"/>
       <use x="1585.591797" xlink:href="#DejaVuSans-6f"/>
       <use x="1646.773438" xlink:href="#DejaVuSans-72"/>
       <use x="1687.886719" xlink:href="#DejaVuSans-74"/>
       <use x="1727.095703" xlink:href="#DejaVuSans-75"/>
       <use x="1790.474609" xlink:href="#DejaVuSans-6f"/>
       <use x="1851.65625" xlink:href="#DejaVuSans-73"/>
       <use x="1903.755859" xlink:href="#DejaVuSans-69"/>
       <use x="1931.539062" xlink:href="#DejaVuSans-74"/>
       <use x="1970.748047" xlink:href="#DejaVuSans-79"/>
      </g>
     </g>
    </g>
    <g id="ytick_10">
     <g id="line2d_17">
      <g>
       <use style="stroke:#000000;stroke-width:0.8;" x="258.707812" xlink:href="#meed74a4ba0" y="149.007809"/>
      </g>
     </g>
     <g id="text_18">
      <!-- Abnormal mitochondria in muscle tissue -->
      <g transform="translate(50.110937 152.807028)scale(0.1 -0.1)">
       <use xlink:href="#DejaVuSans-41"/>
       <use x="68.408203" xlink:href="#DejaVuSans-62"/>
       <use x="131.884766" xlink:href="#DejaVuSans-6e"/>
       <use x="195.263672" xlink:href="#DejaVuSans-6f"/>
       <use x="256.445312" xlink:href="#DejaVuSans-72"/>
       <use x="295.808594" xlink:href="#DejaVuSans-6d"/>
       <use x="393.220703" xlink:href="#DejaVuSans-61"/>
       <use x="454.5" xlink:href="#DejaVuSans-6c"/>
       <use x="482.283203" xlink:href="#DejaVuSans-20"/>
       <use x="514.070312" xlink:href="#DejaVuSans-6d"/>
       <use x="611.482422" xlink:href="#DejaVuSans-69"/>
       <use x="639.265625" xlink:href="#DejaVuSans-74"/>
       <use x="678.474609" xlink:href="#DejaVuSans-6f"/>
       <use x="739.65625" xlink:href="#DejaVuSans-63"/>
       <use x="794.636719" xlink:href="#DejaVuSans-68"/>
       <use x="858.015625" xlink:href="#DejaVuSans-6f"/>
       <use x="919.197266" xlink:href="#DejaVuSans-6e"/>
       <use x="982.576172" xlink:href="#DejaVuSans-64"/>
       <use x="1046.052734" xlink:href="#DejaVuSans-72"/>
       <use x="1087.166016" xlink:href="#DejaVuSans-69"/>
       <use x="1114.949219" xlink:href="#DejaVuSans-61"/>
       <use x="1176.228516" xlink:href="#DejaVuSans-20"/>
       <use x="1208.015625" xlink:href="#DejaVuSans-69"/>
       <use x="1235.798828" xlink:href="#DejaVuSans-6e"/>
       <use x="1299.177734" xlink:href="#DejaVuSans-20"/>
       <use x="1330.964844" xlink:href="#DejaVuSans-6d"/>
       <use x="1428.376953" xlink:href="#DejaVuSans-75"/>
       <use x="1491.755859" xlink:href="#DejaVuSans-73"/>
       <use x="1543.855469" xlink:href="#DejaVuSans-63"/>
       <use x="1598.835938" xlink:href="#DejaVuSans-6c"/>
       <use x="1626.619141" xlink:href="#DejaVuSans-65"/>
       <use x="1688.142578" xlink:href="#DejaVuSans-20"/>
       <use x="1719.929688" xlink:href="#DejaVuSans-74"/>
       <use x="1759.138672" xlink:href="#DejaVuSans-69"/>
       <use x="1786.921875" xlink:href="#DejaVuSans-73"/>
       <use x="1839.021484" xlink:href="#DejaVuSans-73"/>
       <use x="1891.121094" xlink:href="#DejaVuSans-75"/>
       <use x="1954.5" xlink:href="#DejaVuSans-65"/>
      </g>
     </g>
    </g>
    <g id="ytick_11">
     <g id="line2d_18">
      <g>
       <use style="stroke:#000000;stroke-width:0.8;" x="258.707812" xlink:href="#meed74a4ba0" y="161.740441"/>
      </g>
     </g>
     <g id="text_19">
      <!-- Mitochondrial inheritance -->
      <g transform="translate(124.115625 165.53966)scale(0.1 -0.1)">
       <defs>
        <path d="M 628 4666 
L 1569 4666 
L 2759 1491 
L 3956 4666 
L 4897 4666 
L 4897 0 
L 4281 0 
L 4281 4097 
L 3078 897 
L 2444 897 
L 1241 4097 
L 1241 0 
L 628 0 
L 628 4666 
z
" id="DejaVuSans-4d" transform="scale(0.015625)"/>
       </defs>
       <use xlink:href="#DejaVuSans-4d"/>
       <use x="86.279297" xlink:href="#DejaVuSans-69"/>
       <use x="114.0625" xlink:href="#DejaVuSans-74"/>
       <use x="153.271484" xlink:href="#DejaVuSans-6f"/>
       <use x="214.453125" xlink:href="#DejaVuSans-63"/>
       <use x="269.433594" xlink:href="#DejaVuSans-68"/>
       <use x="332.8125" xlink:href="#DejaVuSans-6f"/>
       <use x="393.994141" xlink:href="#DejaVuSans-6e"/>
       <use x="457.373047" xlink:href="#DejaVuSans-64"/>
       <use x="520.849609" xlink:href="#DejaVuSans-72"/>
       <use x="561.962891" xlink:href="#DejaVuSans-69"/>
       <use x="589.746094" xlink:href="#DejaVuSans-61"/>
       <use x="651.025391" xlink:href="#DejaVuSans-6c"/>
       <use x="678.808594" xlink:href="#DejaVuSans-20"/>
       <use x="710.595703" xlink:href="#DejaVuSans-69"/>
       <use x="738.378906" xlink:href="#DejaVuSans-6e"/>
       <use x="801.757812" xlink:href="#DejaVuSans-68"/>
       <use x="865.136719" xlink:href="#DejaVuSans-65"/>
       <use x="926.660156" xlink:href="#DejaVuSans-72"/>
       <use x="967.773438" xlink:href="#DejaVuSans-69"/>
       <use x="995.556641" xlink:href="#DejaVuSans-74"/>
       <use x="1034.765625" xlink:href="#DejaVuSans-61"/>
       <use x="1096.044922" xlink:href="#DejaVuSans-6e"/>
       <use x="1159.423828" xlink:href="#DejaVuSans-63"/>
       <use x="1214.404297" xlink:href="#DejaVuSans-65"/>
      </g>
     </g>
    </g>
    <g id="ytick_12">
     <g id="line2d_19">
      <g>
       <use style="stroke:#000000;stroke-width:0.8;" x="258.707812" xlink:href="#meed74a4ba0" y="174.473072"/>
      </g>
     </g>
     <g id="text_20">
      <!-- Multiple glomerular cysts -->
      <g transform="translate(125.26875 178.272291)scale(0.1 -0.1)">
       <use xlink:href="#DejaVuSans-4d"/>
       <use x="86.279297" xlink:href="#DejaVuSans-75"/>
       <use x="149.658203" xlink:href="#DejaVuSans-6c"/>
       <use x="177.441406" xlink:href="#DejaVuSans-74"/>
       <use x="216.650391" xlink:href="#DejaVuSans-69"/>
       <use x="244.433594" xlink:href="#DejaVuSans-70"/>
       <use x="307.910156" xlink:href="#DejaVuSans-6c"/>
       <use x="335.693359" xlink:href="#DejaVuSans-65"/>
       <use x="397.216797" xlink:href="#DejaVuSans-20"/>
       <use x="429.003906" xlink:href="#DejaVuSans-67"/>
       <use x="492.480469" xlink:href="#DejaVuSans-6c"/>
       <use x="520.263672" xlink:href="#DejaVuSans-6f"/>
       <use x="581.445312" xlink:href="#DejaVuSans-6d"/>
       <use x="678.857422" xlink:href="#DejaVuSans-65"/>
       <use x="740.380859" xlink:href="#DejaVuSans-72"/>
       <use x="781.494141" xlink:href="#DejaVuSans-75"/>
       <use x="844.873047" xlink:href="#DejaVuSans-6c"/>
       <use x="872.65625" xlink:href="#DejaVuSans-61"/>
       <use x="933.935547" xlink:href="#DejaVuSans-72"/>
       <use x="975.048828" xlink:href="#DejaVuSans-20"/>
       <use x="1006.835938" xlink:href="#DejaVuSans-63"/>
       <use x="1061.816406" xlink:href="#DejaVuSans-79"/>
       <use x="1120.996094" xlink:href="#DejaVuSans-73"/>
       <use x="1173.095703" xlink:href="#DejaVuSans-74"/>
       <use x="1212.304688" xlink:href="#DejaVuSans-73"/>
      </g>
     </g>
    </g>
    <g id="ytick_13">
     <g id="line2d_20">
      <g>
       <use style="stroke:#000000;stroke-width:0.8;" x="258.707812" xlink:href="#meed74a4ba0" y="187.205704"/>
      </g>
     </g>
     <g id="text_21">
      <!-- Mixed demyelinating and axonal polyneuropathy -->
      <g transform="translate(7.2 191.004923)scale(0.1 -0.1)">
       <use xlink:href="#DejaVuSans-4d"/>
       <use x="86.279297" xlink:href="#DejaVuSans-69"/>
       <use x="114.0625" xlink:href="#DejaVuSans-78"/>
       <use x="170.117188" xlink:href="#DejaVuSans-65"/>
       <use x="231.640625" xlink:href="#DejaVuSans-64"/>
       <use x="295.117188" xlink:href="#DejaVuSans-20"/>
       <use x="326.904297" xlink:href="#DejaVuSans-64"/>
       <use x="390.380859" xlink:href="#DejaVuSans-65"/>
       <use x="451.904297" xlink:href="#DejaVuSans-6d"/>
       <use x="549.316406" xlink:href="#DejaVuSans-79"/>
       <use x="608.496094" xlink:href="#DejaVuSans-65"/>
       <use x="670.019531" xlink:href="#DejaVuSans-6c"/>
       <use x="697.802734" xlink:href="#DejaVuSans-69"/>
       <use x="725.585938" xlink:href="#DejaVuSans-6e"/>
       <use x="788.964844" xlink:href="#DejaVuSans-61"/>
       <use x="850.244141" xlink:href="#DejaVuSans-74"/>
       <use x="889.453125" xlink:href="#DejaVuSans-69"/>
       <use x="917.236328" xlink:href="#DejaVuSans-6e"/>
       <use x="980.615234" xlink:href="#DejaVuSans-67"/>
       <use x="1044.091797" xlink:href="#DejaVuSans-20"/>
       <use x="1075.878906" xlink:href="#DejaVuSans-61"/>
       <use x="1137.158203" xlink:href="#DejaVuSans-6e"/>
       <use x="1200.537109" xlink:href="#DejaVuSans-64"/>
       <use x="1264.013672" xlink:href="#DejaVuSans-20"/>
       <use x="1295.800781" xlink:href="#DejaVuSans-61"/>
       <use x="1357.080078" xlink:href="#DejaVuSans-78"/>
       <use x="1413.134766" xlink:href="#DejaVuSans-6f"/>
       <use x="1474.316406" xlink:href="#DejaVuSans-6e"/>
       <use x="1537.695312" xlink:href="#DejaVuSans-61"/>
       <use x="1598.974609" xlink:href="#DejaVuSans-6c"/>
       <use x="1626.757812" xlink:href="#DejaVuSans-20"/>
       <use x="1658.544922" xlink:href="#DejaVuSans-70"/>
       <use x="1722.021484" xlink:href="#DejaVuSans-6f"/>
       <use x="1783.203125" xlink:href="#DejaVuSans-6c"/>
       <use x="1810.986328" xlink:href="#DejaVuSans-79"/>
       <use x="1870.166016" xlink:href="#DejaVuSans-6e"/>
       <use x="1933.544922" xlink:href="#DejaVuSans-65"/>
       <use x="1995.068359" xlink:href="#DejaVuSans-75"/>
       <use x="2058.447266" xlink:href="#DejaVuSans-72"/>
       <use x="2097.310547" xlink:href="#DejaVuSans-6f"/>
       <use x="2158.492188" xlink:href="#DejaVuSans-70"/>
       <use x="2221.96875" xlink:href="#DejaVuSans-61"/>
       <use x="2283.248047" xlink:href="#DejaVuSans-74"/>
       <use x="2322.457031" xlink:href="#DejaVuSans-68"/>
       <use x="2385.835938" xlink:href="#DejaVuSans-79"/>
      </g>
     </g>
    </g>
    <g id="ytick_14">
     <g id="line2d_21">
      <g>
       <use style="stroke:#000000;stroke-width:0.8;" x="258.707812" xlink:href="#meed74a4ba0" y="199.938336"/>
      </g>
     </g>
     <g id="text_22">
      <!-- Cardiac conduction abnormality -->
      <g transform="translate(92.125 203.737554)scale(0.1 -0.1)">
       <use xlink:href="#DejaVuSans-43"/>
       <use x="69.824219" xlink:href="#DejaVuSans-61"/>
       <use x="131.103516" xlink:href="#DejaVuSans-72"/>
       <use x="170.466797" xlink:href="#DejaVuSans-64"/>
       <use x="233.943359" xlink:href="#DejaVuSans-69"/>
       <use x="261.726562" xlink:href="#DejaVuSans-61"/>
       <use x="323.005859" xlink:href="#DejaVuSans-63"/>
       <use x="377.986328" xlink:href="#DejaVuSans-20"/>
       <use x="409.773438" xlink:href="#DejaVuSans-63"/>
       <use x="464.753906" xlink:href="#DejaVuSans-6f"/>
       <use x="525.935547" xlink:href="#DejaVuSans-6e"/>
       <use x="589.314453" xlink:href="#DejaVuSans-64"/>
       <use x="652.791016" xlink:href="#DejaVuSans-75"/>
       <use x="716.169922" xlink:href="#DejaVuSans-63"/>
       <use x="771.150391" xlink:href="#DejaVuSans-74"/>
       <use x="810.359375" xlink:href="#DejaVuSans-69"/>
       <use x="838.142578" xlink:href="#DejaVuSans-6f"/>
       <use x="899.324219" xlink:href="#DejaVuSans-6e"/>
       <use x="962.703125" xlink:href="#DejaVuSans-20"/>
       <use x="994.490234" xlink:href="#DejaVuSans-61"/>
       <use x="1055.769531" xlink:href="#DejaVuSans-62"/>
       <use x="1119.246094" xlink:href="#DejaVuSans-6e"/>
       <use x="1182.625" xlink:href="#DejaVuSans-6f"/>
       <use x="1243.806641" xlink:href="#DejaVuSans-72"/>
       <use x="1283.169922" xlink:href="#DejaVuSans-6d"/>
       <use x="1380.582031" xlink:href="#DejaVuSans-61"/>
       <use x="1441.861328" xlink:href="#DejaVuSans-6c"/>
       <use x="1469.644531" xlink:href="#DejaVuSans-69"/>
       <use x="1497.427734" xlink:href="#DejaVuSans-74"/>
       <use x="1536.636719" xlink:href="#DejaVuSans-79"/>
      </g>
     </g>
    </g>
    <g id="ytick_15">
     <g id="line2d_22">
      <g>
       <use style="stroke:#000000;stroke-width:0.8;" x="258.707812" xlink:href="#meed74a4ba0" y="212.670967"/>
      </g>
     </g>
     <g id="text_23">
      <!-- Concentric hypertrophic cardiomyopathy -->
      <g transform="translate(46.620312 216.470186)scale(0.1 -0.1)">
       <use xlink:href="#DejaVuSans-43"/>
       <use x="69.824219" xlink:href="#DejaVuSans-6f"/>
       <use x="131.005859" xlink:href="#DejaVuSans-6e"/>
       <use x="194.384766" xlink:href="#DejaVuSans-63"/>
       <use x="249.365234" xlink:href="#DejaVuSans-65"/>
       <use x="310.888672" xlink:href="#DejaVuSans-6e"/>
       <use x="374.267578" xlink:href="#DejaVuSans-74"/>
       <use x="413.476562" xlink:href="#DejaVuSans-72"/>
       <use x="454.589844" xlink:href="#DejaVuSans-69"/>
       <use x="482.373047" xlink:href="#DejaVuSans-63"/>
       <use x="537.353516" xlink:href="#DejaVuSans-20"/>
       <use x="569.140625" xlink:href="#DejaVuSans-68"/>
       <use x="632.519531" xlink:href="#DejaVuSans-79"/>
       <use x="691.699219" xlink:href="#DejaVuSans-70"/>
       <use x="755.175781" xlink:href="#DejaVuSans-65"/>
       <use x="816.699219" xlink:href="#DejaVuSans-72"/>
       <use x="857.8125" xlink:href="#DejaVuSans-74"/>
       <use x="897.021484" xlink:href="#DejaVuSans-72"/>
       <use x="935.884766" xlink:href="#DejaVuSans-6f"/>
       <use x="997.066406" xlink:href="#DejaVuSans-70"/>
       <use x="1060.542969" xlink:href="#DejaVuSans-68"/>
       <use x="1123.921875" xlink:href="#DejaVuSans-69"/>
       <use x="1151.705078" xlink:href="#DejaVuSans-63"/>
       <use x="1206.685547" xlink:href="#DejaVuSans-20"/>
       <use x="1238.472656" xlink:href="#DejaVuSans-63"/>
       <use x="1293.453125" xlink:href="#DejaVuSans-61"/>
       <use x="1354.732422" xlink:href="#DejaVuSans-72"/>
       <use x="1394.095703" xlink:href="#DejaVuSans-64"/>
       <use x="1457.572266" xlink:href="#DejaVuSans-69"/>
       <use x="1485.355469" xlink:href="#DejaVuSans-6f"/>
       <use x="1546.537109" xlink:href="#DejaVuSans-6d"/>
       <use x="1643.949219" xlink:href="#DejaVuSans-79"/>
       <use x="1703.128906" xlink:href="#DejaVuSans-6f"/>
       <use x="1764.310547" xlink:href="#DejaVuSans-70"/>
       <use x="1827.787109" xlink:href="#DejaVuSans-61"/>
       <use x="1889.066406" xlink:href="#DejaVuSans-74"/>
       <use x="1928.275391" xlink:href="#DejaVuSans-68"/>
       <use x="1991.654297" xlink:href="#DejaVuSans-79"/>
      </g>
     </g>
    </g>
    <g id="ytick_16">
     <g id="line2d_23">
      <g>
       <use style="stroke:#000000;stroke-width:0.8;" x="258.707812" xlink:href="#meed74a4ba0" y="225.403599"/>
      </g>
     </g>
     <g id="text_24">
      <!-- Abnormal speech prosody -->
      <g transform="translate(121.475 229.202817)scale(0.1 -0.1)">
       <use xlink:href="#DejaVuSans-41"/>
       <use x="68.408203" xlink:href="#DejaVuSans-62"/>
       <use x="131.884766" xlink:href="#DejaVuSans-6e"/>
       <use x="195.263672" xlink:href="#DejaVuSans-6f"/>
       <use x="256.445312" xlink:href="#DejaVuSans-72"/>
       <use x="295.808594" xlink:href="#DejaVuSans-6d"/>
       <use x="393.220703" xlink:href="#DejaVuSans-61"/>
       <use x="454.5" xlink:href="#DejaVuSans-6c"/>
       <use x="482.283203" xlink:href="#DejaVuSans-20"/>
       <use x="514.070312" xlink:href="#DejaVuSans-73"/>
       <use x="566.169922" xlink:href="#DejaVuSans-70"/>
       <use x="629.646484" xlink:href="#DejaVuSans-65"/>
       <use x="691.169922" xlink:href="#DejaVuSans-65"/>
       <use x="752.693359" xlink:href="#DejaVuSans-63"/>
       <use x="807.673828" xlink:href="#DejaVuSans-68"/>
       <use x="871.052734" xlink:href="#DejaVuSans-20"/>
       <use x="902.839844" xlink:href="#DejaVuSans-70"/>
       <use x="966.316406" xlink:href="#DejaVuSans-72"/>
       <use x="1005.179688" xlink:href="#DejaVuSans-6f"/>
       <use x="1066.361328" xlink:href="#DejaVuSans-73"/>
       <use x="1118.460938" xlink:href="#DejaVuSans-6f"/>
       <use x="1179.642578" xlink:href="#DejaVuSans-64"/>
       <use x="1243.119141" xlink:href="#DejaVuSans-79"/>
      </g>
     </g>
    </g>
    <g id="ytick_17">
     <g id="line2d_24">
      <g>
       <use style="stroke:#000000;stroke-width:0.8;" x="258.707812" xlink:href="#meed74a4ba0" y="238.13623"/>
      </g>
     </g>
     <g id="text_25">
      <!-- Low plasma citrulline -->
      <g transform="translate(145.854687 241.935449)scale(0.1 -0.1)">
       <use xlink:href="#DejaVuSans-4c"/>
       <use x="53.962891" xlink:href="#DejaVuSans-6f"/>
       <use x="115.144531" xlink:href="#DejaVuSans-77"/>
       <use x="196.931641" xlink:href="#DejaVuSans-20"/>
       <use x="228.71875" xlink:href="#DejaVuSans-70"/>
       <use x="292.195312" xlink:href="#DejaVuSans-6c"/>
       <use x="319.978516" xlink:href="#DejaVuSans-61"/>
       <use x="381.257812" xlink:href="#DejaVuSans-73"/>
       <use x="433.357422" xlink:href="#DejaVuSans-6d"/>
       <use x="530.769531" xlink:href="#DejaVuSans-61"/>
       <use x="592.048828" xlink:href="#DejaVuSans-20"/>
       <use x="623.835938" xlink:href="#DejaVuSans-63"/>
       <use x="678.816406" xlink:href="#DejaVuSans-69"/>
       <use x="706.599609" xlink:href="#DejaVuSans-74"/>
       <use x="745.808594" xlink:href="#DejaVuSans-72"/>
       <use x="786.921875" xlink:href="#DejaVuSans-75"/>
       <use x="850.300781" xlink:href="#DejaVuSans-6c"/>
       <use x="878.083984" xlink:href="#DejaVuSans-6c"/>
       <use x="905.867188" xlink:href="#DejaVuSans-69"/>
       <use x="933.650391" xlink:href="#DejaVuSans-6e"/>
       <use x="997.029297" xlink:href="#DejaVuSans-65"/>
      </g>
     </g>
    </g>
    <g id="ytick_18">
     <g id="line2d_25">
      <g>
       <use style="stroke:#000000;stroke-width:0.8;" x="258.707812" xlink:href="#meed74a4ba0" y="250.868862"/>
      </g>
     </g>
     <g id="text_26">
      <!-- Widened cerebral subarachnoid space -->
      <g transform="translate(60.317187 254.668081)scale(0.1 -0.1)">
       <defs>
        <path d="M 213 4666 
L 850 4666 
L 1831 722 
L 2809 4666 
L 3519 4666 
L 4500 722 
L 5478 4666 
L 6119 4666 
L 4947 0 
L 4153 0 
L 3169 4050 
L 2175 0 
L 1381 0 
L 213 4666 
z
" id="DejaVuSans-57" transform="scale(0.015625)"/>
       </defs>
       <use xlink:href="#DejaVuSans-57"/>
       <use x="96.626953" xlink:href="#DejaVuSans-69"/>
       <use x="124.410156" xlink:href="#DejaVuSans-64"/>
       <use x="187.886719" xlink:href="#DejaVuSans-65"/>
       <use x="249.410156" xlink:href="#DejaVuSans-6e"/>
       <use x="312.789062" xlink:href="#DejaVuSans-65"/>
       <use x="374.3125" xlink:href="#DejaVuSans-64"/>
       <use x="437.789062" xlink:href="#DejaVuSans-20"/>
       <use x="469.576172" xlink:href="#DejaVuSans-63"/>
       <use x="524.556641" xlink:href="#DejaVuSans-65"/>
       <use x="586.080078" xlink:href="#DejaVuSans-72"/>
       <use x="624.943359" xlink:href="#DejaVuSans-65"/>
       <use x="686.466797" xlink:href="#DejaVuSans-62"/>
       <use x="749.943359" xlink:href="#DejaVuSans-72"/>
       <use x="791.056641" xlink:href="#DejaVuSans-61"/>
       <use x="852.335938" xlink:href="#DejaVuSans-6c"/>
       <use x="880.119141" xlink:href="#DejaVuSans-20"/>
       <use x="911.90625" xlink:href="#DejaVuSans-73"/>
       <use x="964.005859" xlink:href="#DejaVuSans-75"/>
       <use x="1027.384766" xlink:href="#DejaVuSans-62"/>
       <use x="1090.861328" xlink:href="#DejaVuSans-61"/>
       <use x="1152.140625" xlink:href="#DejaVuSans-72"/>
       <use x="1193.253906" xlink:href="#DejaVuSans-61"/>
       <use x="1254.533203" xlink:href="#DejaVuSans-63"/>
       <use x="1309.513672" xlink:href="#DejaVuSans-68"/>
       <use x="1372.892578" xlink:href="#DejaVuSans-6e"/>
       <use x="1436.271484" xlink:href="#DejaVuSans-6f"/>
       <use x="1497.453125" xlink:href="#DejaVuSans-69"/>
       <use x="1525.236328" xlink:href="#DejaVuSans-64"/>
       <use x="1588.712891" xlink:href="#DejaVuSans-20"/>
       <use x="1620.5" xlink:href="#DejaVuSans-73"/>
       <use x="1672.599609" xlink:href="#DejaVuSans-70"/>
       <use x="1736.076172" xlink:href="#DejaVuSans-61"/>
       <use x="1797.355469" xlink:href="#DejaVuSans-63"/>
       <use x="1852.335938" xlink:href="#DejaVuSans-65"/>
      </g>
     </g>
    </g>
    <g id="ytick_19">
     <g id="line2d_26">
      <g>
       <use style="stroke:#000000;stroke-width:0.8;" x="258.707812" xlink:href="#meed74a4ba0" y="263.601493"/>
      </g>
     </g>
     <g id="text_27">
      <!-- Stroke-like episode -->
      <g transform="translate(156.820312 267.400712)scale(0.1 -0.1)">
       <defs>
        <path d="M 581 4863 
L 1159 4863 
L 1159 1991 
L 2875 3500 
L 3609 3500 
L 1753 1863 
L 3688 0 
L 2938 0 
L 1159 1709 
L 1159 0 
L 581 0 
L 581 4863 
z
" id="DejaVuSans-6b" transform="scale(0.015625)"/>
        <path d="M 313 2009 
L 1997 2009 
L 1997 1497 
L 313 1497 
L 313 2009 
z
" id="DejaVuSans-2d" transform="scale(0.015625)"/>
       </defs>
       <use xlink:href="#DejaVuSans-53"/>
       <use x="63.476562" xlink:href="#DejaVuSans-74"/>
       <use x="102.685547" xlink:href="#DejaVuSans-72"/>
       <use x="141.548828" xlink:href="#DejaVuSans-6f"/>
       <use x="202.730469" xlink:href="#DejaVuSans-6b"/>
       <use x="257.015625" xlink:href="#DejaVuSans-65"/>
       <use x="318.539062" xlink:href="#DejaVuSans-2d"/>
       <use x="354.623047" xlink:href="#DejaVuSans-6c"/>
       <use x="382.40625" xlink:href="#DejaVuSans-69"/>
       <use x="410.189453" xlink:href="#DejaVuSans-6b"/>
       <use x="464.474609" xlink:href="#DejaVuSans-65"/>
       <use x="525.998047" xlink:href="#DejaVuSans-20"/>
       <use x="557.785156" xlink:href="#DejaVuSans-65"/>
       <use x="619.308594" xlink:href="#DejaVuSans-70"/>
       <use x="682.785156" xlink:href="#DejaVuSans-69"/>
       <use x="710.568359" xlink:href="#DejaVuSans-73"/>
       <use x="762.667969" xlink:href="#DejaVuSans-6f"/>
       <use x="823.849609" xlink:href="#DejaVuSans-64"/>
       <use x="887.326172" xlink:href="#DejaVuSans-65"/>
      </g>
     </g>
    </g>
    <g id="ytick_20">
     <g id="line2d_27">
      <g>
       <use style="stroke:#000000;stroke-width:0.8;" x="258.707812" xlink:href="#meed74a4ba0" y="276.334125"/>
      </g>
     </g>
     <g id="text_28">
      <!-- Focal T2 hyperintense brainstem lesion -->
      <g transform="translate(54.753125 280.133344)scale(0.1 -0.1)">
       <defs>
        <path d="M -19 4666 
L 3928 4666 
L 3928 4134 
L 2272 4134 
L 2272 0 
L 1638 0 
L 1638 4134 
L -19 4134 
L -19 4666 
z
" id="DejaVuSans-54" transform="scale(0.015625)"/>
       </defs>
       <use xlink:href="#DejaVuSans-46"/>
       <use x="53.894531" xlink:href="#DejaVuSans-6f"/>
       <use x="115.076172" xlink:href="#DejaVuSans-63"/>
       <use x="170.056641" xlink:href="#DejaVuSans-61"/>
       <use x="231.335938" xlink:href="#DejaVuSans-6c"/>
       <use x="259.119141" xlink:href="#DejaVuSans-20"/>
       <use x="290.90625" xlink:href="#DejaVuSans-54"/>
       <use x="351.990234" xlink:href="#DejaVuSans-32"/>
       <use x="415.613281" xlink:href="#DejaVuSans-20"/>
       <use x="447.400391" xlink:href="#DejaVuSans-68"/>
       <use x="510.779297" xlink:href="#DejaVuSans-79"/>
       <use x="569.958984" xlink:href="#DejaVuSans-70"/>
       <use x="633.435547" xlink:href="#DejaVuSans-65"/>
       <use x="694.958984" xlink:href="#DejaVuSans-72"/>
       <use x="736.072266" xlink:href="#DejaVuSans-69"/>
       <use x="763.855469" xlink:href="#DejaVuSans-6e"/>
       <use x="827.234375" xlink:href="#DejaVuSans-74"/>
       <use x="866.443359" xlink:href="#DejaVuSans-65"/>
       <use x="927.966797" xlink:href="#DejaVuSans-6e"/>
       <use x="991.345703" xlink:href="#DejaVuSans-73"/>
       <use x="1043.445312" xlink:href="#DejaVuSans-65"/>
       <use x="1104.96875" xlink:href="#DejaVuSans-20"/>
       <use x="1136.755859" xlink:href="#DejaVuSans-62"/>
       <use x="1200.232422" xlink:href="#DejaVuSans-72"/>
       <use x="1241.345703" xlink:href="#DejaVuSans-61"/>
       <use x="1302.625" xlink:href="#DejaVuSans-69"/>
       <use x="1330.408203" xlink:href="#DejaVuSans-6e"/>
       <use x="1393.787109" xlink:href="#DejaVuSans-73"/>
       <use x="1445.886719" xlink:href="#DejaVuSans-74"/>
       <use x="1485.095703" xlink:href="#DejaVuSans-65"/>
       <use x="1546.619141" xlink:href="#DejaVuSans-6d"/>
       <use x="1644.03125" xlink:href="#DejaVuSans-20"/>
       <use x="1675.818359" xlink:href="#DejaVuSans-6c"/>
       <use x="1703.601562" xlink:href="#DejaVuSans-65"/>
       <use x="1765.125" xlink:href="#DejaVuSans-73"/>
       <use x="1817.224609" xlink:href="#DejaVuSans-69"/>
       <use x="1845.007812" xlink:href="#DejaVuSans-6f"/>
       <use x="1906.189453" xlink:href="#DejaVuSans-6e"/>
      </g>
     </g>
    </g>
   </g>
   <g id="patch_3">
    <path d="M 258.707812 288.430125 
L 258.707812 22.318125 
" style="fill:none;stroke:#000000;stroke-linecap:square;stroke-linejoin:miter;stroke-width:0.8;"/>
   </g>
   <g id="patch_4">
    <path d="M 615.827812 288.430125 
L 615.827812 22.318125 
" style="fill:none;stroke:#000000;stroke-linecap:square;stroke-linejoin:miter;stroke-width:0.8;"/>
   </g>
   <g id="patch_5">
    <path d="M 258.707812 288.430125 
L 615.827812 288.430125 
" style="fill:none;stroke:#000000;stroke-linecap:square;stroke-linejoin:miter;stroke-width:0.8;"/>
   </g>
   <g id="patch_6">
    <path d="M 258.707812 22.318125 
L 615.827812 22.318125 
" style="fill:none;stroke:#000000;stroke-linecap:square;stroke-linejoin:miter;stroke-width:0.8;"/>
   </g>
   <g id="text_29">
    <!-- Top 20 Enriched Phenotypes -->
    <g transform="translate(352.341563 16.318125)scale(0.12 -0.12)">
     <defs>
      <path d="M 1259 4147 
L 1259 2394 
L 2053 2394 
Q 2494 2394 2734 2622 
Q 2975 2850 2975 3272 
Q 2975 3691 2734 3919 
Q 2494 4147 2053 4147 
L 1259 4147 
z
M 628 4666 
L 2053 4666 
Q 2838 4666 3239 4311 
Q 3641 3956 3641 3272 
Q 3641 2581 3239 2228 
Q 2838 1875 2053 1875 
L 1259 1875 
L 1259 0 
L 628 0 
L 628 4666 
z
" id="DejaVuSans-50" transform="scale(0.015625)"/>
     </defs>
     <use xlink:href="#DejaVuSans-54"/>
     <use x="44.083984" xlink:href="#DejaVuSans-6f"/>
     <use x="105.265625" xlink:href="#DejaVuSans-70"/>
     <use x="168.742188" xlink:href="#DejaVuSans-20"/>
     <use x="200.529297" xlink:href="#DejaVuSans-32"/>
     <use x="264.152344" xlink:href="#DejaVuSans-30"/>
     <use x="327.775391" xlink:href="#DejaVuSans-20"/>
     <use x="359.5625" xlink:href="#DejaVuSans-45"/>
     <use x="422.746094" xlink:href="#DejaVuSans-6e"/>
     <use x="486.125" xlink:href="#DejaVuSans-72"/>
     <use x="527.238281" xlink:href="#DejaVuSans-69"/>
     <use x="555.021484" xlink:href="#DejaVuSans-63"/>
     <use x="610.001953" xlink:href="#DejaVuSans-68"/>
     <use x="673.380859" xlink:href="#DejaVuSans-65"/>
     <use x="734.904297" xlink:href="#DejaVuSans-64"/>
     <use x="798.380859" xlink:href="#DejaVuSans-20"/>
     <use x="830.167969" xlink:href="#DejaVuSans-50"/>
     <use x="890.470703" xlink:href="#DejaVuSans-68"/>
     <use x="953.849609" xlink:href="#DejaVuSans-65"/>
     <use x="1015.373047" xlink:href="#DejaVuSans-6e"/>
     <use x="1078.751953" xlink:href="#DejaVuSans-6f"/>
     <use x="1139.933594" xlink:href="#DejaVuSans-74"/>
     <use x="1179.142578" xlink:href="#DejaVuSans-79"/>
     <use x="1238.322266" xlink:href="#DejaVuSans-70"/>
     <use x="1301.798828" xlink:href="#DejaVuSans-65"/>
     <use x="1363.322266" xlink:href="#DejaVuSans-73"/>
    </g>
   </g>
   <g id="legend_1">
    <g id="patch_7">
     <path d="M 622.827812 235.811875 
L 710.066875 235.811875 
Q 712.066875 235.811875 712.066875 233.811875 
L 712.066875 29.318125 
Q 712.066875 27.318125 710.066875 27.318125 
L 622.827812 27.318125 
Q 620.827812 27.318125 620.827812 29.318125 
L 620.827812 233.811875 
Q 620.827812 235.811875 622.827812 235.811875 
z
" style="fill:#ffffff;opacity:0.8;stroke:#cccccc;stroke-linejoin:miter;"/>
    </g>
    <g id="text_30">
     <!-- -log10 FDR -->
     <g transform="translate(652.827812 38.916562)scale(0.1 -0.1)">
      <defs>
       <path d="M 794 531 
L 1825 531 
L 1825 4091 
L 703 3866 
L 703 4441 
L 1819 4666 
L 2450 4666 
L 2450 531 
L 3481 531 
L 3481 0 
L 794 0 
L 794 531 
z
" id="DejaVuSans-31" transform="scale(0.015625)"/>
       <path d="M 1259 4147 
L 1259 519 
L 2022 519 
Q 2988 519 3436 956 
Q 3884 1394 3884 2338 
Q 3884 3275 3436 3711 
Q 2988 4147 2022 4147 
L 1259 4147 
z
M 628 4666 
L 1925 4666 
Q 3281 4666 3915 4102 
Q 4550 3538 4550 2338 
Q 4550 1131 3912 565 
Q 3275 0 1925 0 
L 628 0 
L 628 4666 
z
" id="DejaVuSans-44" transform="scale(0.015625)"/>
       <path d="M 2841 2188 
Q 3044 2119 3236 1894 
Q 3428 1669 3622 1275 
L 4263 0 
L 3584 0 
L 2988 1197 
Q 2756 1666 2539 1819 
Q 2322 1972 1947 1972 
L 1259 1972 
L 1259 0 
L 628 0 
L 628 4666 
L 2053 4666 
Q 2853 4666 3247 4331 
Q 3641 3997 3641 3322 
Q 3641 2881 3436 2590 
Q 3231 2300 2841 2188 
z
M 1259 4147 
L 1259 2491 
L 2053 2491 
Q 2509 2491 2742 2702 
Q 2975 2913 2975 3322 
Q 2975 3731 2742 3939 
Q 2509 4147 2053 4147 
L 1259 4147 
z
" id="DejaVuSans-52" transform="scale(0.015625)"/>
      </defs>
      <use xlink:href="#DejaVuSans-2d"/>
      <use x="36.083984" xlink:href="#DejaVuSans-6c"/>
      <use x="63.867188" xlink:href="#DejaVuSans-6f"/>
      <use x="125.048828" xlink:href="#DejaVuSans-67"/>
      <use x="188.525391" xlink:href="#DejaVuSans-31"/>
      <use x="252.148438" xlink:href="#DejaVuSans-30"/>
      <use x="315.771484" xlink:href="#DejaVuSans-20"/>
      <use x="347.558594" xlink:href="#DejaVuSans-46"/>
      <use x="405.078125" xlink:href="#DejaVuSans-44"/>
      <use x="482.080078" xlink:href="#DejaVuSans-52"/>
     </g>
    </g>
    <g id="PathCollection_14">
     <defs>
      <path d="M 0 3 
C 0.795609 3 1.55874 2.683901 2.12132 2.12132 
C 2.683901 1.55874 3 0.795609 3 0 
C 3 -0.795609 2.683901 -1.55874 2.12132 -2.12132 
C 1.55874 -2.683901 0.795609 -3 0 -3 
C -0.795609 -3 -1.55874 -2.683901 -2.12132 -2.12132 
C -2.683901 -1.55874 -3 -0.795609 -3 0 
C -3 0.795609 -2.683901 1.55874 -2.12132 2.12132 
C -1.55874 2.683901 -0.795609 3 0 3 
z
" id="m373c0376d5" style="stroke:#4257c9;"/>
     </defs>
     <g>
      <use style="fill:#4257c9;stroke:#4257c9;" x="634.827812" xlink:href="#m373c0376d5" y="50.969688"/>
     </g>
    </g>
    <g id="text_31">
     <!-- 5 -->
     <g transform="translate(652.827812 53.594688)scale(0.1 -0.1)">
      <use xlink:href="#DejaVuSans-35"/>
     </g>
    </g>
    <g id="PathCollection_15">
     <defs>
      <path d="M 0 3 
C 0.795609 3 1.55874 2.683901 2.12132 2.12132 
C 2.683901 1.55874 3 0.795609 3 0 
C 3 -0.795609 2.683901 -1.55874 2.12132 -2.12132 
C 1.55874 -2.683901 0.795609 -3 0 -3 
C -0.795609 -3 -1.55874 -2.683901 -2.12132 -2.12132 
C -2.683901 -1.55874 -3 -0.795609 -3 0 
C -3 0.795609 -2.683901 1.55874 -2.12132 2.12132 
C -1.55874 2.683901 -0.795609 3 0 3 
z
" id="me4474c8cd9" style="stroke:#7da0f9;"/>
     </defs>
     <g>
      <use style="fill:#7da0f9;stroke:#7da0f9;" x="634.827812" xlink:href="#me4474c8cd9" y="65.647812"/>
     </g>
    </g>
    <g id="text_32">
     <!-- 10 -->
     <g transform="translate(652.827812 68.272812)scale(0.1 -0.1)">
      <use xlink:href="#DejaVuSans-31"/>
      <use x="63.623047" xlink:href="#DejaVuSans-30"/>
     </g>
    </g>
    <g id="PathCollection_16">
     <defs>
      <path d="M 0 3 
C 0.795609 3 1.55874 2.683901 2.12132 2.12132 
C 2.683901 1.55874 3 0.795609 3 0 
C 3 -0.795609 2.683901 -1.55874 2.12132 -2.12132 
C 1.55874 -2.683901 0.795609 -3 0 -3 
C -0.795609 -3 -1.55874 -2.683901 -2.12132 -2.12132 
C -2.683901 -1.55874 -3 -0.795609 -3 0 
C -3 0.795609 -2.683901 1.55874 -2.12132 2.12132 
C -1.55874 2.683901 -0.795609 3 0 3 
z
" id="m3e0618585d" style="stroke:#bbd1f8;"/>
     </defs>
     <g>
      <use style="fill:#bbd1f8;stroke:#bbd1f8;" x="634.827812" xlink:href="#m3e0618585d" y="80.325938"/>
     </g>
    </g>
    <g id="text_33">
     <!-- 15 -->
     <g transform="translate(652.827812 82.950938)scale(0.1 -0.1)">
      <use xlink:href="#DejaVuSans-31"/>
      <use x="63.623047" xlink:href="#DejaVuSans-35"/>
     </g>
    </g>
    <g id="PathCollection_17">
     <defs>
      <path d="M 0 3 
C 0.795609 3 1.55874 2.683901 2.12132 2.12132 
C 2.683901 1.55874 3 0.795609 3 0 
C 3 -0.795609 2.683901 -1.55874 2.12132 -2.12132 
C 1.55874 -2.683901 0.795609 -3 0 -3 
C -0.795609 -3 -1.55874 -2.683901 -2.12132 -2.12132 
C -2.683901 -1.55874 -3 -0.795609 -3 0 
C -3 0.795609 -2.683901 1.55874 -2.12132 2.12132 
C -1.55874 2.683901 -0.795609 3 0 3 
z
" id="m6b71a2de16" style="stroke:#ecd3c5;"/>
     </defs>
     <g>
      <use style="fill:#ecd3c5;stroke:#ecd3c5;" x="634.827812" xlink:href="#m6b71a2de16" y="95.004063"/>
     </g>
    </g>
    <g id="text_34">
     <!-- 20 -->
     <g transform="translate(652.827812 97.629063)scale(0.1 -0.1)">
      <use xlink:href="#DejaVuSans-32"/>
      <use x="63.623047" xlink:href="#DejaVuSans-30"/>
     </g>
    </g>
    <g id="PathCollection_18">
     <defs>
      <path d="M 0 3 
C 0.795609 3 1.55874 2.683901 2.12132 2.12132 
C 2.683901 1.55874 3 0.795609 3 0 
C 3 -0.795609 2.683901 -1.55874 2.12132 -2.12132 
C 1.55874 -2.683901 0.795609 -3 0 -3 
C -0.795609 -3 -1.55874 -2.683901 -2.12132 -2.12132 
C -2.683901 -1.55874 -3 -0.795609 -3 0 
C -3 0.795609 -2.683901 1.55874 -2.12132 2.12132 
C -1.55874 2.683901 -0.795609 3 0 3 
z
" id="m3fafcab815" style="stroke:#f59c7d;"/>
     </defs>
     <g>
      <use style="fill:#f59c7d;stroke:#f59c7d;" x="634.827812" xlink:href="#m3fafcab815" y="109.682187"/>
     </g>
    </g>
    <g id="text_35">
     <!-- 25 -->
     <g transform="translate(652.827812 112.307187)scale(0.1 -0.1)">
      <use xlink:href="#DejaVuSans-32"/>
      <use x="63.623047" xlink:href="#DejaVuSans-35"/>
     </g>
    </g>
    <g id="PathCollection_19">
     <defs>
      <path d="M 0 3 
C 0.795609 3 1.55874 2.683901 2.12132 2.12132 
C 2.683901 1.55874 3 0.795609 3 0 
C 3 -0.795609 2.683901 -1.55874 2.12132 -2.12132 
C 1.55874 -2.683901 0.795609 -3 0 -3 
C -0.795609 -3 -1.55874 -2.683901 -2.12132 -2.12132 
C -2.683901 -1.55874 -3 -0.795609 -3 0 
C -3 0.795609 -2.683901 1.55874 -2.12132 2.12132 
C -1.55874 2.683901 -0.795609 3 0 3 
z
" id="mcd2e716623" style="stroke:#cf453c;"/>
     </defs>
     <g>
      <use style="fill:#cf453c;stroke:#cf453c;" x="634.827812" xlink:href="#mcd2e716623" y="124.360313"/>
     </g>
    </g>
    <g id="text_36">
     <!-- 30 -->
     <g transform="translate(652.827812 126.985313)scale(0.1 -0.1)">
      <use xlink:href="#DejaVuSans-33"/>
      <use x="63.623047" xlink:href="#DejaVuSans-30"/>
     </g>
    </g>
    <g id="text_37">
     <!-- Gene Ratio -->
     <g transform="translate(652.827812 141.663437)scale(0.1 -0.1)">
      <defs>
       <path d="M 3809 666 
L 3809 1919 
L 2778 1919 
L 2778 2438 
L 4434 2438 
L 4434 434 
Q 4069 175 3628 42 
Q 3188 -91 2688 -91 
Q 1594 -91 976 548 
Q 359 1188 359 2328 
Q 359 3472 976 4111 
Q 1594 4750 2688 4750 
Q 3144 4750 3555 4637 
Q 3966 4525 4313 4306 
L 4313 3634 
Q 3963 3931 3569 4081 
Q 3175 4231 2741 4231 
Q 1884 4231 1454 3753 
Q 1025 3275 1025 2328 
Q 1025 1384 1454 906 
Q 1884 428 2741 428 
Q 3075 428 3337 486 
Q 3600 544 3809 666 
z
" id="DejaVuSans-47" transform="scale(0.015625)"/>
      </defs>
      <use xlink:href="#DejaVuSans-47"/>
      <use x="77.490234" xlink:href="#DejaVuSans-65"/>
      <use x="139.013672" xlink:href="#DejaVuSans-6e"/>
      <use x="202.392578" xlink:href="#DejaVuSans-65"/>
      <use x="263.916016" xlink:href="#DejaVuSans-20"/>
      <use x="295.703125" xlink:href="#DejaVuSans-52"/>
      <use x="362.935547" xlink:href="#DejaVuSans-61"/>
      <use x="424.214844" xlink:href="#DejaVuSans-74"/>
      <use x="463.423828" xlink:href="#DejaVuSans-69"/>
      <use x="491.207031" xlink:href="#DejaVuSans-6f"/>
     </g>
    </g>
    <g id="PathCollection_20">
     <defs>
      <path d="M 0 2.38291 
C 0.631955 2.38291 1.238112 2.131832 1.684972 1.684972 
C 2.131832 1.238112 2.38291 0.631955 2.38291 0 
C 2.38291 -0.631955 2.131832 -1.238112 1.684972 -1.684972 
C 1.238112 -2.131832 0.631955 -2.38291 0 -2.38291 
C -0.631955 -2.38291 -1.238112 -2.131832 -1.684972 -1.684972 
C -2.131832 -1.238112 -2.38291 -0.631955 -2.38291 0 
C -2.38291 0.631955 -2.131832 1.238112 -1.684972 1.684972 
C -1.238112 2.131832 -0.631955 2.38291 0 2.38291 
z
" id="m66eb7a7763" style="stroke:#333333;"/>
     </defs>
     <g>
      <use style="fill:#333333;stroke:#333333;" x="634.827812" xlink:href="#m66eb7a7763" y="153.716563"/>
     </g>
    </g>
    <g id="text_38">
     <!-- 0.01 -->
     <g transform="translate(652.827812 156.341563)scale(0.1 -0.1)">
      <use xlink:href="#DejaVuSans-30"/>
      <use x="63.623047" xlink:href="#DejaVuSans-2e"/>
      <use x="95.410156" xlink:href="#DejaVuSans-30"/>
      <use x="159.033203" xlink:href="#DejaVuSans-31"/>
     </g>
    </g>
    <g id="PathCollection_21">
     <defs>
      <path d="M 0 3.465356 
C 0.919023 3.465356 1.800529 3.100225 2.450377 2.450377 
C 3.100225 1.800529 3.465356 0.919023 3.465356 0 
C 3.465356 -0.919023 3.100225 -1.800529 2.450377 -2.450377 
C 1.800529 -3.100225 0.919023 -3.465356 0 -3.465356 
C -0.919023 -3.465356 -1.800529 -3.100225 -2.450377 -2.450377 
C -3.100225 -1.800529 -3.465356 -0.919023 -3.465356 0 
C -3.465356 0.919023 -3.100225 1.800529 -2.450377 2.450377 
C -1.800529 3.100225 -0.919023 3.465356 0 3.465356 
z
" id="m69c688f31f" style="stroke:#333333;"/>
     </defs>
     <g>
      <use style="fill:#333333;stroke:#333333;" x="634.827812" xlink:href="#m69c688f31f" y="168.394687"/>
     </g>
    </g>
    <g id="text_39">
     <!-- 0.02 -->
     <g transform="translate(652.827812 171.019687)scale(0.1 -0.1)">
      <use xlink:href="#DejaVuSans-30"/>
      <use x="63.623047" xlink:href="#DejaVuSans-2e"/>
      <use x="95.410156" xlink:href="#DejaVuSans-30"/>
      <use x="159.033203" xlink:href="#DejaVuSans-32"/>
     </g>
    </g>
    <g id="PathCollection_22">
     <defs>
      <path d="M 0 4.282421 
C 1.135711 4.282421 2.22506 3.831198 3.028129 3.028129 
C 3.831198 2.22506 4.282421 1.135711 4.282421 0 
C 4.282421 -1.135711 3.831198 -2.22506 3.028129 -3.028129 
C 2.22506 -3.831198 1.135711 -4.282421 0 -4.282421 
C -1.135711 -4.282421 -2.22506 -3.831198 -3.028129 -3.028129 
C -3.831198 -2.22506 -4.282421 -1.135711 -4.282421 0 
C -4.282421 1.135711 -3.831198 2.22506 -3.028129 3.028129 
C -2.22506 3.831198 -1.135711 4.282421 0 4.282421 
z
" id="mcde6a0ce7a" style="stroke:#333333;"/>
     </defs>
     <g>
      <use style="fill:#333333;stroke:#333333;" x="634.827812" xlink:href="#mcde6a0ce7a" y="183.072812"/>
     </g>
    </g>
    <g id="text_40">
     <!-- 0.03 -->
     <g transform="translate(652.827812 185.697812)scale(0.1 -0.1)">
      <use xlink:href="#DejaVuSans-30"/>
      <use x="63.623047" xlink:href="#DejaVuSans-2e"/>
      <use x="95.410156" xlink:href="#DejaVuSans-30"/>
      <use x="159.033203" xlink:href="#DejaVuSans-33"/>
     </g>
    </g>
    <g id="PathCollection_23">
     <defs>
      <path d="M 0 4.966847 
C 1.317223 4.966847 2.580674 4.443508 3.512091 3.512091 
C 4.443508 2.580674 4.966847 1.317223 4.966847 0 
C 4.966847 -1.317223 4.443508 -2.580674 3.512091 -3.512091 
C 2.580674 -4.443508 1.317223 -4.966847 0 -4.966847 
C -1.317223 -4.966847 -2.580674 -4.443508 -3.512091 -3.512091 
C -4.443508 -2.580674 -4.966847 -1.317223 -4.966847 0 
C -4.966847 1.317223 -4.443508 2.580674 -3.512091 3.512091 
C -2.580674 4.443508 -1.317223 4.966847 0 4.966847 
z
" id="ma5b0e80728" style="stroke:#333333;"/>
     </defs>
     <g>
      <use style="fill:#333333;stroke:#333333;" x="634.827812" xlink:href="#ma5b0e80728" y="197.750937"/>
     </g>
    </g>
    <g id="text_41">
     <!-- 0.04 -->
     <g transform="translate(652.827812 200.375937)scale(0.1 -0.1)">
      <use xlink:href="#DejaVuSans-30"/>
      <use x="63.623047" xlink:href="#DejaVuSans-2e"/>
      <use x="95.410156" xlink:href="#DejaVuSans-30"/>
      <use x="159.033203" xlink:href="#DejaVuSans-34"/>
     </g>
    </g>
    <g id="PathCollection_24">
     <defs>
      <path d="M 0 5.567764 
C 1.476588 5.567764 2.892898 4.98111 3.937004 3.937004 
C 4.98111 2.892898 5.567764 1.476588 5.567764 0 
C 5.567764 -1.476588 4.98111 -2.892898 3.937004 -3.937004 
C 2.892898 -4.98111 1.476588 -5.567764 0 -5.567764 
C -1.476588 -5.567764 -2.892898 -4.98111 -3.937004 -3.937004 
C -4.98111 -2.892898 -5.567764 -1.476588 -5.567764 0 
C -5.567764 1.476588 -4.98111 2.892898 -3.937004 3.937004 
C -2.892898 4.98111 -1.476588 5.567764 0 5.567764 
z
" id="m641500ca27" style="stroke:#333333;"/>
     </defs>
     <g>
      <use style="fill:#333333;stroke:#333333;" x="634.827812" xlink:href="#m641500ca27" y="212.429062"/>
     </g>
    </g>
    <g id="text_42">
     <!-- 0.05 -->
     <g transform="translate(652.827812 215.054062)scale(0.1 -0.1)">
      <use xlink:href="#DejaVuSans-30"/>
      <use x="63.623047" xlink:href="#DejaVuSans-2e"/>
      <use x="95.410156" xlink:href="#DejaVuSans-30"/>
      <use x="159.033203" xlink:href="#DejaVuSans-35"/>
     </g>
    </g>
    <g id="PathCollection_25">
     <defs>
      <path d="M 0 6.109864 
C 1.620355 6.109864 3.174562 5.46609 4.320326 4.320326 
C 5.46609 3.174562 6.109864 1.620355 6.109864 0 
C 6.109864 -1.620355 5.46609 -3.174562 4.320326 -4.320326 
C 3.174562 -5.46609 1.620355 -6.109864 0 -6.109864 
C -1.620355 -6.109864 -3.174562 -5.46609 -4.320326 -4.320326 
C -5.46609 -3.174562 -6.109864 -1.620355 -6.109864 0 
C -6.109864 1.620355 -5.46609 3.174562 -4.320326 4.320326 
C -3.174562 5.46609 -1.620355 6.109864 0 6.109864 
z
" id="m7bb0dab16a" style="stroke:#333333;"/>
     </defs>
     <g>
      <use style="fill:#333333;stroke:#333333;" x="634.827812" xlink:href="#m7bb0dab16a" y="227.107187"/>
     </g>
    </g>
    <g id="text_43">
     <!-- 0.06 -->
     <g transform="translate(652.827812 229.732187)scale(0.1 -0.1)">
      <defs>
       <path d="M 2113 2584 
Q 1688 2584 1439 2293 
Q 1191 2003 1191 1497 
Q 1191 994 1439 701 
Q 1688 409 2113 409 
Q 2538 409 2786 701 
Q 3034 994 3034 1497 
Q 3034 2003 2786 2293 
Q 2538 2584 2113 2584 
z
M 3366 4563 
L 3366 3988 
Q 3128 4100 2886 4159 
Q 2644 4219 2406 4219 
Q 1781 4219 1451 3797 
Q 1122 3375 1075 2522 
Q 1259 2794 1537 2939 
Q 1816 3084 2150 3084 
Q 2853 3084 3261 2657 
Q 3669 2231 3669 1497 
Q 3669 778 3244 343 
Q 2819 -91 2113 -91 
Q 1303 -91 875 529 
Q 447 1150 447 2328 
Q 447 3434 972 4092 
Q 1497 4750 2381 4750 
Q 2619 4750 2861 4703 
Q 3103 4656 3366 4563 
z
" id="DejaVuSans-36" transform="scale(0.015625)"/>
      </defs>
      <use xlink:href="#DejaVuSans-30"/>
      <use x="63.623047" xlink:href="#DejaVuSans-2e"/>
      <use x="95.410156" xlink:href="#DejaVuSans-30"/>
      <use x="159.033203" xlink:href="#DejaVuSans-36"/>
     </g>
    </g>
   </g>
  </g>
 </g>
 <defs>
  <clipPath id="p666d43e4c6">
   <rect height="266.112" width="357.12" x="258.707812" y="22.318125"/>
  </clipPath>
 </defs>
</svg>
