<?xml version="1.0" encoding="utf-8" standalone="no"?>
<!DOCTYPE svg PUBLIC "-//W3C//DTD SVG 1.1//EN"
  "http://www.w3.org/Graphics/SVG/1.1/DTD/svg11.dtd">
<svg height="325.986375pt" version="1.1" viewBox="0 0 798.149687 325.986375" width="798.149687pt" xmlns="http://www.w3.org/2000/svg" xmlns:xlink="http://www.w3.org/1999/xlink">
 <metadata>
  <rdf:RDF xmlns:cc="http://creativecommons.org/ns#" xmlns:dc="http://purl.org/dc/elements/1.1/" xmlns:rdf="http://www.w3.org/1999/02/22-rdf-syntax-ns#">
   <cc:Work>
    <dc:type rdf:resource="http://purl.org/dc/dcmitype/StillImage"/>
    <dc:date>2022-03-10T23:19:09.162777</dc:date>
    <dc:format>image/svg+xml</dc:format>
    <dc:creator>
     <cc:Agent>
      <dc:title>Matplotlib v3.4.3, https://matplotlib.org/</dc:title>
     </cc:Agent>
    </dc:creator>
   </cc:Work>
  </rdf:RDF>
 </metadata>
 <defs>
  <style type="text/css">*{stroke-linecap:butt;stroke-linejoin:round;}</style>
 </defs>
 <g id="figure_1">
  <g id="patch_1">
   <path d="M 0 325.986375 
L 798.149687 325.986375 
L 798.149687 0 
L 0 0 
z
" style="fill:#ffffff;"/>
  </g>
  <g id="axes_1">
   <g id="patch_2">
    <path d="M 337.590625 288.430125 
L 694.710625 288.430125 
L 694.710625 22.318125 
L 337.590625 22.318125 
z
" style="fill:#ffffff;"/>
   </g>
   <g id="PathCollection_1">
    <path clip-path="url(#pcad8946d6a)" d="M 678.477898 37.004593 
C 679.164898 37.004593 679.823853 36.731645 680.309635 36.245863 
C 680.795418 35.76008 681.068366 35.101125 681.068366 34.414125 
C 681.068366 33.727125 680.795418 33.06817 680.309635 32.582387 
C 679.823853 32.096605 679.164898 31.823657 678.477898 31.823657 
C 677.790897 31.823657 677.131943 32.096605 676.64616 32.582387 
C 676.160377 33.06817 675.887429 33.727125 675.887429 34.414125 
C 675.887429 35.101125 676.160377 35.76008 676.64616 36.245863 
C 677.131943 36.731645 677.790897 37.004593 678.477898 37.004593 
z
" style="fill:#4a63d3;stroke:#ffffff;stroke-width:0.384324;"/>
    <path clip-path="url(#pcad8946d6a)" d="M 678.477898 49.737225 
C 679.164898 49.737225 679.823853 49.464277 680.309635 48.978494 
C 680.795418 48.492712 681.068366 47.833757 681.068366 47.146757 
C 681.068366 46.459756 680.795418 45.800801 680.309635 45.315019 
C 679.823853 44.829236 679.164898 44.556288 678.477898 44.556288 
C 677.790897 44.556288 677.131943 44.829236 676.64616 45.315019 
C 676.160377 45.800801 675.887429 46.459756 675.887429 47.146757 
C 675.887429 47.833757 676.160377 48.492712 676.64616 48.978494 
C 677.131943 49.464277 677.790897 49.737225 678.477898 49.737225 
z
" style="fill:#4a63d3;stroke:#ffffff;stroke-width:0.384324;"/>
    <path clip-path="url(#pcad8946d6a)" d="M 678.477898 62.115456 
C 679.07091 62.115456 679.639714 61.87985 680.059037 61.460527 
C 680.478359 61.041204 680.713966 60.4724 680.713966 59.879388 
C 680.713966 59.286376 680.478359 58.717572 680.059037 58.298249 
C 679.639714 57.878926 679.07091 57.64332 678.477898 57.64332 
C 677.884886 57.64332 677.316082 57.878926 676.896759 58.298249 
C 676.477436 58.717572 676.24183 59.286376 676.24183 59.879388 
C 676.24183 60.4724 676.477436 61.041204 676.896759 61.460527 
C 677.316082 61.87985 677.884886 62.115456 678.477898 62.115456 
z
" style="fill:#3b4cc0;stroke:#ffffff;stroke-width:0.384324;"/>
    <path clip-path="url(#pcad8946d6a)" d="M 678.477898 74.848088 
C 679.07091 74.848088 679.639714 74.612481 680.059037 74.193159 
C 680.478359 73.773836 680.713966 73.205032 680.713966 72.61202 
C 680.713966 72.019008 680.478359 71.450204 680.059037 71.030881 
C 679.639714 70.611558 679.07091 70.375952 678.477898 70.375952 
C 677.884886 70.375952 677.316082 70.611558 676.896759 71.030881 
C 676.477436 71.450204 676.24183 72.019008 676.24183 72.61202 
C 676.24183 73.205032 676.477436 73.773836 676.896759 74.193159 
C 677.316082 74.612481 677.884886 74.848088 678.477898 74.848088 
z
" style="fill:#3b4cc0;stroke:#ffffff;stroke-width:0.384324;"/>
    <path clip-path="url(#pcad8946d6a)" d="M 678.477898 87.764416 
C 679.119627 87.764416 679.735159 87.509455 680.18893 87.055684 
C 680.642701 86.601913 680.897663 85.986381 680.897663 85.344651 
C 680.897663 84.702922 680.642701 84.08739 680.18893 83.633619 
C 679.735159 83.179848 679.119627 82.924886 678.477898 82.924886 
C 677.836169 82.924886 677.220636 83.179848 676.766865 83.633619 
C 676.313094 84.08739 676.058133 84.702922 676.058133 85.344651 
C 676.058133 85.986381 676.313094 86.601913 676.766865 87.055684 
C 677.220636 87.509455 677.836169 87.764416 678.477898 87.764416 
z
" style="fill:#4257c9;stroke:#ffffff;stroke-width:0.384324;"/>
    <path clip-path="url(#pcad8946d6a)" d="M 678.477898 104.201007 
C 680.101928 104.201007 681.659662 103.555773 682.808025 102.40741 
C 683.956388 101.259047 684.601622 99.701314 684.601622 98.077283 
C 684.601622 96.453252 683.956388 94.895519 682.808025 93.747156 
C 681.659662 92.598793 680.101928 91.953559 678.477898 91.953559 
C 676.853867 91.953559 675.296134 92.598793 674.147771 93.747156 
C 672.999408 94.895519 672.354173 96.453252 672.354173 98.077283 
C 672.354173 99.701314 672.999408 101.259047 674.147771 102.40741 
C 675.296134 103.555773 676.853867 104.201007 678.477898 104.201007 
z
" style="fill:#b40426;stroke:#ffffff;stroke-width:0.384324;"/>
    <path clip-path="url(#pcad8946d6a)" d="M 642.056305 113.992929 
C 642.90045 113.992929 643.710135 113.657546 644.307035 113.060645 
C 644.903936 112.463745 645.239319 111.65406 645.239319 110.809914 
C 645.239319 109.965769 644.903936 109.156084 644.307035 108.559184 
C 643.710135 107.962283 642.90045 107.6269 642.056305 107.6269 
C 641.212159 107.6269 640.402475 107.962283 639.805574 108.559184 
C 639.208673 109.156084 638.87329 109.965769 638.87329 110.809914 
C 638.87329 111.65406 639.208673 112.463745 639.805574 113.060645 
C 640.402475 113.657546 641.212159 113.992929 642.056305 113.992929 
z
" style="fill:#6485ec;stroke:#ffffff;stroke-width:0.384324;"/>
    <path clip-path="url(#pcad8946d6a)" d="M 611.704977 127.338319 
C 612.711628 127.338319 613.677184 126.938373 614.388994 126.226563 
C 615.100804 125.514753 615.50075 124.549197 615.50075 123.542546 
C 615.50075 122.535895 615.100804 121.570339 614.388994 120.858529 
C 613.677184 120.146719 612.711628 119.746773 611.704977 119.746773 
C 610.698326 119.746773 609.73277 120.146719 609.02096 120.858529 
C 608.30915 121.570339 607.909204 122.535895 607.909204 123.542546 
C 607.909204 124.549197 608.30915 125.514753 609.02096 126.226563 
C 609.73277 126.938373 610.698326 127.338319 611.704977 127.338319 
z
" style="fill:#86a9fc;stroke:#ffffff;stroke-width:0.384324;"/>
    <path clip-path="url(#pcad8946d6a)" d="M 589.447337 139.956568 
C 590.423653 139.956568 591.360113 139.568673 592.050473 138.878313 
C 592.740832 138.187954 593.128727 137.251494 593.128727 136.275178 
C 593.128727 135.298862 592.740832 134.362402 592.050473 133.672042 
C 591.360113 132.981682 590.423653 132.593788 589.447337 132.593788 
C 588.471021 132.593788 587.534561 132.981682 586.844201 133.672042 
C 586.153841 134.362402 585.765947 135.298862 585.765947 136.275178 
C 585.765947 137.251494 586.153841 138.187954 586.844201 138.878313 
C 587.534561 139.568673 588.471021 139.956568 589.447337 139.956568 
z
" style="fill:#7a9df8;stroke:#ffffff;stroke-width:0.384324;"/>
    <path clip-path="url(#pcad8946d6a)" d="M 564.010034 151.427574 
C 564.651763 151.427574 565.267295 151.172613 565.721066 150.718842 
C 566.174837 150.26507 566.429799 149.649538 566.429799 149.007809 
C 566.429799 148.36608 566.174837 147.750548 565.721066 147.296777 
C 565.267295 146.843006 564.651763 146.588044 564.010034 146.588044 
C 563.368304 146.588044 562.752772 146.843006 562.299001 147.296777 
C 561.84523 147.750548 561.590269 148.36608 561.590269 149.007809 
C 561.590269 149.649538 561.84523 150.26507 562.299001 150.718842 
C 562.752772 151.172613 563.368304 151.427574 564.010034 151.427574 
z
" style="fill:#3c4ec2;stroke:#ffffff;stroke-width:0.384324;"/>
    <path clip-path="url(#pcad8946d6a)" d="M 553.278671 165.055081 
C 554.157724 165.055081 555.000892 164.70583 555.622476 164.084246 
C 556.244061 163.462661 556.593312 162.619494 556.593312 161.740441 
C 556.593312 160.861388 556.244061 160.01822 555.622476 159.396636 
C 555.000892 158.775052 554.157724 158.4258 553.278671 158.4258 
C 552.399618 158.4258 551.556451 158.775052 550.934867 159.396636 
C 550.313282 160.01822 549.964031 160.861388 549.964031 161.740441 
C 549.964031 162.619494 550.313282 163.462661 550.934867 164.084246 
C 551.556451 164.70583 552.399618 165.055081 553.278671 165.055081 
z
" style="fill:#6180e9;stroke:#ffffff;stroke-width:0.384324;"/>
    <path clip-path="url(#pcad8946d6a)" d="M 506.776102 177.374977 
C 507.545696 177.374977 508.283873 177.069214 508.828058 176.525029 
C 509.372244 175.980844 509.678007 175.242667 509.678007 174.473072 
C 509.678007 173.703478 509.372244 172.965301 508.828058 172.421116 
C 508.283873 171.87693 507.545696 171.571167 506.776102 171.571167 
C 506.006507 171.571167 505.26833 171.87693 504.724145 172.421116 
C 504.17996 172.965301 503.874197 173.703478 503.874197 174.473072 
C 503.874197 175.242667 504.17996 175.980844 504.724145 176.525029 
C 505.26833 177.069214 506.006507 177.374977 506.776102 177.374977 
z
" style="fill:#4961d2;stroke:#ffffff;stroke-width:0.384324;"/>
    <path clip-path="url(#pcad8946d6a)" d="M 485.578349 190.887094 
C 486.554665 190.887094 487.491125 190.499199 488.181485 189.80884 
C 488.871844 189.11848 489.259739 188.18202 489.259739 187.205704 
C 489.259739 186.229388 488.871844 185.292928 488.181485 184.602568 
C 487.491125 183.912209 486.554665 183.524314 485.578349 183.524314 
C 484.602033 183.524314 483.665573 183.912209 482.975213 184.602568 
C 482.284854 185.292928 481.896959 186.229388 481.896959 187.205704 
C 481.896959 188.18202 482.284854 189.11848 482.975213 189.80884 
C 483.665573 190.499199 484.602033 190.887094 485.578349 190.887094 
z
" style="fill:#6687ed;stroke:#ffffff;stroke-width:0.384324;"/>
    <path clip-path="url(#pcad8946d6a)" d="M 444.772675 203.734109 
C 445.779326 203.734109 446.744883 203.334162 447.456692 202.622353 
C 448.168502 201.910543 448.568449 200.944986 448.568449 199.938336 
C 448.568449 198.931685 448.168502 197.966128 447.456692 197.254319 
C 446.744883 196.542509 445.779326 196.142562 444.772675 196.142562 
C 443.766024 196.142562 442.800468 196.542509 442.088658 197.254319 
C 441.376849 197.966128 440.976902 198.931685 440.976902 199.938336 
C 440.976902 200.944986 441.376849 201.910543 442.088658 202.622353 
C 442.800468 203.334162 443.766024 203.734109 444.772675 203.734109 
z
" style="fill:#6384eb;stroke:#ffffff;stroke-width:0.384324;"/>
    <path clip-path="url(#pcad8946d6a)" d="M 442.808766 215.421565 
C 443.538233 215.421565 444.237921 215.131745 444.753732 214.615934 
C 445.269544 214.100122 445.559364 213.400434 445.559364 212.670967 
C 445.559364 211.9415 445.269544 211.241812 444.753732 210.726001 
C 444.237921 210.210189 443.538233 209.920369 442.808766 209.920369 
C 442.079299 209.920369 441.37961 210.210189 440.863799 210.726001 
C 440.347988 211.241812 440.058168 211.9415 440.058168 212.670967 
C 440.058168 213.400434 440.347988 214.100122 440.863799 214.615934 
C 441.37961 215.131745 442.079299 215.421565 442.808766 215.421565 
z
" style="fill:#3e51c5;stroke:#ffffff;stroke-width:0.384324;"/>
    <path clip-path="url(#pcad8946d6a)" d="M 433.643855 228.154197 
C 434.373322 228.154197 435.073011 227.864376 435.588822 227.348565 
C 436.104633 226.832754 436.394453 226.133066 436.394453 225.403599 
C 436.394453 224.674132 436.104633 223.974443 435.588822 223.458632 
C 435.073011 222.942821 434.373322 222.653001 433.643855 222.653001 
C 432.914388 222.653001 432.2147 222.942821 431.698889 223.458632 
C 431.183078 223.974443 430.893257 224.674132 430.893257 225.403599 
C 430.893257 226.133066 431.183078 226.832754 431.698889 227.348565 
C 432.2147 227.864376 432.914388 228.154197 433.643855 228.154197 
z
" style="fill:#3d50c3;stroke:#ffffff;stroke-width:0.384324;"/>
    <path clip-path="url(#pcad8946d6a)" d="M 429.43295 241.81762 
C 430.409266 241.81762 431.345726 241.429726 432.036086 240.739366 
C 432.726446 240.049006 433.11434 239.112546 433.11434 238.13623 
C 433.11434 237.159914 432.726446 236.223454 432.036086 235.533095 
C 431.345726 234.842735 430.409266 234.45484 429.43295 234.45484 
C 428.456634 234.45484 427.520174 234.842735 426.829815 235.533095 
C 426.139455 236.223454 425.75156 237.159914 425.75156 238.13623 
C 425.75156 239.112546 426.139455 240.049006 426.829815 240.739366 
C 427.520174 241.429726 428.456634 241.81762 429.43295 241.81762 
z
" style="fill:#5b7ae5;stroke:#ffffff;stroke-width:0.384324;"/>
    <path clip-path="url(#pcad8946d6a)" d="M 405.315949 253.61946 
C 406.045417 253.61946 406.745105 253.32964 407.260916 252.813828 
C 407.776727 252.298017 408.066547 251.598329 408.066547 250.868862 
C 408.066547 250.139395 407.776727 249.439706 407.260916 248.923895 
C 406.745105 248.408084 406.045417 248.118264 405.315949 248.118264 
C 404.586482 248.118264 403.886794 248.408084 403.370983 248.923895 
C 402.855172 249.439706 402.565351 250.139395 402.565351 250.868862 
C 402.565351 251.598329 402.855172 252.298017 403.370983 252.813828 
C 403.886794 253.32964 404.586482 253.61946 405.315949 253.61946 
z
" style="fill:#3b4cc0;stroke:#ffffff;stroke-width:0.384324;"/>
    <path clip-path="url(#pcad8946d6a)" d="M 387.692598 267.616269 
C 388.757329 267.616269 389.778594 267.193247 390.531473 266.440368 
C 391.284351 265.68749 391.707373 264.666224 391.707373 263.601493 
C 391.707373 262.536763 391.284351 261.515497 390.531473 260.762619 
C 389.778594 260.00974 388.757329 259.586718 387.692598 259.586718 
C 386.627867 259.586718 385.606601 260.00974 384.853723 260.762619 
C 384.100845 261.515497 383.677823 262.536763 383.677823 263.601493 
C 383.677823 264.666224 384.100845 265.68749 384.853723 266.440368 
C 385.606601 267.193247 386.627867 267.616269 387.692598 267.616269 
z
" style="fill:#5b7ae5;stroke:#ffffff;stroke-width:0.384324;"/>
    <path clip-path="url(#pcad8946d6a)" d="M 353.823352 279.648766 
C 354.702405 279.648766 355.545573 279.299514 356.167157 278.67793 
C 356.788741 278.056346 357.137993 277.213178 357.137993 276.334125 
C 357.137993 275.455072 356.788741 274.611904 356.167157 273.99032 
C 355.545573 273.368736 354.702405 273.019484 353.823352 273.019484 
C 352.944299 273.019484 352.101132 273.368736 351.479547 273.99032 
C 350.857963 274.611904 350.508712 275.455072 350.508712 276.334125 
C 350.508712 277.213178 350.857963 278.056346 351.479547 278.67793 
C 352.101132 279.299514 352.944299 279.648766 353.823352 279.648766 
z
" style="fill:#3d50c3;stroke:#ffffff;stroke-width:0.384324;"/>
   </g>
   <g id="PathCollection_2"/>
   <g id="PathCollection_3"/>
   <g id="PathCollection_4"/>
   <g id="PathCollection_5"/>
   <g id="PathCollection_6"/>
   <g id="PathCollection_7"/>
   <g id="PathCollection_8"/>
   <g id="PathCollection_9"/>
   <g id="PathCollection_10"/>
   <g id="PathCollection_11"/>
   <g id="matplotlib.axis_1">
    <g id="xtick_1">
     <g id="line2d_1">
      <defs>
       <path d="M 0 0 
L 0 3.5 
" id="mc689632983" style="stroke:#000000;stroke-width:0.8;"/>
      </defs>
      <g>
       <use style="stroke:#000000;stroke-width:0.8;" x="369.023878" xlink:href="#mc689632983" y="288.430125"/>
      </g>
     </g>
     <g id="text_1">
      <!-- 10 -->
      <g transform="translate(362.661378 303.028562)scale(0.1 -0.1)">
       <defs>
        <path d="M 794 531 
L 1825 531 
L 1825 4091 
L 703 3866 
L 703 4441 
L 1819 4666 
L 2450 4666 
L 2450 531 
L 3481 531 
L 3481 0 
L 794 0 
L 794 531 
z
" id="DejaVuSans-31" transform="scale(0.015625)"/>
        <path d="M 2034 4250 
Q 1547 4250 1301 3770 
Q 1056 3291 1056 2328 
Q 1056 1369 1301 889 
Q 1547 409 2034 409 
Q 2525 409 2770 889 
Q 3016 1369 3016 2328 
Q 3016 3291 2770 3770 
Q 2525 4250 2034 4250 
z
M 2034 4750 
Q 2819 4750 3233 4129 
Q 3647 3509 3647 2328 
Q 3647 1150 3233 529 
Q 2819 -91 2034 -91 
Q 1250 -91 836 529 
Q 422 1150 422 2328 
Q 422 3509 836 4129 
Q 1250 4750 2034 4750 
z
" id="DejaVuSans-30" transform="scale(0.015625)"/>
       </defs>
       <use xlink:href="#DejaVuSans-31"/>
       <use x="63.623047" xlink:href="#DejaVuSans-30"/>
      </g>
     </g>
    </g>
    <g id="xtick_2">
     <g id="line2d_2">
      <g>
       <use style="stroke:#000000;stroke-width:0.8;" x="414.615631" xlink:href="#mc689632983" y="288.430125"/>
      </g>
     </g>
     <g id="text_2">
      <!-- 15 -->
      <g transform="translate(408.253131 303.028562)scale(0.1 -0.1)">
       <defs>
        <path d="M 691 4666 
L 3169 4666 
L 3169 4134 
L 1269 4134 
L 1269 2991 
Q 1406 3038 1543 3061 
Q 1681 3084 1819 3084 
Q 2600 3084 3056 2656 
Q 3513 2228 3513 1497 
Q 3513 744 3044 326 
Q 2575 -91 1722 -91 
Q 1428 -91 1123 -41 
Q 819 9 494 109 
L 494 744 
Q 775 591 1075 516 
Q 1375 441 1709 441 
Q 2250 441 2565 725 
Q 2881 1009 2881 1497 
Q 2881 1984 2565 2268 
Q 2250 2553 1709 2553 
Q 1456 2553 1204 2497 
Q 953 2441 691 2322 
L 691 4666 
z
" id="DejaVuSans-35" transform="scale(0.015625)"/>
       </defs>
       <use xlink:href="#DejaVuSans-31"/>
       <use x="63.623047" xlink:href="#DejaVuSans-35"/>
      </g>
     </g>
    </g>
    <g id="xtick_3">
     <g id="line2d_3">
      <g>
       <use style="stroke:#000000;stroke-width:0.8;" x="460.207383" xlink:href="#mc689632983" y="288.430125"/>
      </g>
     </g>
     <g id="text_3">
      <!-- 20 -->
      <g transform="translate(453.844883 303.028562)scale(0.1 -0.1)">
       <defs>
        <path d="M 1228 531 
L 3431 531 
L 3431 0 
L 469 0 
L 469 531 
Q 828 903 1448 1529 
Q 2069 2156 2228 2338 
Q 2531 2678 2651 2914 
Q 2772 3150 2772 3378 
Q 2772 3750 2511 3984 
Q 2250 4219 1831 4219 
Q 1534 4219 1204 4116 
Q 875 4013 500 3803 
L 500 4441 
Q 881 4594 1212 4672 
Q 1544 4750 1819 4750 
Q 2544 4750 2975 4387 
Q 3406 4025 3406 3419 
Q 3406 3131 3298 2873 
Q 3191 2616 2906 2266 
Q 2828 2175 2409 1742 
Q 1991 1309 1228 531 
z
" id="DejaVuSans-32" transform="scale(0.015625)"/>
       </defs>
       <use xlink:href="#DejaVuSans-32"/>
       <use x="63.623047" xlink:href="#DejaVuSans-30"/>
      </g>
     </g>
    </g>
    <g id="xtick_4">
     <g id="line2d_4">
      <g>
       <use style="stroke:#000000;stroke-width:0.8;" x="505.799136" xlink:href="#mc689632983" y="288.430125"/>
      </g>
     </g>
     <g id="text_4">
      <!-- 25 -->
      <g transform="translate(499.436636 303.028562)scale(0.1 -0.1)">
       <use xlink:href="#DejaVuSans-32"/>
       <use x="63.623047" xlink:href="#DejaVuSans-35"/>
      </g>
     </g>
    </g>
    <g id="xtick_5">
     <g id="line2d_5">
      <g>
       <use style="stroke:#000000;stroke-width:0.8;" x="551.390888" xlink:href="#mc689632983" y="288.430125"/>
      </g>
     </g>
     <g id="text_5">
      <!-- 30 -->
      <g transform="translate(545.028388 303.028562)scale(0.1 -0.1)">
       <defs>
        <path d="M 2597 2516 
Q 3050 2419 3304 2112 
Q 3559 1806 3559 1356 
Q 3559 666 3084 287 
Q 2609 -91 1734 -91 
Q 1441 -91 1130 -33 
Q 819 25 488 141 
L 488 750 
Q 750 597 1062 519 
Q 1375 441 1716 441 
Q 2309 441 2620 675 
Q 2931 909 2931 1356 
Q 2931 1769 2642 2001 
Q 2353 2234 1838 2234 
L 1294 2234 
L 1294 2753 
L 1863 2753 
Q 2328 2753 2575 2939 
Q 2822 3125 2822 3475 
Q 2822 3834 2567 4026 
Q 2313 4219 1838 4219 
Q 1578 4219 1281 4162 
Q 984 4106 628 3988 
L 628 4550 
Q 988 4650 1302 4700 
Q 1616 4750 1894 4750 
Q 2613 4750 3031 4423 
Q 3450 4097 3450 3541 
Q 3450 3153 3228 2886 
Q 3006 2619 2597 2516 
z
" id="DejaVuSans-33" transform="scale(0.015625)"/>
       </defs>
       <use xlink:href="#DejaVuSans-33"/>
       <use x="63.623047" xlink:href="#DejaVuSans-30"/>
      </g>
     </g>
    </g>
    <g id="xtick_6">
     <g id="line2d_6">
      <g>
       <use style="stroke:#000000;stroke-width:0.8;" x="596.98264" xlink:href="#mc689632983" y="288.430125"/>
      </g>
     </g>
     <g id="text_6">
      <!-- 35 -->
      <g transform="translate(590.62014 303.028562)scale(0.1 -0.1)">
       <use xlink:href="#DejaVuSans-33"/>
       <use x="63.623047" xlink:href="#DejaVuSans-35"/>
      </g>
     </g>
    </g>
    <g id="xtick_7">
     <g id="line2d_7">
      <g>
       <use style="stroke:#000000;stroke-width:0.8;" x="642.574393" xlink:href="#mc689632983" y="288.430125"/>
      </g>
     </g>
     <g id="text_7">
      <!-- 40 -->
      <g transform="translate(636.211893 303.028562)scale(0.1 -0.1)">
       <defs>
        <path d="M 2419 4116 
L 825 1625 
L 2419 1625 
L 2419 4116 
z
M 2253 4666 
L 3047 4666 
L 3047 1625 
L 3713 1625 
L 3713 1100 
L 3047 1100 
L 3047 0 
L 2419 0 
L 2419 1100 
L 313 1100 
L 313 1709 
L 2253 4666 
z
" id="DejaVuSans-34" transform="scale(0.015625)"/>
       </defs>
       <use xlink:href="#DejaVuSans-34"/>
       <use x="63.623047" xlink:href="#DejaVuSans-30"/>
      </g>
     </g>
    </g>
    <g id="xtick_8">
     <g id="line2d_8">
      <g>
       <use style="stroke:#000000;stroke-width:0.8;" x="688.166145" xlink:href="#mc689632983" y="288.430125"/>
      </g>
     </g>
     <g id="text_8">
      <!-- 45 -->
      <g transform="translate(681.803645 303.028562)scale(0.1 -0.1)">
       <use xlink:href="#DejaVuSans-34"/>
       <use x="63.623047" xlink:href="#DejaVuSans-35"/>
      </g>
     </g>
    </g>
    <g id="text_9">
     <!-- Fold Enrichment -->
     <g transform="translate(475.477969 316.706687)scale(0.1 -0.1)">
      <defs>
       <path d="M 628 4666 
L 3309 4666 
L 3309 4134 
L 1259 4134 
L 1259 2759 
L 3109 2759 
L 3109 2228 
L 1259 2228 
L 1259 0 
L 628 0 
L 628 4666 
z
" id="DejaVuSans-46" transform="scale(0.015625)"/>
       <path d="M 1959 3097 
Q 1497 3097 1228 2736 
Q 959 2375 959 1747 
Q 959 1119 1226 758 
Q 1494 397 1959 397 
Q 2419 397 2687 759 
Q 2956 1122 2956 1747 
Q 2956 2369 2687 2733 
Q 2419 3097 1959 3097 
z
M 1959 3584 
Q 2709 3584 3137 3096 
Q 3566 2609 3566 1747 
Q 3566 888 3137 398 
Q 2709 -91 1959 -91 
Q 1206 -91 779 398 
Q 353 888 353 1747 
Q 353 2609 779 3096 
Q 1206 3584 1959 3584 
z
" id="DejaVuSans-6f" transform="scale(0.015625)"/>
       <path d="M 603 4863 
L 1178 4863 
L 1178 0 
L 603 0 
L 603 4863 
z
" id="DejaVuSans-6c" transform="scale(0.015625)"/>
       <path d="M 2906 2969 
L 2906 4863 
L 3481 4863 
L 3481 0 
L 2906 0 
L 2906 525 
Q 2725 213 2448 61 
Q 2172 -91 1784 -91 
Q 1150 -91 751 415 
Q 353 922 353 1747 
Q 353 2572 751 3078 
Q 1150 3584 1784 3584 
Q 2172 3584 2448 3432 
Q 2725 3281 2906 2969 
z
M 947 1747 
Q 947 1113 1208 752 
Q 1469 391 1925 391 
Q 2381 391 2643 752 
Q 2906 1113 2906 1747 
Q 2906 2381 2643 2742 
Q 2381 3103 1925 3103 
Q 1469 3103 1208 2742 
Q 947 2381 947 1747 
z
" id="DejaVuSans-64" transform="scale(0.015625)"/>
       <path id="DejaVuSans-20" transform="scale(0.015625)"/>
       <path d="M 628 4666 
L 3578 4666 
L 3578 4134 
L 1259 4134 
L 1259 2753 
L 3481 2753 
L 3481 2222 
L 1259 2222 
L 1259 531 
L 3634 531 
L 3634 0 
L 628 0 
L 628 4666 
z
" id="DejaVuSans-45" transform="scale(0.015625)"/>
       <path d="M 3513 2113 
L 3513 0 
L 2938 0 
L 2938 2094 
Q 2938 2591 2744 2837 
Q 2550 3084 2163 3084 
Q 1697 3084 1428 2787 
Q 1159 2491 1159 1978 
L 1159 0 
L 581 0 
L 581 3500 
L 1159 3500 
L 1159 2956 
Q 1366 3272 1645 3428 
Q 1925 3584 2291 3584 
Q 2894 3584 3203 3211 
Q 3513 2838 3513 2113 
z
" id="DejaVuSans-6e" transform="scale(0.015625)"/>
       <path d="M 2631 2963 
Q 2534 3019 2420 3045 
Q 2306 3072 2169 3072 
Q 1681 3072 1420 2755 
Q 1159 2438 1159 1844 
L 1159 0 
L 581 0 
L 581 3500 
L 1159 3500 
L 1159 2956 
Q 1341 3275 1631 3429 
Q 1922 3584 2338 3584 
Q 2397 3584 2469 3576 
Q 2541 3569 2628 3553 
L 2631 2963 
z
" id="DejaVuSans-72" transform="scale(0.015625)"/>
       <path d="M 603 3500 
L 1178 3500 
L 1178 0 
L 603 0 
L 603 3500 
z
M 603 4863 
L 1178 4863 
L 1178 4134 
L 603 4134 
L 603 4863 
z
" id="DejaVuSans-69" transform="scale(0.015625)"/>
       <path d="M 3122 3366 
L 3122 2828 
Q 2878 2963 2633 3030 
Q 2388 3097 2138 3097 
Q 1578 3097 1268 2742 
Q 959 2388 959 1747 
Q 959 1106 1268 751 
Q 1578 397 2138 397 
Q 2388 397 2633 464 
Q 2878 531 3122 666 
L 3122 134 
Q 2881 22 2623 -34 
Q 2366 -91 2075 -91 
Q 1284 -91 818 406 
Q 353 903 353 1747 
Q 353 2603 823 3093 
Q 1294 3584 2113 3584 
Q 2378 3584 2631 3529 
Q 2884 3475 3122 3366 
z
" id="DejaVuSans-63" transform="scale(0.015625)"/>
       <path d="M 3513 2113 
L 3513 0 
L 2938 0 
L 2938 2094 
Q 2938 2591 2744 2837 
Q 2550 3084 2163 3084 
Q 1697 3084 1428 2787 
Q 1159 2491 1159 1978 
L 1159 0 
L 581 0 
L 581 4863 
L 1159 4863 
L 1159 2956 
Q 1366 3272 1645 3428 
Q 1925 3584 2291 3584 
Q 2894 3584 3203 3211 
Q 3513 2838 3513 2113 
z
" id="DejaVuSans-68" transform="scale(0.015625)"/>
       <path d="M 3328 2828 
Q 3544 3216 3844 3400 
Q 4144 3584 4550 3584 
Q 5097 3584 5394 3201 
Q 5691 2819 5691 2113 
L 5691 0 
L 5113 0 
L 5113 2094 
Q 5113 2597 4934 2840 
Q 4756 3084 4391 3084 
Q 3944 3084 3684 2787 
Q 3425 2491 3425 1978 
L 3425 0 
L 2847 0 
L 2847 2094 
Q 2847 2600 2669 2842 
Q 2491 3084 2119 3084 
Q 1678 3084 1418 2786 
Q 1159 2488 1159 1978 
L 1159 0 
L 581 0 
L 581 3500 
L 1159 3500 
L 1159 2956 
Q 1356 3278 1631 3431 
Q 1906 3584 2284 3584 
Q 2666 3584 2933 3390 
Q 3200 3197 3328 2828 
z
" id="DejaVuSans-6d" transform="scale(0.015625)"/>
       <path d="M 3597 1894 
L 3597 1613 
L 953 1613 
Q 991 1019 1311 708 
Q 1631 397 2203 397 
Q 2534 397 2845 478 
Q 3156 559 3463 722 
L 3463 178 
Q 3153 47 2828 -22 
Q 2503 -91 2169 -91 
Q 1331 -91 842 396 
Q 353 884 353 1716 
Q 353 2575 817 3079 
Q 1281 3584 2069 3584 
Q 2775 3584 3186 3129 
Q 3597 2675 3597 1894 
z
M 3022 2063 
Q 3016 2534 2758 2815 
Q 2500 3097 2075 3097 
Q 1594 3097 1305 2825 
Q 1016 2553 972 2059 
L 3022 2063 
z
" id="DejaVuSans-65" transform="scale(0.015625)"/>
       <path d="M 1172 4494 
L 1172 3500 
L 2356 3500 
L 2356 3053 
L 1172 3053 
L 1172 1153 
Q 1172 725 1289 603 
Q 1406 481 1766 481 
L 2356 481 
L 2356 0 
L 1766 0 
Q 1100 0 847 248 
Q 594 497 594 1153 
L 594 3053 
L 172 3053 
L 172 3500 
L 594 3500 
L 594 4494 
L 1172 4494 
z
" id="DejaVuSans-74" transform="scale(0.015625)"/>
      </defs>
      <use xlink:href="#DejaVuSans-46"/>
      <use x="53.894531" xlink:href="#DejaVuSans-6f"/>
      <use x="115.076172" xlink:href="#DejaVuSans-6c"/>
      <use x="142.859375" xlink:href="#DejaVuSans-64"/>
      <use x="206.335938" xlink:href="#DejaVuSans-20"/>
      <use x="238.123047" xlink:href="#DejaVuSans-45"/>
      <use x="301.306641" xlink:href="#DejaVuSans-6e"/>
      <use x="364.685547" xlink:href="#DejaVuSans-72"/>
      <use x="405.798828" xlink:href="#DejaVuSans-69"/>
      <use x="433.582031" xlink:href="#DejaVuSans-63"/>
      <use x="488.5625" xlink:href="#DejaVuSans-68"/>
      <use x="551.941406" xlink:href="#DejaVuSans-6d"/>
      <use x="649.353516" xlink:href="#DejaVuSans-65"/>
      <use x="710.876953" xlink:href="#DejaVuSans-6e"/>
      <use x="774.255859" xlink:href="#DejaVuSans-74"/>
     </g>
    </g>
   </g>
   <g id="matplotlib.axis_2">
    <g id="ytick_1">
     <g id="line2d_9">
      <defs>
       <path d="M 0 0 
L -3.5 0 
" id="mf2f8b63518" style="stroke:#000000;stroke-width:0.8;"/>
      </defs>
      <g>
       <use style="stroke:#000000;stroke-width:0.8;" x="337.590625" xlink:href="#mf2f8b63518" y="34.414125"/>
      </g>
     </g>
     <g id="text_10">
      <!-- proteasome-activating activity -->
      <g transform="translate(177.410937 38.213344)scale(0.1 -0.1)">
       <defs>
        <path d="M 1159 525 
L 1159 -1331 
L 581 -1331 
L 581 3500 
L 1159 3500 
L 1159 2969 
Q 1341 3281 1617 3432 
Q 1894 3584 2278 3584 
Q 2916 3584 3314 3078 
Q 3713 2572 3713 1747 
Q 3713 922 3314 415 
Q 2916 -91 2278 -91 
Q 1894 -91 1617 61 
Q 1341 213 1159 525 
z
M 3116 1747 
Q 3116 2381 2855 2742 
Q 2594 3103 2138 3103 
Q 1681 3103 1420 2742 
Q 1159 2381 1159 1747 
Q 1159 1113 1420 752 
Q 1681 391 2138 391 
Q 2594 391 2855 752 
Q 3116 1113 3116 1747 
z
" id="DejaVuSans-70" transform="scale(0.015625)"/>
        <path d="M 2194 1759 
Q 1497 1759 1228 1600 
Q 959 1441 959 1056 
Q 959 750 1161 570 
Q 1363 391 1709 391 
Q 2188 391 2477 730 
Q 2766 1069 2766 1631 
L 2766 1759 
L 2194 1759 
z
M 3341 1997 
L 3341 0 
L 2766 0 
L 2766 531 
Q 2569 213 2275 61 
Q 1981 -91 1556 -91 
Q 1019 -91 701 211 
Q 384 513 384 1019 
Q 384 1609 779 1909 
Q 1175 2209 1959 2209 
L 2766 2209 
L 2766 2266 
Q 2766 2663 2505 2880 
Q 2244 3097 1772 3097 
Q 1472 3097 1187 3025 
Q 903 2953 641 2809 
L 641 3341 
Q 956 3463 1253 3523 
Q 1550 3584 1831 3584 
Q 2591 3584 2966 3190 
Q 3341 2797 3341 1997 
z
" id="DejaVuSans-61" transform="scale(0.015625)"/>
        <path d="M 2834 3397 
L 2834 2853 
Q 2591 2978 2328 3040 
Q 2066 3103 1784 3103 
Q 1356 3103 1142 2972 
Q 928 2841 928 2578 
Q 928 2378 1081 2264 
Q 1234 2150 1697 2047 
L 1894 2003 
Q 2506 1872 2764 1633 
Q 3022 1394 3022 966 
Q 3022 478 2636 193 
Q 2250 -91 1575 -91 
Q 1294 -91 989 -36 
Q 684 19 347 128 
L 347 722 
Q 666 556 975 473 
Q 1284 391 1588 391 
Q 1994 391 2212 530 
Q 2431 669 2431 922 
Q 2431 1156 2273 1281 
Q 2116 1406 1581 1522 
L 1381 1569 
Q 847 1681 609 1914 
Q 372 2147 372 2553 
Q 372 3047 722 3315 
Q 1072 3584 1716 3584 
Q 2034 3584 2315 3537 
Q 2597 3491 2834 3397 
z
" id="DejaVuSans-73" transform="scale(0.015625)"/>
        <path d="M 313 2009 
L 1997 2009 
L 1997 1497 
L 313 1497 
L 313 2009 
z
" id="DejaVuSans-2d" transform="scale(0.015625)"/>
        <path d="M 191 3500 
L 800 3500 
L 1894 563 
L 2988 3500 
L 3597 3500 
L 2284 0 
L 1503 0 
L 191 3500 
z
" id="DejaVuSans-76" transform="scale(0.015625)"/>
        <path d="M 2906 1791 
Q 2906 2416 2648 2759 
Q 2391 3103 1925 3103 
Q 1463 3103 1205 2759 
Q 947 2416 947 1791 
Q 947 1169 1205 825 
Q 1463 481 1925 481 
Q 2391 481 2648 825 
Q 2906 1169 2906 1791 
z
M 3481 434 
Q 3481 -459 3084 -895 
Q 2688 -1331 1869 -1331 
Q 1566 -1331 1297 -1286 
Q 1028 -1241 775 -1147 
L 775 -588 
Q 1028 -725 1275 -790 
Q 1522 -856 1778 -856 
Q 2344 -856 2625 -561 
Q 2906 -266 2906 331 
L 2906 616 
Q 2728 306 2450 153 
Q 2172 0 1784 0 
Q 1141 0 747 490 
Q 353 981 353 1791 
Q 353 2603 747 3093 
Q 1141 3584 1784 3584 
Q 2172 3584 2450 3431 
Q 2728 3278 2906 2969 
L 2906 3500 
L 3481 3500 
L 3481 434 
z
" id="DejaVuSans-67" transform="scale(0.015625)"/>
        <path d="M 2059 -325 
Q 1816 -950 1584 -1140 
Q 1353 -1331 966 -1331 
L 506 -1331 
L 506 -850 
L 844 -850 
Q 1081 -850 1212 -737 
Q 1344 -625 1503 -206 
L 1606 56 
L 191 3500 
L 800 3500 
L 1894 763 
L 2988 3500 
L 3597 3500 
L 2059 -325 
z
" id="DejaVuSans-79" transform="scale(0.015625)"/>
       </defs>
       <use xlink:href="#DejaVuSans-70"/>
       <use x="63.476562" xlink:href="#DejaVuSans-72"/>
       <use x="102.339844" xlink:href="#DejaVuSans-6f"/>
       <use x="163.521484" xlink:href="#DejaVuSans-74"/>
       <use x="202.730469" xlink:href="#DejaVuSans-65"/>
       <use x="264.253906" xlink:href="#DejaVuSans-61"/>
       <use x="325.533203" xlink:href="#DejaVuSans-73"/>
       <use x="377.632812" xlink:href="#DejaVuSans-6f"/>
       <use x="438.814453" xlink:href="#DejaVuSans-6d"/>
       <use x="536.226562" xlink:href="#DejaVuSans-65"/>
       <use x="597.75" xlink:href="#DejaVuSans-2d"/>
       <use x="633.833984" xlink:href="#DejaVuSans-61"/>
       <use x="695.113281" xlink:href="#DejaVuSans-63"/>
       <use x="750.09375" xlink:href="#DejaVuSans-74"/>
       <use x="789.302734" xlink:href="#DejaVuSans-69"/>
       <use x="817.085938" xlink:href="#DejaVuSans-76"/>
       <use x="876.265625" xlink:href="#DejaVuSans-61"/>
       <use x="937.544922" xlink:href="#DejaVuSans-74"/>
       <use x="976.753906" xlink:href="#DejaVuSans-69"/>
       <use x="1004.537109" xlink:href="#DejaVuSans-6e"/>
       <use x="1067.916016" xlink:href="#DejaVuSans-67"/>
       <use x="1131.392578" xlink:href="#DejaVuSans-20"/>
       <use x="1163.179688" xlink:href="#DejaVuSans-61"/>
       <use x="1224.458984" xlink:href="#DejaVuSans-63"/>
       <use x="1279.439453" xlink:href="#DejaVuSans-74"/>
       <use x="1318.648438" xlink:href="#DejaVuSans-69"/>
       <use x="1346.431641" xlink:href="#DejaVuSans-76"/>
       <use x="1405.611328" xlink:href="#DejaVuSans-69"/>
       <use x="1433.394531" xlink:href="#DejaVuSans-74"/>
       <use x="1472.603516" xlink:href="#DejaVuSans-79"/>
      </g>
     </g>
    </g>
    <g id="ytick_2">
     <g id="line2d_10">
      <g>
       <use style="stroke:#000000;stroke-width:0.8;" x="337.590625" xlink:href="#mf2f8b63518" y="47.146757"/>
      </g>
     </g>
     <g id="text_11">
      <!-- ubiquinol-cytochrome-c reductase activity -->
      <g transform="translate(119.671875 50.945975)scale(0.1 -0.1)">
       <defs>
        <path d="M 544 1381 
L 544 3500 
L 1119 3500 
L 1119 1403 
Q 1119 906 1312 657 
Q 1506 409 1894 409 
Q 2359 409 2629 706 
Q 2900 1003 2900 1516 
L 2900 3500 
L 3475 3500 
L 3475 0 
L 2900 0 
L 2900 538 
Q 2691 219 2414 64 
Q 2138 -91 1772 -91 
Q 1169 -91 856 284 
Q 544 659 544 1381 
z
M 1991 3584 
L 1991 3584 
z
" id="DejaVuSans-75" transform="scale(0.015625)"/>
        <path d="M 3116 1747 
Q 3116 2381 2855 2742 
Q 2594 3103 2138 3103 
Q 1681 3103 1420 2742 
Q 1159 2381 1159 1747 
Q 1159 1113 1420 752 
Q 1681 391 2138 391 
Q 2594 391 2855 752 
Q 3116 1113 3116 1747 
z
M 1159 2969 
Q 1341 3281 1617 3432 
Q 1894 3584 2278 3584 
Q 2916 3584 3314 3078 
Q 3713 2572 3713 1747 
Q 3713 922 3314 415 
Q 2916 -91 2278 -91 
Q 1894 -91 1617 61 
Q 1341 213 1159 525 
L 1159 0 
L 581 0 
L 581 4863 
L 1159 4863 
L 1159 2969 
z
" id="DejaVuSans-62" transform="scale(0.015625)"/>
        <path d="M 947 1747 
Q 947 1113 1208 752 
Q 1469 391 1925 391 
Q 2381 391 2643 752 
Q 2906 1113 2906 1747 
Q 2906 2381 2643 2742 
Q 2381 3103 1925 3103 
Q 1469 3103 1208 2742 
Q 947 2381 947 1747 
z
M 2906 525 
Q 2725 213 2448 61 
Q 2172 -91 1784 -91 
Q 1150 -91 751 415 
Q 353 922 353 1747 
Q 353 2572 751 3078 
Q 1150 3584 1784 3584 
Q 2172 3584 2448 3432 
Q 2725 3281 2906 2969 
L 2906 3500 
L 3481 3500 
L 3481 -1331 
L 2906 -1331 
L 2906 525 
z
" id="DejaVuSans-71" transform="scale(0.015625)"/>
       </defs>
       <use xlink:href="#DejaVuSans-75"/>
       <use x="63.378906" xlink:href="#DejaVuSans-62"/>
       <use x="126.855469" xlink:href="#DejaVuSans-69"/>
       <use x="154.638672" xlink:href="#DejaVuSans-71"/>
       <use x="218.115234" xlink:href="#DejaVuSans-75"/>
       <use x="281.494141" xlink:href="#DejaVuSans-69"/>
       <use x="309.277344" xlink:href="#DejaVuSans-6e"/>
       <use x="372.65625" xlink:href="#DejaVuSans-6f"/>
       <use x="433.837891" xlink:href="#DejaVuSans-6c"/>
       <use x="461.621094" xlink:href="#DejaVuSans-2d"/>
       <use x="497.705078" xlink:href="#DejaVuSans-63"/>
       <use x="552.685547" xlink:href="#DejaVuSans-79"/>
       <use x="611.865234" xlink:href="#DejaVuSans-74"/>
       <use x="651.074219" xlink:href="#DejaVuSans-6f"/>
       <use x="712.255859" xlink:href="#DejaVuSans-63"/>
       <use x="767.236328" xlink:href="#DejaVuSans-68"/>
       <use x="830.615234" xlink:href="#DejaVuSans-72"/>
       <use x="869.478516" xlink:href="#DejaVuSans-6f"/>
       <use x="930.660156" xlink:href="#DejaVuSans-6d"/>
       <use x="1028.072266" xlink:href="#DejaVuSans-65"/>
       <use x="1089.595703" xlink:href="#DejaVuSans-2d"/>
       <use x="1125.679688" xlink:href="#DejaVuSans-63"/>
       <use x="1180.660156" xlink:href="#DejaVuSans-20"/>
       <use x="1212.447266" xlink:href="#DejaVuSans-72"/>
       <use x="1251.310547" xlink:href="#DejaVuSans-65"/>
       <use x="1312.833984" xlink:href="#DejaVuSans-64"/>
       <use x="1376.310547" xlink:href="#DejaVuSans-75"/>
       <use x="1439.689453" xlink:href="#DejaVuSans-63"/>
       <use x="1494.669922" xlink:href="#DejaVuSans-74"/>
       <use x="1533.878906" xlink:href="#DejaVuSans-61"/>
       <use x="1595.158203" xlink:href="#DejaVuSans-73"/>
       <use x="1647.257812" xlink:href="#DejaVuSans-65"/>
       <use x="1708.78125" xlink:href="#DejaVuSans-20"/>
       <use x="1740.568359" xlink:href="#DejaVuSans-61"/>
       <use x="1801.847656" xlink:href="#DejaVuSans-63"/>
       <use x="1856.828125" xlink:href="#DejaVuSans-74"/>
       <use x="1896.037109" xlink:href="#DejaVuSans-69"/>
       <use x="1923.820312" xlink:href="#DejaVuSans-76"/>
       <use x="1983" xlink:href="#DejaVuSans-69"/>
       <use x="2010.783203" xlink:href="#DejaVuSans-74"/>
       <use x="2049.992188" xlink:href="#DejaVuSans-79"/>
      </g>
     </g>
    </g>
    <g id="ytick_3">
     <g id="line2d_11">
      <g>
       <use style="stroke:#000000;stroke-width:0.8;" x="337.590625" xlink:href="#mf2f8b63518" y="59.879388"/>
      </g>
     </g>
     <g id="text_12">
      <!-- ATP:ADP antiporter activity -->
      <g transform="translate(195.304687 63.678607)scale(0.1 -0.1)">
       <defs>
        <path d="M 2188 4044 
L 1331 1722 
L 3047 1722 
L 2188 4044 
z
M 1831 4666 
L 2547 4666 
L 4325 0 
L 3669 0 
L 3244 1197 
L 1141 1197 
L 716 0 
L 50 0 
L 1831 4666 
z
" id="DejaVuSans-41" transform="scale(0.015625)"/>
        <path d="M -19 4666 
L 3928 4666 
L 3928 4134 
L 2272 4134 
L 2272 0 
L 1638 0 
L 1638 4134 
L -19 4134 
L -19 4666 
z
" id="DejaVuSans-54" transform="scale(0.015625)"/>
        <path d="M 1259 4147 
L 1259 2394 
L 2053 2394 
Q 2494 2394 2734 2622 
Q 2975 2850 2975 3272 
Q 2975 3691 2734 3919 
Q 2494 4147 2053 4147 
L 1259 4147 
z
M 628 4666 
L 2053 4666 
Q 2838 4666 3239 4311 
Q 3641 3956 3641 3272 
Q 3641 2581 3239 2228 
Q 2838 1875 2053 1875 
L 1259 1875 
L 1259 0 
L 628 0 
L 628 4666 
z
" id="DejaVuSans-50" transform="scale(0.015625)"/>
        <path d="M 750 794 
L 1409 794 
L 1409 0 
L 750 0 
L 750 794 
z
M 750 3309 
L 1409 3309 
L 1409 2516 
L 750 2516 
L 750 3309 
z
" id="DejaVuSans-3a" transform="scale(0.015625)"/>
        <path d="M 1259 4147 
L 1259 519 
L 2022 519 
Q 2988 519 3436 956 
Q 3884 1394 3884 2338 
Q 3884 3275 3436 3711 
Q 2988 4147 2022 4147 
L 1259 4147 
z
M 628 4666 
L 1925 4666 
Q 3281 4666 3915 4102 
Q 4550 3538 4550 2338 
Q 4550 1131 3912 565 
Q 3275 0 1925 0 
L 628 0 
L 628 4666 
z
" id="DejaVuSans-44" transform="scale(0.015625)"/>
       </defs>
       <use xlink:href="#DejaVuSans-41"/>
       <use x="60.658203" xlink:href="#DejaVuSans-54"/>
       <use x="121.742188" xlink:href="#DejaVuSans-50"/>
       <use x="182.044922" xlink:href="#DejaVuSans-3a"/>
       <use x="215.736328" xlink:href="#DejaVuSans-41"/>
       <use x="284.144531" xlink:href="#DejaVuSans-44"/>
       <use x="361.146484" xlink:href="#DejaVuSans-50"/>
       <use x="421.449219" xlink:href="#DejaVuSans-20"/>
       <use x="453.236328" xlink:href="#DejaVuSans-61"/>
       <use x="514.515625" xlink:href="#DejaVuSans-6e"/>
       <use x="577.894531" xlink:href="#DejaVuSans-74"/>
       <use x="617.103516" xlink:href="#DejaVuSans-69"/>
       <use x="644.886719" xlink:href="#DejaVuSans-70"/>
       <use x="708.363281" xlink:href="#DejaVuSans-6f"/>
       <use x="769.544922" xlink:href="#DejaVuSans-72"/>
       <use x="810.658203" xlink:href="#DejaVuSans-74"/>
       <use x="849.867188" xlink:href="#DejaVuSans-65"/>
       <use x="911.390625" xlink:href="#DejaVuSans-72"/>
       <use x="952.503906" xlink:href="#DejaVuSans-20"/>
       <use x="984.291016" xlink:href="#DejaVuSans-61"/>
       <use x="1045.570312" xlink:href="#DejaVuSans-63"/>
       <use x="1100.550781" xlink:href="#DejaVuSans-74"/>
       <use x="1139.759766" xlink:href="#DejaVuSans-69"/>
       <use x="1167.542969" xlink:href="#DejaVuSans-76"/>
       <use x="1226.722656" xlink:href="#DejaVuSans-69"/>
       <use x="1254.505859" xlink:href="#DejaVuSans-74"/>
       <use x="1293.714844" xlink:href="#DejaVuSans-79"/>
      </g>
     </g>
    </g>
    <g id="ytick_4">
     <g id="line2d_12">
      <g>
       <use style="stroke:#000000;stroke-width:0.8;" x="337.590625" xlink:href="#mf2f8b63518" y="72.61202"/>
      </g>
     </g>
     <g id="text_13">
      <!-- AMPA glutamate receptor activity -->
      <g transform="translate(162.85 76.411238)scale(0.1 -0.1)">
       <defs>
        <path d="M 628 4666 
L 1569 4666 
L 2759 1491 
L 3956 4666 
L 4897 4666 
L 4897 0 
L 4281 0 
L 4281 4097 
L 3078 897 
L 2444 897 
L 1241 4097 
L 1241 0 
L 628 0 
L 628 4666 
z
" id="DejaVuSans-4d" transform="scale(0.015625)"/>
       </defs>
       <use xlink:href="#DejaVuSans-41"/>
       <use x="68.408203" xlink:href="#DejaVuSans-4d"/>
       <use x="154.6875" xlink:href="#DejaVuSans-50"/>
       <use x="208.615234" xlink:href="#DejaVuSans-41"/>
       <use x="277.023438" xlink:href="#DejaVuSans-20"/>
       <use x="308.810547" xlink:href="#DejaVuSans-67"/>
       <use x="372.287109" xlink:href="#DejaVuSans-6c"/>
       <use x="400.070312" xlink:href="#DejaVuSans-75"/>
       <use x="463.449219" xlink:href="#DejaVuSans-74"/>
       <use x="502.658203" xlink:href="#DejaVuSans-61"/>
       <use x="563.9375" xlink:href="#DejaVuSans-6d"/>
       <use x="661.349609" xlink:href="#DejaVuSans-61"/>
       <use x="722.628906" xlink:href="#DejaVuSans-74"/>
       <use x="761.837891" xlink:href="#DejaVuSans-65"/>
       <use x="823.361328" xlink:href="#DejaVuSans-20"/>
       <use x="855.148438" xlink:href="#DejaVuSans-72"/>
       <use x="894.011719" xlink:href="#DejaVuSans-65"/>
       <use x="955.535156" xlink:href="#DejaVuSans-63"/>
       <use x="1010.515625" xlink:href="#DejaVuSans-65"/>
       <use x="1072.039062" xlink:href="#DejaVuSans-70"/>
       <use x="1135.515625" xlink:href="#DejaVuSans-74"/>
       <use x="1174.724609" xlink:href="#DejaVuSans-6f"/>
       <use x="1235.90625" xlink:href="#DejaVuSans-72"/>
       <use x="1277.019531" xlink:href="#DejaVuSans-20"/>
       <use x="1308.806641" xlink:href="#DejaVuSans-61"/>
       <use x="1370.085938" xlink:href="#DejaVuSans-63"/>
       <use x="1425.066406" xlink:href="#DejaVuSans-74"/>
       <use x="1464.275391" xlink:href="#DejaVuSans-69"/>
       <use x="1492.058594" xlink:href="#DejaVuSans-76"/>
       <use x="1551.238281" xlink:href="#DejaVuSans-69"/>
       <use x="1579.021484" xlink:href="#DejaVuSans-74"/>
       <use x="1618.230469" xlink:href="#DejaVuSans-79"/>
      </g>
     </g>
    </g>
    <g id="ytick_5">
     <g id="line2d_13">
      <g>
       <use style="stroke:#000000;stroke-width:0.8;" x="337.590625" xlink:href="#mf2f8b63518" y="85.344651"/>
      </g>
     </g>
     <g id="text_14">
      <!-- RNA polymerase II activity -->
      <g transform="translate(198.365625 89.14387)scale(0.1 -0.1)">
       <defs>
        <path d="M 2841 2188 
Q 3044 2119 3236 1894 
Q 3428 1669 3622 1275 
L 4263 0 
L 3584 0 
L 2988 1197 
Q 2756 1666 2539 1819 
Q 2322 1972 1947 1972 
L 1259 1972 
L 1259 0 
L 628 0 
L 628 4666 
L 2053 4666 
Q 2853 4666 3247 4331 
Q 3641 3997 3641 3322 
Q 3641 2881 3436 2590 
Q 3231 2300 2841 2188 
z
M 1259 4147 
L 1259 2491 
L 2053 2491 
Q 2509 2491 2742 2702 
Q 2975 2913 2975 3322 
Q 2975 3731 2742 3939 
Q 2509 4147 2053 4147 
L 1259 4147 
z
" id="DejaVuSans-52" transform="scale(0.015625)"/>
        <path d="M 628 4666 
L 1478 4666 
L 3547 763 
L 3547 4666 
L 4159 4666 
L 4159 0 
L 3309 0 
L 1241 3903 
L 1241 0 
L 628 0 
L 628 4666 
z
" id="DejaVuSans-4e" transform="scale(0.015625)"/>
        <path d="M 628 4666 
L 1259 4666 
L 1259 0 
L 628 0 
L 628 4666 
z
" id="DejaVuSans-49" transform="scale(0.015625)"/>
       </defs>
       <use xlink:href="#DejaVuSans-52"/>
       <use x="69.482422" xlink:href="#DejaVuSans-4e"/>
       <use x="144.287109" xlink:href="#DejaVuSans-41"/>
       <use x="212.695312" xlink:href="#DejaVuSans-20"/>
       <use x="244.482422" xlink:href="#DejaVuSans-70"/>
       <use x="307.958984" xlink:href="#DejaVuSans-6f"/>
       <use x="369.140625" xlink:href="#DejaVuSans-6c"/>
       <use x="396.923828" xlink:href="#DejaVuSans-79"/>
       <use x="456.103516" xlink:href="#DejaVuSans-6d"/>
       <use x="553.515625" xlink:href="#DejaVuSans-65"/>
       <use x="615.039062" xlink:href="#DejaVuSans-72"/>
       <use x="656.152344" xlink:href="#DejaVuSans-61"/>
       <use x="717.431641" xlink:href="#DejaVuSans-73"/>
       <use x="769.53125" xlink:href="#DejaVuSans-65"/>
       <use x="831.054688" xlink:href="#DejaVuSans-20"/>
       <use x="862.841797" xlink:href="#DejaVuSans-49"/>
       <use x="892.333984" xlink:href="#DejaVuSans-49"/>
       <use x="921.826172" xlink:href="#DejaVuSans-20"/>
       <use x="953.613281" xlink:href="#DejaVuSans-61"/>
       <use x="1014.892578" xlink:href="#DejaVuSans-63"/>
       <use x="1069.873047" xlink:href="#DejaVuSans-74"/>
       <use x="1109.082031" xlink:href="#DejaVuSans-69"/>
       <use x="1136.865234" xlink:href="#DejaVuSans-76"/>
       <use x="1196.044922" xlink:href="#DejaVuSans-69"/>
       <use x="1223.828125" xlink:href="#DejaVuSans-74"/>
       <use x="1263.037109" xlink:href="#DejaVuSans-79"/>
      </g>
     </g>
    </g>
    <g id="ytick_6">
     <g id="line2d_14">
      <g>
       <use style="stroke:#000000;stroke-width:0.8;" x="337.590625" xlink:href="#mf2f8b63518" y="98.077283"/>
      </g>
     </g>
     <g id="text_15">
      <!-- NADH dehydrogenase (ubiquinone) activity -->
      <g transform="translate(113.534375 101.876502)scale(0.1 -0.1)">
       <defs>
        <path d="M 628 4666 
L 1259 4666 
L 1259 2753 
L 3553 2753 
L 3553 4666 
L 4184 4666 
L 4184 0 
L 3553 0 
L 3553 2222 
L 1259 2222 
L 1259 0 
L 628 0 
L 628 4666 
z
" id="DejaVuSans-48" transform="scale(0.015625)"/>
        <path d="M 1984 4856 
Q 1566 4138 1362 3434 
Q 1159 2731 1159 2009 
Q 1159 1288 1364 580 
Q 1569 -128 1984 -844 
L 1484 -844 
Q 1016 -109 783 600 
Q 550 1309 550 2009 
Q 550 2706 781 3412 
Q 1013 4119 1484 4856 
L 1984 4856 
z
" id="DejaVuSans-28" transform="scale(0.015625)"/>
        <path d="M 513 4856 
L 1013 4856 
Q 1481 4119 1714 3412 
Q 1947 2706 1947 2009 
Q 1947 1309 1714 600 
Q 1481 -109 1013 -844 
L 513 -844 
Q 928 -128 1133 580 
Q 1338 1288 1338 2009 
Q 1338 2731 1133 3434 
Q 928 4138 513 4856 
z
" id="DejaVuSans-29" transform="scale(0.015625)"/>
       </defs>
       <use xlink:href="#DejaVuSans-4e"/>
       <use x="74.804688" xlink:href="#DejaVuSans-41"/>
       <use x="143.212891" xlink:href="#DejaVuSans-44"/>
       <use x="220.214844" xlink:href="#DejaVuSans-48"/>
       <use x="295.410156" xlink:href="#DejaVuSans-20"/>
       <use x="327.197266" xlink:href="#DejaVuSans-64"/>
       <use x="390.673828" xlink:href="#DejaVuSans-65"/>
       <use x="452.197266" xlink:href="#DejaVuSans-68"/>
       <use x="515.576172" xlink:href="#DejaVuSans-79"/>
       <use x="574.755859" xlink:href="#DejaVuSans-64"/>
       <use x="638.232422" xlink:href="#DejaVuSans-72"/>
       <use x="677.095703" xlink:href="#DejaVuSans-6f"/>
       <use x="738.277344" xlink:href="#DejaVuSans-67"/>
       <use x="801.753906" xlink:href="#DejaVuSans-65"/>
       <use x="863.277344" xlink:href="#DejaVuSans-6e"/>
       <use x="926.65625" xlink:href="#DejaVuSans-61"/>
       <use x="987.935547" xlink:href="#DejaVuSans-73"/>
       <use x="1040.035156" xlink:href="#DejaVuSans-65"/>
       <use x="1101.558594" xlink:href="#DejaVuSans-20"/>
       <use x="1133.345703" xlink:href="#DejaVuSans-28"/>
       <use x="1172.359375" xlink:href="#DejaVuSans-75"/>
       <use x="1235.738281" xlink:href="#DejaVuSans-62"/>
       <use x="1299.214844" xlink:href="#DejaVuSans-69"/>
       <use x="1326.998047" xlink:href="#DejaVuSans-71"/>
       <use x="1390.474609" xlink:href="#DejaVuSans-75"/>
       <use x="1453.853516" xlink:href="#DejaVuSans-69"/>
       <use x="1481.636719" xlink:href="#DejaVuSans-6e"/>
       <use x="1545.015625" xlink:href="#DejaVuSans-6f"/>
       <use x="1606.197266" xlink:href="#DejaVuSans-6e"/>
       <use x="1669.576172" xlink:href="#DejaVuSans-65"/>
       <use x="1731.099609" xlink:href="#DejaVuSans-29"/>
       <use x="1770.113281" xlink:href="#DejaVuSans-20"/>
       <use x="1801.900391" xlink:href="#DejaVuSans-61"/>
       <use x="1863.179688" xlink:href="#DejaVuSans-63"/>
       <use x="1918.160156" xlink:href="#DejaVuSans-74"/>
       <use x="1957.369141" xlink:href="#DejaVuSans-69"/>
       <use x="1985.152344" xlink:href="#DejaVuSans-76"/>
       <use x="2044.332031" xlink:href="#DejaVuSans-69"/>
       <use x="2072.115234" xlink:href="#DejaVuSans-74"/>
       <use x="2111.324219" xlink:href="#DejaVuSans-79"/>
      </g>
     </g>
    </g>
    <g id="ytick_7">
     <g id="line2d_15">
      <g>
       <use style="stroke:#000000;stroke-width:0.8;" x="337.590625" xlink:href="#mf2f8b63518" y="110.809914"/>
      </g>
     </g>
     <g id="text_16">
      <!-- NADH dehydrogenase activity -->
      <g transform="translate(180.390625 114.609133)scale(0.1 -0.1)">
       <use xlink:href="#DejaVuSans-4e"/>
       <use x="74.804688" xlink:href="#DejaVuSans-41"/>
       <use x="143.212891" xlink:href="#DejaVuSans-44"/>
       <use x="220.214844" xlink:href="#DejaVuSans-48"/>
       <use x="295.410156" xlink:href="#DejaVuSans-20"/>
       <use x="327.197266" xlink:href="#DejaVuSans-64"/>
       <use x="390.673828" xlink:href="#DejaVuSans-65"/>
       <use x="452.197266" xlink:href="#DejaVuSans-68"/>
       <use x="515.576172" xlink:href="#DejaVuSans-79"/>
       <use x="574.755859" xlink:href="#DejaVuSans-64"/>
       <use x="638.232422" xlink:href="#DejaVuSans-72"/>
       <use x="677.095703" xlink:href="#DejaVuSans-6f"/>
       <use x="738.277344" xlink:href="#DejaVuSans-67"/>
       <use x="801.753906" xlink:href="#DejaVuSans-65"/>
       <use x="863.277344" xlink:href="#DejaVuSans-6e"/>
       <use x="926.65625" xlink:href="#DejaVuSans-61"/>
       <use x="987.935547" xlink:href="#DejaVuSans-73"/>
       <use x="1040.035156" xlink:href="#DejaVuSans-65"/>
       <use x="1101.558594" xlink:href="#DejaVuSans-20"/>
       <use x="1133.345703" xlink:href="#DejaVuSans-61"/>
       <use x="1194.625" xlink:href="#DejaVuSans-63"/>
       <use x="1249.605469" xlink:href="#DejaVuSans-74"/>
       <use x="1288.814453" xlink:href="#DejaVuSans-69"/>
       <use x="1316.597656" xlink:href="#DejaVuSans-76"/>
       <use x="1375.777344" xlink:href="#DejaVuSans-69"/>
       <use x="1403.560547" xlink:href="#DejaVuSans-74"/>
       <use x="1442.769531" xlink:href="#DejaVuSans-79"/>
      </g>
     </g>
    </g>
    <g id="ytick_8">
     <g id="line2d_16">
      <g>
       <use style="stroke:#000000;stroke-width:0.8;" x="337.590625" xlink:href="#mf2f8b63518" y="123.542546"/>
      </g>
     </g>
     <g id="text_17">
      <!-- cytochrome-c oxidase activity -->
      <g transform="translate(180.734375 127.341765)scale(0.1 -0.1)">
       <defs>
        <path d="M 3513 3500 
L 2247 1797 
L 3578 0 
L 2900 0 
L 1881 1375 
L 863 0 
L 184 0 
L 1544 1831 
L 300 3500 
L 978 3500 
L 1906 2253 
L 2834 3500 
L 3513 3500 
z
" id="DejaVuSans-78" transform="scale(0.015625)"/>
       </defs>
       <use xlink:href="#DejaVuSans-63"/>
       <use x="54.980469" xlink:href="#DejaVuSans-79"/>
       <use x="114.160156" xlink:href="#DejaVuSans-74"/>
       <use x="153.369141" xlink:href="#DejaVuSans-6f"/>
       <use x="214.550781" xlink:href="#DejaVuSans-63"/>
       <use x="269.53125" xlink:href="#DejaVuSans-68"/>
       <use x="332.910156" xlink:href="#DejaVuSans-72"/>
       <use x="371.773438" xlink:href="#DejaVuSans-6f"/>
       <use x="432.955078" xlink:href="#DejaVuSans-6d"/>
       <use x="530.367188" xlink:href="#DejaVuSans-65"/>
       <use x="591.890625" xlink:href="#DejaVuSans-2d"/>
       <use x="627.974609" xlink:href="#DejaVuSans-63"/>
       <use x="682.955078" xlink:href="#DejaVuSans-20"/>
       <use x="714.742188" xlink:href="#DejaVuSans-6f"/>
       <use x="772.798828" xlink:href="#DejaVuSans-78"/>
       <use x="831.978516" xlink:href="#DejaVuSans-69"/>
       <use x="859.761719" xlink:href="#DejaVuSans-64"/>
       <use x="923.238281" xlink:href="#DejaVuSans-61"/>
       <use x="984.517578" xlink:href="#DejaVuSans-73"/>
       <use x="1036.617188" xlink:href="#DejaVuSans-65"/>
       <use x="1098.140625" xlink:href="#DejaVuSans-20"/>
       <use x="1129.927734" xlink:href="#DejaVuSans-61"/>
       <use x="1191.207031" xlink:href="#DejaVuSans-63"/>
       <use x="1246.1875" xlink:href="#DejaVuSans-74"/>
       <use x="1285.396484" xlink:href="#DejaVuSans-69"/>
       <use x="1313.179688" xlink:href="#DejaVuSans-76"/>
       <use x="1372.359375" xlink:href="#DejaVuSans-69"/>
       <use x="1400.142578" xlink:href="#DejaVuSans-74"/>
       <use x="1439.351562" xlink:href="#DejaVuSans-79"/>
      </g>
     </g>
    </g>
    <g id="ytick_9">
     <g id="line2d_17">
      <g>
       <use style="stroke:#000000;stroke-width:0.8;" x="337.590625" xlink:href="#mf2f8b63518" y="136.275178"/>
      </g>
     </g>
     <g id="text_18">
      <!-- minus-end-directed microtubule motor activity -->
      <g transform="translate(96.745312 140.074396)scale(0.1 -0.1)">
       <use xlink:href="#DejaVuSans-6d"/>
       <use x="97.412109" xlink:href="#DejaVuSans-69"/>
       <use x="125.195312" xlink:href="#DejaVuSans-6e"/>
       <use x="188.574219" xlink:href="#DejaVuSans-75"/>
       <use x="251.953125" xlink:href="#DejaVuSans-73"/>
       <use x="304.052734" xlink:href="#DejaVuSans-2d"/>
       <use x="340.136719" xlink:href="#DejaVuSans-65"/>
       <use x="401.660156" xlink:href="#DejaVuSans-6e"/>
       <use x="465.039062" xlink:href="#DejaVuSans-64"/>
       <use x="528.515625" xlink:href="#DejaVuSans-2d"/>
       <use x="564.599609" xlink:href="#DejaVuSans-64"/>
       <use x="628.076172" xlink:href="#DejaVuSans-69"/>
       <use x="655.859375" xlink:href="#DejaVuSans-72"/>
       <use x="694.722656" xlink:href="#DejaVuSans-65"/>
       <use x="756.246094" xlink:href="#DejaVuSans-63"/>
       <use x="811.226562" xlink:href="#DejaVuSans-74"/>
       <use x="850.435547" xlink:href="#DejaVuSans-65"/>
       <use x="911.958984" xlink:href="#DejaVuSans-64"/>
       <use x="975.435547" xlink:href="#DejaVuSans-20"/>
       <use x="1007.222656" xlink:href="#DejaVuSans-6d"/>
       <use x="1104.634766" xlink:href="#DejaVuSans-69"/>
       <use x="1132.417969" xlink:href="#DejaVuSans-63"/>
       <use x="1187.398438" xlink:href="#DejaVuSans-72"/>
       <use x="1226.261719" xlink:href="#DejaVuSans-6f"/>
       <use x="1287.443359" xlink:href="#DejaVuSans-74"/>
       <use x="1326.652344" xlink:href="#DejaVuSans-75"/>
       <use x="1390.03125" xlink:href="#DejaVuSans-62"/>
       <use x="1453.507812" xlink:href="#DejaVuSans-75"/>
       <use x="1516.886719" xlink:href="#DejaVuSans-6c"/>
       <use x="1544.669922" xlink:href="#DejaVuSans-65"/>
       <use x="1606.193359" xlink:href="#DejaVuSans-20"/>
       <use x="1637.980469" xlink:href="#DejaVuSans-6d"/>
       <use x="1735.392578" xlink:href="#DejaVuSans-6f"/>
       <use x="1796.574219" xlink:href="#DejaVuSans-74"/>
       <use x="1835.783203" xlink:href="#DejaVuSans-6f"/>
       <use x="1896.964844" xlink:href="#DejaVuSans-72"/>
       <use x="1938.078125" xlink:href="#DejaVuSans-20"/>
       <use x="1969.865234" xlink:href="#DejaVuSans-61"/>
       <use x="2031.144531" xlink:href="#DejaVuSans-63"/>
       <use x="2086.125" xlink:href="#DejaVuSans-74"/>
       <use x="2125.333984" xlink:href="#DejaVuSans-69"/>
       <use x="2153.117188" xlink:href="#DejaVuSans-76"/>
       <use x="2212.296875" xlink:href="#DejaVuSans-69"/>
       <use x="2240.080078" xlink:href="#DejaVuSans-74"/>
       <use x="2279.289062" xlink:href="#DejaVuSans-79"/>
      </g>
     </g>
    </g>
    <g id="ytick_10">
     <g id="line2d_18">
      <g>
       <use style="stroke:#000000;stroke-width:0.8;" x="337.590625" xlink:href="#mf2f8b63518" y="149.007809"/>
      </g>
     </g>
     <g id="text_19">
      <!-- clathrin light chain binding -->
      <g transform="translate(196.648437 152.807028)scale(0.1 -0.1)">
       <use xlink:href="#DejaVuSans-63"/>
       <use x="54.980469" xlink:href="#DejaVuSans-6c"/>
       <use x="82.763672" xlink:href="#DejaVuSans-61"/>
       <use x="144.042969" xlink:href="#DejaVuSans-74"/>
       <use x="183.251953" xlink:href="#DejaVuSans-68"/>
       <use x="246.630859" xlink:href="#DejaVuSans-72"/>
       <use x="287.744141" xlink:href="#DejaVuSans-69"/>
       <use x="315.527344" xlink:href="#DejaVuSans-6e"/>
       <use x="378.90625" xlink:href="#DejaVuSans-20"/>
       <use x="410.693359" xlink:href="#DejaVuSans-6c"/>
       <use x="438.476562" xlink:href="#DejaVuSans-69"/>
       <use x="466.259766" xlink:href="#DejaVuSans-67"/>
       <use x="529.736328" xlink:href="#DejaVuSans-68"/>
       <use x="593.115234" xlink:href="#DejaVuSans-74"/>
       <use x="632.324219" xlink:href="#DejaVuSans-20"/>
       <use x="664.111328" xlink:href="#DejaVuSans-63"/>
       <use x="719.091797" xlink:href="#DejaVuSans-68"/>
       <use x="782.470703" xlink:href="#DejaVuSans-61"/>
       <use x="843.75" xlink:href="#DejaVuSans-69"/>
       <use x="871.533203" xlink:href="#DejaVuSans-6e"/>
       <use x="934.912109" xlink:href="#DejaVuSans-20"/>
       <use x="966.699219" xlink:href="#DejaVuSans-62"/>
       <use x="1030.175781" xlink:href="#DejaVuSans-69"/>
       <use x="1057.958984" xlink:href="#DejaVuSans-6e"/>
       <use x="1121.337891" xlink:href="#DejaVuSans-64"/>
       <use x="1184.814453" xlink:href="#DejaVuSans-69"/>
       <use x="1212.597656" xlink:href="#DejaVuSans-6e"/>
       <use x="1275.976562" xlink:href="#DejaVuSans-67"/>
      </g>
     </g>
    </g>
    <g id="ytick_11">
     <g id="line2d_19">
      <g>
       <use style="stroke:#000000;stroke-width:0.8;" x="337.590625" xlink:href="#mf2f8b63518" y="161.740441"/>
      </g>
     </g>
     <g id="text_20">
      <!-- proton-transporting ATP synthase activity, rotational mechanism -->
      <g transform="translate(7.2 165.53966)scale(0.1 -0.1)">
       <defs>
        <path d="M 750 794 
L 1409 794 
L 1409 256 
L 897 -744 
L 494 -744 
L 750 256 
L 750 794 
z
" id="DejaVuSans-2c" transform="scale(0.015625)"/>
       </defs>
       <use xlink:href="#DejaVuSans-70"/>
       <use x="63.476562" xlink:href="#DejaVuSans-72"/>
       <use x="102.339844" xlink:href="#DejaVuSans-6f"/>
       <use x="163.521484" xlink:href="#DejaVuSans-74"/>
       <use x="202.730469" xlink:href="#DejaVuSans-6f"/>
       <use x="263.912109" xlink:href="#DejaVuSans-6e"/>
       <use x="327.291016" xlink:href="#DejaVuSans-2d"/>
       <use x="363.375" xlink:href="#DejaVuSans-74"/>
       <use x="402.583984" xlink:href="#DejaVuSans-72"/>
       <use x="443.697266" xlink:href="#DejaVuSans-61"/>
       <use x="504.976562" xlink:href="#DejaVuSans-6e"/>
       <use x="568.355469" xlink:href="#DejaVuSans-73"/>
       <use x="620.455078" xlink:href="#DejaVuSans-70"/>
       <use x="683.931641" xlink:href="#DejaVuSans-6f"/>
       <use x="745.113281" xlink:href="#DejaVuSans-72"/>
       <use x="786.226562" xlink:href="#DejaVuSans-74"/>
       <use x="825.435547" xlink:href="#DejaVuSans-69"/>
       <use x="853.21875" xlink:href="#DejaVuSans-6e"/>
       <use x="916.597656" xlink:href="#DejaVuSans-67"/>
       <use x="980.074219" xlink:href="#DejaVuSans-20"/>
       <use x="1011.861328" xlink:href="#DejaVuSans-41"/>
       <use x="1072.519531" xlink:href="#DejaVuSans-54"/>
       <use x="1133.603516" xlink:href="#DejaVuSans-50"/>
       <use x="1193.90625" xlink:href="#DejaVuSans-20"/>
       <use x="1225.693359" xlink:href="#DejaVuSans-73"/>
       <use x="1277.792969" xlink:href="#DejaVuSans-79"/>
       <use x="1336.972656" xlink:href="#DejaVuSans-6e"/>
       <use x="1400.351562" xlink:href="#DejaVuSans-74"/>
       <use x="1439.560547" xlink:href="#DejaVuSans-68"/>
       <use x="1502.939453" xlink:href="#DejaVuSans-61"/>
       <use x="1564.21875" xlink:href="#DejaVuSans-73"/>
       <use x="1616.318359" xlink:href="#DejaVuSans-65"/>
       <use x="1677.841797" xlink:href="#DejaVuSans-20"/>
       <use x="1709.628906" xlink:href="#DejaVuSans-61"/>
       <use x="1770.908203" xlink:href="#DejaVuSans-63"/>
       <use x="1825.888672" xlink:href="#DejaVuSans-74"/>
       <use x="1865.097656" xlink:href="#DejaVuSans-69"/>
       <use x="1892.880859" xlink:href="#DejaVuSans-76"/>
       <use x="1952.060547" xlink:href="#DejaVuSans-69"/>
       <use x="1979.84375" xlink:href="#DejaVuSans-74"/>
       <use x="2019.052734" xlink:href="#DejaVuSans-79"/>
       <use x="2078.232422" xlink:href="#DejaVuSans-2c"/>
       <use x="2110.019531" xlink:href="#DejaVuSans-20"/>
       <use x="2141.806641" xlink:href="#DejaVuSans-72"/>
       <use x="2180.669922" xlink:href="#DejaVuSans-6f"/>
       <use x="2241.851562" xlink:href="#DejaVuSans-74"/>
       <use x="2281.060547" xlink:href="#DejaVuSans-61"/>
       <use x="2342.339844" xlink:href="#DejaVuSans-74"/>
       <use x="2381.548828" xlink:href="#DejaVuSans-69"/>
       <use x="2409.332031" xlink:href="#DejaVuSans-6f"/>
       <use x="2470.513672" xlink:href="#DejaVuSans-6e"/>
       <use x="2533.892578" xlink:href="#DejaVuSans-61"/>
       <use x="2595.171875" xlink:href="#DejaVuSans-6c"/>
       <use x="2622.955078" xlink:href="#DejaVuSans-20"/>
       <use x="2654.742188" xlink:href="#DejaVuSans-6d"/>
       <use x="2752.154297" xlink:href="#DejaVuSans-65"/>
       <use x="2813.677734" xlink:href="#DejaVuSans-63"/>
       <use x="2868.658203" xlink:href="#DejaVuSans-68"/>
       <use x="2932.037109" xlink:href="#DejaVuSans-61"/>
       <use x="2993.316406" xlink:href="#DejaVuSans-6e"/>
       <use x="3056.695312" xlink:href="#DejaVuSans-69"/>
       <use x="3084.478516" xlink:href="#DejaVuSans-73"/>
       <use x="3136.578125" xlink:href="#DejaVuSans-6d"/>
      </g>
     </g>
    </g>
    <g id="ytick_12">
     <g id="line2d_20">
      <g>
       <use style="stroke:#000000;stroke-width:0.8;" x="337.590625" xlink:href="#mf2f8b63518" y="174.473072"/>
      </g>
     </g>
     <g id="text_21">
      <!-- threonine-type endopeptidase activity -->
      <g transform="translate(139.057812 178.272291)scale(0.1 -0.1)">
       <use xlink:href="#DejaVuSans-74"/>
       <use x="39.208984" xlink:href="#DejaVuSans-68"/>
       <use x="102.587891" xlink:href="#DejaVuSans-72"/>
       <use x="141.451172" xlink:href="#DejaVuSans-65"/>
       <use x="202.974609" xlink:href="#DejaVuSans-6f"/>
       <use x="264.15625" xlink:href="#DejaVuSans-6e"/>
       <use x="327.535156" xlink:href="#DejaVuSans-69"/>
       <use x="355.318359" xlink:href="#DejaVuSans-6e"/>
       <use x="418.697266" xlink:href="#DejaVuSans-65"/>
       <use x="480.220703" xlink:href="#DejaVuSans-2d"/>
       <use x="516.304688" xlink:href="#DejaVuSans-74"/>
       <use x="555.513672" xlink:href="#DejaVuSans-79"/>
       <use x="614.693359" xlink:href="#DejaVuSans-70"/>
       <use x="678.169922" xlink:href="#DejaVuSans-65"/>
       <use x="739.693359" xlink:href="#DejaVuSans-20"/>
       <use x="771.480469" xlink:href="#DejaVuSans-65"/>
       <use x="833.003906" xlink:href="#DejaVuSans-6e"/>
       <use x="896.382812" xlink:href="#DejaVuSans-64"/>
       <use x="959.859375" xlink:href="#DejaVuSans-6f"/>
       <use x="1021.041016" xlink:href="#DejaVuSans-70"/>
       <use x="1084.517578" xlink:href="#DejaVuSans-65"/>
       <use x="1146.041016" xlink:href="#DejaVuSans-70"/>
       <use x="1209.517578" xlink:href="#DejaVuSans-74"/>
       <use x="1248.726562" xlink:href="#DejaVuSans-69"/>
       <use x="1276.509766" xlink:href="#DejaVuSans-64"/>
       <use x="1339.986328" xlink:href="#DejaVuSans-61"/>
       <use x="1401.265625" xlink:href="#DejaVuSans-73"/>
       <use x="1453.365234" xlink:href="#DejaVuSans-65"/>
       <use x="1514.888672" xlink:href="#DejaVuSans-20"/>
       <use x="1546.675781" xlink:href="#DejaVuSans-61"/>
       <use x="1607.955078" xlink:href="#DejaVuSans-63"/>
       <use x="1662.935547" xlink:href="#DejaVuSans-74"/>
       <use x="1702.144531" xlink:href="#DejaVuSans-69"/>
       <use x="1729.927734" xlink:href="#DejaVuSans-76"/>
       <use x="1789.107422" xlink:href="#DejaVuSans-69"/>
       <use x="1816.890625" xlink:href="#DejaVuSans-74"/>
       <use x="1856.099609" xlink:href="#DejaVuSans-79"/>
      </g>
     </g>
    </g>
    <g id="ytick_13">
     <g id="line2d_21">
      <g>
       <use style="stroke:#000000;stroke-width:0.8;" x="337.590625" xlink:href="#mf2f8b63518" y="187.205704"/>
      </g>
     </g>
     <g id="text_22">
      <!-- dynein light intermediate chain binding -->
      <g transform="translate(133.139062 191.004923)scale(0.1 -0.1)">
       <use xlink:href="#DejaVuSans-64"/>
       <use x="63.476562" xlink:href="#DejaVuSans-79"/>
       <use x="122.65625" xlink:href="#DejaVuSans-6e"/>
       <use x="186.035156" xlink:href="#DejaVuSans-65"/>
       <use x="247.558594" xlink:href="#DejaVuSans-69"/>
       <use x="275.341797" xlink:href="#DejaVuSans-6e"/>
       <use x="338.720703" xlink:href="#DejaVuSans-20"/>
       <use x="370.507812" xlink:href="#DejaVuSans-6c"/>
       <use x="398.291016" xlink:href="#DejaVuSans-69"/>
       <use x="426.074219" xlink:href="#DejaVuSans-67"/>
       <use x="489.550781" xlink:href="#DejaVuSans-68"/>
       <use x="552.929688" xlink:href="#DejaVuSans-74"/>
       <use x="592.138672" xlink:href="#DejaVuSans-20"/>
       <use x="623.925781" xlink:href="#DejaVuSans-69"/>
       <use x="651.708984" xlink:href="#DejaVuSans-6e"/>
       <use x="715.087891" xlink:href="#DejaVuSans-74"/>
       <use x="754.296875" xlink:href="#DejaVuSans-65"/>
       <use x="815.820312" xlink:href="#DejaVuSans-72"/>
       <use x="855.183594" xlink:href="#DejaVuSans-6d"/>
       <use x="952.595703" xlink:href="#DejaVuSans-65"/>
       <use x="1014.119141" xlink:href="#DejaVuSans-64"/>
       <use x="1077.595703" xlink:href="#DejaVuSans-69"/>
       <use x="1105.378906" xlink:href="#DejaVuSans-61"/>
       <use x="1166.658203" xlink:href="#DejaVuSans-74"/>
       <use x="1205.867188" xlink:href="#DejaVuSans-65"/>
       <use x="1267.390625" xlink:href="#DejaVuSans-20"/>
       <use x="1299.177734" xlink:href="#DejaVuSans-63"/>
       <use x="1354.158203" xlink:href="#DejaVuSans-68"/>
       <use x="1417.537109" xlink:href="#DejaVuSans-61"/>
       <use x="1478.816406" xlink:href="#DejaVuSans-69"/>
       <use x="1506.599609" xlink:href="#DejaVuSans-6e"/>
       <use x="1569.978516" xlink:href="#DejaVuSans-20"/>
       <use x="1601.765625" xlink:href="#DejaVuSans-62"/>
       <use x="1665.242188" xlink:href="#DejaVuSans-69"/>
       <use x="1693.025391" xlink:href="#DejaVuSans-6e"/>
       <use x="1756.404297" xlink:href="#DejaVuSans-64"/>
       <use x="1819.880859" xlink:href="#DejaVuSans-69"/>
       <use x="1847.664062" xlink:href="#DejaVuSans-6e"/>
       <use x="1911.042969" xlink:href="#DejaVuSans-67"/>
      </g>
     </g>
    </g>
    <g id="ytick_14">
     <g id="line2d_22">
      <g>
       <use style="stroke:#000000;stroke-width:0.8;" x="337.590625" xlink:href="#mf2f8b63518" y="199.938336"/>
      </g>
     </g>
     <g id="text_23">
      <!-- dynein intermediate chain binding -->
      <g transform="translate(158.479687 203.737554)scale(0.1 -0.1)">
       <use xlink:href="#DejaVuSans-64"/>
       <use x="63.476562" xlink:href="#DejaVuSans-79"/>
       <use x="122.65625" xlink:href="#DejaVuSans-6e"/>
       <use x="186.035156" xlink:href="#DejaVuSans-65"/>
       <use x="247.558594" xlink:href="#DejaVuSans-69"/>
       <use x="275.341797" xlink:href="#DejaVuSans-6e"/>
       <use x="338.720703" xlink:href="#DejaVuSans-20"/>
       <use x="370.507812" xlink:href="#DejaVuSans-69"/>
       <use x="398.291016" xlink:href="#DejaVuSans-6e"/>
       <use x="461.669922" xlink:href="#DejaVuSans-74"/>
       <use x="500.878906" xlink:href="#DejaVuSans-65"/>
       <use x="562.402344" xlink:href="#DejaVuSans-72"/>
       <use x="601.765625" xlink:href="#DejaVuSans-6d"/>
       <use x="699.177734" xlink:href="#DejaVuSans-65"/>
       <use x="760.701172" xlink:href="#DejaVuSans-64"/>
       <use x="824.177734" xlink:href="#DejaVuSans-69"/>
       <use x="851.960938" xlink:href="#DejaVuSans-61"/>
       <use x="913.240234" xlink:href="#DejaVuSans-74"/>
       <use x="952.449219" xlink:href="#DejaVuSans-65"/>
       <use x="1013.972656" xlink:href="#DejaVuSans-20"/>
       <use x="1045.759766" xlink:href="#DejaVuSans-63"/>
       <use x="1100.740234" xlink:href="#DejaVuSans-68"/>
       <use x="1164.119141" xlink:href="#DejaVuSans-61"/>
       <use x="1225.398438" xlink:href="#DejaVuSans-69"/>
       <use x="1253.181641" xlink:href="#DejaVuSans-6e"/>
       <use x="1316.560547" xlink:href="#DejaVuSans-20"/>
       <use x="1348.347656" xlink:href="#DejaVuSans-62"/>
       <use x="1411.824219" xlink:href="#DejaVuSans-69"/>
       <use x="1439.607422" xlink:href="#DejaVuSans-6e"/>
       <use x="1502.986328" xlink:href="#DejaVuSans-64"/>
       <use x="1566.462891" xlink:href="#DejaVuSans-69"/>
       <use x="1594.246094" xlink:href="#DejaVuSans-6e"/>
       <use x="1657.625" xlink:href="#DejaVuSans-67"/>
      </g>
     </g>
    </g>
    <g id="ytick_15">
     <g id="line2d_23">
      <g>
       <use style="stroke:#000000;stroke-width:0.8;" x="337.590625" xlink:href="#mf2f8b63518" y="212.670967"/>
      </g>
     </g>
     <g id="text_24">
      <!-- cAMP response element binding -->
      <g transform="translate(170.13125 216.470186)scale(0.1 -0.1)">
       <use xlink:href="#DejaVuSans-63"/>
       <use x="54.980469" xlink:href="#DejaVuSans-41"/>
       <use x="123.388672" xlink:href="#DejaVuSans-4d"/>
       <use x="209.667969" xlink:href="#DejaVuSans-50"/>
       <use x="269.970703" xlink:href="#DejaVuSans-20"/>
       <use x="301.757812" xlink:href="#DejaVuSans-72"/>
       <use x="340.621094" xlink:href="#DejaVuSans-65"/>
       <use x="402.144531" xlink:href="#DejaVuSans-73"/>
       <use x="454.244141" xlink:href="#DejaVuSans-70"/>
       <use x="517.720703" xlink:href="#DejaVuSans-6f"/>
       <use x="578.902344" xlink:href="#DejaVuSans-6e"/>
       <use x="642.28125" xlink:href="#DejaVuSans-73"/>
       <use x="694.380859" xlink:href="#DejaVuSans-65"/>
       <use x="755.904297" xlink:href="#DejaVuSans-20"/>
       <use x="787.691406" xlink:href="#DejaVuSans-65"/>
       <use x="849.214844" xlink:href="#DejaVuSans-6c"/>
       <use x="876.998047" xlink:href="#DejaVuSans-65"/>
       <use x="938.521484" xlink:href="#DejaVuSans-6d"/>
       <use x="1035.933594" xlink:href="#DejaVuSans-65"/>
       <use x="1097.457031" xlink:href="#DejaVuSans-6e"/>
       <use x="1160.835938" xlink:href="#DejaVuSans-74"/>
       <use x="1200.044922" xlink:href="#DejaVuSans-20"/>
       <use x="1231.832031" xlink:href="#DejaVuSans-62"/>
       <use x="1295.308594" xlink:href="#DejaVuSans-69"/>
       <use x="1323.091797" xlink:href="#DejaVuSans-6e"/>
       <use x="1386.470703" xlink:href="#DejaVuSans-64"/>
       <use x="1449.947266" xlink:href="#DejaVuSans-69"/>
       <use x="1477.730469" xlink:href="#DejaVuSans-6e"/>
       <use x="1541.109375" xlink:href="#DejaVuSans-67"/>
      </g>
     </g>
    </g>
    <g id="ytick_16">
     <g id="line2d_24">
      <g>
       <use style="stroke:#000000;stroke-width:0.8;" x="337.590625" xlink:href="#mf2f8b63518" y="225.403599"/>
      </g>
     </g>
     <g id="text_25">
      <!-- clathrin adaptor activity -->
      <g transform="translate(210.38125 229.202817)scale(0.1 -0.1)">
       <use xlink:href="#DejaVuSans-63"/>
       <use x="54.980469" xlink:href="#DejaVuSans-6c"/>
       <use x="82.763672" xlink:href="#DejaVuSans-61"/>
       <use x="144.042969" xlink:href="#DejaVuSans-74"/>
       <use x="183.251953" xlink:href="#DejaVuSans-68"/>
       <use x="246.630859" xlink:href="#DejaVuSans-72"/>
       <use x="287.744141" xlink:href="#DejaVuSans-69"/>
       <use x="315.527344" xlink:href="#DejaVuSans-6e"/>
       <use x="378.90625" xlink:href="#DejaVuSans-20"/>
       <use x="410.693359" xlink:href="#DejaVuSans-61"/>
       <use x="471.972656" xlink:href="#DejaVuSans-64"/>
       <use x="535.449219" xlink:href="#DejaVuSans-61"/>
       <use x="596.728516" xlink:href="#DejaVuSans-70"/>
       <use x="660.205078" xlink:href="#DejaVuSans-74"/>
       <use x="699.414062" xlink:href="#DejaVuSans-6f"/>
       <use x="760.595703" xlink:href="#DejaVuSans-72"/>
       <use x="801.708984" xlink:href="#DejaVuSans-20"/>
       <use x="833.496094" xlink:href="#DejaVuSans-61"/>
       <use x="894.775391" xlink:href="#DejaVuSans-63"/>
       <use x="949.755859" xlink:href="#DejaVuSans-74"/>
       <use x="988.964844" xlink:href="#DejaVuSans-69"/>
       <use x="1016.748047" xlink:href="#DejaVuSans-76"/>
       <use x="1075.927734" xlink:href="#DejaVuSans-69"/>
       <use x="1103.710938" xlink:href="#DejaVuSans-74"/>
       <use x="1142.919922" xlink:href="#DejaVuSans-79"/>
      </g>
     </g>
    </g>
    <g id="ytick_17">
     <g id="line2d_25">
      <g>
       <use style="stroke:#000000;stroke-width:0.8;" x="337.590625" xlink:href="#mf2f8b63518" y="238.13623"/>
      </g>
     </g>
     <g id="text_26">
      <!-- DNA-directed 5'-3' RNA polymerase activity -->
      <g transform="translate(112.767187 241.935449)scale(0.1 -0.1)">
       <defs>
        <path d="M 1147 4666 
L 1147 2931 
L 616 2931 
L 616 4666 
L 1147 4666 
z
" id="DejaVuSans-27" transform="scale(0.015625)"/>
       </defs>
       <use xlink:href="#DejaVuSans-44"/>
       <use x="77.001953" xlink:href="#DejaVuSans-4e"/>
       <use x="151.806641" xlink:href="#DejaVuSans-41"/>
       <use x="217.964844" xlink:href="#DejaVuSans-2d"/>
       <use x="254.048828" xlink:href="#DejaVuSans-64"/>
       <use x="317.525391" xlink:href="#DejaVuSans-69"/>
       <use x="345.308594" xlink:href="#DejaVuSans-72"/>
       <use x="384.171875" xlink:href="#DejaVuSans-65"/>
       <use x="445.695312" xlink:href="#DejaVuSans-63"/>
       <use x="500.675781" xlink:href="#DejaVuSans-74"/>
       <use x="539.884766" xlink:href="#DejaVuSans-65"/>
       <use x="601.408203" xlink:href="#DejaVuSans-64"/>
       <use x="664.884766" xlink:href="#DejaVuSans-20"/>
       <use x="696.671875" xlink:href="#DejaVuSans-35"/>
       <use x="760.294922" xlink:href="#DejaVuSans-27"/>
       <use x="787.785156" xlink:href="#DejaVuSans-2d"/>
       <use x="823.869141" xlink:href="#DejaVuSans-33"/>
       <use x="887.492188" xlink:href="#DejaVuSans-27"/>
       <use x="914.982422" xlink:href="#DejaVuSans-20"/>
       <use x="946.769531" xlink:href="#DejaVuSans-52"/>
       <use x="1016.251953" xlink:href="#DejaVuSans-4e"/>
       <use x="1091.056641" xlink:href="#DejaVuSans-41"/>
       <use x="1159.464844" xlink:href="#DejaVuSans-20"/>
       <use x="1191.251953" xlink:href="#DejaVuSans-70"/>
       <use x="1254.728516" xlink:href="#DejaVuSans-6f"/>
       <use x="1315.910156" xlink:href="#DejaVuSans-6c"/>
       <use x="1343.693359" xlink:href="#DejaVuSans-79"/>
       <use x="1402.873047" xlink:href="#DejaVuSans-6d"/>
       <use x="1500.285156" xlink:href="#DejaVuSans-65"/>
       <use x="1561.808594" xlink:href="#DejaVuSans-72"/>
       <use x="1602.921875" xlink:href="#DejaVuSans-61"/>
       <use x="1664.201172" xlink:href="#DejaVuSans-73"/>
       <use x="1716.300781" xlink:href="#DejaVuSans-65"/>
       <use x="1777.824219" xlink:href="#DejaVuSans-20"/>
       <use x="1809.611328" xlink:href="#DejaVuSans-61"/>
       <use x="1870.890625" xlink:href="#DejaVuSans-63"/>
       <use x="1925.871094" xlink:href="#DejaVuSans-74"/>
       <use x="1965.080078" xlink:href="#DejaVuSans-69"/>
       <use x="1992.863281" xlink:href="#DejaVuSans-76"/>
       <use x="2052.042969" xlink:href="#DejaVuSans-69"/>
       <use x="2079.826172" xlink:href="#DejaVuSans-74"/>
       <use x="2119.035156" xlink:href="#DejaVuSans-79"/>
      </g>
     </g>
    </g>
    <g id="ytick_18">
     <g id="line2d_26">
      <g>
       <use style="stroke:#000000;stroke-width:0.8;" x="337.590625" xlink:href="#mf2f8b63518" y="250.868862"/>
      </g>
     </g>
     <g id="text_27">
      <!-- glutathione peroxidase activity -->
      <g transform="translate(175.485937 254.668081)scale(0.1 -0.1)">
       <use xlink:href="#DejaVuSans-67"/>
       <use x="63.476562" xlink:href="#DejaVuSans-6c"/>
       <use x="91.259766" xlink:href="#DejaVuSans-75"/>
       <use x="154.638672" xlink:href="#DejaVuSans-74"/>
       <use x="193.847656" xlink:href="#DejaVuSans-61"/>
       <use x="255.126953" xlink:href="#DejaVuSans-74"/>
       <use x="294.335938" xlink:href="#DejaVuSans-68"/>
       <use x="357.714844" xlink:href="#DejaVuSans-69"/>
       <use x="385.498047" xlink:href="#DejaVuSans-6f"/>
       <use x="446.679688" xlink:href="#DejaVuSans-6e"/>
       <use x="510.058594" xlink:href="#DejaVuSans-65"/>
       <use x="571.582031" xlink:href="#DejaVuSans-20"/>
       <use x="603.369141" xlink:href="#DejaVuSans-70"/>
       <use x="666.845703" xlink:href="#DejaVuSans-65"/>
       <use x="728.369141" xlink:href="#DejaVuSans-72"/>
       <use x="767.232422" xlink:href="#DejaVuSans-6f"/>
       <use x="825.289062" xlink:href="#DejaVuSans-78"/>
       <use x="884.46875" xlink:href="#DejaVuSans-69"/>
       <use x="912.251953" xlink:href="#DejaVuSans-64"/>
       <use x="975.728516" xlink:href="#DejaVuSans-61"/>
       <use x="1037.007812" xlink:href="#DejaVuSans-73"/>
       <use x="1089.107422" xlink:href="#DejaVuSans-65"/>
       <use x="1150.630859" xlink:href="#DejaVuSans-20"/>
       <use x="1182.417969" xlink:href="#DejaVuSans-61"/>
       <use x="1243.697266" xlink:href="#DejaVuSans-63"/>
       <use x="1298.677734" xlink:href="#DejaVuSans-74"/>
       <use x="1337.886719" xlink:href="#DejaVuSans-69"/>
       <use x="1365.669922" xlink:href="#DejaVuSans-76"/>
       <use x="1424.849609" xlink:href="#DejaVuSans-69"/>
       <use x="1452.632812" xlink:href="#DejaVuSans-74"/>
       <use x="1491.841797" xlink:href="#DejaVuSans-79"/>
      </g>
     </g>
    </g>
    <g id="ytick_19">
     <g id="line2d_27">
      <g>
       <use style="stroke:#000000;stroke-width:0.8;" x="337.590625" xlink:href="#mf2f8b63518" y="263.601493"/>
      </g>
     </g>
     <g id="text_28">
      <!-- electron transfer activity -->
      <g transform="translate(207.0375 267.400712)scale(0.1 -0.1)">
       <defs>
        <path d="M 2375 4863 
L 2375 4384 
L 1825 4384 
Q 1516 4384 1395 4259 
Q 1275 4134 1275 3809 
L 1275 3500 
L 2222 3500 
L 2222 3053 
L 1275 3053 
L 1275 0 
L 697 0 
L 697 3053 
L 147 3053 
L 147 3500 
L 697 3500 
L 697 3744 
Q 697 4328 969 4595 
Q 1241 4863 1831 4863 
L 2375 4863 
z
" id="DejaVuSans-66" transform="scale(0.015625)"/>
       </defs>
       <use xlink:href="#DejaVuSans-65"/>
       <use x="61.523438" xlink:href="#DejaVuSans-6c"/>
       <use x="89.306641" xlink:href="#DejaVuSans-65"/>
       <use x="150.830078" xlink:href="#DejaVuSans-63"/>
       <use x="205.810547" xlink:href="#DejaVuSans-74"/>
       <use x="245.019531" xlink:href="#DejaVuSans-72"/>
       <use x="283.882812" xlink:href="#DejaVuSans-6f"/>
       <use x="345.064453" xlink:href="#DejaVuSans-6e"/>
       <use x="408.443359" xlink:href="#DejaVuSans-20"/>
       <use x="440.230469" xlink:href="#DejaVuSans-74"/>
       <use x="479.439453" xlink:href="#DejaVuSans-72"/>
       <use x="520.552734" xlink:href="#DejaVuSans-61"/>
       <use x="581.832031" xlink:href="#DejaVuSans-6e"/>
       <use x="645.210938" xlink:href="#DejaVuSans-73"/>
       <use x="697.310547" xlink:href="#DejaVuSans-66"/>
       <use x="732.515625" xlink:href="#DejaVuSans-65"/>
       <use x="794.039062" xlink:href="#DejaVuSans-72"/>
       <use x="835.152344" xlink:href="#DejaVuSans-20"/>
       <use x="866.939453" xlink:href="#DejaVuSans-61"/>
       <use x="928.21875" xlink:href="#DejaVuSans-63"/>
       <use x="983.199219" xlink:href="#DejaVuSans-74"/>
       <use x="1022.408203" xlink:href="#DejaVuSans-69"/>
       <use x="1050.191406" xlink:href="#DejaVuSans-76"/>
       <use x="1109.371094" xlink:href="#DejaVuSans-69"/>
       <use x="1137.154297" xlink:href="#DejaVuSans-74"/>
       <use x="1176.363281" xlink:href="#DejaVuSans-79"/>
      </g>
     </g>
    </g>
    <g id="ytick_20">
     <g id="line2d_28">
      <g>
       <use style="stroke:#000000;stroke-width:0.8;" x="337.590625" xlink:href="#mf2f8b63518" y="276.334125"/>
      </g>
     </g>
     <g id="text_29">
      <!-- microtubule motor activity -->
      <g transform="translate(197.467187 280.133344)scale(0.1 -0.1)">
       <use xlink:href="#DejaVuSans-6d"/>
       <use x="97.412109" xlink:href="#DejaVuSans-69"/>
       <use x="125.195312" xlink:href="#DejaVuSans-63"/>
       <use x="180.175781" xlink:href="#DejaVuSans-72"/>
       <use x="219.039062" xlink:href="#DejaVuSans-6f"/>
       <use x="280.220703" xlink:href="#DejaVuSans-74"/>
       <use x="319.429688" xlink:href="#DejaVuSans-75"/>
       <use x="382.808594" xlink:href="#DejaVuSans-62"/>
       <use x="446.285156" xlink:href="#DejaVuSans-75"/>
       <use x="509.664062" xlink:href="#DejaVuSans-6c"/>
       <use x="537.447266" xlink:href="#DejaVuSans-65"/>
       <use x="598.970703" xlink:href="#DejaVuSans-20"/>
       <use x="630.757812" xlink:href="#DejaVuSans-6d"/>
       <use x="728.169922" xlink:href="#DejaVuSans-6f"/>
       <use x="789.351562" xlink:href="#DejaVuSans-74"/>
       <use x="828.560547" xlink:href="#DejaVuSans-6f"/>
       <use x="889.742188" xlink:href="#DejaVuSans-72"/>
       <use x="930.855469" xlink:href="#DejaVuSans-20"/>
       <use x="962.642578" xlink:href="#DejaVuSans-61"/>
       <use x="1023.921875" xlink:href="#DejaVuSans-63"/>
       <use x="1078.902344" xlink:href="#DejaVuSans-74"/>
       <use x="1118.111328" xlink:href="#DejaVuSans-69"/>
       <use x="1145.894531" xlink:href="#DejaVuSans-76"/>
       <use x="1205.074219" xlink:href="#DejaVuSans-69"/>
       <use x="1232.857422" xlink:href="#DejaVuSans-74"/>
       <use x="1272.066406" xlink:href="#DejaVuSans-79"/>
      </g>
     </g>
    </g>
   </g>
   <g id="patch_3">
    <path d="M 337.590625 288.430125 
L 337.590625 22.318125 
" style="fill:none;stroke:#000000;stroke-linecap:square;stroke-linejoin:miter;stroke-width:0.8;"/>
   </g>
   <g id="patch_4">
    <path d="M 694.710625 288.430125 
L 694.710625 22.318125 
" style="fill:none;stroke:#000000;stroke-linecap:square;stroke-linejoin:miter;stroke-width:0.8;"/>
   </g>
   <g id="patch_5">
    <path d="M 337.590625 288.430125 
L 694.710625 288.430125 
" style="fill:none;stroke:#000000;stroke-linecap:square;stroke-linejoin:miter;stroke-width:0.8;"/>
   </g>
   <g id="patch_6">
    <path d="M 337.590625 22.318125 
L 694.710625 22.318125 
" style="fill:none;stroke:#000000;stroke-linecap:square;stroke-linejoin:miter;stroke-width:0.8;"/>
   </g>
   <g id="text_30">
    <!-- Top 20 Enriched Molecular Functions -->
    <g transform="translate(406.67125 16.318125)scale(0.12 -0.12)">
     <use xlink:href="#DejaVuSans-54"/>
     <use x="44.083984" xlink:href="#DejaVuSans-6f"/>
     <use x="105.265625" xlink:href="#DejaVuSans-70"/>
     <use x="168.742188" xlink:href="#DejaVuSans-20"/>
     <use x="200.529297" xlink:href="#DejaVuSans-32"/>
     <use x="264.152344" xlink:href="#DejaVuSans-30"/>
     <use x="327.775391" xlink:href="#DejaVuSans-20"/>
     <use x="359.5625" xlink:href="#DejaVuSans-45"/>
     <use x="422.746094" xlink:href="#DejaVuSans-6e"/>
     <use x="486.125" xlink:href="#DejaVuSans-72"/>
     <use x="527.238281" xlink:href="#DejaVuSans-69"/>
     <use x="555.021484" xlink:href="#DejaVuSans-63"/>
     <use x="610.001953" xlink:href="#DejaVuSans-68"/>
     <use x="673.380859" xlink:href="#DejaVuSans-65"/>
     <use x="734.904297" xlink:href="#DejaVuSans-64"/>
     <use x="798.380859" xlink:href="#DejaVuSans-20"/>
     <use x="830.167969" xlink:href="#DejaVuSans-4d"/>
     <use x="916.447266" xlink:href="#DejaVuSans-6f"/>
     <use x="977.628906" xlink:href="#DejaVuSans-6c"/>
     <use x="1005.412109" xlink:href="#DejaVuSans-65"/>
     <use x="1066.935547" xlink:href="#DejaVuSans-63"/>
     <use x="1121.916016" xlink:href="#DejaVuSans-75"/>
     <use x="1185.294922" xlink:href="#DejaVuSans-6c"/>
     <use x="1213.078125" xlink:href="#DejaVuSans-61"/>
     <use x="1274.357422" xlink:href="#DejaVuSans-72"/>
     <use x="1315.470703" xlink:href="#DejaVuSans-20"/>
     <use x="1347.257812" xlink:href="#DejaVuSans-46"/>
     <use x="1399.277344" xlink:href="#DejaVuSans-75"/>
     <use x="1462.65625" xlink:href="#DejaVuSans-6e"/>
     <use x="1526.035156" xlink:href="#DejaVuSans-63"/>
     <use x="1581.015625" xlink:href="#DejaVuSans-74"/>
     <use x="1620.224609" xlink:href="#DejaVuSans-69"/>
     <use x="1648.007812" xlink:href="#DejaVuSans-6f"/>
     <use x="1709.189453" xlink:href="#DejaVuSans-6e"/>
     <use x="1772.568359" xlink:href="#DejaVuSans-73"/>
    </g>
   </g>
   <g id="legend_1">
    <g id="patch_7">
     <path d="M 701.710625 206.455625 
L 788.949687 206.455625 
Q 790.949687 206.455625 790.949687 204.455625 
L 790.949687 29.318125 
Q 790.949687 27.318125 788.949687 27.318125 
L 701.710625 27.318125 
Q 699.710625 27.318125 699.710625 29.318125 
L 699.710625 204.455625 
Q 699.710625 206.455625 701.710625 206.455625 
z
" style="fill:#ffffff;opacity:0.8;stroke:#cccccc;stroke-linejoin:miter;"/>
    </g>
    <g id="text_31">
     <!-- -log10 FDR -->
     <g transform="translate(731.710625 38.916562)scale(0.1 -0.1)">
      <use xlink:href="#DejaVuSans-2d"/>
      <use x="36.083984" xlink:href="#DejaVuSans-6c"/>
      <use x="63.867188" xlink:href="#DejaVuSans-6f"/>
      <use x="125.048828" xlink:href="#DejaVuSans-67"/>
      <use x="188.525391" xlink:href="#DejaVuSans-31"/>
      <use x="252.148438" xlink:href="#DejaVuSans-30"/>
      <use x="315.771484" xlink:href="#DejaVuSans-20"/>
      <use x="347.558594" xlink:href="#DejaVuSans-46"/>
      <use x="405.078125" xlink:href="#DejaVuSans-44"/>
      <use x="482.080078" xlink:href="#DejaVuSans-52"/>
     </g>
    </g>
    <g id="PathCollection_12">
     <defs>
      <path d="M 0 3 
C 0.795609 3 1.55874 2.683901 2.12132 2.12132 
C 2.683901 1.55874 3 0.795609 3 0 
C 3 -0.795609 2.683901 -1.55874 2.12132 -2.12132 
C 1.55874 -2.683901 0.795609 -3 0 -3 
C -0.795609 -3 -1.55874 -2.683901 -2.12132 -2.12132 
C -2.683901 -1.55874 -3 -0.795609 -3 0 
C -3 0.795609 -2.683901 1.55874 -2.12132 2.12132 
C -1.55874 2.683901 -0.795609 3 0 3 
z
" id="m3fe67c43d1" style="stroke:#7295f4;"/>
     </defs>
     <g>
      <use style="fill:#7295f4;stroke:#7295f4;" x="713.710625" xlink:href="#m3fe67c43d1" y="50.969688"/>
     </g>
    </g>
    <g id="text_32">
     <!-- 15 -->
     <g transform="translate(731.710625 53.594688)scale(0.1 -0.1)">
      <use xlink:href="#DejaVuSans-31"/>
      <use x="63.623047" xlink:href="#DejaVuSans-35"/>
     </g>
    </g>
    <g id="PathCollection_13">
     <defs>
      <path d="M 0 3 
C 0.795609 3 1.55874 2.683901 2.12132 2.12132 
C 2.683901 1.55874 3 0.795609 3 0 
C 3 -0.795609 2.683901 -1.55874 2.12132 -2.12132 
C 1.55874 -2.683901 0.795609 -3 0 -3 
C -0.795609 -3 -1.55874 -2.683901 -2.12132 -2.12132 
C -2.683901 -1.55874 -3 -0.795609 -3 0 
C -3 0.795609 -2.683901 1.55874 -2.12132 2.12132 
C -1.55874 2.683901 -0.795609 3 0 3 
z
" id="m4d2d24c8d4" style="stroke:#c5d6f2;"/>
     </defs>
     <g>
      <use style="fill:#c5d6f2;stroke:#c5d6f2;" x="713.710625" xlink:href="#m4d2d24c8d4" y="65.647812"/>
     </g>
    </g>
    <g id="text_33">
     <!-- 30 -->
     <g transform="translate(731.710625 68.272812)scale(0.1 -0.1)">
      <use xlink:href="#DejaVuSans-33"/>
      <use x="63.623047" xlink:href="#DejaVuSans-30"/>
     </g>
    </g>
    <g id="PathCollection_14">
     <defs>
      <path d="M 0 3 
C 0.795609 3 1.55874 2.683901 2.12132 2.12132 
C 2.683901 1.55874 3 0.795609 3 0 
C 3 -0.795609 2.683901 -1.55874 2.12132 -2.12132 
C 1.55874 -2.683901 0.795609 -3 0 -3 
C -0.795609 -3 -1.55874 -2.683901 -2.12132 -2.12132 
C -2.683901 -1.55874 -3 -0.795609 -3 0 
C -3 0.795609 -2.683901 1.55874 -2.12132 2.12132 
C -1.55874 2.683901 -0.795609 3 0 3 
z
" id="mc70e872046" style="stroke:#f7ba9f;"/>
     </defs>
     <g>
      <use style="fill:#f7ba9f;stroke:#f7ba9f;" x="713.710625" xlink:href="#mc70e872046" y="80.325938"/>
     </g>
    </g>
    <g id="text_34">
     <!-- 45 -->
     <g transform="translate(731.710625 82.950938)scale(0.1 -0.1)">
      <use xlink:href="#DejaVuSans-34"/>
      <use x="63.623047" xlink:href="#DejaVuSans-35"/>
     </g>
    </g>
    <g id="PathCollection_15">
     <defs>
      <path d="M 0 3 
C 0.795609 3 1.55874 2.683901 2.12132 2.12132 
C 2.683901 1.55874 3 0.795609 3 0 
C 3 -0.795609 2.683901 -1.55874 2.12132 -2.12132 
C 1.55874 -2.683901 0.795609 -3 0 -3 
C -0.795609 -3 -1.55874 -2.683901 -2.12132 -2.12132 
C -2.683901 -1.55874 -3 -0.795609 -3 0 
C -3 0.795609 -2.683901 1.55874 -2.12132 2.12132 
C -1.55874 2.683901 -0.795609 3 0 3 
z
" id="mae078f7b0a" style="stroke:#d65244;"/>
     </defs>
     <g>
      <use style="fill:#d65244;stroke:#d65244;" x="713.710625" xlink:href="#mae078f7b0a" y="95.004063"/>
     </g>
    </g>
    <g id="text_35">
     <!-- 60 -->
     <g transform="translate(731.710625 97.629063)scale(0.1 -0.1)">
      <defs>
       <path d="M 2113 2584 
Q 1688 2584 1439 2293 
Q 1191 2003 1191 1497 
Q 1191 994 1439 701 
Q 1688 409 2113 409 
Q 2538 409 2786 701 
Q 3034 994 3034 1497 
Q 3034 2003 2786 2293 
Q 2538 2584 2113 2584 
z
M 3366 4563 
L 3366 3988 
Q 3128 4100 2886 4159 
Q 2644 4219 2406 4219 
Q 1781 4219 1451 3797 
Q 1122 3375 1075 2522 
Q 1259 2794 1537 2939 
Q 1816 3084 2150 3084 
Q 2853 3084 3261 2657 
Q 3669 2231 3669 1497 
Q 3669 778 3244 343 
Q 2819 -91 2113 -91 
Q 1303 -91 875 529 
Q 447 1150 447 2328 
Q 447 3434 972 4092 
Q 1497 4750 2381 4750 
Q 2619 4750 2861 4703 
Q 3103 4656 3366 4563 
z
" id="DejaVuSans-36" transform="scale(0.015625)"/>
      </defs>
      <use xlink:href="#DejaVuSans-36"/>
      <use x="63.623047" xlink:href="#DejaVuSans-30"/>
     </g>
    </g>
    <g id="text_36">
     <!-- Gene Ratio -->
     <g transform="translate(731.710625 112.307187)scale(0.1 -0.1)">
      <defs>
       <path d="M 3809 666 
L 3809 1919 
L 2778 1919 
L 2778 2438 
L 4434 2438 
L 4434 434 
Q 4069 175 3628 42 
Q 3188 -91 2688 -91 
Q 1594 -91 976 548 
Q 359 1188 359 2328 
Q 359 3472 976 4111 
Q 1594 4750 2688 4750 
Q 3144 4750 3555 4637 
Q 3966 4525 4313 4306 
L 4313 3634 
Q 3963 3931 3569 4081 
Q 3175 4231 2741 4231 
Q 1884 4231 1454 3753 
Q 1025 3275 1025 2328 
Q 1025 1384 1454 906 
Q 1884 428 2741 428 
Q 3075 428 3337 486 
Q 3600 544 3809 666 
z
" id="DejaVuSans-47" transform="scale(0.015625)"/>
      </defs>
      <use xlink:href="#DejaVuSans-47"/>
      <use x="77.490234" xlink:href="#DejaVuSans-65"/>
      <use x="139.013672" xlink:href="#DejaVuSans-6e"/>
      <use x="202.392578" xlink:href="#DejaVuSans-65"/>
      <use x="263.916016" xlink:href="#DejaVuSans-20"/>
      <use x="295.703125" xlink:href="#DejaVuSans-52"/>
      <use x="362.935547" xlink:href="#DejaVuSans-61"/>
      <use x="424.214844" xlink:href="#DejaVuSans-74"/>
      <use x="463.423828" xlink:href="#DejaVuSans-69"/>
      <use x="491.207031" xlink:href="#DejaVuSans-6f"/>
     </g>
    </g>
    <g id="PathCollection_16">
     <defs>
      <path d="M 0 2.706717 
C 0.71783 2.706717 1.406356 2.42152 1.913938 1.913938 
C 2.42152 1.406356 2.706717 0.71783 2.706717 0 
C 2.706717 -0.71783 2.42152 -1.406356 1.913938 -1.913938 
C 1.406356 -2.42152 0.71783 -2.706717 0 -2.706717 
C -0.71783 -2.706717 -1.406356 -2.42152 -1.913938 -1.913938 
C -2.42152 -1.406356 -2.706717 -0.71783 -2.706717 0 
C -2.706717 0.71783 -2.42152 1.406356 -1.913938 1.913938 
C -1.406356 2.42152 -0.71783 2.706717 0 2.706717 
z
" id="me3d18c8a83" style="stroke:#333333;"/>
     </defs>
     <g>
      <use style="fill:#333333;stroke:#333333;" x="713.710625" xlink:href="#me3d18c8a83" y="124.360313"/>
     </g>
    </g>
    <g id="text_37">
     <!-- 0.015 -->
     <g transform="translate(731.710625 126.985313)scale(0.1 -0.1)">
      <defs>
       <path d="M 684 794 
L 1344 794 
L 1344 0 
L 684 0 
L 684 794 
z
" id="DejaVuSans-2e" transform="scale(0.015625)"/>
      </defs>
      <use xlink:href="#DejaVuSans-30"/>
      <use x="63.623047" xlink:href="#DejaVuSans-2e"/>
      <use x="95.410156" xlink:href="#DejaVuSans-30"/>
      <use x="159.033203" xlink:href="#DejaVuSans-31"/>
      <use x="222.65625" xlink:href="#DejaVuSans-35"/>
     </g>
    </g>
    <g id="PathCollection_17">
     <defs>
      <path d="M 0 3.615755 
C 0.958909 3.615755 1.878674 3.234776 2.556725 2.556725 
C 3.234776 1.878674 3.615755 0.958909 3.615755 0 
C 3.615755 -0.958909 3.234776 -1.878674 2.556725 -2.556725 
C 1.878674 -3.234776 0.958909 -3.615755 0 -3.615755 
C -0.958909 -3.615755 -1.878674 -3.234776 -2.556725 -2.556725 
C -3.234776 -1.878674 -3.615755 -0.958909 -3.615755 0 
C -3.615755 0.958909 -3.234776 1.878674 -2.556725 2.556725 
C -1.878674 3.234776 -0.958909 3.615755 0 3.615755 
z
" id="m40c4a90b7d" style="stroke:#333333;"/>
     </defs>
     <g>
      <use style="fill:#333333;stroke:#333333;" x="713.710625" xlink:href="#m40c4a90b7d" y="139.038437"/>
     </g>
    </g>
    <g id="text_38">
     <!-- 0.030 -->
     <g transform="translate(731.710625 141.663437)scale(0.1 -0.1)">
      <use xlink:href="#DejaVuSans-30"/>
      <use x="63.623047" xlink:href="#DejaVuSans-2e"/>
      <use x="95.410156" xlink:href="#DejaVuSans-30"/>
      <use x="159.033203" xlink:href="#DejaVuSans-33"/>
      <use x="222.65625" xlink:href="#DejaVuSans-30"/>
     </g>
    </g>
    <g id="PathCollection_18">
     <defs>
      <path d="M 0 4.338324 
C 1.150537 4.338324 2.254106 3.881211 3.067658 3.067658 
C 3.881211 2.254106 4.338324 1.150537 4.338324 0 
C 4.338324 -1.150537 3.881211 -2.254106 3.067658 -3.067658 
C 2.254106 -3.881211 1.150537 -4.338324 0 -4.338324 
C -1.150537 -4.338324 -2.254106 -3.881211 -3.067658 -3.067658 
C -3.881211 -2.254106 -4.338324 -1.150537 -4.338324 0 
C -4.338324 1.150537 -3.881211 2.254106 -3.067658 3.067658 
C -2.254106 3.881211 -1.150537 4.338324 0 4.338324 
z
" id="mb3a0280432" style="stroke:#333333;"/>
     </defs>
     <g>
      <use style="fill:#333333;stroke:#333333;" x="713.710625" xlink:href="#mb3a0280432" y="153.716563"/>
     </g>
    </g>
    <g id="text_39">
     <!-- 0.045 -->
     <g transform="translate(731.710625 156.341563)scale(0.1 -0.1)">
      <use xlink:href="#DejaVuSans-30"/>
      <use x="63.623047" xlink:href="#DejaVuSans-2e"/>
      <use x="95.410156" xlink:href="#DejaVuSans-30"/>
      <use x="159.033203" xlink:href="#DejaVuSans-34"/>
      <use x="222.65625" xlink:href="#DejaVuSans-35"/>
     </g>
    </g>
    <g id="PathCollection_19">
     <defs>
      <path d="M 0 4.956654 
C 1.31452 4.956654 2.575378 4.43439 3.504884 3.504884 
C 4.43439 2.575378 4.956654 1.31452 4.956654 0 
C 4.956654 -1.31452 4.43439 -2.575378 3.504884 -3.504884 
C 2.575378 -4.43439 1.31452 -4.956654 0 -4.956654 
C -1.31452 -4.956654 -2.575378 -4.43439 -3.504884 -3.504884 
C -4.43439 -2.575378 -4.956654 -1.31452 -4.956654 0 
C -4.956654 1.31452 -4.43439 2.575378 -3.504884 3.504884 
C -2.575378 4.43439 -1.31452 4.956654 0 4.956654 
z
" id="m90d618dbf0" style="stroke:#333333;"/>
     </defs>
     <g>
      <use style="fill:#333333;stroke:#333333;" x="713.710625" xlink:href="#m90d618dbf0" y="168.394687"/>
     </g>
    </g>
    <g id="text_40">
     <!-- 0.060 -->
     <g transform="translate(731.710625 171.019687)scale(0.1 -0.1)">
      <use xlink:href="#DejaVuSans-30"/>
      <use x="63.623047" xlink:href="#DejaVuSans-2e"/>
      <use x="95.410156" xlink:href="#DejaVuSans-30"/>
      <use x="159.033203" xlink:href="#DejaVuSans-36"/>
      <use x="222.65625" xlink:href="#DejaVuSans-30"/>
     </g>
    </g>
    <g id="PathCollection_20">
     <defs>
      <path d="M 0 5.505978 
C 1.460202 5.505978 2.860795 4.925833 3.893314 3.893314 
C 4.925833 2.860795 5.505978 1.460202 5.505978 0 
C 5.505978 -1.460202 4.925833 -2.860795 3.893314 -3.893314 
C 2.860795 -4.925833 1.460202 -5.505978 0 -5.505978 
C -1.460202 -5.505978 -2.860795 -4.925833 -3.893314 -3.893314 
C -4.925833 -2.860795 -5.505978 -1.460202 -5.505978 0 
C -5.505978 1.460202 -4.925833 2.860795 -3.893314 3.893314 
C -2.860795 4.925833 -1.460202 5.505978 0 5.505978 
z
" id="mb30a143e89" style="stroke:#333333;"/>
     </defs>
     <g>
      <use style="fill:#333333;stroke:#333333;" x="713.710625" xlink:href="#mb30a143e89" y="183.072812"/>
     </g>
    </g>
    <g id="text_41">
     <!-- 0.075 -->
     <g transform="translate(731.710625 185.697812)scale(0.1 -0.1)">
      <defs>
       <path d="M 525 4666 
L 3525 4666 
L 3525 4397 
L 1831 0 
L 1172 0 
L 2766 4134 
L 525 4134 
L 525 4666 
z
" id="DejaVuSans-37" transform="scale(0.015625)"/>
      </defs>
      <use xlink:href="#DejaVuSans-30"/>
      <use x="63.623047" xlink:href="#DejaVuSans-2e"/>
      <use x="95.410156" xlink:href="#DejaVuSans-30"/>
      <use x="159.033203" xlink:href="#DejaVuSans-37"/>
      <use x="222.65625" xlink:href="#DejaVuSans-35"/>
     </g>
    </g>
    <g id="PathCollection_21">
     <defs>
      <path d="M 0 6.005261 
C 1.592614 6.005261 3.120213 5.372509 4.246361 4.246361 
C 5.372509 3.120213 6.005261 1.592614 6.005261 0 
C 6.005261 -1.592614 5.372509 -3.120213 4.246361 -4.246361 
C 3.120213 -5.372509 1.592614 -6.005261 0 -6.005261 
C -1.592614 -6.005261 -3.120213 -5.372509 -4.246361 -4.246361 
C -5.372509 -3.120213 -6.005261 -1.592614 -6.005261 0 
C -6.005261 1.592614 -5.372509 3.120213 -4.246361 4.246361 
C -3.120213 5.372509 -1.592614 6.005261 0 6.005261 
z
" id="mf4b46c08e0" style="stroke:#333333;"/>
     </defs>
     <g>
      <use style="fill:#333333;stroke:#333333;" x="713.710625" xlink:href="#mf4b46c08e0" y="197.750937"/>
     </g>
    </g>
    <g id="text_42">
     <!-- 0.090 -->
     <g transform="translate(731.710625 200.375937)scale(0.1 -0.1)">
      <defs>
       <path d="M 703 97 
L 703 672 
Q 941 559 1184 500 
Q 1428 441 1663 441 
Q 2288 441 2617 861 
Q 2947 1281 2994 2138 
Q 2813 1869 2534 1725 
Q 2256 1581 1919 1581 
Q 1219 1581 811 2004 
Q 403 2428 403 3163 
Q 403 3881 828 4315 
Q 1253 4750 1959 4750 
Q 2769 4750 3195 4129 
Q 3622 3509 3622 2328 
Q 3622 1225 3098 567 
Q 2575 -91 1691 -91 
Q 1453 -91 1209 -44 
Q 966 3 703 97 
z
M 1959 2075 
Q 2384 2075 2632 2365 
Q 2881 2656 2881 3163 
Q 2881 3666 2632 3958 
Q 2384 4250 1959 4250 
Q 1534 4250 1286 3958 
Q 1038 3666 1038 3163 
Q 1038 2656 1286 2365 
Q 1534 2075 1959 2075 
z
" id="DejaVuSans-39" transform="scale(0.015625)"/>
      </defs>
      <use xlink:href="#DejaVuSans-30"/>
      <use x="63.623047" xlink:href="#DejaVuSans-2e"/>
      <use x="95.410156" xlink:href="#DejaVuSans-30"/>
      <use x="159.033203" xlink:href="#DejaVuSans-39"/>
      <use x="222.65625" xlink:href="#DejaVuSans-30"/>
     </g>
    </g>
   </g>
  </g>
 </g>
 <defs>
  <clipPath id="pcad8946d6a">
   <rect height="266.112" width="357.12" x="337.590625" y="22.318125"/>
  </clipPath>
 </defs>
</svg>
